999
Created by ADMesh version 0.98.3
0
SECTION
2
HEADER
0
ENDSEC
0
SECTION
2
TABLES
0
TABLE
2
LAYER
70
1
0
LAYER
2
0
70
0
62
7
6
CONTINUOUS
0
ENDTAB
0
ENDSEC
0
SECTION
2
BLOCKS
0
ENDSEC
0
SECTION
2
ENTITIES
0
3DFACE
8
0
10
-697.542419
20
1371.343994
30
62.202290
11
-700.797119
21
1370.797974
31
62.468281
12
-700.802673
22
1370.796997
32
62.468651
13
-700.802673
23
1370.796997
33
62.468651
0
3DFACE
8
0
10
-700.802673
20
1370.796997
30
62.468651
11
-700.847717
21
1370.823975
31
61.845798
12
-697.542419
22
1371.343994
32
62.202290
13
-697.542419
23
1371.343994
33
62.202290
0
3DFACE
8
0
10
-697.542419
20
1371.343994
30
62.202290
11
-700.847717
21
1370.823975
31
61.845798
12
-700.355225
22
1370.906006
32
61.812210
13
-700.355225
23
1370.906006
33
61.812210
0
3DFACE
8
0
10
-697.542419
20
1371.343994
30
62.202290
11
-696.895325
21
1371.487061
31
61.519032
12
-687.608276
22
1373.004028
32
61.500839
13
-687.608276
23
1373.004028
33
61.500839
0
3DFACE
8
0
10
-687.608276
20
1373.004028
30
61.500839
11
-696.895325
21
1371.487061
31
61.519032
12
-695.903870
22
1371.652954
32
61.434750
13
-695.903870
23
1371.652954
33
61.434750
0
3DFACE
8
0
10
-687.608276
20
1373.004028
30
61.500839
11
-686.888916
21
1373.157959
31
60.836910
12
-677.842529
22
1374.624023
32
61.024330
13
-677.842529
23
1374.624023
33
61.024330
0
3DFACE
8
0
10
-677.842529
20
1374.624023
30
61.024330
11
-686.888916
21
1373.157959
31
60.836910
12
-684.878723
22
1373.490967
32
60.732780
13
-684.878723
23
1373.490967
33
60.732780
0
3DFACE
8
0
10
-677.842529
20
1374.624023
30
61.024330
11
-675.536316
21
1375.040039
31
60.297352
12
-661.650513
22
1377.303955
32
60.348000
13
-661.650513
23
1377.303955
33
60.348000
0
3DFACE
8
0
10
-661.650513
20
1377.303955
30
60.348000
11
-675.536316
21
1375.040039
31
60.297352
12
-673.204407
22
1375.426025
32
60.196701
13
-673.204407
23
1375.426025
33
60.196701
0
3DFACE
8
0
10
-661.650513
20
1377.303955
30
60.348000
11
-652.310425
21
1378.883057
31
59.358181
12
-638.452026
22
1381.139038
32
59.457371
13
-638.452026
23
1381.139038
33
59.457371
0
3DFACE
8
0
10
-638.452026
20
1381.139038
30
59.457371
11
-652.310425
21
1378.883057
31
59.358181
12
-647.686218
22
1379.646973
32
59.181141
13
-647.686218
23
1379.646973
33
59.181141
0
3DFACE
8
0
10
-638.452026
20
1381.139038
30
59.457371
11
-608.291870
21
1386.156982
31
57.725491
12
-608.264526
22
1386.126953
32
58.349201
13
-608.264526
23
1386.126953
33
58.349201
0
3DFACE
8
0
10
-697.542419
20
1371.343994
30
62.202290
11
-700.355225
21
1370.906006
31
61.812210
12
-699.862671
22
1370.989014
32
61.775051
13
-699.862671
23
1370.989014
33
61.775051
0
3DFACE
8
0
10
-697.542419
20
1371.343994
30
62.202290
11
-699.862671
21
1370.989014
31
61.775051
12
-699.369629
22
1371.071045
32
61.734859
13
-699.369629
23
1371.071045
33
61.734859
0
3DFACE
8
0
10
-697.542419
20
1371.343994
30
62.202290
11
-699.369629
21
1371.071045
31
61.734859
12
-698.875793
22
1371.154053
32
61.692600
13
-698.875793
23
1371.154053
33
61.692600
0
3DFACE
8
0
10
-697.542419
20
1371.343994
30
62.202290
11
-698.875793
21
1371.154053
31
61.692600
12
-697.886230
22
1371.321045
32
61.605579
13
-697.886230
23
1371.321045
33
61.605579
0
3DFACE
8
0
10
-697.542419
20
1371.343994
30
62.202290
11
-697.886230
21
1371.321045
31
61.605579
12
-696.895325
22
1371.487061
32
61.519032
13
-696.895325
23
1371.487061
33
61.519032
0
3DFACE
8
0
10
-687.608276
20
1373.004028
30
61.500839
11
-695.903870
21
1371.652954
31
61.434750
12
-694.912292
22
1371.819946
32
61.353470
13
-694.912292
23
1371.819946
33
61.353470
0
3DFACE
8
0
10
-687.608276
20
1373.004028
30
61.500839
11
-694.912292
21
1371.819946
31
61.353470
12
-693.920227
22
1371.985962
32
61.275871
13
-693.920227
23
1371.985962
33
61.275871
0
3DFACE
8
0
10
-687.608276
20
1373.004028
30
61.500839
11
-693.920227
21
1371.985962
31
61.275871
12
-692.927917
22
1372.151978
32
61.202530
13
-692.927917
23
1372.151978
33
61.202530
0
3DFACE
8
0
10
-687.608276
20
1373.004028
30
61.500839
11
-692.927917
21
1372.151978
31
61.202530
12
-691.920593
22
1372.319946
32
61.132710
13
-691.920593
23
1372.319946
33
61.132710
0
3DFACE
8
0
10
-687.608276
20
1373.004028
30
61.500839
11
-691.920593
21
1372.319946
31
61.132710
12
-690.913513
22
1372.488037
32
61.067299
13
-690.913513
23
1372.488037
33
61.067299
0
3DFACE
8
0
10
-687.608276
20
1373.004028
30
61.500839
11
-690.913513
21
1372.488037
31
61.067299
12
-689.906677
22
1372.656006
32
61.005711
13
-689.906677
23
1372.656006
33
61.005711
0
3DFACE
8
0
10
-687.608276
20
1373.004028
30
61.500839
11
-689.906677
21
1372.656006
31
61.005711
12
-688.900330
22
1372.822998
32
60.947231
13
-688.900330
23
1372.822998
33
60.947231
0
3DFACE
8
0
10
-687.608276
20
1373.004028
30
61.500839
11
-688.900330
21
1372.822998
31
60.947231
12
-687.894409
22
1372.989990
32
60.891140
13
-687.894409
23
1372.989990
33
60.891140
0
3DFACE
8
0
10
-687.608276
20
1373.004028
30
61.500839
11
-687.894409
21
1372.989990
31
60.891140
12
-686.888916
22
1373.157959
32
60.836910
13
-686.888916
23
1373.157959
33
60.836910
0
3DFACE
8
0
10
-677.842529
20
1374.624023
30
61.024330
11
-684.878723
21
1373.490967
31
60.732780
12
-682.540894
22
1373.879028
32
60.617359
13
-682.540894
23
1373.879028
33
60.617359
0
3DFACE
8
0
10
-677.842529
20
1374.624023
30
61.024330
11
-682.540894
21
1373.879028
31
60.617359
12
-680.204529
22
1374.266968
32
60.506969
13
-680.204529
23
1374.266968
33
60.506969
0
3DFACE
8
0
10
-677.842529
20
1374.624023
30
61.024330
11
-680.204529
21
1374.266968
31
60.506969
12
-677.869629
22
1374.654053
32
60.400581
13
-677.869629
23
1374.654053
33
60.400581
0
3DFACE
8
0
10
-677.842529
20
1374.624023
30
61.024330
11
-677.869629
21
1374.654053
31
60.400581
12
-675.536316
22
1375.040039
32
60.297352
13
-675.536316
23
1375.040039
33
60.297352
0
3DFACE
8
0
10
-661.650513
20
1377.303955
30
60.348000
11
-673.204407
21
1375.426025
31
60.196701
12
-670.877014
22
1375.812012
32
60.098339
13
-670.877014
23
1375.812012
33
60.098339
0
3DFACE
8
0
10
-661.650513
20
1377.303955
30
60.348000
11
-670.877014
21
1375.812012
31
60.098339
12
-666.223694
22
1376.582031
32
59.906712
13
-666.223694
23
1376.582031
33
59.906712
0
3DFACE
8
0
10
-661.650513
20
1377.303955
30
60.348000
11
-666.223694
21
1376.582031
31
59.906712
12
-661.579102
22
1377.349976
32
59.720360
13
-661.579102
23
1377.349976
33
59.720360
0
3DFACE
8
0
10
-661.650513
20
1377.303955
30
60.348000
11
-661.579102
21
1377.349976
31
59.720360
12
-656.940430
22
1378.116943
32
59.537731
13
-656.940430
23
1378.116943
33
59.537731
0
3DFACE
8
0
10
-661.650513
20
1377.303955
30
60.348000
11
-656.940430
21
1378.116943
31
59.537731
12
-652.310425
22
1378.883057
32
59.358181
13
-652.310425
23
1378.883057
33
59.358181
0
3DFACE
8
0
10
-638.452026
20
1381.139038
30
59.457371
11
-647.686218
21
1379.646973
31
59.181141
12
-638.460999
22
1381.171997
32
58.832970
13
-638.460999
23
1381.171997
33
58.832970
0
3DFACE
8
0
10
-638.452026
20
1381.139038
30
59.457371
11
-638.460999
21
1381.171997
31
58.832970
12
-629.267090
22
1382.691040
32
58.490330
13
-629.267090
23
1382.691040
33
58.490330
0
3DFACE
8
0
10
-638.452026
20
1381.139038
30
59.457371
11
-629.267090
21
1382.691040
31
58.490330
12
-620.096680
22
1384.207031
32
58.153030
13
-620.096680
23
1384.207031
33
58.153030
0
3DFACE
8
0
10
-638.452026
20
1381.139038
30
59.457371
11
-620.096680
21
1384.207031
31
58.153030
12
-614.189270
22
1385.182007
32
57.938370
13
-614.189270
23
1385.182007
33
57.938370
0
3DFACE
8
0
10
-638.452026
20
1381.139038
30
59.457371
11
-614.189270
21
1385.182007
31
57.938370
12
-608.291870
22
1386.156982
32
57.725491
13
-608.291870
23
1386.156982
33
57.725491
0
3DFACE
8
0
10
-608.264526
20
1386.126953
30
58.349201
11
-608.292419
21
1386.160034
31
57.725681
12
-638.452026
22
1381.139038
32
59.457371
13
-638.452026
23
1381.139038
33
59.457371
0
3DFACE
8
0
10
-638.452026
20
1381.139038
30
59.457371
11
-622.590027
21
1383.797974
31
58.244419
12
-635.838013
22
1381.609009
32
58.734989
13
-635.838013
23
1381.609009
33
58.734989
0
3DFACE
8
0
10
-638.452026
20
1381.139038
30
59.457371
11
-635.838013
21
1381.609009
31
58.734989
12
-661.650513
22
1377.303955
32
60.348000
13
-661.650513
23
1377.303955
33
60.348000
0
3DFACE
8
0
10
-661.650513
20
1377.303955
30
60.348000
11
-658.910583
21
1377.793945
31
59.615089
12
-663.616028
22
1377.015991
32
59.801762
13
-663.616028
23
1377.015991
33
59.801762
0
3DFACE
8
0
10
-661.650513
20
1377.303955
30
60.348000
11
-663.616028
21
1377.015991
31
59.801762
12
-677.842529
22
1374.624023
32
61.024330
13
-677.842529
23
1374.624023
33
61.024330
0
3DFACE
8
0
10
-677.842529
20
1374.624023
30
61.024330
11
-675.668274
21
1375.021973
31
60.303299
12
-678.087524
22
1374.620972
32
60.410549
13
-678.087524
23
1374.620972
33
60.410549
0
3DFACE
8
0
10
-677.842529
20
1374.624023
30
61.024330
11
-678.087524
21
1374.620972
31
60.410549
12
-687.608276
22
1373.004028
32
61.500839
13
-687.608276
23
1373.004028
33
61.500839
0
3DFACE
8
0
10
-687.608276
20
1373.004028
30
61.500839
11
-684.914978
21
1373.489014
31
60.734810
12
-686.910522
22
1373.157959
32
60.838261
13
-686.910522
23
1373.157959
33
60.838261
0
3DFACE
8
0
10
-687.608276
20
1373.004028
30
61.500839
11
-686.910522
21
1373.157959
31
60.838261
12
-697.542419
22
1371.343994
32
62.202290
13
-697.542419
23
1371.343994
33
62.202290
0
3DFACE
8
0
10
-697.542419
20
1371.343994
30
62.202290
11
-696.889404
21
1371.494019
31
61.518799
12
-697.886902
22
1371.326050
32
61.605930
13
-697.886902
23
1371.326050
33
61.605930
0
3DFACE
8
0
10
-697.542419
20
1371.343994
30
62.202290
11
-697.886902
21
1371.326050
31
61.605930
12
-700.797119
22
1370.797974
32
62.468281
13
-700.797119
23
1370.797974
33
62.468281
0
3DFACE
8
0
10
-700.797119
20
1370.797974
30
62.468281
11
-700.355591
21
1370.911011
31
61.812481
12
-700.848022
22
1370.828003
32
61.846039
13
-700.848022
23
1370.828003
33
61.846039
0
3DFACE
8
0
10
-700.797119
20
1370.797974
30
62.468281
11
-700.848022
21
1370.828003
31
61.846039
12
-700.802673
22
1370.796997
32
62.468651
13
-700.802673
23
1370.796997
33
62.468651
0
3DFACE
8
0
10
-700.797119
20
1370.797974
30
62.468281
11
-699.864624
21
1370.994019
31
61.775459
12
-700.355591
22
1370.911011
32
61.812481
13
-700.355591
23
1370.911011
33
61.812481
0
3DFACE
8
0
10
-700.797119
20
1370.797974
30
62.468281
11
-699.372925
21
1371.076050
31
61.735401
12
-699.864624
22
1370.994019
32
61.775459
13
-699.864624
23
1370.994019
33
61.775459
0
3DFACE
8
0
10
-700.797119
20
1370.797974
30
62.468281
11
-697.886902
21
1371.326050
31
61.605930
12
-699.372925
22
1371.076050
32
61.735401
13
-699.372925
23
1371.076050
33
61.735401
0
3DFACE
8
0
10
-697.542419
20
1371.343994
30
62.202290
11
-695.379578
21
1371.746948
31
61.391621
12
-696.889404
22
1371.494019
32
61.518799
13
-696.889404
23
1371.494019
33
61.518799
0
3DFACE
8
0
10
-697.542419
20
1371.343994
30
62.202290
11
-694.257629
21
1371.935059
31
61.302059
12
-695.379578
22
1371.746948
32
61.391621
13
-695.379578
23
1371.746948
33
61.391621
0
3DFACE
8
0
10
-697.542419
20
1371.343994
30
62.202290
11
-693.138977
21
1372.120972
31
61.218010
12
-694.257629
22
1371.935059
32
61.302059
13
-694.257629
23
1371.935059
33
61.302059
0
3DFACE
8
0
10
-697.542419
20
1371.343994
30
62.202290
11
-692.394592
21
1372.245972
31
61.165230
12
-693.138977
22
1372.120972
32
61.218010
13
-693.138977
23
1372.120972
33
61.218010
0
3DFACE
8
0
10
-697.542419
20
1371.343994
30
62.202290
11
-691.650330
21
1372.369995
31
61.114971
12
-692.394592
22
1372.245972
32
61.165230
13
-692.394592
23
1372.245972
33
61.165230
0
3DFACE
8
0
10
-697.542419
20
1371.343994
30
62.202290
11
-690.905701
21
1372.494019
31
61.067020
12
-691.650330
22
1372.369995
32
61.114971
13
-691.650330
23
1372.369995
33
61.114971
0
3DFACE
8
0
10
-697.542419
20
1371.343994
30
62.202290
11
-689.905884
21
1372.660034
31
61.005878
12
-690.905701
22
1372.494019
32
61.067020
13
-690.905701
23
1372.494019
33
61.067020
0
3DFACE
8
0
10
-697.542419
20
1371.343994
30
62.202290
11
-688.906799
21
1372.826050
31
60.947800
12
-689.905884
22
1372.660034
32
61.005878
13
-689.905884
23
1372.660034
33
61.005878
0
3DFACE
8
0
10
-697.542419
20
1371.343994
30
62.202290
11
-687.908630
21
1372.991943
31
60.892109
12
-688.906799
22
1372.826050
32
60.947800
13
-688.906799
23
1372.826050
33
60.947800
0
3DFACE
8
0
10
-697.542419
20
1371.343994
30
62.202290
11
-686.910522
21
1373.157959
31
60.838261
12
-687.908630
22
1372.991943
32
60.892109
13
-687.908630
23
1372.991943
33
60.892109
0
3DFACE
8
0
10
-687.608276
20
1373.004028
30
61.500839
11
-682.919922
21
1373.819946
31
60.635899
12
-684.914978
22
1373.489014
32
60.734810
13
-684.914978
23
1373.489014
33
60.734810
0
3DFACE
8
0
10
-687.608276
20
1373.004028
30
61.500839
11
-680.505310
21
1374.219971
31
60.521141
12
-682.919922
22
1373.819946
32
60.635899
13
-682.919922
23
1373.819946
33
60.635899
0
3DFACE
8
0
10
-687.608276
20
1373.004028
30
61.500839
11
-678.087524
21
1374.620972
31
60.410549
12
-680.505310
22
1374.219971
32
60.521141
13
-680.505310
23
1374.219971
33
60.521141
0
3DFACE
8
0
10
-677.842529
20
1374.624023
30
61.024330
11
-673.250488
21
1375.421997
31
60.198860
12
-675.668274
22
1375.021973
32
60.303299
13
-675.668274
23
1375.021973
33
60.303299
0
3DFACE
8
0
10
-677.842529
20
1374.624023
30
61.024330
11
-670.831421
21
1375.822021
31
60.096611
12
-673.250488
22
1375.421997
32
60.198860
13
-673.250488
23
1375.421997
33
60.198860
0
3DFACE
8
0
10
-677.842529
20
1374.624023
30
61.024330
11
-666.014771
21
1376.619019
31
59.898411
12
-670.831421
22
1375.822021
32
60.096611
13
-670.831421
23
1375.822021
33
60.096611
0
3DFACE
8
0
10
-677.842529
20
1374.624023
30
61.024330
11
-663.616028
21
1377.015991
31
59.801762
12
-666.014771
22
1376.619019
32
59.898411
13
-666.014771
23
1376.619019
33
59.898411
0
3DFACE
8
0
10
-661.650513
20
1377.303955
30
60.348000
11
-654.268799
21
1378.562012
31
59.433990
12
-658.910583
22
1377.793945
32
59.615089
13
-658.910583
23
1377.793945
33
59.615089
0
3DFACE
8
0
10
-661.650513
20
1377.303955
30
60.348000
11
-649.744080
21
1379.310059
31
59.259861
12
-654.268799
22
1378.562012
32
59.433990
13
-654.268799
23
1378.562012
33
59.433990
0
3DFACE
8
0
10
-661.650513
20
1377.303955
30
60.348000
11
-640.522827
21
1380.833984
31
58.910519
12
-649.744080
22
1379.310059
32
59.259861
13
-649.744080
23
1379.310059
33
59.259861
0
3DFACE
8
0
10
-661.650513
20
1377.303955
30
60.348000
11
-635.838013
21
1381.609009
31
58.734989
12
-640.522827
22
1380.833984
32
58.910519
13
-640.522827
23
1380.833984
33
58.910519
0
3DFACE
8
0
10
-638.452026
20
1381.139038
30
59.457371
11
-613.406372
21
1385.314941
31
57.910229
12
-622.590027
22
1383.797974
32
58.244419
13
-622.590027
23
1383.797974
33
58.244419
0
3DFACE
8
0
10
-638.452026
20
1381.139038
30
59.457371
11
-608.292419
21
1386.160034
31
57.725681
12
-613.406372
22
1385.314941
32
57.910229
13
-613.406372
23
1385.314941
33
57.910229
0
3DFACE
8
0
10
-608.291870
20
1386.156982
30
57.725491
11
-608.292419
21
1386.160034
31
57.725681
12
-608.264526
22
1386.126953
32
58.349201
13
-608.264526
23
1386.126953
33
58.349201
0
3DFACE
8
0
10
-700.355591
20
1370.911011
30
61.812481
11
-700.355225
21
1370.906006
31
61.812210
12
-700.848022
22
1370.828003
32
61.846039
13
-700.848022
23
1370.828003
33
61.846039
0
3DFACE
8
0
10
-700.355225
20
1370.906006
30
61.812210
11
-700.847717
21
1370.823975
31
61.845798
12
-700.848022
22
1370.828003
32
61.846039
13
-700.848022
23
1370.828003
33
61.846039
0
3DFACE
8
0
10
-614.189270
20
1385.182007
30
57.938370
11
-613.406372
21
1385.314941
31
57.910229
12
-608.291870
22
1386.156982
32
57.725491
13
-608.291870
23
1386.156982
33
57.725491
0
3DFACE
8
0
10
-613.406372
20
1385.314941
30
57.910229
11
-608.292419
21
1386.160034
31
57.725681
12
-608.291870
22
1386.156982
32
57.725491
13
-608.291870
23
1386.156982
33
57.725491
0
3DFACE
8
0
10
-700.355225
20
1370.906006
30
61.812210
11
-700.355591
21
1370.911011
31
61.812481
12
-699.864624
22
1370.994019
32
61.775459
13
-699.864624
23
1370.994019
33
61.775459
0
3DFACE
8
0
10
-699.864624
20
1370.994019
30
61.775459
11
-699.862671
21
1370.989014
31
61.775051
12
-700.355225
22
1370.906006
32
61.812210
13
-700.355225
23
1370.906006
33
61.812210
0
3DFACE
8
0
10
-699.862671
20
1370.989014
30
61.775051
11
-699.864624
21
1370.994019
31
61.775459
12
-699.372925
22
1371.076050
32
61.735401
13
-699.372925
23
1371.076050
33
61.735401
0
3DFACE
8
0
10
-699.372925
20
1371.076050
30
61.735401
11
-699.369629
21
1371.071045
31
61.734859
12
-699.862671
22
1370.989014
32
61.775051
13
-699.862671
23
1370.989014
33
61.775051
0
3DFACE
8
0
10
-698.875793
20
1371.154053
30
61.692600
11
-699.369629
21
1371.071045
31
61.734859
12
-699.372925
22
1371.076050
32
61.735401
13
-699.372925
23
1371.076050
33
61.735401
0
3DFACE
8
0
10
-697.886902
20
1371.326050
30
61.605930
11
-698.875793
21
1371.154053
31
61.692600
12
-699.372925
22
1371.076050
32
61.735401
13
-699.372925
23
1371.076050
33
61.735401
0
3DFACE
8
0
10
-697.886230
20
1371.321045
30
61.605579
11
-698.875793
21
1371.154053
31
61.692600
12
-697.886902
22
1371.326050
32
61.605930
13
-697.886902
23
1371.326050
33
61.605930
0
3DFACE
8
0
10
-696.895325
20
1371.487061
30
61.519032
11
-697.886230
21
1371.321045
31
61.605579
12
-697.886902
22
1371.326050
32
61.605930
13
-697.886902
23
1371.326050
33
61.605930
0
3DFACE
8
0
10
-696.889404
20
1371.494019
30
61.518799
11
-696.895325
21
1371.487061
31
61.519032
12
-697.886902
22
1371.326050
32
61.605930
13
-697.886902
23
1371.326050
33
61.605930
0
3DFACE
8
0
10
-695.903870
20
1371.652954
30
61.434750
11
-696.895325
21
1371.487061
31
61.519032
12
-696.889404
22
1371.494019
32
61.518799
13
-696.889404
23
1371.494019
33
61.518799
0
3DFACE
8
0
10
-695.379578
20
1371.746948
30
61.391621
11
-695.903870
21
1371.652954
31
61.434750
12
-696.889404
22
1371.494019
32
61.518799
13
-696.889404
23
1371.494019
33
61.518799
0
3DFACE
8
0
10
-695.379578
20
1371.746948
30
61.391621
11
-694.912292
21
1371.819946
31
61.353470
12
-695.903870
22
1371.652954
32
61.434750
13
-695.903870
23
1371.652954
33
61.434750
0
3DFACE
8
0
10
-694.912292
20
1371.819946
30
61.353470
11
-695.379578
21
1371.746948
31
61.391621
12
-694.257629
22
1371.935059
32
61.302059
13
-694.257629
23
1371.935059
33
61.302059
0
3DFACE
8
0
10
-694.257629
20
1371.935059
30
61.302059
11
-693.920227
21
1371.985962
31
61.275871
12
-694.912292
22
1371.819946
32
61.353470
13
-694.912292
23
1371.819946
33
61.353470
0
3DFACE
8
0
10
-693.920227
20
1371.985962
30
61.275871
11
-694.257629
21
1371.935059
31
61.302059
12
-693.138977
22
1372.120972
32
61.218010
13
-693.138977
23
1372.120972
33
61.218010
0
3DFACE
8
0
10
-693.138977
20
1372.120972
30
61.218010
11
-692.927917
21
1372.151978
31
61.202530
12
-693.920227
22
1371.985962
32
61.275871
13
-693.920227
23
1371.985962
33
61.275871
0
3DFACE
8
0
10
-692.927917
20
1372.151978
30
61.202530
11
-693.138977
21
1372.120972
31
61.218010
12
-692.394592
22
1372.245972
32
61.165230
13
-692.394592
23
1372.245972
33
61.165230
0
3DFACE
8
0
10
-692.394592
20
1372.245972
30
61.165230
11
-691.920593
21
1372.319946
31
61.132710
12
-692.927917
22
1372.151978
32
61.202530
13
-692.927917
23
1372.151978
33
61.202530
0
3DFACE
8
0
10
-691.650330
20
1372.369995
30
61.114971
11
-691.920593
21
1372.319946
31
61.132710
12
-692.394592
22
1372.245972
32
61.165230
13
-692.394592
23
1372.245972
33
61.165230
0
3DFACE
8
0
10
-690.913513
20
1372.488037
30
61.067299
11
-691.920593
21
1372.319946
31
61.132710
12
-691.650330
22
1372.369995
32
61.114971
13
-691.650330
23
1372.369995
33
61.114971
0
3DFACE
8
0
10
-690.905701
20
1372.494019
30
61.067020
11
-690.913513
21
1372.488037
31
61.067299
12
-691.650330
22
1372.369995
32
61.114971
13
-691.650330
23
1372.369995
33
61.114971
0
3DFACE
8
0
10
-689.906677
20
1372.656006
30
61.005711
11
-690.913513
21
1372.488037
31
61.067299
12
-690.905701
22
1372.494019
32
61.067020
13
-690.905701
23
1372.494019
33
61.067020
0
3DFACE
8
0
10
-689.905884
20
1372.660034
30
61.005878
11
-689.906677
21
1372.656006
31
61.005711
12
-690.905701
22
1372.494019
32
61.067020
13
-690.905701
23
1372.494019
33
61.067020
0
3DFACE
8
0
10
-689.906677
20
1372.656006
30
61.005711
11
-689.905884
21
1372.660034
31
61.005878
12
-688.906799
22
1372.826050
32
60.947800
13
-688.906799
23
1372.826050
33
60.947800
0
3DFACE
8
0
10
-688.906799
20
1372.826050
30
60.947800
11
-688.900330
21
1372.822998
31
60.947231
12
-689.906677
22
1372.656006
32
61.005711
13
-689.906677
23
1372.656006
33
61.005711
0
3DFACE
8
0
10
-688.900330
20
1372.822998
30
60.947231
11
-688.906799
21
1372.826050
31
60.947800
12
-687.908630
22
1372.991943
32
60.892109
13
-687.908630
23
1372.991943
33
60.892109
0
3DFACE
8
0
10
-687.908630
20
1372.991943
30
60.892109
11
-687.894409
21
1372.989990
31
60.891140
12
-688.900330
22
1372.822998
32
60.947231
13
-688.900330
23
1372.822998
33
60.947231
0
3DFACE
8
0
10
-687.894409
20
1372.989990
30
60.891140
11
-687.908630
21
1372.991943
31
60.892109
12
-686.910522
22
1373.157959
32
60.838261
13
-686.910522
23
1373.157959
33
60.838261
0
3DFACE
8
0
10
-686.910522
20
1373.157959
30
60.838261
11
-686.888916
21
1373.157959
31
60.836910
12
-687.894409
22
1372.989990
32
60.891140
13
-687.894409
23
1372.989990
33
60.891140
0
3DFACE
8
0
10
-686.888916
20
1373.157959
30
60.836910
11
-686.910522
21
1373.157959
31
60.838261
12
-684.914978
22
1373.489014
32
60.734810
13
-684.914978
23
1373.489014
33
60.734810
0
3DFACE
8
0
10
-684.914978
20
1373.489014
30
60.734810
11
-684.878723
21
1373.490967
31
60.732780
12
-686.888916
22
1373.157959
32
60.836910
13
-686.888916
23
1373.157959
33
60.836910
0
3DFACE
8
0
10
-684.878723
20
1373.490967
30
60.732780
11
-684.914978
21
1373.489014
31
60.734810
12
-682.919922
22
1373.819946
32
60.635899
13
-682.919922
23
1373.819946
33
60.635899
0
3DFACE
8
0
10
-682.919922
20
1373.819946
30
60.635899
11
-682.540894
21
1373.879028
31
60.617359
12
-684.878723
22
1373.490967
32
60.732780
13
-684.878723
23
1373.490967
33
60.732780
0
3DFACE
8
0
10
-682.540894
20
1373.879028
30
60.617359
11
-682.919922
21
1373.819946
31
60.635899
12
-680.505310
22
1374.219971
32
60.521141
13
-680.505310
23
1374.219971
33
60.521141
0
3DFACE
8
0
10
-680.505310
20
1374.219971
30
60.521141
11
-680.204529
21
1374.266968
31
60.506969
12
-682.540894
22
1373.879028
32
60.617359
13
-682.540894
23
1373.879028
33
60.617359
0
3DFACE
8
0
10
-680.204529
20
1374.266968
30
60.506969
11
-680.505310
21
1374.219971
31
60.521141
12
-678.087524
22
1374.620972
32
60.410549
13
-678.087524
23
1374.620972
33
60.410549
0
3DFACE
8
0
10
-678.087524
20
1374.620972
30
60.410549
11
-677.869629
21
1374.654053
31
60.400581
12
-680.204529
22
1374.266968
32
60.506969
13
-680.204529
23
1374.266968
33
60.506969
0
3DFACE
8
0
10
-677.869629
20
1374.654053
30
60.400581
11
-678.087524
21
1374.620972
31
60.410549
12
-675.668274
22
1375.021973
32
60.303299
13
-675.668274
23
1375.021973
33
60.303299
0
3DFACE
8
0
10
-675.668274
20
1375.021973
30
60.303299
11
-675.536316
21
1375.040039
31
60.297352
12
-677.869629
22
1374.654053
32
60.400581
13
-677.869629
23
1374.654053
33
60.400581
0
3DFACE
8
0
10
-675.536316
20
1375.040039
30
60.297352
11
-675.668274
21
1375.021973
31
60.303299
12
-673.250488
22
1375.421997
32
60.198860
13
-673.250488
23
1375.421997
33
60.198860
0
3DFACE
8
0
10
-673.250488
20
1375.421997
30
60.198860
11
-673.204407
21
1375.426025
31
60.196701
12
-675.536316
22
1375.040039
32
60.297352
13
-675.536316
23
1375.040039
33
60.297352
0
3DFACE
8
0
10
-670.877014
20
1375.812012
30
60.098339
11
-673.204407
21
1375.426025
31
60.196701
12
-673.250488
22
1375.421997
32
60.198860
13
-673.250488
23
1375.421997
33
60.198860
0
3DFACE
8
0
10
-670.831421
20
1375.822021
30
60.096611
11
-670.877014
21
1375.812012
31
60.098339
12
-673.250488
22
1375.421997
32
60.198860
13
-673.250488
23
1375.421997
33
60.198860
0
3DFACE
8
0
10
-666.223694
20
1376.582031
30
59.906712
11
-670.877014
21
1375.812012
31
60.098339
12
-670.831421
22
1375.822021
32
60.096611
13
-670.831421
23
1375.822021
33
60.096611
0
3DFACE
8
0
10
-666.014771
20
1376.619019
30
59.898411
11
-666.223694
21
1376.582031
31
59.906712
12
-670.831421
22
1375.822021
32
60.096611
13
-670.831421
23
1375.822021
33
60.096611
0
3DFACE
8
0
10
-666.223694
20
1376.582031
30
59.906712
11
-666.014771
21
1376.619019
31
59.898411
12
-663.616028
22
1377.015991
32
59.801762
13
-663.616028
23
1377.015991
33
59.801762
0
3DFACE
8
0
10
-663.616028
20
1377.015991
30
59.801762
11
-661.579102
21
1377.349976
31
59.720360
12
-666.223694
22
1376.582031
32
59.906712
13
-666.223694
23
1376.582031
33
59.906712
0
3DFACE
8
0
10
-661.579102
20
1377.349976
30
59.720360
11
-663.616028
21
1377.015991
31
59.801762
12
-658.910583
22
1377.793945
32
59.615089
13
-658.910583
23
1377.793945
33
59.615089
0
3DFACE
8
0
10
-658.910583
20
1377.793945
30
59.615089
11
-656.940430
21
1378.116943
31
59.537731
12
-661.579102
22
1377.349976
32
59.720360
13
-661.579102
23
1377.349976
33
59.720360
0
3DFACE
8
0
10
-656.940430
20
1378.116943
30
59.537731
11
-658.910583
21
1377.793945
31
59.615089
12
-654.268799
22
1378.562012
32
59.433990
13
-654.268799
23
1378.562012
33
59.433990
0
3DFACE
8
0
10
-654.268799
20
1378.562012
30
59.433990
11
-652.310425
21
1378.883057
31
59.358181
12
-656.940430
22
1378.116943
32
59.537731
13
-656.940430
23
1378.116943
33
59.537731
0
3DFACE
8
0
10
-652.310425
20
1378.883057
30
59.358181
11
-654.268799
21
1378.562012
31
59.433990
12
-649.744080
22
1379.310059
32
59.259861
13
-649.744080
23
1379.310059
33
59.259861
0
3DFACE
8
0
10
-649.744080
20
1379.310059
30
59.259861
11
-647.686218
21
1379.646973
31
59.181141
12
-652.310425
22
1378.883057
32
59.358181
13
-652.310425
23
1378.883057
33
59.358181
0
3DFACE
8
0
10
-647.686218
20
1379.646973
30
59.181141
11
-649.744080
21
1379.310059
31
59.259861
12
-640.522827
22
1380.833984
32
58.910519
13
-640.522827
23
1380.833984
33
58.910519
0
3DFACE
8
0
10
-640.522827
20
1380.833984
30
58.910519
11
-638.460999
21
1381.171997
31
58.832970
12
-647.686218
22
1379.646973
32
59.181141
13
-647.686218
23
1379.646973
33
59.181141
0
3DFACE
8
0
10
-638.460999
20
1381.171997
30
58.832970
11
-640.522827
21
1380.833984
31
58.910519
12
-635.838013
22
1381.609009
32
58.734989
13
-635.838013
23
1381.609009
33
58.734989
0
3DFACE
8
0
10
-635.838013
20
1381.609009
30
58.734989
11
-629.267090
21
1382.691040
31
58.490330
12
-638.460999
22
1381.171997
32
58.832970
13
-638.460999
23
1381.171997
33
58.832970
0
3DFACE
8
0
10
-629.267090
20
1382.691040
30
58.490330
11
-635.838013
21
1381.609009
31
58.734989
12
-622.590027
22
1383.797974
32
58.244419
13
-622.590027
23
1383.797974
33
58.244419
0
3DFACE
8
0
10
-622.590027
20
1383.797974
30
58.244419
11
-620.096680
21
1384.207031
31
58.153030
12
-629.267090
22
1382.691040
32
58.490330
13
-629.267090
23
1382.691040
33
58.490330
0
3DFACE
8
0
10
-614.189270
20
1385.182007
30
57.938370
11
-620.096680
21
1384.207031
31
58.153030
12
-622.590027
22
1383.797974
32
58.244419
13
-622.590027
23
1383.797974
33
58.244419
0
3DFACE
8
0
10
-613.406372
20
1385.314941
30
57.910229
11
-614.189270
21
1385.182007
31
57.938370
12
-622.590027
22
1383.797974
32
58.244419
13
-622.590027
23
1383.797974
33
58.244419
0
3DFACE
8
0
10
-700.802673
20
1370.796997
30
62.468651
11
-700.848022
21
1370.828003
31
61.846039
12
-700.847717
22
1370.823975
32
61.845798
13
-700.847717
23
1370.823975
33
61.845798
0
3DFACE
8
0
10
-610.229797
20
302.967804
30
3.634528
11
-618.583374
21
301.604187
31
3.636566
12
-622.478027
22
300.962708
32
3.741425
13
-622.478027
23
300.962708
33
3.741425
0
3DFACE
8
0
10
-610.229797
20
302.967804
30
3.634528
11
-622.478027
21
300.962708
31
3.741425
12
-626.371277
22
300.318695
32
3.897320
13
-626.371277
23
300.318695
33
3.897320
0
3DFACE
8
0
10
-610.229797
20
302.967804
30
3.634528
11
-626.371277
21
300.318695
31
3.897320
12
-629.931580
22
299.727905
32
4.073261
13
-629.931580
23
299.727905
33
4.073261
0
3DFACE
8
0
10
-610.210388
20
302.938202
30
4.236315
11
-610.229797
21
302.967804
31
3.634528
12
-629.931580
22
299.727905
32
4.073261
13
-629.931580
23
299.727905
33
4.073261
0
3DFACE
8
0
10
-610.210388
20
302.938202
30
4.236315
11
-629.931580
21
299.727905
31
4.073261
12
-629.935486
22
299.727295
32
4.073514
13
-629.935486
23
299.727295
33
4.073514
0
3DFACE
8
0
10
-610.210388
20
302.938202
30
4.236315
11
-629.935486
21
299.727295
31
4.073514
12
-629.939819
22
299.726593
32
4.073793
13
-629.939819
23
299.726593
33
4.073793
0
3DFACE
8
0
10
-610.210388
20
302.938202
30
4.236315
11
-629.939819
21
299.726593
31
4.073793
12
-629.943726
22
299.725891
32
4.074041
13
-629.943726
23
299.725891
33
4.074041
0
3DFACE
8
0
10
-629.943726
20
299.725891
30
4.074041
11
-629.905518
21
299.698212
31
4.697266
12
-626.354004
22
300.287506
32
4.521512
13
-626.354004
23
300.287506
33
4.521512
0
3DFACE
8
0
10
-629.943726
20
299.725891
30
4.074041
11
-626.354004
21
300.287506
31
4.521512
12
-618.573425
22
301.571686
32
4.260693
13
-618.573425
23
301.571686
33
4.260693
0
3DFACE
8
0
10
-629.943726
20
299.725891
30
4.074041
11
-616.170227
21
301.965912
31
4.225739
12
-610.210388
22
302.938202
32
4.236315
13
-610.210388
23
302.938202
33
4.236315
0
3DFACE
8
0
10
-612.805603
20
302.549713
30
3.591379
11
-610.232422
21
302.967590
31
3.631152
12
-610.232422
22
302.967712
32
3.628643
13
-610.232422
23
302.967712
33
3.628643
0
3DFACE
8
0
10
-612.805603
20
302.549713
30
3.591379
11
-610.232422
21
302.967712
31
3.628643
12
-610.231079
22
302.967987
32
3.626982
13
-610.231079
23
302.967987
33
3.626982
0
3DFACE
8
0
10
-612.805603
20
302.549713
30
3.591379
11
-610.231079
21
302.967987
31
3.626982
12
-610.225586
22
302.969086
32
3.623279
13
-610.225586
23
302.969086
33
3.623279
0
3DFACE
8
0
10
-612.805603
20
302.549713
30
3.591379
11
-610.225586
21
302.969086
31
3.623279
12
-610.207397
22
302.972687
32
3.612185
13
-610.207397
23
302.972687
33
3.612185
0
3DFACE
8
0
10
-618.583374
20
301.604187
30
3.636566
11
-610.229797
21
302.967804
31
3.634528
12
-610.231812
22
302.967590
32
3.632275
13
-610.231812
23
302.967590
33
3.632275
0
3DFACE
8
0
10
-618.583374
20
301.604187
30
3.636566
11
-610.231812
21
302.967590
31
3.632275
12
-610.232422
22
302.967590
32
3.631152
13
-610.232422
23
302.967590
33
3.631152
0
3DFACE
8
0
10
-618.583374
20
301.604187
30
3.636566
11
-610.232422
21
302.967590
31
3.631152
12
-612.805603
22
302.549713
32
3.591379
13
-612.805603
23
302.549713
33
3.591379
0
3DFACE
8
0
10
-629.943726
20
299.725891
30
4.074041
11
-618.573425
21
301.571686
31
4.260693
12
-616.170227
22
301.965912
32
4.225739
13
-616.170227
23
301.965912
33
4.225739
0
3DFACE
8
0
10
-629.943726
20
299.725891
30
4.074041
11
-629.905212
21
299.694489
31
4.697065
12
-629.905518
22
299.698212
32
4.697266
13
-629.905518
23
299.698212
33
4.697266
0
3DFACE
8
0
10
-622.696411
20
300.890015
30
4.373469
11
-626.354004
21
300.287506
31
4.521512
12
-629.905212
22
299.694489
32
4.697065
13
-629.905212
23
299.694489
33
4.697065
0
3DFACE
8
0
10
-626.354004
20
300.287506
30
4.521512
11
-629.905518
21
299.698212
31
4.697266
12
-629.905212
22
299.694489
32
4.697065
13
-629.905212
23
299.694489
33
4.697065
0
3DFACE
8
0
10
-616.170227
20
301.965912
30
4.225739
11
-614.898010
21
302.173187
31
4.216587
12
-610.210388
22
302.938202
32
4.236315
13
-610.210388
23
302.938202
33
4.236315
0
3DFACE
8
0
10
-616.169800
20
301.964813
30
4.225664
11
-614.898010
21
302.173187
31
4.216587
12
-616.170227
22
301.965912
32
4.225739
13
-616.170227
23
301.965912
33
4.225739
0
3DFACE
8
0
10
-618.794678
20
301.533508
30
4.265022
11
-616.169800
21
301.964813
31
4.225664
12
-616.170227
22
301.965912
32
4.225739
13
-616.170227
23
301.965912
33
4.225739
0
3DFACE
8
0
10
-616.170227
20
301.965912
30
4.225739
11
-618.573425
21
301.571686
31
4.260693
12
-618.794678
22
301.533508
32
4.265022
13
-618.794678
23
301.533508
33
4.265022
0
3DFACE
8
0
10
-622.696411
20
300.890015
30
4.373469
11
-618.794678
21
301.533508
31
4.265022
12
-618.573425
22
301.571686
32
4.260693
13
-618.573425
23
301.571686
33
4.260693
0
3DFACE
8
0
10
-626.354004
20
300.287506
30
4.521512
11
-622.696411
21
300.890015
31
4.373469
12
-618.573425
22
301.571686
32
4.260693
13
-618.573425
23
301.571686
33
4.260693
0
3DFACE
8
0
10
-626.371277
20
300.318695
30
3.897320
11
-622.696411
21
300.890015
31
4.373469
12
-629.931580
22
299.727905
32
4.073261
13
-629.931580
23
299.727905
33
4.073261
0
3DFACE
8
0
10
-626.371277
20
300.318695
30
3.897320
11
-622.478027
21
300.962708
31
3.741425
12
-622.696411
22
300.890015
32
4.373469
13
-622.696411
23
300.890015
33
4.373469
0
3DFACE
8
0
10
-622.696411
20
300.890015
30
4.373469
11
-622.478027
21
300.962708
31
3.741425
12
-618.583374
22
301.604187
32
3.636566
13
-618.583374
23
301.604187
33
3.636566
0
3DFACE
8
0
10
-622.696411
20
300.890015
30
4.373469
11
-618.583374
21
301.604187
31
3.636566
12
-618.794678
22
301.533508
32
4.265022
13
-618.794678
23
301.533508
33
4.265022
0
3DFACE
8
0
10
-629.905212
20
299.694489
30
4.697065
11
-629.943726
21
299.725891
31
4.074041
12
-629.939819
22
299.726593
32
4.073793
13
-629.939819
23
299.726593
33
4.073793
0
3DFACE
8
0
10
-629.905212
20
299.694489
30
4.697065
11
-629.939819
21
299.726593
31
4.073793
12
-629.935486
22
299.727295
32
4.073514
13
-629.935486
23
299.727295
33
4.073514
0
3DFACE
8
0
10
-629.905212
20
299.694489
30
4.697065
11
-629.935486
21
299.727295
31
4.073514
12
-629.931580
22
299.727905
32
4.073261
13
-629.931580
23
299.727905
33
4.073261
0
3DFACE
8
0
10
-629.905212
20
299.694489
30
4.697065
11
-629.931580
21
299.727905
31
4.073261
12
-622.696411
22
300.890015
32
4.373469
13
-622.696411
23
300.890015
33
4.373469
0
3DFACE
8
0
10
-618.583374
20
301.604187
30
3.636566
11
-614.898010
21
302.173187
31
4.216587
12
-616.169800
22
301.964813
32
4.225664
13
-616.169800
23
301.964813
33
4.225664
0
3DFACE
8
0
10
-614.898010
20
302.173187
30
4.216587
11
-618.583374
21
301.604187
31
3.636566
12
-612.805603
22
302.549713
32
3.591379
13
-612.805603
23
302.549713
33
3.591379
0
3DFACE
8
0
10
-614.898010
20
302.173187
30
4.216587
11
-612.805603
21
302.549713
31
3.591379
12
-610.232422
22
302.967590
32
3.631152
13
-610.232422
23
302.967590
33
3.631152
0
3DFACE
8
0
10
-614.898010
20
302.173187
30
4.216587
11
-610.232422
21
302.967590
31
3.631152
12
-610.231812
22
302.967590
32
3.632275
13
-610.231812
23
302.967590
33
3.632275
0
3DFACE
8
0
10
-614.898010
20
302.173187
30
4.216587
11
-610.231812
21
302.967590
31
3.632275
12
-610.229797
22
302.967804
32
3.634528
13
-610.229797
23
302.967804
33
3.634528
0
3DFACE
8
0
10
-614.898010
20
302.173187
30
4.216587
11
-610.229797
21
302.967804
31
3.634528
12
-610.210388
22
302.938202
32
4.236315
13
-610.210388
23
302.938202
33
4.236315
0
3DFACE
8
0
10
-612.805603
20
302.549713
30
3.591379
11
-610.207397
21
302.972687
31
3.612185
12
-610.225586
22
302.969086
32
3.623279
13
-610.225586
23
302.969086
33
3.623279
0
3DFACE
8
0
10
-612.805603
20
302.549713
30
3.591379
11
-610.225586
21
302.969086
31
3.623279
12
-610.231079
22
302.967987
32
3.626982
13
-610.231079
23
302.967987
33
3.626982
0
3DFACE
8
0
10
-612.805603
20
302.549713
30
3.591379
11
-610.231079
21
302.967987
31
3.626982
12
-610.232422
22
302.967712
32
3.628643
13
-610.232422
23
302.967712
33
3.628643
0
3DFACE
8
0
10
-612.805603
20
302.549713
30
3.591379
11
-610.232422
21
302.967712
31
3.628643
12
-610.232422
22
302.967590
32
3.631152
13
-610.232422
23
302.967590
33
3.631152
0
3DFACE
8
0
10
-618.583374
20
301.604187
30
3.636566
11
-616.169800
21
301.964813
31
4.225664
12
-618.794678
22
301.533508
32
4.265022
13
-618.794678
23
301.533508
33
4.265022
0
3DFACE
8
0
10
-700.769592
20
1370.296997
30
62.441341
11
-696.817078
21
1370.959961
31
62.114719
12
-700.814514
22
1370.322998
32
61.818508
13
-700.814514
23
1370.322998
33
61.818508
0
3DFACE
8
0
10
-700.814514
20
1370.322998
30
61.818508
11
-696.817078
21
1370.959961
31
62.114719
12
-696.861084
22
1370.987061
32
61.491661
13
-696.861084
23
1370.987061
33
61.491661
0
3DFACE
8
0
10
-696.861084
20
1370.987061
30
61.491661
11
-696.817078
21
1370.959961
31
62.114719
12
-686.833618
22
1372.626953
32
61.433571
13
-686.833618
23
1372.626953
33
61.433571
0
3DFACE
8
0
10
-696.861084
20
1370.987061
30
61.491661
11
-686.833618
21
1372.626953
31
61.433571
12
-686.851501
22
1372.657959
32
60.809269
13
-686.851501
23
1372.657959
33
60.809269
0
3DFACE
8
0
10
-686.851501
20
1372.657959
30
60.809269
11
-686.833618
21
1372.626953
31
61.433571
12
-675.480530
22
1374.509033
32
60.893780
13
-675.480530
23
1374.509033
33
60.893780
0
3DFACE
8
0
10
-686.851501
20
1372.657959
30
60.809269
11
-675.480530
21
1374.509033
31
60.893780
12
-675.493408
22
1374.541016
32
60.269421
13
-675.493408
23
1374.541016
33
60.269421
0
3DFACE
8
0
10
-675.493408
20
1374.541016
30
60.269421
11
-675.480530
21
1374.509033
31
60.893780
12
-652.245972
22
1378.353027
32
59.954140
13
-652.245972
23
1378.353027
33
59.954140
0
3DFACE
8
0
10
-675.493408
20
1374.541016
30
60.269421
11
-652.245972
21
1378.353027
31
59.954140
12
-652.255676
22
1378.385986
32
59.329739
13
-652.255676
23
1378.385986
33
59.329739
0
3DFACE
8
0
10
-652.255676
20
1378.385986
30
59.329739
11
-652.245972
21
1378.353027
31
59.954140
12
-608.184082
22
1385.635010
32
58.319809
13
-608.184082
23
1385.635010
33
58.319809
0
3DFACE
8
0
10
-652.255676
20
1378.385986
30
59.329739
11
-608.184082
21
1385.635010
31
58.319809
12
-608.211426
22
1385.663940
32
57.696098
13
-608.211426
23
1385.663940
33
57.696098
0
3DFACE
8
0
10
-629.976685
20
300.226410
30
4.101326
11
-630.021729
21
300.252991
31
3.478498
12
-624.256104
22
301.185303
32
3.641066
13
-624.256104
23
301.185303
33
3.641066
0
3DFACE
8
0
10
-624.256104
20
301.185303
30
3.641066
11
-630.021729
21
300.252991
31
3.478498
12
-613.829712
22
302.933807
32
2.785932
13
-613.829712
23
302.933807
33
2.785932
0
3DFACE
8
0
10
-613.829712
20
302.933807
30
2.785932
11
-630.021729
21
300.252991
31
3.478498
12
-624.308228
22
301.210693
32
3.018696
13
-624.308228
23
301.210693
33
3.018696
0
3DFACE
8
0
10
-613.829712
20
302.933807
30
2.785932
11
-624.308228
21
301.210693
31
3.018696
12
-605.292786
22
304.357086
32
2.238939
13
-605.292786
23
304.357086
33
2.238939
0
3DFACE
8
0
10
-605.292786
20
304.357086
30
2.238939
11
-624.308228
21
301.210693
31
3.018696
12
-613.897522
22
302.956604
32
2.164742
13
-613.897522
23
302.956604
33
2.164742
0
3DFACE
8
0
10
-605.292786
20
304.357086
30
2.238939
11
-613.897522
21
302.956604
31
2.164742
12
-594.002380
22
306.232513
32
1.644421
13
-594.002380
23
306.232513
33
1.644421
0
3DFACE
8
0
10
-594.002380
20
306.232513
30
1.644421
11
-613.897522
21
302.956604
31
2.164742
12
-605.372620
22
304.377991
32
1.618089
13
-605.372620
23
304.377991
33
1.618089
0
3DFACE
8
0
10
-594.002380
20
306.232513
30
1.644421
11
-605.372620
21
304.377991
31
1.618089
12
-577.080688
22
309.037292
32
0.864098
13
-577.080688
23
309.037292
33
0.864098
0
3DFACE
8
0
10
-577.080688
20
309.037292
30
0.864098
11
-605.372620
21
304.377991
31
1.618089
12
-594.093323
22
306.251495
32
1.023782
13
-594.093323
23
306.251495
33
1.023782
0
3DFACE
8
0
10
-577.080688
20
309.037292
30
0.864098
11
-594.093323
21
306.251495
31
1.023782
12
-547.857300
22
313.873413
32
-0.344226
13
-547.857300
23
313.873413
33
-0.344226
0
3DFACE
8
0
10
-547.857300
20
313.873413
30
-0.344226
11
-594.093323
21
306.251495
31
1.023782
12
-577.189880
22
309.053314
32
0.243943
13
-577.189880
23
309.053314
33
0.243943
0
3DFACE
8
0
10
-547.857300
20
313.873413
30
-0.344226
11
-577.189880
21
309.053314
31
0.243943
12
-499.441101
22
321.877808
32
-2.202769
13
-499.441101
23
321.877808
33
-2.202769
0
3DFACE
8
0
10
-499.441101
20
321.877808
30
-2.202769
11
-577.189880
21
309.053314
31
0.243943
12
-547.963196
22
313.889893
32
-0.964820
13
-547.963196
23
313.889893
33
-0.964820
0
3DFACE
8
0
10
-499.441101
20
321.877808
30
-2.202769
11
-547.963196
21
313.889893
31
-0.964820
12
-499.544708
22
321.894714
32
-2.823619
13
-499.544708
23
321.894714
33
-2.823619
0
3DFACE
8
0
10
-499.544708
20
321.894714
30
-2.823619
11
-462.013611
21
328.096893
31
-4.213786
12
-499.441101
22
321.877808
32
-2.202769
13
-499.441101
23
321.877808
33
-2.202769
0
3DFACE
8
0
10
-499.441101
20
321.877808
30
-2.202769
11
-462.013611
21
328.096893
31
-4.213786
12
-462.008209
22
328.063690
32
-3.589275
13
-462.008209
23
328.063690
33
-3.589275
0
3DFACE
8
0
10
-630.021729
20
300.252991
30
3.478498
11
-629.976685
21
300.226410
31
4.101326
12
-700.814514
22
1370.322998
32
61.818508
13
-700.814514
23
1370.322998
33
61.818508
0
3DFACE
8
0
10
-700.814514
20
1370.322998
30
61.818508
11
-629.976685
21
300.226410
31
4.101326
12
-700.769592
22
1370.296997
32
62.441341
13
-700.769592
23
1370.296997
33
62.441341
0
3DFACE
8
0
10
-624.308228
20
301.210693
30
3.018696
11
-630.021729
21
300.252991
31
3.478498
12
-700.814514
22
1370.322998
32
61.818508
13
-700.814514
23
1370.322998
33
61.818508
0
3DFACE
8
0
10
-605.372620
20
304.377991
30
1.618089
11
-613.897522
21
302.956604
31
2.164742
12
-686.851501
22
1372.657959
32
60.809269
13
-686.851501
23
1372.657959
33
60.809269
0
3DFACE
8
0
10
-547.963196
20
313.889893
30
-0.964820
11
-577.189880
21
309.053314
31
0.243943
12
-675.493408
22
1374.541016
32
60.269421
13
-675.493408
23
1374.541016
33
60.269421
0
3DFACE
8
0
10
-652.255676
20
1378.385986
30
59.329739
11
-547.963196
21
313.889893
31
-0.964820
12
-675.493408
22
1374.541016
32
60.269421
13
-675.493408
23
1374.541016
33
60.269421
0
3DFACE
8
0
10
-499.544708
20
321.894714
30
-2.823619
11
-547.963196
21
313.889893
31
-0.964820
12
-652.255676
22
1378.385986
32
59.329739
13
-652.255676
23
1378.385986
33
59.329739
0
3DFACE
8
0
10
-700.814514
20
1370.322998
30
61.818508
11
-696.861084
21
1370.987061
31
61.491661
12
-624.308228
22
301.210693
32
3.018696
13
-624.308228
23
301.210693
33
3.018696
0
3DFACE
8
0
10
-624.308228
20
301.210693
30
3.018696
11
-696.861084
21
1370.987061
31
61.491661
12
-686.851501
22
1372.657959
32
60.809269
13
-686.851501
23
1372.657959
33
60.809269
0
3DFACE
8
0
10
-624.308228
20
301.210693
30
3.018696
11
-686.851501
21
1372.657959
31
60.809269
12
-613.897522
22
302.956604
32
2.164742
13
-613.897522
23
302.956604
33
2.164742
0
3DFACE
8
0
10
-605.372620
20
304.377991
30
1.618089
11
-686.851501
21
1372.657959
31
60.809269
12
-594.093323
22
306.251495
32
1.023782
13
-594.093323
23
306.251495
33
1.023782
0
3DFACE
8
0
10
-594.093323
20
306.251495
30
1.023782
11
-686.851501
21
1372.657959
31
60.809269
12
-675.493408
22
1374.541016
32
60.269421
13
-675.493408
23
1374.541016
33
60.269421
0
3DFACE
8
0
10
-594.093323
20
306.251495
30
1.023782
11
-675.493408
21
1374.541016
31
60.269421
12
-577.189880
22
309.053314
32
0.243943
13
-577.189880
23
309.053314
33
0.243943
0
3DFACE
8
0
10
-608.211426
20
1385.663940
30
57.696098
11
-436.213196
21
331.856598
31
-5.174811
12
-461.933685
22
327.607391
32
-4.242990
13
-461.933685
23
327.607391
33
-4.242990
0
3DFACE
8
0
10
-608.211426
20
1385.663940
30
57.696098
11
-461.933685
21
327.607391
31
-4.242990
12
-462.013611
22
328.096893
32
-4.213786
13
-462.013611
23
328.096893
33
-4.213786
0
3DFACE
8
0
10
-608.211426
20
1385.663940
30
57.696098
11
-462.013611
21
328.096893
31
-4.213786
12
-499.544708
22
321.894714
32
-2.823619
13
-499.544708
23
321.894714
33
-2.823619
0
3DFACE
8
0
10
-608.211426
20
1385.663940
30
57.696098
11
-499.544708
21
321.894714
31
-2.823619
12
-652.255676
22
1378.385986
32
59.329739
13
-652.255676
23
1378.385986
33
59.329739
0
3DFACE
8
0
10
-462.013611
20
328.096893
30
-4.213786
11
-461.933685
21
327.607391
31
-4.242990
12
-462.008209
22
328.063690
32
-3.589275
13
-462.008209
23
328.063690
33
-3.589275
0
3DFACE
8
0
10
-462.008209
20
328.063690
30
-3.589275
11
-461.933685
21
327.607391
31
-4.242990
12
-461.927795
22
327.571106
32
-3.618667
13
-461.927795
23
327.571106
33
-3.618667
0
3DFACE
8
0
10
-700.769592
20
1370.296997
30
62.441341
11
-629.976685
21
300.226410
31
4.101326
12
-624.256104
22
301.185303
32
3.641066
13
-624.256104
23
301.185303
33
3.641066
0
3DFACE
8
0
10
-686.833618
20
1372.626953
30
61.433571
11
-613.829712
21
302.933807
31
2.785932
12
-605.292786
22
304.357086
32
2.238939
13
-605.292786
23
304.357086
33
2.238939
0
3DFACE
8
0
10
-675.480530
20
1374.509033
30
60.893780
11
-577.080688
21
309.037292
31
0.864098
12
-547.857300
22
313.873413
32
-0.344226
13
-547.857300
23
313.873413
33
-0.344226
0
3DFACE
8
0
10
-675.480530
20
1374.509033
30
60.893780
11
-547.857300
21
313.873413
31
-0.344226
12
-652.245972
22
1378.353027
32
59.954140
13
-652.245972
23
1378.353027
33
59.954140
0
3DFACE
8
0
10
-652.245972
20
1378.353027
30
59.954140
11
-547.857300
21
313.873413
31
-0.344226
12
-499.441101
22
321.877808
32
-2.202769
13
-499.441101
23
321.877808
33
-2.202769
0
3DFACE
8
0
10
-613.829712
20
302.933807
30
2.785932
11
-686.833618
21
1372.626953
31
61.433571
12
-624.256104
22
301.185303
32
3.641066
13
-624.256104
23
301.185303
33
3.641066
0
3DFACE
8
0
10
-624.256104
20
301.185303
30
3.641066
11
-686.833618
21
1372.626953
31
61.433571
12
-696.817078
22
1370.959961
32
62.114719
13
-696.817078
23
1370.959961
33
62.114719
0
3DFACE
8
0
10
-624.256104
20
301.185303
30
3.641066
11
-696.817078
21
1370.959961
31
62.114719
12
-700.769592
22
1370.296997
32
62.441341
13
-700.769592
23
1370.296997
33
62.441341
0
3DFACE
8
0
10
-577.080688
20
309.037292
30
0.864098
11
-675.480530
21
1374.509033
31
60.893780
12
-594.002380
22
306.232513
32
1.644421
13
-594.002380
23
306.232513
33
1.644421
0
3DFACE
8
0
10
-594.002380
20
306.232513
30
1.644421
11
-675.480530
21
1374.509033
31
60.893780
12
-686.833618
22
1372.626953
32
61.433571
13
-686.833618
23
1372.626953
33
61.433571
0
3DFACE
8
0
10
-594.002380
20
306.232513
30
1.644421
11
-686.833618
21
1372.626953
31
61.433571
12
-605.292786
22
304.357086
32
2.238939
13
-605.292786
23
304.357086
33
2.238939
0
3DFACE
8
0
10
-608.184082
20
1385.635010
30
58.319809
11
-652.245972
21
1378.353027
31
59.954140
12
-499.441101
22
321.877808
32
-2.202769
13
-499.441101
23
321.877808
33
-2.202769
0
3DFACE
8
0
10
-608.184082
20
1385.635010
30
58.319809
11
-499.441101
21
321.877808
31
-2.202769
12
-462.008209
22
328.063690
32
-3.589275
13
-462.008209
23
328.063690
33
-3.589275
0
3DFACE
8
0
10
-608.184082
20
1385.635010
30
58.319809
11
-462.008209
21
328.063690
31
-3.589275
12
-461.927795
22
327.571106
32
-3.618667
13
-461.927795
23
327.571106
33
-3.618667
0
3DFACE
8
0
10
-608.184082
20
1385.635010
30
58.319809
11
-461.927795
21
327.571106
31
-3.618667
12
-436.185394
22
331.823914
32
-4.551286
13
-436.185394
23
331.823914
33
-4.551286
0
3DFACE
8
0
10
-461.933685
20
327.607391
30
-4.242990
11
-436.213196
21
331.856598
31
-5.174811
12
-461.927795
22
327.571106
32
-3.618667
13
-461.927795
23
327.571106
33
-3.618667
0
3DFACE
8
0
10
-461.927795
20
327.571106
30
-3.618667
11
-436.213196
21
331.856598
31
-5.174811
12
-436.185394
22
331.823914
32
-4.551286
13
-436.185394
23
331.823914
33
-4.551286
0
3DFACE
8
0
10
-436.213196
20
331.856598
30
-5.174811
11
-608.211426
21
1385.663940
31
57.696098
12
-436.185394
22
331.823914
32
-4.551286
13
-436.185394
23
331.823914
33
-4.551286
0
3DFACE
8
0
10
-436.185394
20
331.823914
30
-4.551286
11
-608.211426
21
1385.663940
31
57.696098
12
-608.184082
22
1385.635010
32
58.319809
13
-608.184082
23
1385.635010
33
58.319809
0
3DFACE
8
0
10
-687.892883
20
1372.911987
30
62.329319
11
-685.041870
21
1373.371948
31
62.440460
12
-691.376587
22
1372.348022
32
62.248051
13
-691.376587
23
1372.348022
33
62.248051
0
3DFACE
8
0
10
-626.362305
20
1382.590942
30
69.017090
11
-614.290710
21
1384.457031
31
70.951370
12
-626.451599
22
1382.542969
32
69.633827
13
-626.451599
23
1382.542969
33
69.633827
0
3DFACE
8
0
10
-626.451599
20
1382.542969
30
69.633827
11
-614.290710
21
1384.457031
31
70.951370
12
-608.146484
22
1385.405029
32
71.959419
13
-608.146484
23
1385.405029
33
71.959419
0
3DFACE
8
0
10
-626.451599
20
1382.542969
30
69.633827
11
-608.146484
21
1385.405029
31
71.959419
12
-608.240417
22
1385.355957
32
72.575417
13
-608.240417
23
1385.355957
33
72.575417
0
3DFACE
8
0
10
-663.243286
20
1376.838989
30
64.108398
11
-657.711304
21
1377.708984
31
64.705643
12
-667.953918
22
1376.061035
32
64.275467
13
-667.953918
23
1376.061035
33
64.275467
0
3DFACE
8
0
10
-667.953918
20
1376.061035
30
64.275467
11
-657.711304
21
1377.708984
31
64.705643
12
-651.461975
22
1378.688965
32
65.452164
13
-651.461975
23
1378.688965
33
65.452164
0
3DFACE
8
0
10
-667.953918
20
1376.061035
30
64.275467
11
-651.461975
21
1378.688965
31
65.452164
12
-658.660583
22
1377.526001
32
65.226028
13
-658.660583
23
1377.526001
33
65.226028
0
3DFACE
8
0
10
-658.660583
20
1377.526001
30
65.226028
11
-651.461975
21
1378.688965
31
65.452164
12
-645.194580
22
1379.666992
32
66.266144
13
-645.194580
23
1379.666992
33
66.266144
0
3DFACE
8
0
10
-658.660583
20
1377.526001
30
65.226028
11
-645.194580
21
1379.666992
31
66.266144
12
-649.409424
22
1378.974976
32
66.340584
13
-649.409424
23
1378.974976
33
66.340584
0
3DFACE
8
0
10
-649.409424
20
1378.974976
30
66.340584
11
-645.194580
21
1379.666992
31
66.266144
12
-635.522217
22
1381.171997
32
67.627953
13
-635.522217
23
1381.171997
33
67.627953
0
3DFACE
8
0
10
-649.409424
20
1378.974976
30
66.340584
11
-635.522217
21
1381.171997
31
67.627953
12
-635.608276
22
1381.124023
32
68.245171
13
-635.608276
23
1381.124023
33
68.245171
0
3DFACE
8
0
10
-635.608276
20
1381.124023
30
68.245171
11
-635.522217
21
1381.171997
31
67.627953
12
-626.362305
22
1382.590942
32
69.017090
13
-626.362305
23
1382.590942
33
69.017090
0
3DFACE
8
0
10
-635.608276
20
1381.124023
30
68.245171
11
-626.362305
21
1382.590942
31
69.017090
12
-626.451599
22
1382.542969
32
69.633827
13
-626.451599
23
1382.542969
33
69.633827
0
3DFACE
8
0
10
-667.953918
20
1376.061035
30
64.275467
11
-675.728821
21
1374.827026
31
63.624050
12
-663.243286
22
1376.838989
32
64.108398
13
-663.243286
23
1376.838989
33
64.108398
0
3DFACE
8
0
10
-663.243286
20
1376.838989
30
64.108398
11
-675.728821
21
1374.827026
31
63.624050
12
-670.348572
22
1375.715942
32
63.433681
13
-670.348572
23
1375.715942
33
63.433681
0
3DFACE
8
0
10
-675.728821
20
1374.827026
30
63.624050
11
-681.959473
21
1373.832031
31
63.219570
12
-670.348572
22
1375.715942
32
63.433681
13
-670.348572
23
1375.715942
33
63.433681
0
3DFACE
8
0
10
-670.348572
20
1375.715942
30
63.433681
11
-681.959473
21
1373.832031
31
63.219570
12
-672.569214
22
1375.364014
32
63.245380
13
-672.569214
23
1375.364014
33
63.245380
0
3DFACE
8
0
10
-678.810608
20
1374.369995
30
62.784458
11
-672.569214
21
1375.364014
31
63.245380
12
-681.959473
22
1373.832031
32
63.219570
13
-681.959473
23
1373.832031
33
63.219570
0
3DFACE
8
0
10
-678.810608
20
1374.369995
30
62.784458
11
-681.959473
21
1373.832031
31
63.219570
12
-687.924988
22
1372.873047
32
62.952511
13
-687.924988
23
1372.873047
33
62.952511
0
3DFACE
8
0
10
-678.810608
20
1374.369995
30
62.784458
11
-687.924988
21
1372.873047
31
62.952511
12
-691.378723
22
1372.313965
32
62.872139
13
-691.378723
23
1372.313965
33
62.872139
0
3DFACE
8
0
10
-678.810608
20
1374.369995
30
62.784458
11
-691.378723
21
1372.313965
31
62.872139
12
-691.376587
22
1372.348022
32
62.248051
13
-691.376587
23
1372.348022
33
62.248051
0
3DFACE
8
0
10
-678.810608
20
1374.369995
30
62.784458
11
-691.376587
21
1372.348022
31
62.248051
12
-685.041870
22
1373.371948
32
62.440460
13
-685.041870
23
1373.371948
33
62.440460
0
3DFACE
8
0
10
-687.892883
20
1372.911987
30
62.329319
11
-686.325623
21
1373.131958
31
63.010719
12
-685.041870
22
1373.371948
32
62.440460
13
-685.041870
23
1373.371948
33
62.440460
0
3DFACE
8
0
10
-685.041870
20
1373.371948
30
62.440460
11
-686.325623
21
1373.131958
31
63.010719
12
-682.014771
22
1373.826050
32
63.216640
13
-682.014771
23
1373.826050
33
63.216640
0
3DFACE
8
0
10
-685.041870
20
1373.371948
30
62.440460
11
-682.014771
21
1373.826050
31
63.216640
12
-678.810608
22
1374.369995
32
62.784458
13
-678.810608
23
1374.369995
33
62.784458
0
3DFACE
8
0
10
-682.014771
20
1373.826050
30
63.216640
11
-677.349609
21
1374.572021
31
63.507999
12
-678.810608
22
1374.369995
32
62.784458
13
-678.810608
23
1374.369995
33
62.784458
0
3DFACE
8
0
10
-691.376587
20
1372.348022
30
62.248051
11
-691.378723
21
1372.313965
31
62.872139
12
-687.892883
22
1372.911987
32
62.329319
13
-687.892883
23
1372.911987
33
62.329319
0
3DFACE
8
0
10
-687.892883
20
1372.911987
30
62.329319
11
-691.378723
21
1372.313965
31
62.872139
12
-690.646912
22
1372.432983
32
62.883148
13
-690.646912
23
1372.432983
33
62.883148
0
3DFACE
8
0
10
-687.892883
20
1372.911987
30
62.329319
11
-690.646912
21
1372.432983
31
62.883148
12
-686.325623
22
1373.131958
32
63.010719
13
-686.325623
23
1373.131958
33
63.010719
0
3DFACE
8
0
10
-678.810608
20
1374.369995
30
62.784458
11
-677.349609
21
1374.572021
31
63.507999
12
-672.569214
22
1375.364014
32
63.245380
13
-672.569214
23
1375.364014
33
63.245380
0
3DFACE
8
0
10
-672.569214
20
1375.364014
30
63.245380
11
-677.349609
21
1374.572021
31
63.507999
12
-672.691223
22
1375.313965
32
63.861290
13
-672.691223
23
1375.313965
33
63.861290
0
3DFACE
8
0
10
-672.569214
20
1375.364014
30
63.245380
11
-672.691223
21
1375.313965
31
63.861290
12
-670.348572
22
1375.715942
32
63.433681
13
-670.348572
23
1375.715942
33
63.433681
0
3DFACE
8
0
10
-670.348572
20
1375.715942
30
63.433681
11
-672.691223
21
1375.313965
31
63.861290
12
-668.036316
22
1376.052002
32
64.268066
13
-668.036316
23
1376.052002
33
64.268066
0
3DFACE
8
0
10
-670.348572
20
1375.715942
30
63.433681
11
-668.036316
21
1376.052002
31
64.268066
12
-663.243286
22
1376.838989
32
64.108398
13
-663.243286
23
1376.838989
33
64.108398
0
3DFACE
8
0
10
-663.243286
20
1376.838989
30
64.108398
11
-668.036316
21
1376.052002
31
64.268066
12
-663.390381
22
1376.786011
32
64.720367
13
-663.390381
23
1376.786011
33
64.720367
0
3DFACE
8
0
10
-663.243286
20
1376.838989
30
64.108398
11
-663.390381
21
1376.786011
31
64.720367
12
-657.711304
22
1377.708984
32
64.705643
13
-657.711304
23
1377.708984
33
64.705643
0
3DFACE
8
0
10
-657.711304
20
1377.708984
30
64.705643
11
-663.390381
21
1376.786011
31
64.720367
12
-654.139099
22
1378.239990
32
65.751831
13
-654.139099
23
1378.239990
33
65.751831
0
3DFACE
8
0
10
-657.711304
20
1377.708984
30
64.705643
11
-654.139099
21
1378.239990
31
65.751831
12
-651.461975
22
1378.688965
32
65.452164
13
-651.461975
23
1378.688965
33
65.452164
0
3DFACE
8
0
10
-651.461975
20
1378.688965
30
65.452164
11
-654.139099
21
1378.239990
31
65.751831
12
-645.194580
22
1379.666992
32
66.266144
13
-645.194580
23
1379.666992
33
66.266144
0
3DFACE
8
0
10
-645.194580
20
1379.666992
30
66.266144
11
-654.139099
21
1378.239990
31
65.751831
12
-644.908813
22
1379.682983
32
66.933884
13
-644.908813
23
1379.682983
33
66.933884
0
3DFACE
8
0
10
-645.194580
20
1379.666992
30
66.266144
11
-644.908813
21
1379.682983
31
66.933884
12
-635.522217
22
1381.171997
32
67.627953
13
-635.522217
23
1381.171997
33
67.627953
0
3DFACE
8
0
10
-635.522217
20
1381.171997
30
67.627953
11
-644.908813
21
1379.682983
31
66.933884
12
-635.715576
22
1381.113037
32
68.229797
13
-635.715576
23
1381.113037
33
68.229797
0
3DFACE
8
0
10
-635.522217
20
1381.171997
30
67.627953
11
-635.715576
21
1381.113037
31
68.229797
12
-626.362305
22
1382.590942
32
69.017090
13
-626.362305
23
1382.590942
33
69.017090
0
3DFACE
8
0
10
-626.362305
20
1382.590942
30
69.017090
11
-635.715576
21
1381.113037
31
68.229797
12
-626.528687
22
1382.536987
32
69.622200
13
-626.528687
23
1382.536987
33
69.622200
0
3DFACE
8
0
10
-626.362305
20
1382.590942
30
69.017090
11
-626.528687
21
1382.536987
31
69.622200
12
-614.290710
22
1384.457031
32
70.951370
13
-614.290710
23
1384.457031
33
70.951370
0
3DFACE
8
0
10
-614.290710
20
1384.457031
30
70.951370
11
-626.528687
21
1382.536987
31
69.622200
12
-617.359802
22
1383.953979
32
71.083557
13
-617.359802
23
1383.953979
33
71.083557
0
3DFACE
8
0
10
-614.290710
20
1384.457031
30
70.951370
11
-617.359802
21
1383.953979
31
71.083557
12
-608.146484
22
1385.405029
32
71.959419
13
-608.146484
23
1385.405029
33
71.959419
0
3DFACE
8
0
10
-608.146484
20
1385.405029
30
71.959419
11
-617.359802
21
1383.953979
31
71.083557
12
-608.241272
22
1385.360962
32
72.575668
13
-608.241272
23
1385.360962
33
72.575668
0
3DFACE
8
0
10
-617.359802
20
1383.953979
30
71.083557
11
-626.451599
21
1382.542969
31
69.633827
12
-608.241272
22
1385.360962
32
72.575668
13
-608.241272
23
1385.360962
33
72.575668
0
3DFACE
8
0
10
-626.451599
20
1382.542969
30
69.633827
11
-608.240417
21
1385.355957
31
72.575417
12
-608.241272
22
1385.360962
32
72.575668
13
-608.241272
23
1385.360962
33
72.575668
0
3DFACE
8
0
10
-626.528687
20
1382.536987
30
69.622200
11
-626.451599
21
1382.542969
31
69.633827
12
-617.359802
22
1383.953979
32
71.083557
13
-617.359802
23
1383.953979
33
71.083557
0
3DFACE
8
0
10
-635.608276
20
1381.124023
30
68.245171
11
-626.451599
21
1382.542969
31
69.633827
12
-626.528687
22
1382.536987
32
69.622200
13
-626.528687
23
1382.536987
33
69.622200
0
3DFACE
8
0
10
-635.715576
20
1381.113037
30
68.229797
11
-635.608276
21
1381.124023
31
68.245171
12
-626.528687
22
1382.536987
32
69.622200
13
-626.528687
23
1382.536987
33
69.622200
0
3DFACE
8
0
10
-635.608276
20
1381.124023
30
68.245171
11
-635.715576
21
1381.113037
31
68.229797
12
-644.908813
22
1379.682983
32
66.933884
13
-644.908813
23
1379.682983
33
66.933884
0
3DFACE
8
0
10
-644.908813
20
1379.682983
30
66.933884
11
-649.409424
21
1378.974976
31
66.340584
12
-635.608276
22
1381.124023
32
68.245171
13
-635.608276
23
1381.124023
33
68.245171
0
3DFACE
8
0
10
-649.409424
20
1378.974976
30
66.340584
11
-644.908813
21
1379.682983
31
66.933884
12
-654.139099
22
1378.239990
32
65.751831
13
-654.139099
23
1378.239990
33
65.751831
0
3DFACE
8
0
10
-654.139099
20
1378.239990
30
65.751831
11
-658.660583
21
1377.526001
31
65.226028
12
-649.409424
22
1378.974976
32
66.340584
13
-649.409424
23
1378.974976
33
66.340584
0
3DFACE
8
0
10
-658.660583
20
1377.526001
30
65.226028
11
-654.139099
21
1378.239990
31
65.751831
12
-663.390381
22
1376.786011
32
64.720367
13
-663.390381
23
1376.786011
33
64.720367
0
3DFACE
8
0
10
-663.390381
20
1376.786011
30
64.720367
11
-667.953918
21
1376.061035
31
64.275467
12
-658.660583
22
1377.526001
32
65.226028
13
-658.660583
23
1377.526001
33
65.226028
0
3DFACE
8
0
10
-668.036316
20
1376.052002
30
64.268066
11
-667.953918
21
1376.061035
31
64.275467
12
-663.390381
22
1376.786011
32
64.720367
13
-663.390381
23
1376.786011
33
64.720367
0
3DFACE
8
0
10
-675.728821
20
1374.827026
30
63.624050
11
-667.953918
21
1376.061035
31
64.275467
12
-668.036316
22
1376.052002
32
64.268066
13
-668.036316
23
1376.052002
33
64.268066
0
3DFACE
8
0
10
-675.728821
20
1374.827026
30
63.624050
11
-668.036316
21
1376.052002
31
64.268066
12
-672.691223
22
1375.313965
32
63.861290
13
-672.691223
23
1375.313965
33
63.861290
0
3DFACE
8
0
10
-677.349609
20
1374.572021
30
63.507999
11
-675.728821
21
1374.827026
31
63.624050
12
-672.691223
22
1375.313965
32
63.861290
13
-672.691223
23
1375.313965
33
63.861290
0
3DFACE
8
0
10
-681.959473
20
1373.832031
30
63.219570
11
-675.728821
21
1374.827026
31
63.624050
12
-677.349609
22
1374.572021
32
63.507999
13
-677.349609
23
1374.572021
33
63.507999
0
3DFACE
8
0
10
-682.014771
20
1373.826050
30
63.216640
11
-681.959473
21
1373.832031
31
63.219570
12
-677.349609
22
1374.572021
32
63.507999
13
-677.349609
23
1374.572021
33
63.507999
0
3DFACE
8
0
10
-681.959473
20
1373.832031
30
63.219570
11
-682.014771
21
1373.826050
31
63.216640
12
-686.325623
22
1373.131958
32
63.010719
13
-686.325623
23
1373.131958
33
63.010719
0
3DFACE
8
0
10
-686.325623
20
1373.131958
30
63.010719
11
-687.924988
21
1372.873047
31
62.952511
12
-681.959473
22
1373.832031
32
63.219570
13
-681.959473
23
1373.832031
33
63.219570
0
3DFACE
8
0
10
-690.646912
20
1372.432983
30
62.883148
11
-687.924988
21
1372.873047
31
62.952511
12
-686.325623
22
1373.131958
32
63.010719
13
-686.325623
23
1373.131958
33
63.010719
0
3DFACE
8
0
10
-687.924988
20
1372.873047
30
62.952511
11
-690.646912
21
1372.432983
31
62.883148
12
-691.378723
22
1372.313965
32
62.872139
13
-691.378723
23
1372.313965
33
62.872139
0
3DFACE
8
0
10
-608.146484
20
1385.405029
30
71.959419
11
-608.241272
21
1385.360962
31
72.575668
12
-608.240417
22
1385.355957
32
72.575417
13
-608.240417
23
1385.355957
33
72.575417
0
3DFACE
8
0
10
-698.071716
20
1370.744019
30
62.314590
11
-687.851013
21
1372.412964
31
62.302029
12
-693.039124
22
1371.571045
32
62.209961
13
-693.039124
23
1371.571045
33
62.209961
0
3DFACE
8
0
10
-608.159912
20
1384.863037
30
72.552994
11
-608.066101
21
1384.911011
31
71.936981
12
-626.380371
22
1382.048950
32
69.609894
13
-626.380371
23
1382.048950
33
69.609894
0
3DFACE
8
0
10
-626.380371
20
1382.048950
30
69.609894
11
-608.066101
21
1384.911011
31
71.936981
12
-626.291199
22
1382.097046
32
68.993156
13
-626.291199
23
1382.097046
33
68.993156
0
3DFACE
8
0
10
-626.380371
20
1382.048950
30
69.609894
11
-626.291199
21
1382.097046
31
68.993156
12
-635.541870
22
1380.629028
32
68.220520
13
-635.541870
23
1380.629028
33
68.220520
0
3DFACE
8
0
10
-635.541870
20
1380.629028
30
68.220520
11
-626.291199
21
1382.097046
31
68.993156
12
-635.455688
22
1380.677002
32
67.603302
13
-635.455688
23
1380.677002
33
67.603302
0
3DFACE
8
0
10
-635.541870
20
1380.629028
30
68.220520
11
-635.455688
21
1380.677002
31
67.603302
12
-649.349976
22
1378.479004
32
66.314949
13
-649.349976
23
1378.479004
33
66.314949
0
3DFACE
8
0
10
-649.349976
20
1378.479004
30
66.314949
11
-635.455688
21
1380.677002
31
67.603302
12
-644.661621
22
1379.244995
32
66.304337
13
-644.661621
23
1379.244995
33
66.304337
0
3DFACE
8
0
10
-649.349976
20
1378.479004
30
66.314949
11
-644.661621
21
1379.244995
31
66.304337
12
-658.606018
22
1377.029053
32
65.199837
13
-658.606018
23
1377.029053
33
65.199837
0
3DFACE
8
0
10
-658.606018
20
1377.029053
30
65.199837
11
-644.661621
21
1379.244995
31
66.304337
12
-653.903625
22
1377.801025
32
65.119247
13
-653.903625
23
1377.801025
33
65.119247
0
3DFACE
8
0
10
-658.606018
20
1377.029053
30
65.199837
11
-653.903625
21
1377.801025
31
65.119247
12
-667.903870
22
1375.562988
32
64.248787
13
-667.903870
23
1375.562988
33
64.248787
0
3DFACE
8
0
10
-667.903870
20
1375.562988
30
64.248787
11
-653.903625
21
1377.801025
31
65.119247
12
-663.190979
22
1376.342041
32
64.081947
13
-663.190979
23
1376.342041
33
64.081947
0
3DFACE
8
0
10
-667.903870
20
1375.562988
30
64.248787
11
-663.190979
21
1376.342041
31
64.081947
12
-675.682922
22
1374.328979
32
63.597038
13
-675.682922
23
1374.328979
33
63.597038
0
3DFACE
8
0
10
-675.682922
20
1374.328979
30
63.597038
11
-663.190979
21
1376.342041
31
64.081947
12
-672.521729
22
1374.865967
32
63.218498
13
-672.521729
23
1374.865967
33
63.218498
0
3DFACE
8
0
10
-675.682922
20
1374.328979
30
63.597038
11
-672.521729
21
1374.865967
31
63.218498
12
-681.916016
22
1373.333008
32
63.192390
13
-681.916016
23
1373.333008
33
63.192390
0
3DFACE
8
0
10
-700.769592
20
1370.296997
30
62.441341
11
-700.731384
21
1370.269043
31
63.064560
12
-698.058105
22
1370.712036
32
62.938850
13
-698.058105
23
1370.712036
33
62.938850
0
3DFACE
8
0
10
-700.769592
20
1370.296997
30
62.441341
11
-698.058105
21
1370.712036
31
62.938850
12
-693.060913
22
1371.534058
32
62.834068
13
-693.060913
23
1371.534058
33
62.834068
0
3DFACE
8
0
10
-700.769592
20
1370.296997
30
62.441341
11
-693.060913
21
1371.534058
31
62.834068
12
-681.880798
22
1373.373047
32
62.569611
13
-681.880798
23
1373.373047
33
62.569611
0
3DFACE
8
0
10
-700.769592
20
1370.296997
30
62.441341
11
-681.880798
21
1373.373047
31
62.569611
12
-687.851013
22
1372.412964
32
62.302029
13
-687.851013
23
1372.412964
33
62.302029
0
3DFACE
8
0
10
-700.769592
20
1370.296997
30
62.441341
11
-687.851013
21
1372.412964
31
62.302029
12
-698.071716
22
1370.744019
32
62.314590
13
-698.071716
23
1370.744019
33
62.314590
0
3DFACE
8
0
10
-681.880798
20
1373.373047
30
62.569611
11
-693.060913
21
1371.534058
31
62.834068
12
-687.883118
22
1372.374023
32
62.925228
13
-687.883118
23
1372.374023
33
62.925228
0
3DFACE
8
0
10
-681.880798
20
1373.373047
30
62.569611
11
-687.883118
21
1372.374023
31
62.925228
12
-681.916016
22
1373.333008
32
63.192390
13
-681.916016
23
1373.333008
33
63.192390
0
3DFACE
8
0
10
-681.880798
20
1373.373047
30
62.569611
11
-681.916016
21
1373.333008
31
63.192390
12
-672.521729
22
1374.865967
32
63.218498
13
-672.521729
23
1374.865967
33
63.218498
0
3DFACE
8
0
10
-461.805786
20
326.823486
30
19.764490
11
-461.800293
21
326.789886
31
20.396429
12
-480.921814
22
323.866791
32
16.762020
13
-480.921814
23
323.866791
33
16.762020
0
3DFACE
8
0
10
-480.921814
20
323.866791
30
16.762020
11
-461.800293
21
326.789886
31
20.396429
12
-480.912292
22
323.833893
32
17.393900
13
-480.912292
23
323.833893
33
17.393900
0
3DFACE
8
0
10
-480.921814
20
323.866791
30
16.762020
11
-480.912292
21
323.833893
31
17.393900
12
-496.922394
22
321.385010
32
14.377050
13
-496.922394
23
321.385010
33
14.377050
0
3DFACE
8
0
10
-496.922394
20
321.385010
30
14.377050
11
-480.912292
21
323.833893
31
17.393900
12
-496.907501
22
321.352997
32
15.008890
13
-496.907501
23
321.352997
33
15.008890
0
3DFACE
8
0
10
-496.922394
20
321.385010
30
14.377050
11
-496.907501
21
321.352997
31
15.008890
12
-512.960999
22
318.889313
32
12.132970
13
-512.960999
23
318.889313
33
12.132970
0
3DFACE
8
0
10
-512.960999
20
318.889313
30
12.132970
11
-496.907501
21
321.352997
31
15.008890
12
-512.940430
22
318.858185
32
12.764660
13
-512.940430
23
318.858185
33
12.764660
0
3DFACE
8
0
10
-512.960999
20
318.889313
30
12.132970
11
-512.940430
21
318.858185
31
12.764660
12
-525.843811
22
316.877991
32
10.453040
13
-525.843811
23
316.877991
33
10.453040
0
3DFACE
8
0
10
-525.843811
20
316.877991
30
10.453040
11
-512.940430
21
318.858185
31
12.764660
12
-525.817688
22
316.847900
32
11.084560
13
-525.817688
23
316.847900
33
11.084560
0
3DFACE
8
0
10
-525.843811
20
316.877991
30
10.453040
11
-525.817688
21
316.847900
31
11.084560
12
-537.483276
22
315.054688
32
9.046623
13
-537.483276
23
315.054688
33
9.046623
0
3DFACE
8
0
10
-537.483276
20
315.054688
30
9.046623
11
-525.817688
21
316.847900
31
11.084560
12
-537.997681
22
314.939789
32
9.614745
13
-537.997681
23
314.939789
33
9.614745
0
3DFACE
8
0
10
-537.483276
20
315.054688
30
9.046623
11
-537.997681
21
314.939789
31
9.614745
12
-549.145325
22
313.221191
32
7.762161
13
-549.145325
23
313.221191
33
7.762161
0
3DFACE
8
0
10
-549.145325
20
313.221191
30
7.762161
11
-537.997681
21
314.939789
31
9.614745
12
-548.802429
22
313.240997
32
8.424922
13
-548.802429
23
313.240997
33
8.424922
0
3DFACE
8
0
10
-549.145325
20
313.221191
30
7.762161
11
-548.802429
21
313.240997
31
8.424922
12
-559.626099
22
311.532990
32
7.347351
13
-559.626099
23
311.532990
33
7.347351
0
3DFACE
8
0
10
-549.145325
20
313.221191
30
7.762161
11
-559.626099
21
311.532990
31
7.347351
12
-559.587585
22
311.573212
32
6.724675
13
-559.587585
23
311.573212
33
6.724675
0
3DFACE
8
0
10
-559.587585
20
311.573212
30
6.724675
11
-559.626099
21
311.532990
31
7.347351
12
-569.821411
22
309.918213
32
6.440311
13
-569.821411
23
309.918213
33
6.440311
0
3DFACE
8
0
10
-559.587585
20
311.573212
30
6.724675
11
-569.821411
21
309.918213
31
6.440311
12
-570.046875
22
309.916504
32
5.795768
13
-570.046875
23
309.916504
33
5.795768
0
3DFACE
8
0
10
-570.046875
20
309.916504
30
5.795768
11
-569.821411
21
309.918213
31
6.440311
12
-580.032104
22
308.294403
32
5.652605
13
-580.032104
23
308.294403
33
5.652605
0
3DFACE
8
0
10
-570.046875
20
309.916504
30
5.795768
11
-580.032104
21
308.294403
31
5.652605
12
-579.621826
22
308.393890
32
5.056398
13
-579.621826
23
308.393890
33
5.056398
0
3DFACE
8
0
10
-579.621826
20
308.393890
30
5.056398
11
-580.032104
21
308.294403
31
5.652605
12
-593.507324
22
306.139496
32
4.832670
13
-593.507324
23
306.139496
33
4.832670
0
3DFACE
8
0
10
-579.621826
20
308.393890
30
5.056398
11
-593.507324
21
306.139496
31
4.832670
12
-589.210571
22
306.862305
32
4.439903
13
-589.210571
23
306.862305
33
4.439903
0
3DFACE
8
0
10
-589.210571
20
306.862305
30
4.439903
11
-593.507324
21
306.139496
31
4.832670
12
-601.835327
22
304.799805
32
4.472037
13
-601.835327
23
304.799805
33
4.472037
0
3DFACE
8
0
10
-589.210571
20
306.862305
30
4.439903
11
-601.835327
21
304.799805
31
4.472037
12
-597.534180
22
305.526611
32
4.018083
13
-597.534180
23
305.526611
33
4.018083
0
3DFACE
8
0
10
-597.534180
20
305.526611
30
4.018083
11
-601.835327
21
304.799805
31
4.472037
12
-609.354675
22
303.583008
32
4.276217
13
-609.354675
23
303.583008
33
4.276217
0
3DFACE
8
0
10
-597.534180
20
305.526611
30
4.018083
11
-609.354675
21
303.583008
31
4.276217
12
-615.733704
22
302.543304
32
4.249008
13
-615.733704
23
302.543304
33
4.249008
0
3DFACE
8
0
10
-597.534180
20
305.526611
30
4.018083
11
-629.976685
21
300.226410
31
4.101326
12
-605.866882
22
304.182495
32
3.724275
13
-605.866882
23
304.182495
33
3.724275
0
3DFACE
8
0
10
-605.866882
20
304.182495
30
3.724275
11
-629.976685
21
300.226410
31
4.101326
12
-626.415527
22
300.817291
32
3.925112
13
-626.415527
23
300.817291
33
3.925112
0
3DFACE
8
0
10
-605.866882
20
304.182495
30
3.724275
11
-626.415527
21
300.817291
31
3.925112
12
-612.853516
22
303.047791
32
3.618746
13
-612.853516
23
303.047791
33
3.618746
0
3DFACE
8
0
10
-612.853516
20
303.047791
30
3.618746
11
-626.415527
21
300.817291
31
3.925112
12
-618.629089
22
302.102509
32
3.664149
13
-618.629089
23
302.102509
33
3.664149
0
3DFACE
8
0
10
-629.976685
20
300.226410
30
4.101326
11
-597.534180
21
305.526611
31
4.018083
12
-615.733704
22
302.543304
32
4.249008
13
-615.733704
23
302.543304
33
4.249008
0
3DFACE
8
0
10
-629.976685
20
300.226410
30
4.101326
11
-615.733704
21
302.543304
31
4.249008
12
-622.508728
22
301.429504
32
4.393291
13
-622.508728
23
301.429504
33
4.393291
0
3DFACE
8
0
10
-629.976685
20
300.226410
30
4.101326
11
-622.508728
21
301.429504
31
4.393291
12
-629.938477
22
300.198608
32
4.724550
13
-629.938477
23
300.198608
33
4.724550
0
3DFACE
8
0
10
-461.800293
20
326.789886
30
20.396429
11
-461.805786
21
326.823486
31
19.764490
12
-461.720703
22
326.302307
32
20.374210
13
-461.720703
23
326.302307
33
20.374210
0
3DFACE
8
0
10
-461.720703
20
326.302307
30
20.374210
11
-461.805786
21
326.823486
31
19.764490
12
-461.725311
22
326.330505
32
19.742041
13
-461.725311
23
326.330505
33
19.742041
0
3DFACE
8
0
10
-667.903870
20
1375.562988
30
64.248787
11
-548.802429
21
313.240997
31
8.424922
12
-658.606018
22
1377.029053
32
65.199837
13
-658.606018
23
1377.029053
33
65.199837
0
3DFACE
8
0
10
-559.626099
20
311.532990
30
7.347351
11
-548.802429
21
313.240997
31
8.424922
12
-667.903870
22
1375.562988
32
64.248787
13
-667.903870
23
1375.562988
33
64.248787
0
3DFACE
8
0
10
-569.821411
20
309.918213
30
6.440311
11
-559.626099
21
311.532990
31
7.347351
12
-667.903870
22
1375.562988
32
64.248787
13
-667.903870
23
1375.562988
33
64.248787
0
3DFACE
8
0
10
-675.682922
20
1374.328979
30
63.597038
11
-569.821411
21
309.918213
31
6.440311
12
-667.903870
22
1375.562988
32
64.248787
13
-667.903870
23
1375.562988
33
64.248787
0
3DFACE
8
0
10
-675.682922
20
1374.328979
30
63.597038
11
-580.032104
21
308.294403
31
5.652605
12
-569.821411
22
309.918213
32
6.440311
13
-569.821411
23
309.918213
33
6.440311
0
3DFACE
8
0
10
-580.032104
20
308.294403
30
5.652605
11
-675.682922
21
1374.328979
31
63.597038
12
-681.916016
22
1373.333008
32
63.192390
13
-681.916016
23
1373.333008
33
63.192390
0
3DFACE
8
0
10
-681.916016
20
1373.333008
30
63.192390
11
-593.507324
21
306.139496
31
4.832670
12
-580.032104
22
308.294403
32
5.652605
13
-580.032104
23
308.294403
33
5.652605
0
3DFACE
8
0
10
-693.060913
20
1371.534058
30
62.834068
11
-609.354675
21
303.583008
31
4.276217
12
-687.883118
22
1372.374023
32
62.925228
13
-687.883118
23
1372.374023
33
62.925228
0
3DFACE
8
0
10
-455.208099
20
327.308105
30
21.424721
11
-436.033112
21
330.267090
31
24.562300
12
-626.380371
22
1382.048950
32
69.609894
13
-626.380371
23
1382.048950
33
69.609894
0
3DFACE
8
0
10
-626.380371
20
1382.048950
30
69.609894
11
-436.033112
21
330.267090
31
24.562300
12
-608.159912
22
1384.863037
32
72.552994
13
-608.159912
23
1384.863037
33
72.552994
0
3DFACE
8
0
10
-525.817688
20
316.847900
30
11.084560
11
-512.940430
21
318.858185
31
12.764660
12
-649.349976
22
1378.479004
32
66.314949
13
-649.349976
23
1378.479004
33
66.314949
0
3DFACE
8
0
10
-649.349976
20
1378.479004
30
66.314949
11
-512.940430
21
318.858185
31
12.764660
12
-496.907501
22
321.352997
32
15.008890
13
-496.907501
23
321.352997
33
15.008890
0
3DFACE
8
0
10
-649.349976
20
1378.479004
30
66.314949
11
-496.907501
21
321.352997
31
15.008890
12
-635.541870
22
1380.629028
32
68.220520
13
-635.541870
23
1380.629028
33
68.220520
0
3DFACE
8
0
10
-635.541870
20
1380.629028
30
68.220520
11
-496.907501
21
321.352997
31
15.008890
12
-480.912292
22
323.833893
32
17.393900
13
-480.912292
23
323.833893
33
17.393900
0
3DFACE
8
0
10
-635.541870
20
1380.629028
30
68.220520
11
-480.912292
21
323.833893
31
17.393900
12
-626.380371
22
1382.048950
32
69.609894
13
-626.380371
23
1382.048950
33
69.609894
0
3DFACE
8
0
10
-548.802429
20
313.240997
30
8.424922
11
-537.997681
21
314.939789
31
9.614745
12
-658.606018
22
1377.029053
32
65.199837
13
-658.606018
23
1377.029053
33
65.199837
0
3DFACE
8
0
10
-658.606018
20
1377.029053
30
65.199837
11
-537.997681
21
314.939789
31
9.614745
12
-525.817688
22
316.847900
32
11.084560
13
-525.817688
23
316.847900
33
11.084560
0
3DFACE
8
0
10
-658.606018
20
1377.029053
30
65.199837
11
-525.817688
21
316.847900
31
11.084560
12
-649.349976
22
1378.479004
32
66.314949
13
-649.349976
23
1378.479004
33
66.314949
0
3DFACE
8
0
10
-609.354675
20
303.583008
30
4.276217
11
-601.835327
21
304.799805
31
4.472037
12
-687.883118
22
1372.374023
32
62.925228
13
-687.883118
23
1372.374023
33
62.925228
0
3DFACE
8
0
10
-687.883118
20
1372.374023
30
62.925228
11
-601.835327
21
304.799805
31
4.472037
12
-593.507324
22
306.139496
32
4.832670
13
-593.507324
23
306.139496
33
4.832670
0
3DFACE
8
0
10
-687.883118
20
1372.374023
30
62.925228
11
-593.507324
21
306.139496
31
4.832670
12
-681.916016
22
1373.333008
32
63.192390
13
-681.916016
23
1373.333008
33
63.192390
0
3DFACE
8
0
10
-609.354675
20
303.583008
30
4.276217
11
-693.060913
21
1371.534058
31
62.834068
12
-615.733704
22
302.543304
32
4.249008
13
-615.733704
23
302.543304
33
4.249008
0
3DFACE
8
0
10
-615.733704
20
302.543304
30
4.249008
11
-693.060913
21
1371.534058
31
62.834068
12
-698.058105
22
1370.712036
32
62.938850
13
-698.058105
23
1370.712036
33
62.938850
0
3DFACE
8
0
10
-615.733704
20
302.543304
30
4.249008
11
-698.058105
21
1370.712036
31
62.938850
12
-622.508728
22
301.429504
32
4.393291
13
-622.508728
23
301.429504
33
4.393291
0
3DFACE
8
0
10
-622.508728
20
301.429504
30
4.393291
11
-698.058105
21
1370.712036
31
62.938850
12
-700.731384
22
1370.269043
32
63.064560
13
-700.731384
23
1370.269043
33
63.064560
0
3DFACE
8
0
10
-622.508728
20
301.429504
30
4.393291
11
-700.731384
21
1370.269043
31
63.064560
12
-629.938477
22
300.198608
32
4.724550
13
-629.938477
23
300.198608
33
4.724550
0
3DFACE
8
0
10
-461.800293
20
326.789886
30
20.396429
11
-461.720703
21
326.302307
31
20.374210
12
-455.208099
22
327.308105
32
21.424721
13
-455.208099
23
327.308105
33
21.424721
0
3DFACE
8
0
10
-461.800293
20
326.789886
30
20.396429
11
-455.208099
21
327.308105
31
21.424721
12
-626.380371
22
1382.048950
32
69.609894
13
-626.380371
23
1382.048950
33
69.609894
0
3DFACE
8
0
10
-461.800293
20
326.789886
30
20.396429
11
-626.380371
21
1382.048950
31
69.609894
12
-480.912292
22
323.833893
32
17.393900
13
-480.912292
23
323.833893
33
17.393900
0
3DFACE
8
0
10
-629.938477
20
300.198608
30
4.724550
11
-700.731384
21
1370.269043
31
63.064560
12
-629.976685
22
300.226410
32
4.101326
13
-629.976685
23
300.226410
33
4.101326
0
3DFACE
8
0
10
-629.976685
20
300.226410
30
4.101326
11
-700.731384
21
1370.269043
31
63.064560
12
-700.769592
22
1370.296997
32
62.441341
13
-700.769592
23
1370.296997
33
62.441341
0
3DFACE
8
0
10
-663.190979
20
1376.342041
30
64.081947
11
-559.587585
21
311.573212
31
6.724675
12
-672.521729
22
1374.865967
32
63.218498
13
-672.521729
23
1374.865967
33
63.218498
0
3DFACE
8
0
10
-672.521729
20
1374.865967
30
63.218498
11
-559.587585
21
311.573212
31
6.724675
12
-570.046875
22
309.916504
32
5.795768
13
-570.046875
23
309.916504
33
5.795768
0
3DFACE
8
0
10
-672.521729
20
1374.865967
30
63.218498
11
-570.046875
21
309.916504
31
5.795768
12
-579.621826
22
308.393890
32
5.056398
13
-579.621826
23
308.393890
33
5.056398
0
3DFACE
8
0
10
-672.521729
20
1374.865967
30
63.218498
11
-579.621826
21
308.393890
31
5.056398
12
-681.880798
22
1373.373047
32
62.569611
13
-681.880798
23
1373.373047
33
62.569611
0
3DFACE
8
0
10
-597.534180
20
305.526611
30
4.018083
11
-605.866882
21
304.182495
31
3.724275
12
-687.851013
22
1372.412964
32
62.302029
13
-687.851013
23
1372.412964
33
62.302029
0
3DFACE
8
0
10
-693.039124
20
1371.571045
30
62.209961
11
-687.851013
21
1372.412964
31
62.302029
12
-605.866882
22
304.182495
32
3.724275
13
-605.866882
23
304.182495
33
3.724275
0
3DFACE
8
0
10
-693.039124
20
1371.571045
30
62.209961
11
-605.866882
21
304.182495
31
3.724275
12
-612.853516
22
303.047791
32
3.618746
13
-612.853516
23
303.047791
33
3.618746
0
3DFACE
8
0
10
-693.039124
20
1371.571045
30
62.209961
11
-612.853516
21
303.047791
31
3.618746
12
-618.629089
22
302.102509
32
3.664149
13
-618.629089
23
302.102509
33
3.664149
0
3DFACE
8
0
10
-693.039124
20
1371.571045
30
62.209961
11
-618.629089
21
302.102509
31
3.664149
12
-698.071716
22
1370.744019
32
62.314590
13
-698.071716
23
1370.744019
33
62.314590
0
3DFACE
8
0
10
-445.553192
20
328.827209
30
22.366899
11
-626.291199
21
1382.097046
31
68.993156
12
-435.938385
22
330.310608
32
23.946051
13
-435.938385
23
330.310608
33
23.946051
0
3DFACE
8
0
10
-435.938385
20
330.310608
30
23.946051
11
-626.291199
21
1382.097046
31
68.993156
12
-608.066101
22
1384.911011
32
71.936981
13
-608.066101
23
1384.911011
33
71.936981
0
3DFACE
8
0
10
-626.291199
20
1382.097046
30
68.993156
11
-480.921814
21
323.866791
31
16.762020
12
-635.455688
22
1380.677002
32
67.603302
13
-635.455688
23
1380.677002
33
67.603302
0
3DFACE
8
0
10
-635.455688
20
1380.677002
30
67.603302
11
-480.921814
21
323.866791
31
16.762020
12
-496.922394
22
321.385010
32
14.377050
13
-496.922394
23
321.385010
33
14.377050
0
3DFACE
8
0
10
-635.455688
20
1380.677002
30
67.603302
11
-496.922394
21
321.385010
31
14.377050
12
-644.661621
22
1379.244995
32
66.304337
13
-644.661621
23
1379.244995
33
66.304337
0
3DFACE
8
0
10
-644.661621
20
1379.244995
30
66.304337
11
-496.922394
21
321.385010
31
14.377050
12
-512.960999
22
318.889313
32
12.132970
13
-512.960999
23
318.889313
33
12.132970
0
3DFACE
8
0
10
-644.661621
20
1379.244995
30
66.304337
11
-512.960999
21
318.889313
31
12.132970
12
-653.903625
22
1377.801025
32
65.119247
13
-653.903625
23
1377.801025
33
65.119247
0
3DFACE
8
0
10
-653.903625
20
1377.801025
30
65.119247
11
-512.960999
21
318.889313
31
12.132970
12
-525.843811
22
316.877991
32
10.453040
13
-525.843811
23
316.877991
33
10.453040
0
3DFACE
8
0
10
-653.903625
20
1377.801025
30
65.119247
11
-525.843811
21
316.877991
31
10.453040
12
-537.483276
22
315.054688
32
9.046623
13
-537.483276
23
315.054688
33
9.046623
0
3DFACE
8
0
10
-653.903625
20
1377.801025
30
65.119247
11
-537.483276
21
315.054688
31
9.046623
12
-663.190979
22
1376.342041
32
64.081947
13
-663.190979
23
1376.342041
33
64.081947
0
3DFACE
8
0
10
-663.190979
20
1376.342041
30
64.081947
11
-537.483276
21
315.054688
31
9.046623
12
-549.145325
22
313.221191
32
7.762161
13
-549.145325
23
313.221191
33
7.762161
0
3DFACE
8
0
10
-663.190979
20
1376.342041
30
64.081947
11
-549.145325
21
313.221191
31
7.762161
12
-559.587585
22
311.573212
32
6.724675
13
-559.587585
23
311.573212
33
6.724675
0
3DFACE
8
0
10
-597.534180
20
305.526611
30
4.018083
11
-687.851013
21
1372.412964
31
62.302029
12
-589.210571
22
306.862305
32
4.439903
13
-589.210571
23
306.862305
33
4.439903
0
3DFACE
8
0
10
-589.210571
20
306.862305
30
4.439903
11
-687.851013
21
1372.412964
31
62.302029
12
-681.880798
22
1373.373047
32
62.569611
13
-681.880798
23
1373.373047
33
62.569611
0
3DFACE
8
0
10
-589.210571
20
306.862305
30
4.439903
11
-681.880798
21
1373.373047
31
62.569611
12
-579.621826
22
308.393890
32
5.056398
13
-579.621826
23
308.393890
33
5.056398
0
3DFACE
8
0
10
-629.976685
20
300.226410
30
4.101326
11
-700.769592
21
1370.296997
31
62.441341
12
-626.415527
22
300.817291
32
3.925112
13
-626.415527
23
300.817291
33
3.925112
0
3DFACE
8
0
10
-626.415527
20
300.817291
30
3.925112
11
-700.769592
21
1370.296997
31
62.441341
12
-698.071716
22
1370.744019
32
62.314590
13
-698.071716
23
1370.744019
33
62.314590
0
3DFACE
8
0
10
-626.415527
20
300.817291
30
3.925112
11
-698.071716
21
1370.744019
31
62.314590
12
-618.629089
22
302.102509
32
3.664149
13
-618.629089
23
302.102509
33
3.664149
0
3DFACE
8
0
10
-461.805786
20
326.823486
30
19.764490
11
-480.921814
21
323.866791
31
16.762020
12
-626.291199
22
1382.097046
32
68.993156
13
-626.291199
23
1382.097046
33
68.993156
0
3DFACE
8
0
10
-461.805786
20
326.823486
30
19.764490
11
-626.291199
21
1382.097046
31
68.993156
12
-445.553192
22
328.827209
32
22.366899
13
-445.553192
23
328.827209
33
22.366899
0
3DFACE
8
0
10
-461.805786
20
326.823486
30
19.764490
11
-445.553192
21
328.827209
31
22.366899
12
-461.725311
22
326.330505
32
19.742041
13
-461.725311
23
326.330505
33
19.742041
0
3DFACE
8
0
10
-461.725311
20
326.330505
30
19.742041
11
-445.553192
21
328.827209
31
22.366899
12
-461.720703
22
326.302307
32
20.374210
13
-461.720703
23
326.302307
33
20.374210
0
3DFACE
8
0
10
-461.720703
20
326.302307
30
20.374210
11
-445.553192
21
328.827209
31
22.366899
12
-455.208099
22
327.308105
32
21.424721
13
-455.208099
23
327.308105
33
21.424721
0
3DFACE
8
0
10
-445.553192
20
328.827209
30
22.366899
11
-435.938385
21
330.310608
31
23.946051
12
-455.208099
22
327.308105
32
21.424721
13
-455.208099
23
327.308105
33
21.424721
0
3DFACE
8
0
10
-455.208099
20
327.308105
30
21.424721
11
-435.938385
21
330.310608
31
23.946051
12
-436.033112
22
330.267090
32
24.562300
13
-436.033112
23
330.267090
33
24.562300
0
3DFACE
8
0
10
-608.159912
20
1384.863037
30
72.552994
11
-436.033112
21
330.267090
31
24.562300
12
-608.066101
22
1384.911011
32
71.936981
13
-608.066101
23
1384.911011
33
71.936981
0
3DFACE
8
0
10
-608.066101
20
1384.911011
30
71.936981
11
-436.033112
21
330.267090
31
24.562300
12
-435.938385
22
330.310608
32
23.946051
13
-435.938385
23
330.310608
33
23.946051
0
3DFACE
8
0
10
-606.030579
20
1385.769043
30
71.612892
11
-605.439087
21
1385.878052
31
71.381493
12
-604.051880
22
1386.108032
32
71.317436
13
-604.051880
23
1386.108032
33
71.317436
0
3DFACE
8
0
10
-607.164429
20
1386.336060
30
57.809662
11
-606.341980
21
1386.461060
31
57.985142
12
-608.000488
22
1386.203979
32
57.730099
13
-608.000488
23
1386.203979
33
57.730099
0
3DFACE
8
0
10
-605.535583
20
1385.822998
30
72.098457
11
-606.294800
21
1385.686035
31
72.344292
12
-607.899780
22
1385.444946
32
71.954826
13
-607.899780
23
1385.444946
33
71.954826
0
3DFACE
8
0
10
-607.899780
20
1385.444946
30
71.954826
11
-606.294800
21
1385.686035
31
72.344292
12
-607.076721
22
1385.548950
32
72.504951
13
-607.076721
23
1385.548950
33
72.504951
0
3DFACE
8
0
10
-607.899780
20
1385.444946
30
71.954826
11
-607.076721
21
1385.548950
31
72.504951
12
-607.871826
22
1385.416016
32
72.578537
13
-607.871826
23
1385.416016
33
72.578537
0
3DFACE
8
0
10
-604.335388
20
1386.092041
30
70.754227
11
-603.355774
21
1386.250977
31
70.775520
12
-604.872314
22
1385.985962
32
71.094414
13
-604.872314
23
1385.985962
33
71.094414
0
3DFACE
8
0
10
-604.872314
20
1385.985962
30
71.094414
11
-603.355774
21
1386.250977
31
70.775520
12
-604.051880
22
1386.108032
32
71.317436
13
-604.051880
23
1386.108032
33
71.317436
0
3DFACE
8
0
10
-604.872314
20
1385.985962
30
71.094414
11
-604.051880
21
1386.108032
31
71.317436
12
-605.439087
22
1385.878052
32
71.381493
13
-605.439087
23
1385.878052
33
71.381493
0
3DFACE
8
0
10
-602.948120
20
1386.390015
30
69.445320
11
-602.182495
21
1386.514038
31
69.457336
12
-603.368530
22
1386.295044
32
69.925743
13
-603.368530
23
1386.295044
33
69.925743
0
3DFACE
8
0
10
-603.368530
20
1386.295044
30
69.925743
11
-602.182495
21
1386.514038
31
69.457336
12
-602.729675
22
1386.386963
32
70.152496
13
-602.729675
23
1386.386963
33
70.152496
0
3DFACE
8
0
10
-603.368530
20
1386.295044
30
69.925743
11
-602.729675
21
1386.386963
31
70.152496
12
-603.832275
22
1386.196045
32
70.363350
13
-603.832275
23
1386.196045
33
70.363350
0
3DFACE
8
0
10
-603.832275
20
1386.196045
30
70.363350
11
-602.729675
21
1386.386963
31
70.152496
12
-603.355774
22
1386.250977
32
70.775520
13
-603.355774
23
1386.250977
33
70.775520
0
3DFACE
8
0
10
-603.832275
20
1386.196045
30
70.363350
11
-603.355774
21
1386.250977
31
70.775520
12
-604.335388
22
1386.092041
32
70.754227
13
-604.335388
23
1386.092041
33
70.754227
0
3DFACE
8
0
10
-601.982605
20
1386.637939
30
67.792107
11
-601.355713
21
1386.734985
31
67.891678
12
-602.252014
22
1386.562012
32
68.373688
13
-602.252014
23
1386.562012
33
68.373688
0
3DFACE
8
0
10
-602.252014
20
1386.562012
30
68.373688
11
-601.355713
21
1386.734985
31
67.891678
12
-601.722290
22
1386.630981
32
68.700111
13
-601.722290
23
1386.630981
33
68.700111
0
3DFACE
8
0
10
-602.252014
20
1386.562012
30
68.373688
11
-601.722290
21
1386.630981
31
68.700111
12
-602.574829
22
1386.479004
32
68.926407
13
-602.574829
23
1386.479004
33
68.926407
0
3DFACE
8
0
10
-602.574829
20
1386.479004
30
68.926407
11
-601.722290
21
1386.630981
31
68.700111
12
-602.182495
22
1386.514038
32
69.457336
13
-602.182495
23
1386.514038
33
69.457336
0
3DFACE
8
0
10
-602.574829
20
1386.479004
30
68.926407
11
-602.182495
21
1386.514038
31
69.457336
12
-602.948120
22
1386.390015
32
69.445320
13
-602.948120
23
1386.390015
33
69.445320
0
3DFACE
8
0
10
-601.516418
20
1386.816040
30
65.927254
11
-600.922729
21
1386.899048
31
66.168587
12
-601.613220
22
1386.765015
32
66.563377
13
-601.613220
23
1386.765015
33
66.563377
0
3DFACE
8
0
10
-601.613220
20
1386.765015
30
66.563377
11
-600.922729
21
1386.899048
31
66.168587
12
-601.087830
22
1386.824951
32
67.043747
13
-601.087830
23
1386.824951
33
67.043747
0
3DFACE
8
0
10
-601.613220
20
1386.765015
30
66.563377
11
-601.087830
21
1386.824951
31
67.043747
12
-601.768982
22
1386.706055
32
67.186859
13
-601.768982
23
1386.706055
33
67.186859
0
3DFACE
8
0
10
-601.768982
20
1386.706055
30
67.186859
11
-601.087830
21
1386.824951
31
67.043747
12
-601.355713
22
1386.734985
32
67.891678
13
-601.355713
23
1386.734985
33
67.891678
0
3DFACE
8
0
10
-601.768982
20
1386.706055
30
67.186859
11
-601.355713
21
1386.734985
31
67.891678
12
-601.982605
22
1386.637939
32
67.792107
13
-601.982605
23
1386.637939
33
67.792107
0
3DFACE
8
0
10
-601.730103
20
1386.920044
30
63.371109
11
-601.059875
21
1387.021973
31
63.506672
12
-601.586975
22
1386.909058
32
64.000366
13
-601.586975
23
1386.909058
33
64.000366
0
3DFACE
8
0
10
-601.586975
20
1386.909058
30
64.000366
11
-601.059875
21
1387.021973
31
63.506672
12
-600.908630
22
1386.999023
32
64.387192
13
-600.908630
23
1386.999023
33
64.387192
0
3DFACE
8
0
10
-601.586975
20
1386.909058
30
64.000366
11
-600.908630
21
1386.999023
31
64.387192
12
-601.503296
22
1386.887939
32
64.639969
13
-601.503296
23
1386.887939
33
64.639969
0
3DFACE
8
0
10
-601.503296
20
1386.887939
30
64.639969
11
-600.908630
21
1386.999023
31
64.387192
12
-600.862671
22
1386.958008
32
65.278793
13
-600.862671
23
1386.958008
33
65.278793
0
3DFACE
8
0
10
-601.503296
20
1386.887939
30
64.639969
11
-600.862671
21
1386.958008
31
65.278793
12
-601.479675
22
1386.857056
32
65.284187
13
-601.479675
23
1386.857056
33
65.284187
0
3DFACE
8
0
10
-601.479675
20
1386.857056
30
65.284187
11
-600.862671
21
1386.958008
31
65.278793
12
-600.922729
22
1386.899048
32
66.168587
13
-600.922729
23
1386.899048
33
66.168587
0
3DFACE
8
0
10
-601.479675
20
1386.857056
30
65.284187
11
-600.922729
21
1386.899048
31
66.168587
12
-601.516418
22
1386.816040
32
65.927254
13
-601.516418
23
1386.816040
33
65.927254
0
3DFACE
8
0
10
-602.500122
20
1386.890991
30
61.601089
11
-601.668030
21
1387.014038
31
61.829281
12
-602.188721
22
1386.911011
32
62.166069
13
-602.188721
23
1386.911011
33
62.166069
0
3DFACE
8
0
10
-602.188721
20
1386.911011
30
62.166069
11
-601.668030
21
1387.014038
31
61.829281
12
-601.314270
22
1387.026978
32
62.649921
13
-601.314270
23
1387.026978
33
62.649921
0
3DFACE
8
0
10
-602.188721
20
1386.911011
30
62.166069
11
-601.314270
21
1387.026978
31
62.649921
12
-601.931213
22
1386.921021
32
62.757839
13
-601.931213
23
1386.921021
33
62.757839
0
3DFACE
8
0
10
-601.931213
20
1386.921021
30
62.757839
11
-601.314270
21
1387.026978
31
62.649921
12
-601.059875
22
1387.021973
32
63.506672
13
-601.059875
23
1387.021973
33
63.506672
0
3DFACE
8
0
10
-601.931213
20
1386.921021
30
62.757839
11
-601.059875
21
1387.021973
31
63.506672
12
-601.730103
22
1386.920044
32
63.371109
13
-601.730103
23
1386.920044
33
63.371109
0
3DFACE
8
0
10
-603.727783
20
1386.770996
30
60.116199
11
-602.652222
21
1386.935059
31
60.343151
12
-603.273071
22
1386.821045
32
60.571541
13
-603.273071
23
1386.821045
33
60.571541
0
3DFACE
8
0
10
-603.273071
20
1386.821045
30
60.571541
11
-602.652222
21
1386.935059
31
60.343151
12
-602.116211
22
1386.983032
32
61.056648
13
-602.116211
23
1386.983032
33
61.056648
0
3DFACE
8
0
10
-603.273071
20
1386.821045
30
60.571541
11
-602.116211
21
1386.983032
31
61.056648
12
-602.862671
22
1386.860962
32
61.067989
13
-602.862671
23
1386.860962
33
61.067989
0
3DFACE
8
0
10
-602.862671
20
1386.860962
30
61.067989
11
-602.116211
21
1386.983032
31
61.056648
12
-601.668030
22
1387.014038
32
61.829281
13
-601.668030
23
1387.014038
33
61.829281
0
3DFACE
8
0
10
-602.862671
20
1386.860962
30
61.067989
11
-601.668030
21
1387.014038
31
61.829281
12
-602.500122
22
1386.890991
32
61.601089
13
-602.500122
23
1386.890991
33
61.601089
0
3DFACE
8
0
10
-605.314880
20
1386.571045
30
59.035561
11
-603.955688
21
1386.787964
31
59.133690
12
-604.753418
22
1386.645996
32
59.344742
13
-604.753418
23
1386.645996
33
59.344742
0
3DFACE
8
0
10
-604.753418
20
1386.645996
30
59.344742
11
-603.955688
21
1386.787964
31
59.133690
12
-603.268372
22
1386.869019
32
59.699051
13
-603.268372
23
1386.869019
33
59.699051
0
3DFACE
8
0
10
-604.753418
20
1386.645996
30
59.344742
11
-603.268372
21
1386.869019
31
59.699051
12
-604.222717
22
1386.713013
32
59.706039
13
-604.222717
23
1386.713013
33
59.706039
0
3DFACE
8
0
10
-604.222717
20
1386.713013
30
59.706039
11
-603.268372
21
1386.869019
31
59.699051
12
-602.652222
22
1386.935059
32
60.343151
13
-602.652222
23
1386.935059
33
60.343151
0
3DFACE
8
0
10
-604.222717
20
1386.713013
30
59.706039
11
-602.652222
21
1386.935059
31
60.343151
12
-603.727783
22
1386.770996
32
60.116199
13
-603.727783
23
1386.770996
33
60.116199
0
3DFACE
8
0
10
-606.510620
20
1386.401001
30
58.584110
11
-604.704529
21
1386.692017
31
58.655201
12
-605.902405
22
1386.489014
32
58.781250
13
-605.902405
23
1386.489014
33
58.781250
0
3DFACE
8
0
10
-605.902405
20
1386.489014
30
58.781250
11
-604.704529
21
1386.692017
31
58.655201
12
-603.955688
22
1386.787964
32
59.133690
13
-603.955688
23
1386.787964
33
59.133690
0
3DFACE
8
0
10
-605.902405
20
1386.489014
30
58.781250
11
-603.955688
21
1386.787964
31
59.133690
12
-605.314880
22
1386.571045
32
59.035561
13
-605.314880
23
1386.571045
33
59.035561
0
3DFACE
8
0
10
-604.807983
20
1385.959961
30
71.770401
11
-605.535583
21
1385.822998
31
72.098457
12
-607.899780
22
1385.444946
32
71.954826
13
-607.899780
23
1385.444946
33
71.954826
0
3DFACE
8
0
10
-604.807983
20
1385.959961
30
71.770401
11
-607.899780
21
1385.444946
31
71.954826
12
-607.266479
22
1385.551025
32
71.900864
13
-607.266479
23
1385.551025
33
71.900864
0
3DFACE
8
0
10
-604.807983
20
1385.959961
30
71.770401
11
-607.266479
21
1385.551025
31
71.900864
12
-606.641602
22
1385.660034
32
71.786530
13
-606.641602
23
1385.660034
33
71.786530
0
3DFACE
8
0
10
-604.807983
20
1385.959961
30
71.770401
11
-606.641602
21
1385.660034
31
71.786530
12
-606.030579
22
1385.769043
32
71.612892
13
-606.030579
23
1385.769043
33
71.612892
0
3DFACE
8
0
10
-604.807983
20
1385.959961
30
71.770401
11
-606.030579
21
1385.769043
31
71.612892
12
-604.051880
22
1386.108032
32
71.317436
13
-604.051880
23
1386.108032
33
71.317436
0
3DFACE
8
0
10
-605.503723
20
1386.582031
30
58.270500
11
-604.704529
21
1386.692017
31
58.655201
12
-606.510620
22
1386.401001
32
58.584110
13
-606.510620
23
1386.401001
33
58.584110
0
3DFACE
8
0
10
-605.503723
20
1386.582031
30
58.270500
11
-606.510620
21
1386.401001
31
58.584110
12
-607.258118
22
1386.286987
32
58.425720
13
-607.258118
23
1386.286987
33
58.425720
0
3DFACE
8
0
10
-605.503723
20
1386.582031
30
58.270500
11
-607.258118
21
1386.286987
31
58.425720
12
-608.017822
22
1386.166992
32
58.353779
13
-608.017822
23
1386.166992
33
58.353779
0
3DFACE
8
0
10
-605.503723
20
1386.582031
30
58.270500
11
-608.017822
21
1386.166992
31
58.353779
12
-608.000488
22
1386.203979
32
57.730099
13
-608.000488
23
1386.203979
33
57.730099
0
3DFACE
8
0
10
-605.503723
20
1386.582031
30
58.270500
11
-608.000488
21
1386.203979
31
57.730099
12
-606.341980
22
1386.461060
32
57.985142
13
-606.341980
23
1386.461060
33
57.985142
0
3DFACE
8
0
10
-608.000977
20
1386.207031
30
57.730289
11
-608.017822
21
1386.166992
31
58.353779
12
-607.538086
22
1386.281006
32
57.762291
13
-607.538086
23
1386.281006
33
57.762291
0
3DFACE
8
0
10
-607.538086
20
1386.281006
30
57.762291
11
-608.017822
21
1386.166992
31
58.353779
12
-607.258118
22
1386.286987
32
58.425720
13
-607.258118
23
1386.286987
33
58.425720
0
3DFACE
8
0
10
-607.538086
20
1386.281006
30
57.762291
11
-607.258118
21
1386.286987
31
58.425720
12
-606.810181
22
1386.394043
32
57.873409
13
-606.810181
23
1386.394043
33
57.873409
0
3DFACE
8
0
10
-606.810181
20
1386.394043
30
57.873409
11
-607.258118
21
1386.286987
31
58.425720
12
-606.096313
22
1386.500000
32
58.057522
13
-606.096313
23
1386.500000
33
58.057522
0
3DFACE
8
0
10
-606.096313
20
1386.500000
30
58.057522
11
-607.258118
21
1386.286987
31
58.425720
12
-606.510620
22
1386.401001
32
58.584110
13
-606.510620
23
1386.401001
33
58.584110
0
3DFACE
8
0
10
-606.096313
20
1386.500000
30
58.057522
11
-606.510620
21
1386.401001
31
58.584110
12
-605.403503
22
1386.598999
32
58.312778
13
-605.403503
23
1386.598999
33
58.312778
0
3DFACE
8
0
10
-605.403503
20
1386.598999
30
58.312778
11
-606.510620
21
1386.401001
31
58.584110
12
-605.902405
22
1386.489014
32
58.781250
13
-605.902405
23
1386.489014
33
58.781250
0
3DFACE
8
0
10
-605.403503
20
1386.598999
30
58.312778
11
-605.902405
21
1386.489014
31
58.781250
12
-604.738770
22
1386.689941
32
58.636631
13
-604.738770
23
1386.689941
33
58.636631
0
3DFACE
8
0
10
-604.738770
20
1386.689941
30
58.636631
11
-605.902405
21
1386.489014
31
58.781250
12
-605.314880
22
1386.571045
32
59.035561
13
-605.314880
23
1386.571045
33
59.035561
0
3DFACE
8
0
10
-604.738770
20
1386.689941
30
58.636631
11
-605.314880
21
1386.571045
31
59.035561
12
-604.753418
22
1386.645996
32
59.344742
13
-604.753418
23
1386.645996
33
59.344742
0
3DFACE
8
0
10
-604.738770
20
1386.689941
30
58.636631
11
-604.753418
21
1386.645996
31
59.344742
12
-604.108887
22
1386.771973
32
59.025822
13
-604.108887
23
1386.771973
33
59.025822
0
3DFACE
8
0
10
-604.108887
20
1386.771973
30
59.025822
11
-604.753418
21
1386.645996
31
59.344742
12
-604.222717
22
1386.713013
32
59.706039
13
-604.222717
23
1386.713013
33
59.706039
0
3DFACE
8
0
10
-604.108887
20
1386.771973
30
59.025822
11
-604.222717
21
1386.713013
31
59.706039
12
-603.520081
22
1386.843994
32
59.476460
13
-603.520081
23
1386.843994
33
59.476460
0
3DFACE
8
0
10
-603.520081
20
1386.843994
30
59.476460
11
-604.222717
21
1386.713013
31
59.706039
12
-603.727783
22
1386.770996
32
60.116199
13
-603.727783
23
1386.770996
33
60.116199
0
3DFACE
8
0
10
-603.520081
20
1386.843994
30
59.476460
11
-603.727783
21
1386.770996
31
60.116199
12
-602.964294
22
1386.906006
32
59.998531
13
-602.964294
23
1386.906006
33
59.998531
0
3DFACE
8
0
10
-602.964294
20
1386.906006
30
59.998531
11
-603.727783
21
1386.770996
31
60.116199
12
-603.273071
22
1386.821045
32
60.571541
13
-603.273071
23
1386.821045
33
60.571541
0
3DFACE
8
0
10
-602.964294
20
1386.906006
30
59.998531
11
-603.273071
21
1386.821045
31
60.571541
12
-602.555908
22
1386.947998
32
60.459831
13
-602.555908
23
1386.947998
33
60.459831
0
3DFACE
8
0
10
-602.555908
20
1386.947998
30
60.459831
11
-603.273071
21
1386.821045
31
60.571541
12
-602.862671
22
1386.860962
32
61.067989
13
-602.862671
23
1386.860962
33
61.067989
0
3DFACE
8
0
10
-602.555908
20
1386.947998
30
60.459831
11
-602.862671
21
1386.860962
31
61.067989
12
-602.186523
22
1386.980957
32
60.953468
13
-602.186523
23
1386.980957
33
60.953468
0
3DFACE
8
0
10
-602.186523
20
1386.980957
30
60.953468
11
-602.862671
21
1386.860962
31
61.067989
12
-602.500122
22
1386.890991
32
61.601089
13
-602.500122
23
1386.890991
33
61.601089
0
3DFACE
8
0
10
-602.186523
20
1386.980957
30
60.953468
11
-602.500122
21
1386.890991
31
61.601089
12
-601.858521
22
1387.005981
32
61.476040
13
-601.858521
23
1387.005981
33
61.476040
0
3DFACE
8
0
10
-601.858521
20
1387.005981
30
61.476040
11
-602.500122
21
1386.890991
31
61.601089
12
-601.574280
22
1387.022949
32
62.023960
13
-601.574280
23
1387.022949
33
62.023960
0
3DFACE
8
0
10
-601.574280
20
1387.022949
30
62.023960
11
-602.500122
21
1386.890991
31
61.601089
12
-602.188721
22
1386.911011
32
62.166069
13
-602.188721
23
1386.911011
33
62.166069
0
3DFACE
8
0
10
-601.574280
20
1387.022949
30
62.023960
11
-602.188721
21
1386.911011
31
62.166069
12
-601.335693
22
1387.031006
32
62.593430
13
-601.335693
23
1387.031006
33
62.593430
0
3DFACE
8
0
10
-601.335693
20
1387.031006
30
62.593430
11
-602.188721
21
1386.911011
31
62.166069
12
-601.931213
22
1386.921021
32
62.757839
13
-601.931213
23
1386.921021
33
62.757839
0
3DFACE
8
0
10
-601.335693
20
1387.031006
30
62.593430
11
-601.931213
21
1386.921021
31
62.757839
12
-601.144470
22
1387.030029
32
63.180550
13
-601.144470
23
1387.030029
33
63.180550
0
3DFACE
8
0
10
-601.144470
20
1387.030029
30
63.180550
11
-601.931213
21
1386.921021
31
62.757839
12
-601.730103
22
1386.920044
32
63.371109
13
-601.730103
23
1386.920044
33
63.371109
0
3DFACE
8
0
10
-601.144470
20
1387.030029
30
63.180550
11
-601.730103
21
1386.920044
31
63.371109
12
-600.938416
22
1387.010986
32
64.158546
13
-600.938416
23
1387.010986
33
64.158546
0
3DFACE
8
0
10
-600.938416
20
1387.010986
30
64.158546
11
-601.730103
21
1386.920044
31
63.371109
12
-601.586975
22
1386.909058
32
64.000366
13
-601.586975
23
1386.909058
33
64.000366
0
3DFACE
8
0
10
-600.938416
20
1387.010986
30
64.158546
11
-601.586975
21
1386.909058
31
64.000366
12
-601.503296
22
1386.887939
32
64.639969
13
-601.503296
23
1386.887939
33
64.639969
0
3DFACE
8
0
10
-600.938416
20
1387.010986
30
64.158546
11
-601.503296
21
1386.887939
31
64.639969
12
-600.863525
22
1386.968994
32
65.154549
13
-600.863525
23
1386.968994
33
65.154549
0
3DFACE
8
0
10
-600.863525
20
1386.968994
30
65.154549
11
-601.503296
21
1386.887939
31
64.639969
12
-601.479675
22
1386.857056
32
65.284187
13
-601.479675
23
1386.857056
33
65.284187
0
3DFACE
8
0
10
-600.863525
20
1386.968994
30
65.154549
11
-601.479675
21
1386.857056
31
65.284187
12
-600.883423
22
1386.932007
32
65.770630
13
-600.883423
23
1386.932007
33
65.770630
0
3DFACE
8
0
10
-600.883423
20
1386.932007
30
65.770630
11
-601.479675
21
1386.857056
31
65.284187
12
-601.516418
22
1386.816040
32
65.927254
13
-601.516418
23
1386.816040
33
65.927254
0
3DFACE
8
0
10
-600.883423
20
1386.932007
30
65.770630
11
-601.516418
21
1386.816040
31
65.927254
12
-600.953918
22
1386.886963
32
66.382462
13
-600.953918
23
1386.886963
33
66.382462
0
3DFACE
8
0
10
-600.953918
20
1386.886963
30
66.382462
11
-601.516418
21
1386.816040
31
65.927254
12
-601.613220
22
1386.765015
32
66.563377
13
-601.613220
23
1386.765015
33
66.563377
0
3DFACE
8
0
10
-600.953918
20
1386.886963
30
66.382462
11
-601.613220
21
1386.765015
31
66.563377
12
-601.074219
22
1386.834961
32
66.985840
13
-601.074219
23
1386.834961
33
66.985840
0
3DFACE
8
0
10
-601.074219
20
1386.834961
30
66.985840
11
-601.613220
21
1386.765015
31
66.563377
12
-601.243713
22
1386.775024
32
67.576599
13
-601.243713
23
1386.775024
33
67.576599
0
3DFACE
8
0
10
-601.243713
20
1386.775024
30
67.576599
11
-601.613220
21
1386.765015
31
66.563377
12
-601.768982
22
1386.706055
32
67.186859
13
-601.768982
23
1386.706055
33
67.186859
0
3DFACE
8
0
10
-601.243713
20
1386.775024
30
67.576599
11
-601.768982
21
1386.706055
31
67.186859
12
-601.538025
22
1386.686035
32
68.324509
13
-601.538025
23
1386.686035
33
68.324509
0
3DFACE
8
0
10
-601.538025
20
1386.686035
30
68.324509
11
-601.768982
21
1386.706055
31
67.186859
12
-601.982605
22
1386.637939
32
67.792107
13
-601.982605
23
1386.637939
33
67.792107
0
3DFACE
8
0
10
-601.538025
20
1386.686035
30
68.324509
11
-601.982605
21
1386.637939
31
67.792107
12
-601.911194
22
1386.587036
32
69.034981
13
-601.911194
23
1386.587036
33
69.034981
0
3DFACE
8
0
10
-601.911194
20
1386.587036
30
69.034981
11
-601.982605
21
1386.637939
31
67.792107
12
-602.252014
22
1386.562012
32
68.373688
13
-602.252014
23
1386.562012
33
68.373688
0
3DFACE
8
0
10
-601.911194
20
1386.587036
30
69.034981
11
-602.252014
21
1386.562012
31
68.373688
12
-602.574829
22
1386.479004
32
68.926407
13
-602.574829
23
1386.479004
33
68.926407
0
3DFACE
8
0
10
-601.911194
20
1386.587036
30
69.034981
11
-602.574829
21
1386.479004
31
68.926407
12
-602.358582
22
1386.478027
32
69.699608
13
-602.358582
23
1386.478027
33
69.699608
0
3DFACE
8
0
10
-602.358582
20
1386.478027
30
69.699608
11
-602.574829
21
1386.479004
31
68.926407
12
-602.948120
22
1386.390015
32
69.445320
13
-602.948120
23
1386.390015
33
69.445320
0
3DFACE
8
0
10
-602.358582
20
1386.478027
30
69.699608
11
-602.948120
21
1386.390015
31
69.445320
12
-602.875183
22
1386.359985
32
70.310547
13
-602.875183
23
1386.359985
33
70.310547
0
3DFACE
8
0
10
-602.875183
20
1386.359985
30
70.310547
11
-602.948120
21
1386.390015
31
69.445320
12
-603.368530
22
1386.295044
32
69.925743
13
-603.368530
23
1386.295044
33
69.925743
0
3DFACE
8
0
10
-602.875183
20
1386.359985
30
70.310547
11
-603.368530
21
1386.295044
31
69.925743
12
-603.312195
22
1386.265991
32
70.736282
13
-603.312195
23
1386.265991
33
70.736282
0
3DFACE
8
0
10
-603.312195
20
1386.265991
30
70.736282
11
-603.368530
21
1386.295044
31
69.925743
12
-603.832275
22
1386.196045
32
70.363350
13
-603.832275
23
1386.196045
33
70.363350
0
3DFACE
8
0
10
-603.312195
20
1386.265991
30
70.736282
11
-603.832275
21
1386.196045
31
70.363350
12
-603.783020
22
1386.167969
32
71.123573
13
-603.783020
23
1386.167969
33
71.123573
0
3DFACE
8
0
10
-603.783020
20
1386.167969
30
71.123573
11
-603.832275
21
1386.196045
31
70.363350
12
-604.335388
22
1386.092041
32
70.754227
13
-604.335388
23
1386.092041
33
70.754227
0
3DFACE
8
0
10
-603.783020
20
1386.167969
30
71.123573
11
-604.335388
21
1386.092041
31
70.754227
12
-604.391296
22
1386.046021
32
71.535988
13
-604.391296
23
1386.046021
33
71.535988
0
3DFACE
8
0
10
-604.391296
20
1386.046021
30
71.535988
11
-604.335388
21
1386.092041
31
70.754227
12
-604.872314
22
1385.985962
32
71.094414
13
-604.872314
23
1385.985962
33
71.094414
0
3DFACE
8
0
10
-604.391296
20
1386.046021
30
71.535988
11
-604.872314
21
1385.985962
31
71.094414
12
-605.037903
22
1385.921997
32
71.884422
13
-605.037903
23
1385.921997
33
71.884422
0
3DFACE
8
0
10
-605.037903
20
1385.921997
30
71.884422
11
-604.872314
21
1385.985962
31
71.094414
12
-605.439087
22
1385.878052
32
71.381493
13
-605.439087
23
1385.878052
33
71.381493
0
3DFACE
8
0
10
-605.037903
20
1385.921997
30
71.884422
11
-605.439087
21
1385.878052
31
71.381493
12
-605.716187
22
1385.796021
32
72.165382
13
-605.716187
23
1385.796021
33
72.165382
0
3DFACE
8
0
10
-605.716187
20
1385.796021
30
72.165382
11
-605.439087
21
1385.878052
31
71.381493
12
-606.030579
22
1385.769043
32
71.612892
13
-606.030579
23
1385.769043
33
71.612892
0
3DFACE
8
0
10
-605.716187
20
1385.796021
30
72.165382
11
-606.030579
21
1385.769043
31
71.612892
12
-606.419617
22
1385.668945
32
72.376053
13
-606.419617
23
1385.668945
33
72.376053
0
3DFACE
8
0
10
-606.419617
20
1385.668945
30
72.376053
11
-606.030579
21
1385.769043
31
71.612892
12
-606.641602
22
1385.660034
32
71.786530
13
-606.641602
23
1385.660034
33
71.786530
0
3DFACE
8
0
10
-606.419617
20
1385.668945
30
72.376053
11
-606.641602
21
1385.660034
31
71.786530
12
-607.140808
22
1385.543945
32
72.514320
13
-607.140808
23
1385.543945
33
72.514320
0
3DFACE
8
0
10
-607.140808
20
1385.543945
30
72.514320
11
-606.641602
21
1385.660034
31
71.786530
12
-607.266479
22
1385.551025
32
71.900864
13
-607.266479
23
1385.551025
33
71.900864
0
3DFACE
8
0
10
-607.140808
20
1385.543945
30
72.514320
11
-607.266479
21
1385.551025
31
71.900864
12
-607.872681
22
1385.421021
32
72.578789
13
-607.872681
23
1385.421021
33
72.578789
0
3DFACE
8
0
10
-607.872681
20
1385.421021
30
72.578789
11
-607.266479
21
1385.551025
31
71.900864
12
-607.899780
22
1385.444946
32
71.954826
13
-607.899780
23
1385.444946
33
71.954826
0
3DFACE
8
0
10
-607.871826
20
1385.416016
30
72.578537
11
-607.872681
21
1385.421021
31
72.578789
12
-607.899780
22
1385.444946
32
71.954826
13
-607.899780
23
1385.444946
33
71.954826
0
3DFACE
8
0
10
-607.872681
20
1385.421021
30
72.578789
11
-607.076721
21
1385.548950
31
72.504951
12
-607.140808
22
1385.543945
32
72.514320
13
-607.140808
23
1385.543945
33
72.514320
0
3DFACE
8
0
10
-607.872681
20
1385.421021
30
72.578789
11
-607.871826
21
1385.416016
31
72.578537
12
-607.076721
22
1385.548950
32
72.504951
13
-607.076721
23
1385.548950
33
72.504951
0
3DFACE
8
0
10
-608.000488
20
1386.203979
30
57.730099
11
-607.538086
21
1386.281006
31
57.762291
12
-607.164429
22
1386.336060
32
57.809662
13
-607.164429
23
1386.336060
33
57.809662
0
3DFACE
8
0
10
-608.000488
20
1386.203979
30
57.730099
11
-608.000977
21
1386.207031
31
57.730289
12
-607.538086
22
1386.281006
32
57.762291
13
-607.538086
23
1386.281006
33
57.762291
0
3DFACE
8
0
10
-607.538086
20
1386.281006
30
57.762291
11
-606.810181
21
1386.394043
31
57.873409
12
-607.164429
22
1386.336060
32
57.809662
13
-607.164429
23
1386.336060
33
57.809662
0
3DFACE
8
0
10
-606.341980
20
1386.461060
30
57.985142
11
-607.164429
21
1386.336060
31
57.809662
12
-606.810181
22
1386.394043
32
57.873409
13
-606.810181
23
1386.394043
33
57.873409
0
3DFACE
8
0
10
-606.810181
20
1386.394043
30
57.873409
11
-606.096313
21
1386.500000
31
58.057522
12
-606.341980
22
1386.461060
32
57.985142
13
-606.341980
23
1386.461060
33
57.985142
0
3DFACE
8
0
10
-605.503723
20
1386.582031
30
58.270500
11
-606.341980
21
1386.461060
31
57.985142
12
-606.096313
22
1386.500000
32
58.057522
13
-606.096313
23
1386.500000
33
58.057522
0
3DFACE
8
0
10
-606.096313
20
1386.500000
30
58.057522
11
-605.403503
21
1386.598999
31
58.312778
12
-605.503723
22
1386.582031
32
58.270500
13
-605.503723
23
1386.582031
33
58.270500
0
3DFACE
8
0
10
-605.503723
20
1386.582031
30
58.270500
11
-605.403503
21
1386.598999
31
58.312778
12
-604.738770
22
1386.689941
32
58.636631
13
-604.738770
23
1386.689941
33
58.636631
0
3DFACE
8
0
10
-605.503723
20
1386.582031
30
58.270500
11
-604.738770
21
1386.689941
31
58.636631
12
-604.704529
22
1386.692017
32
58.655201
13
-604.704529
23
1386.692017
33
58.655201
0
3DFACE
8
0
10
-604.704529
20
1386.692017
30
58.655201
11
-604.738770
21
1386.689941
31
58.636631
12
-604.108887
22
1386.771973
32
59.025822
13
-604.108887
23
1386.771973
33
59.025822
0
3DFACE
8
0
10
-604.704529
20
1386.692017
30
58.655201
11
-604.108887
21
1386.771973
31
59.025822
12
-603.955688
22
1386.787964
32
59.133690
13
-603.955688
23
1386.787964
33
59.133690
0
3DFACE
8
0
10
-603.955688
20
1386.787964
30
59.133690
11
-604.108887
21
1386.771973
31
59.025822
12
-603.520081
22
1386.843994
32
59.476460
13
-603.520081
23
1386.843994
33
59.476460
0
3DFACE
8
0
10
-603.955688
20
1386.787964
30
59.133690
11
-603.520081
21
1386.843994
31
59.476460
12
-603.268372
22
1386.869019
32
59.699051
13
-603.268372
23
1386.869019
33
59.699051
0
3DFACE
8
0
10
-603.268372
20
1386.869019
30
59.699051
11
-603.520081
21
1386.843994
31
59.476460
12
-602.964294
22
1386.906006
32
59.998531
13
-602.964294
23
1386.906006
33
59.998531
0
3DFACE
8
0
10
-603.268372
20
1386.869019
30
59.699051
11
-602.964294
21
1386.906006
31
59.998531
12
-602.652222
22
1386.935059
32
60.343151
13
-602.652222
23
1386.935059
33
60.343151
0
3DFACE
8
0
10
-602.964294
20
1386.906006
30
59.998531
11
-602.555908
21
1386.947998
31
60.459831
12
-602.652222
22
1386.935059
32
60.343151
13
-602.652222
23
1386.935059
33
60.343151
0
3DFACE
8
0
10
-602.652222
20
1386.935059
30
60.343151
11
-602.555908
21
1386.947998
31
60.459831
12
-602.186523
22
1386.980957
32
60.953468
13
-602.186523
23
1386.980957
33
60.953468
0
3DFACE
8
0
10
-602.652222
20
1386.935059
30
60.343151
11
-602.186523
21
1386.980957
31
60.953468
12
-602.116211
22
1386.983032
32
61.056648
13
-602.116211
23
1386.983032
33
61.056648
0
3DFACE
8
0
10
-602.116211
20
1386.983032
30
61.056648
11
-602.186523
21
1386.980957
31
60.953468
12
-601.858521
22
1387.005981
32
61.476040
13
-601.858521
23
1387.005981
33
61.476040
0
3DFACE
8
0
10
-602.116211
20
1386.983032
30
61.056648
11
-601.858521
21
1387.005981
31
61.476040
12
-601.668030
22
1387.014038
32
61.829281
13
-601.668030
23
1387.014038
33
61.829281
0
3DFACE
8
0
10
-601.858521
20
1387.005981
30
61.476040
11
-601.574280
21
1387.022949
31
62.023960
12
-601.668030
22
1387.014038
32
61.829281
13
-601.668030
23
1387.014038
33
61.829281
0
3DFACE
8
0
10
-601.668030
20
1387.014038
30
61.829281
11
-601.574280
21
1387.022949
31
62.023960
12
-601.335693
22
1387.031006
32
62.593430
13
-601.335693
23
1387.031006
33
62.593430
0
3DFACE
8
0
10
-601.668030
20
1387.014038
30
61.829281
11
-601.335693
21
1387.031006
31
62.593430
12
-601.314270
22
1387.026978
32
62.649921
13
-601.314270
23
1387.026978
33
62.649921
0
3DFACE
8
0
10
-601.314270
20
1387.026978
30
62.649921
11
-601.335693
21
1387.031006
31
62.593430
12
-601.144470
22
1387.030029
32
63.180550
13
-601.144470
23
1387.030029
33
63.180550
0
3DFACE
8
0
10
-601.314270
20
1387.026978
30
62.649921
11
-601.144470
21
1387.030029
31
63.180550
12
-601.059875
22
1387.021973
32
63.506672
13
-601.059875
23
1387.021973
33
63.506672
0
3DFACE
8
0
10
-601.059875
20
1387.021973
30
63.506672
11
-601.144470
21
1387.030029
31
63.180550
12
-600.938416
22
1387.010986
32
64.158546
13
-600.938416
23
1387.010986
33
64.158546
0
3DFACE
8
0
10
-601.059875
20
1387.021973
30
63.506672
11
-600.938416
21
1387.010986
31
64.158546
12
-600.908630
22
1386.999023
32
64.387192
13
-600.908630
23
1386.999023
33
64.387192
0
3DFACE
8
0
10
-600.908630
20
1386.999023
30
64.387192
11
-600.938416
21
1387.010986
31
64.158546
12
-600.863525
22
1386.968994
32
65.154549
13
-600.863525
23
1386.968994
33
65.154549
0
3DFACE
8
0
10
-600.908630
20
1386.999023
30
64.387192
11
-600.863525
21
1386.968994
31
65.154549
12
-600.862671
22
1386.958008
32
65.278793
13
-600.862671
23
1386.958008
33
65.278793
0
3DFACE
8
0
10
-600.862671
20
1386.958008
30
65.278793
11
-600.863525
21
1386.968994
31
65.154549
12
-600.883423
22
1386.932007
32
65.770630
13
-600.883423
23
1386.932007
33
65.770630
0
3DFACE
8
0
10
-600.862671
20
1386.958008
30
65.278793
11
-600.883423
21
1386.932007
31
65.770630
12
-600.922729
22
1386.899048
32
66.168587
13
-600.922729
23
1386.899048
33
66.168587
0
3DFACE
8
0
10
-600.883423
20
1386.932007
30
65.770630
11
-600.953918
21
1386.886963
31
66.382462
12
-600.922729
22
1386.899048
32
66.168587
13
-600.922729
23
1386.899048
33
66.168587
0
3DFACE
8
0
10
-600.922729
20
1386.899048
30
66.168587
11
-600.953918
21
1386.886963
31
66.382462
12
-601.074219
22
1386.834961
32
66.985840
13
-601.074219
23
1386.834961
33
66.985840
0
3DFACE
8
0
10
-600.922729
20
1386.899048
30
66.168587
11
-601.074219
21
1386.834961
31
66.985840
12
-601.087830
22
1386.824951
32
67.043747
13
-601.087830
23
1386.824951
33
67.043747
0
3DFACE
8
0
10
-601.087830
20
1386.824951
30
67.043747
11
-601.074219
21
1386.834961
31
66.985840
12
-601.243713
22
1386.775024
32
67.576599
13
-601.243713
23
1386.775024
33
67.576599
0
3DFACE
8
0
10
-601.087830
20
1386.824951
30
67.043747
11
-601.243713
21
1386.775024
31
67.576599
12
-601.355713
22
1386.734985
32
67.891678
13
-601.355713
23
1386.734985
33
67.891678
0
3DFACE
8
0
10
-601.355713
20
1386.734985
30
67.891678
11
-601.243713
21
1386.775024
31
67.576599
12
-601.538025
22
1386.686035
32
68.324509
13
-601.538025
23
1386.686035
33
68.324509
0
3DFACE
8
0
10
-601.355713
20
1386.734985
30
67.891678
11
-601.538025
21
1386.686035
31
68.324509
12
-601.722290
22
1386.630981
32
68.700111
13
-601.722290
23
1386.630981
33
68.700111
0
3DFACE
8
0
10
-601.538025
20
1386.686035
30
68.324509
11
-601.911194
21
1386.587036
31
69.034981
12
-601.722290
22
1386.630981
32
68.700111
13
-601.722290
23
1386.630981
33
68.700111
0
3DFACE
8
0
10
-602.182495
20
1386.514038
30
69.457336
11
-601.722290
21
1386.630981
31
68.700111
12
-601.911194
22
1386.587036
32
69.034981
13
-601.911194
23
1386.587036
33
69.034981
0
3DFACE
8
0
10
-601.911194
20
1386.587036
30
69.034981
11
-602.358582
21
1386.478027
31
69.699608
12
-602.182495
22
1386.514038
32
69.457336
13
-602.182495
23
1386.514038
33
69.457336
0
3DFACE
8
0
10
-602.729675
20
1386.386963
30
70.152496
11
-602.182495
21
1386.514038
31
69.457336
12
-602.358582
22
1386.478027
32
69.699608
13
-602.358582
23
1386.478027
33
69.699608
0
3DFACE
8
0
10
-602.358582
20
1386.478027
30
69.699608
11
-602.875183
21
1386.359985
31
70.310547
12
-602.729675
22
1386.386963
32
70.152496
13
-602.729675
23
1386.386963
33
70.152496
0
3DFACE
8
0
10
-602.729675
20
1386.386963
30
70.152496
11
-602.875183
21
1386.359985
31
70.310547
12
-603.312195
22
1386.265991
32
70.736282
13
-603.312195
23
1386.265991
33
70.736282
0
3DFACE
8
0
10
-602.729675
20
1386.386963
30
70.152496
11
-603.312195
21
1386.265991
31
70.736282
12
-603.355774
22
1386.250977
32
70.775520
13
-603.355774
23
1386.250977
33
70.775520
0
3DFACE
8
0
10
-603.355774
20
1386.250977
30
70.775520
11
-603.312195
21
1386.265991
31
70.736282
12
-603.783020
22
1386.167969
32
71.123573
13
-603.783020
23
1386.167969
33
71.123573
0
3DFACE
8
0
10
-603.355774
20
1386.250977
30
70.775520
11
-603.783020
21
1386.167969
31
71.123573
12
-604.051880
22
1386.108032
32
71.317436
13
-604.051880
23
1386.108032
33
71.317436
0
3DFACE
8
0
10
-604.051880
20
1386.108032
30
71.317436
11
-603.783020
21
1386.167969
31
71.123573
12
-604.391296
22
1386.046021
32
71.535988
13
-604.391296
23
1386.046021
33
71.535988
0
3DFACE
8
0
10
-604.051880
20
1386.108032
30
71.317436
11
-604.391296
21
1386.046021
31
71.535988
12
-604.807983
22
1385.959961
32
71.770401
13
-604.807983
23
1385.959961
33
71.770401
0
3DFACE
8
0
10
-604.391296
20
1386.046021
30
71.535988
11
-605.037903
21
1385.921997
31
71.884422
12
-604.807983
22
1385.959961
32
71.770401
13
-604.807983
23
1385.959961
33
71.770401
0
3DFACE
8
0
10
-605.535583
20
1385.822998
30
72.098457
11
-604.807983
21
1385.959961
31
71.770401
12
-605.037903
22
1385.921997
32
71.884422
13
-605.037903
23
1385.921997
33
71.884422
0
3DFACE
8
0
10
-605.037903
20
1385.921997
30
71.884422
11
-605.716187
21
1385.796021
31
72.165382
12
-605.535583
22
1385.822998
32
72.098457
13
-605.535583
23
1385.822998
33
72.098457
0
3DFACE
8
0
10
-606.294800
20
1385.686035
30
72.344292
11
-605.535583
21
1385.822998
31
72.098457
12
-605.716187
22
1385.796021
32
72.165382
13
-605.716187
23
1385.796021
33
72.165382
0
3DFACE
8
0
10
-605.716187
20
1385.796021
30
72.165382
11
-606.419617
21
1385.668945
31
72.376053
12
-606.294800
22
1385.686035
32
72.344292
13
-606.294800
23
1385.686035
33
72.344292
0
3DFACE
8
0
10
-607.076721
20
1385.548950
30
72.504951
11
-606.294800
21
1385.686035
31
72.344292
12
-606.419617
22
1385.668945
32
72.376053
13
-606.419617
23
1385.668945
33
72.376053
0
3DFACE
8
0
10
-606.419617
20
1385.668945
30
72.376053
11
-607.140808
21
1385.543945
31
72.514320
12
-607.076721
22
1385.548950
32
72.504951
13
-607.076721
23
1385.548950
33
72.504951
0
3DFACE
8
0
10
-608.017822
20
1386.166992
30
58.353779
11
-608.000977
21
1386.207031
31
57.730289
12
-608.000488
22
1386.203979
32
57.730099
13
-608.000488
23
1386.203979
33
57.730099
0
3DFACE
8
0
10
-606.980225
20
1385.093994
30
71.847618
11
-605.224792
21
1385.373047
31
71.982811
12
-606.158997
22
1385.238037
32
71.657097
13
-606.158997
23
1385.238037
33
71.657097
0
3DFACE
8
0
10
-606.158997
20
1385.238037
30
71.657097
11
-605.224792
21
1385.373047
31
71.982811
12
-604.436829
22
1385.522949
32
71.588951
13
-604.436829
23
1385.522949
33
71.588951
0
3DFACE
8
0
10
-606.158997
20
1385.238037
30
71.657097
11
-604.436829
21
1385.522949
31
71.588951
12
-605.368713
22
1385.383057
32
71.363853
13
-605.368713
23
1385.383057
33
71.363853
0
3DFACE
8
0
10
-605.368713
20
1385.383057
30
71.363853
11
-604.436829
21
1385.522949
31
71.588951
12
-603.701782
22
1385.668945
32
71.101791
13
-603.701782
23
1385.668945
33
71.101791
0
3DFACE
8
0
10
-605.368713
20
1385.383057
30
71.363853
11
-603.701782
21
1385.668945
31
71.101791
12
-604.621826
22
1385.526001
32
70.972511
13
-604.621826
23
1385.526001
33
70.972511
0
3DFACE
8
0
10
-604.621826
20
1385.526001
30
70.972511
11
-603.701782
21
1385.668945
31
71.101791
12
-603.929871
22
1385.666016
32
70.489037
13
-603.929871
23
1385.666016
33
70.489037
0
3DFACE
8
0
10
-603.929871
20
1385.666016
30
70.489037
11
-603.701782
21
1385.668945
31
71.101791
12
-603.030518
22
1385.810059
32
70.528442
13
-603.030518
23
1385.810059
33
70.528442
0
3DFACE
8
0
10
-603.929871
20
1385.666016
30
70.489037
11
-603.030518
21
1385.810059
31
70.528442
12
-603.303894
22
1385.798950
32
69.921127
13
-603.303894
23
1385.798950
33
69.921127
0
3DFACE
8
0
10
-603.303894
20
1385.798950
30
69.921127
11
-603.030518
21
1385.810059
31
70.528442
12
-602.432678
22
1385.942993
32
69.877213
13
-602.432678
23
1385.942993
33
69.877213
0
3DFACE
8
0
10
-603.303894
20
1385.798950
30
69.921127
11
-602.432678
21
1385.942993
31
69.877213
12
-602.753906
22
1385.923950
32
69.277763
13
-602.753906
23
1385.923950
33
69.277763
0
3DFACE
8
0
10
-602.753906
20
1385.923950
30
69.277763
11
-602.432678
21
1385.942993
31
69.877213
12
-601.916992
22
1386.067017
32
69.157509
13
-601.916992
23
1386.067017
33
69.157509
0
3DFACE
8
0
10
-602.753906
20
1385.923950
30
69.277763
11
-601.916992
21
1386.067017
31
69.157509
12
-602.288513
22
1386.037964
32
68.569092
13
-602.288513
23
1386.037964
33
68.569092
0
3DFACE
8
0
10
-602.288513
20
1386.037964
30
68.569092
11
-601.916992
21
1386.067017
31
69.157509
12
-601.490906
22
1386.178955
32
68.379692
13
-601.490906
23
1386.178955
33
68.379692
0
3DFACE
8
0
10
-602.288513
20
1386.037964
30
68.569092
11
-601.490906
21
1386.178955
31
68.379692
12
-601.914917
22
1386.140991
32
67.806229
13
-601.914917
23
1386.140991
33
67.806229
0
3DFACE
8
0
10
-601.914917
20
1386.140991
30
67.806229
11
-601.490906
21
1386.178955
31
68.379692
12
-601.160400
22
1386.277954
32
67.554947
13
-601.160400
23
1386.277954
33
67.554947
0
3DFACE
8
0
10
-601.914917
20
1386.140991
30
67.806229
11
-601.160400
21
1386.277954
31
67.554947
12
-601.639221
22
1386.229980
32
67.001190
13
-601.639221
23
1386.229980
33
67.001190
0
3DFACE
8
0
10
-601.639221
20
1386.229980
30
67.001190
11
-601.160400
21
1386.277954
31
67.554947
12
-600.930420
22
1386.362061
32
66.695213
13
-600.930420
23
1386.362061
33
66.695213
0
3DFACE
8
0
10
-601.639221
20
1386.229980
30
67.001190
11
-600.930420
21
1386.362061
31
66.695213
12
-601.465515
22
1386.303955
32
66.166656
13
-601.465515
23
1386.303955
33
66.166656
0
3DFACE
8
0
10
-601.465515
20
1386.303955
30
66.166656
11
-600.930420
21
1386.362061
31
66.695213
12
-600.804199
22
1386.431030
32
65.812897
13
-600.804199
23
1386.431030
33
65.812897
0
3DFACE
8
0
10
-601.465515
20
1386.303955
30
66.166656
11
-600.804199
21
1386.431030
31
65.812897
12
-601.396729
22
1386.360962
32
65.315811
13
-601.396729
23
1386.360962
33
65.315811
0
3DFACE
8
0
10
-601.396729
20
1386.360962
30
65.315811
11
-600.804199
21
1386.431030
31
65.812897
12
-600.783630
22
1386.483032
32
64.920708
13
-600.783630
23
1386.483032
33
64.920708
0
3DFACE
8
0
10
-601.396729
20
1386.360962
30
65.315811
11
-600.783630
21
1386.483032
31
64.920708
12
-601.433899
22
1386.401978
32
64.461998
13
-601.433899
23
1386.401978
33
64.461998
0
3DFACE
8
0
10
-601.433899
20
1386.401978
30
64.461998
11
-600.783630
21
1386.483032
31
64.920708
12
-600.868896
22
1386.516968
32
64.031532
13
-600.868896
23
1386.516968
33
64.031532
0
3DFACE
8
0
10
-601.433899
20
1386.401978
30
64.461998
11
-600.868896
21
1386.516968
31
64.031532
12
-601.576416
22
1386.423950
32
63.618690
13
-601.576416
23
1386.423950
33
63.618690
0
3DFACE
8
0
10
-601.576416
20
1386.423950
30
63.618690
11
-600.868896
21
1386.516968
31
64.031532
12
-601.822021
22
1386.428955
32
62.799149
13
-601.822021
23
1386.428955
33
62.799149
0
3DFACE
8
0
10
-601.822021
20
1386.428955
30
62.799149
11
-600.868896
21
1386.516968
31
64.031532
12
-601.058777
22
1386.534058
32
63.158180
13
-601.058777
23
1386.534058
33
63.158180
0
3DFACE
8
0
10
-601.822021
20
1386.428955
30
62.799149
11
-601.058777
21
1386.534058
31
63.158180
12
-602.166870
22
1386.415039
32
62.016270
13
-602.166870
23
1386.415039
33
62.016270
0
3DFACE
8
0
10
-602.166870
20
1386.415039
30
62.016270
11
-601.058777
21
1386.534058
31
63.158180
12
-601.350586
22
1386.531982
32
62.313221
13
-601.350586
23
1386.531982
33
62.313221
0
3DFACE
8
0
10
-602.166870
20
1386.415039
30
62.016270
11
-601.350586
21
1386.531982
31
62.313221
12
-602.605591
22
1386.384033
32
61.282410
13
-602.605591
23
1386.384033
33
61.282410
0
3DFACE
8
0
10
-602.605591
20
1386.384033
30
61.282410
11
-601.350586
21
1386.531982
31
62.313221
12
-601.740173
22
1386.512939
32
61.508850
13
-601.740173
23
1386.512939
33
61.508850
0
3DFACE
8
0
10
-602.605591
20
1386.384033
30
61.282410
11
-601.740173
21
1386.512939
31
61.508850
12
-603.131226
22
1386.334961
32
60.609070
13
-603.131226
23
1386.334961
33
60.609070
0
3DFACE
8
0
10
-603.131226
20
1386.334961
30
60.609070
11
-601.740173
21
1386.512939
31
61.508850
12
-602.221924
22
1386.474976
32
60.756710
13
-602.221924
23
1386.474976
33
60.756710
0
3DFACE
8
0
10
-603.131226
20
1386.334961
30
60.609070
11
-602.221924
21
1386.474976
31
60.756710
12
-603.735413
22
1386.269043
32
60.006889
13
-603.735413
23
1386.269043
33
60.006889
0
3DFACE
8
0
10
-603.735413
20
1386.269043
30
60.006889
11
-602.221924
21
1386.474976
31
60.756710
12
-602.788696
22
1386.420044
32
60.067619
13
-602.788696
23
1386.420044
33
60.067619
0
3DFACE
8
0
10
-603.735413
20
1386.269043
30
60.006889
11
-602.788696
21
1386.420044
31
60.067619
12
-604.408813
22
1386.187012
32
59.485378
13
-604.408813
23
1386.187012
33
59.485378
0
3DFACE
8
0
10
-604.408813
20
1386.187012
30
59.485378
11
-602.788696
21
1386.420044
31
60.067619
12
-603.432495
22
1386.348999
32
59.451511
13
-603.432495
23
1386.348999
33
59.451511
0
3DFACE
8
0
10
-604.408813
20
1386.187012
30
59.485378
11
-603.432495
21
1386.348999
31
59.451511
12
-605.223694
22
1386.079956
32
59.011139
13
-605.223694
23
1386.079956
33
59.011139
0
3DFACE
8
0
10
-605.223694
20
1386.079956
30
59.011139
11
-603.432495
21
1386.348999
31
59.451511
12
-604.143982
22
1386.261963
32
58.917301
13
-604.143982
23
1386.261963
33
58.917301
0
3DFACE
8
0
10
-605.223694
20
1386.079956
30
59.011139
11
-604.143982
21
1386.261963
31
58.917301
12
-606.094788
22
1385.957031
32
58.655361
13
-606.094788
23
1385.957031
33
58.655361
0
3DFACE
8
0
10
-606.094788
20
1385.957031
30
58.655361
11
-604.143982
21
1386.261963
31
58.917301
12
-604.912781
22
1386.160034
32
58.472672
13
-604.912781
23
1386.160034
33
58.472672
0
3DFACE
8
0
10
-606.094788
20
1385.957031
30
58.655361
11
-604.912781
21
1386.160034
31
58.472672
12
-607.005188
22
1385.821045
32
58.424950
13
-607.005188
23
1385.821045
33
58.424950
0
3DFACE
8
0
10
-607.005188
20
1385.821045
30
58.424950
11
-604.912781
21
1386.160034
31
58.472672
12
-607.937317
22
1385.675049
32
58.324390
13
-607.937317
23
1385.675049
33
58.324390
0
3DFACE
8
0
10
-607.937317
20
1385.675049
30
58.324390
11
-604.912781
21
1386.160034
31
58.472672
12
-605.728088
22
1386.046021
32
58.124031
13
-605.728088
23
1386.046021
33
58.124031
0
3DFACE
8
0
10
-607.937317
20
1385.675049
30
58.324390
11
-605.728088
21
1386.046021
31
58.124031
12
-607.920105
22
1385.711060
32
57.700710
13
-607.920105
23
1385.711060
33
57.700710
0
3DFACE
8
0
10
-607.920105
20
1385.711060
30
57.700710
11
-605.728088
21
1386.046021
31
58.124031
12
-606.577881
22
1385.921021
32
57.876431
13
-606.577881
23
1385.921021
33
57.876431
0
3DFACE
8
0
10
-607.920105
20
1385.711060
30
57.700710
11
-606.577881
21
1385.921021
31
57.876431
12
-607.245300
22
1385.818970
32
57.757301
13
-607.245300
23
1385.818970
33
57.757301
0
3DFACE
8
0
10
-607.819397
20
1384.952026
30
71.932404
11
-607.791382
21
1384.922974
31
72.556107
12
-606.914307
22
1385.069946
32
72.469910
13
-606.914307
23
1385.069946
33
72.469910
0
3DFACE
8
0
10
-607.819397
20
1384.952026
30
71.932404
11
-606.914307
21
1385.069946
31
72.469910
12
-606.054626
22
1385.220947
32
72.277893
13
-606.054626
23
1385.220947
33
72.277893
0
3DFACE
8
0
10
-607.819397
20
1384.952026
30
71.932404
11
-606.054626
21
1385.220947
31
72.277893
12
-605.224792
22
1385.373047
32
71.982811
13
-605.224792
23
1385.373047
33
71.982811
0
3DFACE
8
0
10
-607.819397
20
1384.952026
30
71.932404
11
-605.224792
21
1385.373047
31
71.982811
12
-606.980225
22
1385.093994
32
71.847618
13
-606.980225
23
1385.093994
33
71.847618
0
3DFACE
8
0
10
-421.439789
20
333.368500
30
11.352010
11
-422.017914
21
333.294891
31
10.887180
12
-421.378510
22
333.423492
32
10.526110
13
-421.378510
23
333.423492
33
10.526110
0
3DFACE
8
0
10
-421.378510
20
333.423492
30
10.526110
11
-422.017914
21
333.294891
31
10.887180
12
-421.979004
22
333.366089
32
9.697395
13
-421.979004
23
333.366089
33
9.697395
0
3DFACE
8
0
10
-421.378510
20
333.423492
30
10.526110
11
-421.979004
21
333.366089
31
9.697395
12
-421.362915
22
333.471100
32
9.697637
13
-421.362915
23
333.471100
33
9.697637
0
3DFACE
8
0
10
-421.362915
20
333.471100
30
9.697637
11
-421.979004
21
333.366089
31
9.697395
12
-422.024200
22
333.414490
32
8.673960
13
-422.024200
23
333.414490
33
8.673960
0
3DFACE
8
0
10
-421.362915
20
333.471100
30
9.697637
11
-422.024200
21
333.414490
31
8.673960
12
-421.410095
22
333.521515
32
8.629371
13
-421.410095
23
333.521515
33
8.629371
0
3DFACE
8
0
10
-421.410095
20
333.521515
30
8.629371
11
-422.024200
21
333.414490
31
8.673960
12
-422.133209
22
333.449005
32
7.714697
13
-422.133209
23
333.449005
33
7.714697
0
3DFACE
8
0
10
-421.410095
20
333.521515
30
8.629371
11
-422.133209
21
333.449005
31
7.714697
12
-421.523804
22
333.557495
32
7.628085
13
-421.523804
23
333.557495
33
7.628085
0
3DFACE
8
0
10
-421.523804
20
333.557495
30
7.628085
11
-422.133209
21
333.449005
31
7.714697
12
-422.306000
22
333.472595
32
6.764524
13
-422.306000
23
333.472595
33
6.764524
0
3DFACE
8
0
10
-421.523804
20
333.557495
30
7.628085
11
-422.306000
21
333.472595
31
6.764524
12
-421.704102
22
333.582092
32
6.636286
13
-421.704102
23
333.582092
33
6.636286
0
3DFACE
8
0
10
-421.704102
20
333.582092
30
6.636286
11
-422.306000
21
333.472595
31
6.764524
12
-422.541809
22
333.485199
32
5.827792
13
-422.541809
23
333.485199
33
5.827792
0
3DFACE
8
0
10
-421.704102
20
333.582092
30
6.636286
11
-422.541809
21
333.485199
31
5.827792
12
-421.950287
22
333.595093
32
5.658521
13
-421.950287
23
333.595093
33
5.658521
0
3DFACE
8
0
10
-421.950287
20
333.595093
30
5.658521
11
-422.541809
21
333.485199
31
5.827792
12
-422.839600
22
333.486694
32
4.908794
13
-422.839600
23
333.486694
33
4.908794
0
3DFACE
8
0
10
-421.950287
20
333.595093
30
5.658521
11
-422.839600
21
333.486694
31
4.908794
12
-422.261108
22
333.596588
32
4.699269
13
-422.261108
23
333.596588
33
4.699269
0
3DFACE
8
0
10
-422.261108
20
333.596588
30
4.699269
11
-422.839600
21
333.486694
31
4.908794
12
-423.197998
22
333.477112
32
4.011742
13
-423.197998
23
333.477112
33
4.011742
0
3DFACE
8
0
10
-422.261108
20
333.596588
30
4.699269
11
-423.197998
21
333.477112
31
4.011742
12
-422.635193
22
333.586487
32
3.762926
13
-422.635193
23
333.586487
33
3.762926
0
3DFACE
8
0
10
-422.635193
20
333.586487
30
3.762926
11
-423.197998
21
333.477112
31
4.011742
12
-423.615387
22
333.456390
32
3.140748
13
-423.615387
23
333.456390
33
3.140748
0
3DFACE
8
0
10
-422.635193
20
333.586487
30
3.762926
11
-423.615387
21
333.456390
31
3.140748
12
-423.070892
22
333.564911
32
2.853782
13
-423.070892
23
333.564911
33
2.853782
0
3DFACE
8
0
10
-423.070892
20
333.564911
30
2.853782
11
-423.615387
21
333.456390
31
3.140748
12
-424.141296
22
333.420990
32
2.215934
13
-424.141296
23
333.420990
33
2.215934
0
3DFACE
8
0
10
-423.070892
20
333.564911
30
2.853782
11
-424.141296
21
333.420990
31
2.215934
12
-423.619812
22
333.527802
32
1.888458
13
-423.619812
23
333.527802
33
1.888458
0
3DFACE
8
0
10
-423.619812
20
333.527802
30
1.888458
11
-424.141296
21
333.420990
31
2.215934
12
-424.733490
22
333.372498
32
1.332756
13
-424.733490
23
333.372498
33
1.332756
0
3DFACE
8
0
10
-423.619812
20
333.527802
30
1.888458
11
-424.733490
21
333.372498
31
1.332756
12
-424.237915
22
333.477112
32
0.966595
13
-424.237915
23
333.477112
33
0.966595
0
3DFACE
8
0
10
-424.237915
20
333.477112
30
0.966595
11
-424.733490
21
333.372498
31
1.332756
12
-425.388794
22
333.311096
32
0.496131
13
-425.388794
23
333.311096
33
0.496131
0
3DFACE
8
0
10
-424.237915
20
333.477112
30
0.966595
11
-425.388794
21
333.311096
31
0.496131
12
-424.921906
22
333.412994
32
0.093321
13
-424.921906
23
333.412994
33
0.093321
0
3DFACE
8
0
10
-424.921906
20
333.412994
30
0.093321
11
-425.388794
21
333.311096
31
0.496131
12
-426.103485
22
333.237305
32
-0.289288
13
-426.103485
23
333.237305
33
-0.289288
0
3DFACE
8
0
10
-424.921906
20
333.412994
30
0.093321
11
-426.103485
21
333.237305
31
-0.289288
12
-425.667908
22
333.335785
32
-0.726507
13
-425.667908
23
333.335785
33
-0.726507
0
3DFACE
8
0
10
-425.667908
20
333.335785
30
-0.726507
11
-426.103485
21
333.237305
31
-0.289288
12
-427.232910
22
333.109406
32
-1.324975
13
-427.232910
23
333.109406
33
-1.324975
0
3DFACE
8
0
10
-425.667908
20
333.335785
30
-0.726507
11
-427.232910
21
333.109406
31
-1.324975
12
-426.846802
22
333.202209
32
-1.807563
13
-426.846802
23
333.202209
33
-1.807563
0
3DFACE
8
0
10
-426.846802
20
333.202209
30
-1.807563
11
-427.232910
21
333.109406
31
-1.324975
12
-427.995605
22
333.016815
32
-1.910672
13
-427.995605
23
333.016815
33
-1.910672
0
3DFACE
8
0
10
-426.846802
20
333.202209
30
-1.807563
11
-427.995605
21
333.016815
31
-1.910672
12
-427.642914
22
333.105591
32
-2.418918
13
-427.642914
23
333.105591
33
-2.418918
0
3DFACE
8
0
10
-427.642914
20
333.105591
30
-2.418918
11
-427.995605
21
333.016815
31
-1.910672
12
-428.795197
22
332.915314
32
-2.443159
13
-428.795197
23
332.915314
33
-2.443159
0
3DFACE
8
0
10
-427.642914
20
333.105591
30
-2.418918
11
-428.795197
21
332.915314
31
-2.443159
12
-428.477509
22
332.999603
32
-2.974733
13
-428.477509
23
332.999603
33
-2.974733
0
3DFACE
8
0
10
-428.477509
20
332.999603
30
-2.974733
11
-428.795197
21
332.915314
31
-2.443159
12
-429.628113
22
332.805389
32
-2.920002
13
-429.628113
23
332.805389
33
-2.920002
0
3DFACE
8
0
10
-428.477509
20
332.999603
30
-2.974733
11
-429.628113
21
332.805389
31
-2.920002
12
-429.346893
22
332.884796
32
-3.472464
13
-429.346893
23
332.884796
33
-3.472464
0
3DFACE
8
0
10
-429.346893
20
332.884796
30
-3.472464
11
-429.628113
21
332.805389
31
-2.920002
12
-430.490601
22
332.687408
32
-3.339017
13
-430.490601
23
332.687408
33
-3.339017
0
3DFACE
8
0
10
-429.346893
20
332.884796
30
-3.472464
11
-430.490601
21
332.687408
31
-3.339017
12
-430.247101
22
332.761597
32
-3.909832
13
-430.247101
23
332.761597
33
-3.909832
0
3DFACE
8
0
10
-430.247101
20
332.761597
30
-3.909832
11
-430.490601
21
332.687408
31
-3.339017
12
-431.378510
22
332.562103
32
-3.698285
13
-431.378510
23
332.562103
33
-3.698285
0
3DFACE
8
0
10
-430.247101
20
332.761597
30
-3.909832
11
-431.378510
21
332.562103
31
-3.698285
12
-431.173889
22
332.630798
32
-4.284837
13
-431.173889
23
332.630798
33
-4.284837
0
3DFACE
8
0
10
-431.173889
20
332.630798
30
-4.284837
11
-431.378510
21
332.562103
31
-3.698285
12
-432.287903
22
332.429901
32
-3.996159
13
-432.287903
23
332.429901
33
-3.996159
0
3DFACE
8
0
10
-431.173889
20
332.630798
30
-4.284837
11
-432.287903
21
332.429901
31
-3.996159
12
-432.123199
22
332.492706
32
-4.595758
13
-432.123199
23
332.492706
33
-4.595758
0
3DFACE
8
0
10
-432.123199
20
332.492706
30
-4.595758
11
-432.287903
21
332.429901
31
-3.996159
12
-433.186005
22
332.295685
32
-4.224990
13
-433.186005
23
332.295685
33
-4.224990
0
3DFACE
8
0
10
-432.123199
20
332.492706
30
-4.595758
11
-433.186005
21
332.295685
31
-4.224990
12
-433.060486
22
332.352692
32
-4.834614
13
-433.060486
23
332.352692
33
-4.834614
0
3DFACE
8
0
10
-433.060486
20
332.352692
30
-4.834614
11
-433.186005
21
332.295685
31
-4.224990
12
-434.096405
22
332.156403
32
-4.393865
13
-434.096405
23
332.156403
33
-4.393865
0
3DFACE
8
0
10
-433.060486
20
332.352692
30
-4.834614
11
-434.096405
21
332.156403
31
-4.393865
12
-434.010803
22
332.207214
32
-5.010888
13
-434.010803
23
332.207214
33
-5.010888
0
3DFACE
8
0
10
-434.010803
20
332.207214
30
-5.010888
11
-434.096405
21
332.156403
31
-4.393865
12
-435.015198
22
332.012299
32
-4.502055
13
-435.015198
23
332.012299
33
-4.502055
0
3DFACE
8
0
10
-434.010803
20
332.207214
30
-5.010888
11
-435.015198
21
332.012299
31
-4.502055
12
-434.969910
22
332.056793
32
-5.123817
13
-434.969910
23
332.056793
33
-5.123817
0
3DFACE
8
0
10
-434.969910
20
332.056793
30
-5.123817
11
-435.015198
21
332.012299
31
-4.502055
12
-435.938599
22
331.864105
32
-4.549099
13
-435.938599
23
331.864105
33
-4.549099
0
3DFACE
8
0
10
-434.969910
20
332.056793
30
-5.123817
11
-435.938599
21
331.864105
31
-4.549099
12
-435.933685
22
331.902100
32
-5.172923
13
-435.933685
23
331.902100
33
-5.172923
0
3DFACE
8
0
10
-421.894501
20
333.161591
30
13.788710
11
-422.388885
21
333.106415
31
13.233570
12
-421.698212
22
333.237396
32
12.985840
13
-421.698212
23
333.237396
33
12.985840
0
3DFACE
8
0
10
-421.698212
20
333.237396
30
12.985840
11
-422.388885
21
333.106415
31
13.233570
12
-422.154785
22
333.208099
32
12.068660
13
-422.154785
23
333.208099
33
12.068660
0
3DFACE
8
0
10
-421.698212
20
333.237396
30
12.985840
11
-422.154785
21
333.208099
31
12.068660
12
-421.546387
22
333.306396
32
12.172770
13
-421.546387
23
333.306396
33
12.172770
0
3DFACE
8
0
10
-421.546387
20
333.306396
30
12.172770
11
-422.154785
21
333.208099
31
12.068660
12
-422.017914
22
333.294891
32
10.887180
13
-422.017914
23
333.294891
33
10.887180
0
3DFACE
8
0
10
-421.546387
20
333.306396
30
12.172770
11
-422.017914
21
333.294891
31
10.887180
12
-421.439789
22
333.368500
32
11.352010
13
-421.439789
23
333.368500
33
11.352010
0
3DFACE
8
0
10
-426.825195
20
331.945190
30
21.348660
11
-426.553009
21
332.041809
31
20.291960
12
-426.137390
22
332.089691
32
20.756269
13
-426.137390
23
332.089691
33
20.756269
0
3DFACE
8
0
10
-426.137390
20
332.089691
30
20.756269
11
-426.553009
21
332.041809
31
20.291960
12
-425.585297
22
332.253204
32
19.312321
13
-425.585297
23
332.253204
33
19.312321
0
3DFACE
8
0
10
-426.137390
20
332.089691
30
20.756269
11
-425.585297
21
332.253204
31
19.312321
12
-425.127289
22
332.310303
32
19.733721
13
-425.127289
23
332.310303
33
19.733721
0
3DFACE
8
0
10
-425.127289
20
332.310303
30
19.733721
11
-425.585297
21
332.253204
31
19.312321
12
-424.972412
22
332.393188
32
18.578770
13
-424.972412
23
332.393188
33
18.578770
0
3DFACE
8
0
10
-425.127289
20
332.310303
30
19.733721
11
-424.972412
21
332.393188
31
18.578770
12
-424.487610
22
332.456390
32
18.968040
13
-424.487610
23
332.456390
33
18.968040
0
3DFACE
8
0
10
-424.487610
20
332.456390
30
18.968040
11
-424.972412
21
332.393188
31
18.578770
12
-424.410400
22
332.527191
32
17.804501
13
-424.410400
23
332.527191
33
17.804501
0
3DFACE
8
0
10
-424.487610
20
332.456390
30
18.968040
11
-424.410400
21
332.527191
31
17.804501
12
-423.900909
22
332.596100
32
18.159861
13
-423.900909
23
332.596100
33
18.159861
0
3DFACE
8
0
10
-423.900909
20
332.596100
30
18.159861
11
-424.410400
21
332.527191
31
17.804501
12
-423.901886
22
332.654388
32
16.993080
13
-423.901886
23
332.654388
33
16.993080
0
3DFACE
8
0
10
-423.900909
20
332.596100
30
18.159861
11
-423.901886
21
332.654388
31
16.993080
12
-423.370087
22
332.728912
32
17.312889
13
-423.370087
23
332.728912
33
17.312889
0
3DFACE
8
0
10
-423.370087
20
332.728912
30
17.312889
11
-423.901886
21
332.654388
31
16.993080
12
-423.449005
22
332.774414
32
16.148211
13
-423.449005
23
332.774414
33
16.148211
0
3DFACE
8
0
10
-423.370087
20
332.728912
30
17.312889
11
-423.449005
21
332.774414
31
16.148211
12
-422.897400
22
332.854095
32
16.431009
13
-422.897400
23
332.854095
33
16.431009
0
3DFACE
8
0
10
-422.897400
20
332.854095
30
16.431009
11
-423.449005
21
332.774414
31
16.148211
12
-423.053986
22
332.886597
32
15.273780
13
-423.053986
23
332.886597
33
15.273780
0
3DFACE
8
0
10
-422.897400
20
332.854095
30
16.431009
11
-423.053986
21
332.886597
31
15.273780
12
-422.484985
22
332.971100
32
15.518280
13
-422.484985
23
332.971100
33
15.518280
0
3DFACE
8
0
10
-422.484985
20
332.971100
30
15.518280
11
-423.053986
21
332.886597
31
15.273780
12
-422.718506
22
332.990387
32
14.373780
13
-422.718506
23
332.990387
33
14.373780
0
3DFACE
8
0
10
-422.484985
20
332.971100
30
15.518280
11
-422.718506
21
332.990387
31
14.373780
12
-422.134888
22
333.079315
32
14.578870
13
-422.134888
23
333.079315
33
14.578870
0
3DFACE
8
0
10
-422.134888
20
333.079315
30
14.578870
11
-422.718506
21
332.990387
31
14.373780
12
-422.388885
22
333.106415
32
13.233570
13
-422.388885
23
333.106415
33
13.233570
0
3DFACE
8
0
10
-422.134888
20
333.079315
30
14.578870
11
-422.388885
21
333.106415
31
13.233570
12
-421.894501
22
333.161591
32
13.788710
13
-421.894501
23
333.161591
33
13.788710
0
3DFACE
8
0
10
-426.553009
20
332.041809
30
20.291960
11
-426.825195
21
331.945190
31
21.348660
12
-427.212006
22
331.903290
32
20.859489
13
-427.212006
23
331.903290
33
20.859489
0
3DFACE
8
0
10
-427.212006
20
331.903290
30
20.859489
11
-426.825195
21
331.945190
31
21.348660
12
-427.548187
22
331.797302
32
21.896681
13
-427.548187
23
331.797302
33
21.896681
0
3DFACE
8
0
10
-427.212006
20
331.903290
30
20.859489
11
-427.548187
21
331.797302
31
21.896681
12
-427.904602
22
331.761597
32
21.384520
13
-427.904602
23
331.761597
33
21.384520
0
3DFACE
8
0
10
-427.904602
20
331.761597
30
21.384520
11
-427.548187
21
331.797302
31
21.896681
12
-428.303589
22
331.646698
32
22.398239
13
-428.303589
23
331.646698
33
22.398239
0
3DFACE
8
0
10
-427.904602
20
331.761597
30
21.384520
11
-428.303589
21
331.646698
31
22.398239
12
-428.628296
22
331.617310
32
21.865021
13
-428.628296
23
331.617310
33
21.865021
0
3DFACE
8
0
10
-428.628296
20
331.617310
30
21.865021
11
-428.303589
21
331.646698
31
22.398239
12
-429.088501
22
331.493896
32
22.851431
13
-429.088501
23
331.493896
33
22.851431
0
3DFACE
8
0
10
-428.628296
20
331.617310
30
21.865021
11
-429.088501
21
331.493896
31
22.851431
12
-429.380310
22
331.470886
32
22.299191
13
-429.380310
23
331.470886
33
22.299191
0
3DFACE
8
0
10
-429.380310
20
331.470886
30
22.299191
11
-429.088501
21
331.493896
31
22.851431
12
-429.899994
22
331.339508
32
23.254520
13
-429.899994
23
331.339508
33
23.254520
0
3DFACE
8
0
10
-429.380310
20
331.470886
30
22.299191
11
-429.899994
21
331.339508
31
23.254520
12
-430.157715
22
331.322906
32
22.685369
13
-430.157715
23
331.322906
33
22.685369
0
3DFACE
8
0
10
-430.157715
20
331.322906
30
22.685369
11
-429.899994
21
331.339508
31
23.254520
12
-430.817200
22
331.168915
32
23.637320
13
-430.817200
23
331.168915
33
23.637320
0
3DFACE
8
0
10
-430.157715
20
331.322906
30
22.685369
11
-430.817200
21
331.168915
31
23.637320
12
-431.036407
22
331.159485
32
23.052099
13
-431.036407
23
331.159485
33
23.052099
0
3DFACE
8
0
10
-431.036407
20
331.159485
30
23.052099
11
-430.817200
21
331.168915
31
23.637320
12
-431.758514
22
330.997894
32
23.956221
13
-431.758514
23
330.997894
33
23.956221
0
3DFACE
8
0
10
-431.036407
20
331.159485
30
23.052099
11
-431.758514
21
330.997894
31
23.956221
12
-431.938202
22
330.995605
32
23.357630
13
-431.938202
23
330.995605
33
23.357630
0
3DFACE
8
0
10
-431.938202
20
330.995605
30
23.357630
11
-431.758514
21
330.997894
31
23.956221
12
-432.719391
22
330.827301
32
24.209770
13
-432.719391
23
330.827301
33
24.209770
0
3DFACE
8
0
10
-431.938202
20
330.995605
30
23.357630
11
-432.719391
21
330.827301
31
24.209770
12
-432.858795
22
330.832092
32
23.600540
13
-432.858795
23
330.832092
33
23.600540
0
3DFACE
8
0
10
-432.858795
20
330.832092
30
23.600540
11
-432.719391
21
330.827301
31
24.209770
12
-433.695709
22
330.657715
32
24.396790
13
-433.695709
23
330.657715
33
24.396790
0
3DFACE
8
0
10
-432.858795
20
330.832092
30
23.600540
11
-433.695709
21
330.657715
31
24.396790
12
-433.794189
22
330.669586
32
23.779711
13
-433.794189
23
330.669586
33
23.779711
0
3DFACE
8
0
10
-433.794189
20
330.669586
30
23.779711
11
-433.695709
21
330.657715
31
24.396790
12
-434.682892
22
330.490112
32
24.516430
13
-434.682892
23
330.490112
33
24.516430
0
3DFACE
8
0
10
-433.794189
20
330.669586
30
23.779711
11
-434.682892
21
330.490112
31
24.516430
12
-434.739899
22
330.509003
32
23.894329
13
-434.739899
23
330.509003
33
23.894329
0
3DFACE
8
0
10
-434.739899
20
330.509003
30
23.894329
11
-434.682892
21
330.490112
31
24.516430
12
-435.676300
22
330.325104
32
24.568140
13
-435.676300
23
330.325104
33
24.568140
0
3DFACE
8
0
10
-434.739899
20
330.509003
30
23.894329
11
-435.676300
21
330.325104
31
24.568140
12
-435.691711
22
330.351013
32
23.943859
13
-435.691711
23
330.351013
33
23.943859
0
3DFACE
8
0
10
-607.005188
20
1385.821045
30
58.424950
11
-434.096405
21
332.156403
31
-4.393865
12
-433.186005
22
332.295685
32
-4.224990
13
-433.186005
23
332.295685
33
-4.224990
0
3DFACE
8
0
10
-433.186005
20
332.295685
30
-4.224990
11
-606.094788
21
1385.957031
31
58.655361
12
-607.005188
22
1385.821045
32
58.424950
13
-607.005188
23
1385.821045
33
58.424950
0
3DFACE
8
0
10
-433.186005
20
332.295685
30
-4.224990
11
-432.287903
21
332.429901
31
-3.996159
12
-606.094788
22
1385.957031
32
58.655361
13
-606.094788
23
1385.957031
33
58.655361
0
3DFACE
8
0
10
-606.094788
20
1385.957031
30
58.655361
11
-432.287903
21
332.429901
31
-3.996159
12
-431.378510
22
332.562103
32
-3.698285
13
-431.378510
23
332.562103
33
-3.698285
0
3DFACE
8
0
10
-431.378510
20
332.562103
30
-3.698285
11
-605.223694
21
1386.079956
31
59.011139
12
-606.094788
22
1385.957031
32
58.655361
13
-606.094788
23
1385.957031
33
58.655361
0
3DFACE
8
0
10
-431.378510
20
332.562103
30
-3.698285
11
-430.490601
21
332.687408
31
-3.339017
12
-605.223694
22
1386.079956
32
59.011139
13
-605.223694
23
1386.079956
33
59.011139
0
3DFACE
8
0
10
-603.735413
20
1386.269043
30
60.006889
11
-427.232910
21
333.109406
31
-1.324975
12
-426.103485
22
333.237305
32
-0.289288
13
-426.103485
23
333.237305
33
-0.289288
0
3DFACE
8
0
10
-426.103485
20
333.237305
30
-0.289288
11
-603.131226
21
1386.334961
31
60.609070
12
-603.735413
22
1386.269043
32
60.006889
13
-603.735413
23
1386.269043
33
60.006889
0
3DFACE
8
0
10
-602.605591
20
1386.384033
30
61.282410
11
-424.733490
21
333.372498
31
1.332756
12
-424.141296
22
333.420990
32
2.215934
13
-424.141296
23
333.420990
33
2.215934
0
3DFACE
8
0
10
-424.141296
20
333.420990
30
2.215934
11
-602.166870
21
1386.415039
31
62.016270
12
-602.605591
22
1386.384033
32
61.282410
13
-602.605591
23
1386.384033
33
61.282410
0
3DFACE
8
0
10
-601.396729
20
1386.360962
30
65.315811
11
-421.979004
21
333.366089
31
9.697395
12
-422.017914
22
333.294891
32
10.887180
13
-422.017914
23
333.294891
33
10.887180
0
3DFACE
8
0
10
-422.017914
20
333.294891
30
10.887180
11
-601.465515
21
1386.303955
31
66.166656
12
-601.396729
22
1386.360962
32
65.315811
13
-601.396729
23
1386.360962
33
65.315811
0
3DFACE
8
0
10
-601.639221
20
1386.229980
30
67.001190
11
-422.388885
21
333.106415
31
13.233570
12
-422.718506
22
332.990387
32
14.373780
13
-422.718506
23
332.990387
33
14.373780
0
3DFACE
8
0
10
-422.718506
20
332.990387
30
14.373780
11
-601.914917
21
1386.140991
31
67.806229
12
-601.639221
22
1386.229980
32
67.001190
13
-601.639221
23
1386.229980
33
67.001190
0
3DFACE
8
0
10
-422.718506
20
332.990387
30
14.373780
11
-423.053986
21
332.886597
31
15.273780
12
-601.914917
22
1386.140991
32
67.806229
13
-601.914917
23
1386.140991
33
67.806229
0
3DFACE
8
0
10
-601.914917
20
1386.140991
30
67.806229
11
-423.053986
21
332.886597
31
15.273780
12
-423.449005
22
332.774414
32
16.148211
13
-423.449005
23
332.774414
33
16.148211
0
3DFACE
8
0
10
-423.449005
20
332.774414
30
16.148211
11
-602.288513
21
1386.037964
31
68.569092
12
-601.914917
22
1386.140991
32
67.806229
13
-601.914917
23
1386.140991
33
67.806229
0
3DFACE
8
0
10
-606.158997
20
1385.238037
30
71.657097
11
-431.938202
21
330.995605
31
23.357630
12
-432.858795
22
330.832092
32
23.600540
13
-432.858795
23
330.832092
33
23.600540
0
3DFACE
8
0
10
-432.858795
20
330.832092
30
23.600540
11
-606.980225
21
1385.093994
31
71.847618
12
-606.158997
22
1385.238037
32
71.657097
13
-606.158997
23
1385.238037
33
71.657097
0
3DFACE
8
0
10
-432.858795
20
330.832092
30
23.600540
11
-433.794189
21
330.669586
31
23.779711
12
-606.980225
22
1385.093994
32
71.847618
13
-606.980225
23
1385.093994
33
71.847618
0
3DFACE
8
0
10
-430.490601
20
332.687408
30
-3.339017
11
-429.628113
21
332.805389
31
-2.920002
12
-605.223694
22
1386.079956
32
59.011139
13
-605.223694
23
1386.079956
33
59.011139
0
3DFACE
8
0
10
-605.223694
20
1386.079956
30
59.011139
11
-429.628113
21
332.805389
31
-2.920002
12
-428.795197
22
332.915314
32
-2.443159
13
-428.795197
23
332.915314
33
-2.443159
0
3DFACE
8
0
10
-605.223694
20
1386.079956
30
59.011139
11
-428.795197
21
332.915314
31
-2.443159
12
-604.408813
22
1386.187012
32
59.485378
13
-604.408813
23
1386.187012
33
59.485378
0
3DFACE
8
0
10
-428.795197
20
332.915314
30
-2.443159
11
-427.995605
21
333.016815
31
-1.910672
12
-604.408813
22
1386.187012
32
59.485378
13
-604.408813
23
1386.187012
33
59.485378
0
3DFACE
8
0
10
-604.408813
20
1386.187012
30
59.485378
11
-427.995605
21
333.016815
31
-1.910672
12
-427.232910
22
333.109406
32
-1.324975
13
-427.232910
23
333.109406
33
-1.324975
0
3DFACE
8
0
10
-604.408813
20
1386.187012
30
59.485378
11
-427.232910
21
333.109406
31
-1.324975
12
-603.735413
22
1386.269043
32
60.006889
13
-603.735413
23
1386.269043
33
60.006889
0
3DFACE
8
0
10
-426.103485
20
333.237305
30
-0.289288
11
-425.388794
21
333.311096
31
0.496131
12
-603.131226
22
1386.334961
32
60.609070
13
-603.131226
23
1386.334961
33
60.609070
0
3DFACE
8
0
10
-603.131226
20
1386.334961
30
60.609070
11
-425.388794
21
333.311096
31
0.496131
12
-424.733490
22
333.372498
32
1.332756
13
-424.733490
23
333.372498
33
1.332756
0
3DFACE
8
0
10
-603.131226
20
1386.334961
30
60.609070
11
-424.733490
21
333.372498
31
1.332756
12
-602.605591
22
1386.384033
32
61.282410
13
-602.605591
23
1386.384033
33
61.282410
0
3DFACE
8
0
10
-424.141296
20
333.420990
30
2.215934
11
-423.615387
21
333.456390
31
3.140748
12
-602.166870
22
1386.415039
32
62.016270
13
-602.166870
23
1386.415039
33
62.016270
0
3DFACE
8
0
10
-602.166870
20
1386.415039
30
62.016270
11
-423.615387
21
333.456390
31
3.140748
12
-423.197998
22
333.477112
32
4.011742
13
-423.197998
23
333.477112
33
4.011742
0
3DFACE
8
0
10
-602.166870
20
1386.415039
30
62.016270
11
-423.197998
21
333.477112
31
4.011742
12
-601.822021
22
1386.428955
32
62.799149
13
-601.822021
23
1386.428955
33
62.799149
0
3DFACE
8
0
10
-423.197998
20
333.477112
30
4.011742
11
-422.839600
21
333.486694
31
4.908794
12
-601.822021
22
1386.428955
32
62.799149
13
-601.822021
23
1386.428955
33
62.799149
0
3DFACE
8
0
10
-601.822021
20
1386.428955
30
62.799149
11
-422.839600
21
333.486694
31
4.908794
12
-422.541809
22
333.485199
32
5.827792
13
-422.541809
23
333.485199
33
5.827792
0
3DFACE
8
0
10
-601.822021
20
1386.428955
30
62.799149
11
-422.541809
21
333.485199
31
5.827792
12
-601.576416
22
1386.423950
32
63.618690
13
-601.576416
23
1386.423950
33
63.618690
0
3DFACE
8
0
10
-422.541809
20
333.485199
30
5.827792
11
-422.306000
21
333.472595
31
6.764524
12
-601.576416
22
1386.423950
32
63.618690
13
-601.576416
23
1386.423950
33
63.618690
0
3DFACE
8
0
10
-601.576416
20
1386.423950
30
63.618690
11
-422.306000
21
333.472595
31
6.764524
12
-422.133209
22
333.449005
32
7.714697
13
-422.133209
23
333.449005
33
7.714697
0
3DFACE
8
0
10
-601.576416
20
1386.423950
30
63.618690
11
-422.133209
21
333.449005
31
7.714697
12
-601.433899
22
1386.401978
32
64.461998
13
-601.433899
23
1386.401978
33
64.461998
0
3DFACE
8
0
10
-422.133209
20
333.449005
30
7.714697
11
-422.024200
21
333.414490
31
8.673960
12
-601.433899
22
1386.401978
32
64.461998
13
-601.433899
23
1386.401978
33
64.461998
0
3DFACE
8
0
10
-601.433899
20
1386.401978
30
64.461998
11
-422.024200
21
333.414490
31
8.673960
12
-421.979004
22
333.366089
32
9.697395
13
-421.979004
23
333.366089
33
9.697395
0
3DFACE
8
0
10
-601.433899
20
1386.401978
30
64.461998
11
-421.979004
21
333.366089
31
9.697395
12
-601.396729
22
1386.360962
32
65.315811
13
-601.396729
23
1386.360962
33
65.315811
0
3DFACE
8
0
10
-422.017914
20
333.294891
30
10.887180
11
-422.154785
21
333.208099
31
12.068660
12
-601.465515
22
1386.303955
32
66.166656
13
-601.465515
23
1386.303955
33
66.166656
0
3DFACE
8
0
10
-601.465515
20
1386.303955
30
66.166656
11
-422.154785
21
333.208099
31
12.068660
12
-422.388885
22
333.106415
32
13.233570
13
-422.388885
23
333.106415
33
13.233570
0
3DFACE
8
0
10
-601.465515
20
1386.303955
30
66.166656
11
-422.388885
21
333.106415
31
13.233570
12
-601.639221
22
1386.229980
32
67.001190
13
-601.639221
23
1386.229980
33
67.001190
0
3DFACE
8
0
10
-423.449005
20
332.774414
30
16.148211
11
-423.901886
21
332.654388
31
16.993080
12
-602.288513
22
1386.037964
32
68.569092
13
-602.288513
23
1386.037964
33
68.569092
0
3DFACE
8
0
10
-602.288513
20
1386.037964
30
68.569092
11
-423.901886
21
332.654388
31
16.993080
12
-424.410400
22
332.527191
32
17.804501
13
-424.410400
23
332.527191
33
17.804501
0
3DFACE
8
0
10
-602.288513
20
1386.037964
30
68.569092
11
-424.410400
21
332.527191
31
17.804501
12
-602.753906
22
1385.923950
32
69.277763
13
-602.753906
23
1385.923950
33
69.277763
0
3DFACE
8
0
10
-424.410400
20
332.527191
30
17.804501
11
-424.972412
21
332.393188
31
18.578770
12
-602.753906
22
1385.923950
32
69.277763
13
-602.753906
23
1385.923950
33
69.277763
0
3DFACE
8
0
10
-602.753906
20
1385.923950
30
69.277763
11
-424.972412
21
332.393188
31
18.578770
12
-425.585297
22
332.253204
32
19.312321
13
-425.585297
23
332.253204
33
19.312321
0
3DFACE
8
0
10
-602.753906
20
1385.923950
30
69.277763
11
-425.585297
21
332.253204
31
19.312321
12
-603.303894
22
1385.798950
32
69.921127
13
-603.303894
23
1385.798950
33
69.921127
0
3DFACE
8
0
10
-425.585297
20
332.253204
30
19.312321
11
-426.553009
21
332.041809
31
20.291960
12
-603.303894
22
1385.798950
32
69.921127
13
-603.303894
23
1385.798950
33
69.921127
0
3DFACE
8
0
10
-603.303894
20
1385.798950
30
69.921127
11
-426.553009
21
332.041809
31
20.291960
12
-427.212006
22
331.903290
32
20.859489
13
-427.212006
23
331.903290
33
20.859489
0
3DFACE
8
0
10
-603.303894
20
1385.798950
30
69.921127
11
-427.212006
21
331.903290
31
20.859489
12
-603.929871
22
1385.666016
32
70.489037
13
-603.929871
23
1385.666016
33
70.489037
0
3DFACE
8
0
10
-427.212006
20
331.903290
30
20.859489
11
-427.904602
21
331.761597
31
21.384520
12
-603.929871
22
1385.666016
32
70.489037
13
-603.929871
23
1385.666016
33
70.489037
0
3DFACE
8
0
10
-603.929871
20
1385.666016
30
70.489037
11
-427.904602
21
331.761597
31
21.384520
12
-428.628296
22
331.617310
32
21.865021
13
-428.628296
23
331.617310
33
21.865021
0
3DFACE
8
0
10
-603.929871
20
1385.666016
30
70.489037
11
-428.628296
21
331.617310
31
21.865021
12
-604.621826
22
1385.526001
32
70.972511
13
-604.621826
23
1385.526001
33
70.972511
0
3DFACE
8
0
10
-428.628296
20
331.617310
30
21.865021
11
-429.380310
21
331.470886
31
22.299191
12
-604.621826
22
1385.526001
32
70.972511
13
-604.621826
23
1385.526001
33
70.972511
0
3DFACE
8
0
10
-604.621826
20
1385.526001
30
70.972511
11
-429.380310
21
331.470886
31
22.299191
12
-430.157715
22
331.322906
32
22.685369
13
-430.157715
23
331.322906
33
22.685369
0
3DFACE
8
0
10
-604.621826
20
1385.526001
30
70.972511
11
-430.157715
21
331.322906
31
22.685369
12
-605.368713
22
1385.383057
32
71.363853
13
-605.368713
23
1385.383057
33
71.363853
0
3DFACE
8
0
10
-430.157715
20
331.322906
30
22.685369
11
-431.036407
21
331.159485
31
23.052099
12
-605.368713
22
1385.383057
32
71.363853
13
-605.368713
23
1385.383057
33
71.363853
0
3DFACE
8
0
10
-605.368713
20
1385.383057
30
71.363853
11
-431.036407
21
331.159485
31
23.052099
12
-431.938202
22
330.995605
32
23.357630
13
-431.938202
23
330.995605
33
23.357630
0
3DFACE
8
0
10
-605.368713
20
1385.383057
30
71.363853
11
-431.938202
21
330.995605
31
23.357630
12
-606.158997
22
1385.238037
32
71.657097
13
-606.158997
23
1385.238037
33
71.657097
0
3DFACE
8
0
10
-435.015198
20
332.012299
30
-4.502055
11
-434.096405
21
332.156403
31
-4.393865
12
-607.005188
22
1385.821045
32
58.424950
13
-607.005188
23
1385.821045
33
58.424950
0
3DFACE
8
0
10
-435.015198
20
332.012299
30
-4.502055
11
-607.005188
21
1385.821045
31
58.424950
12
-607.937317
22
1385.675049
32
58.324390
13
-607.937317
23
1385.675049
33
58.324390
0
3DFACE
8
0
10
-435.015198
20
332.012299
30
-4.502055
11
-607.937317
21
1385.675049
31
58.324390
12
-586.437500
22
1253.947998
32
50.465199
13
-586.437500
23
1253.947998
33
50.465199
0
3DFACE
8
0
10
-435.015198
20
332.012299
30
-4.502055
11
-586.437500
21
1253.947998
31
50.465199
12
-564.937622
22
1122.222046
32
42.606010
13
-564.937622
23
1122.222046
33
42.606010
0
3DFACE
8
0
10
-435.015198
20
332.012299
30
-4.502055
11
-564.937622
21
1122.222046
31
42.606010
12
-543.437805
22
990.495483
32
34.746819
13
-543.437805
23
990.495483
33
34.746819
0
3DFACE
8
0
10
-435.015198
20
332.012299
30
-4.502055
11
-543.437805
21
990.495483
31
34.746819
12
-521.937927
22
858.769226
32
26.887640
13
-521.937927
23
858.769226
33
26.887640
0
3DFACE
8
0
10
-435.015198
20
332.012299
30
-4.502055
11
-521.937927
21
858.769226
31
26.887640
12
-500.438110
22
727.042908
32
19.028450
13
-500.438110
23
727.042908
33
19.028450
0
3DFACE
8
0
10
-435.015198
20
332.012299
30
-4.502055
11
-500.438110
21
727.042908
31
19.028450
12
-478.938293
22
595.316711
32
11.169270
13
-478.938293
23
595.316711
33
11.169270
0
3DFACE
8
0
10
-435.015198
20
332.012299
30
-4.502055
11
-478.938293
21
595.316711
31
11.169270
12
-457.438385
22
463.590393
32
3.310083
13
-457.438385
23
463.590393
33
3.310083
0
3DFACE
8
0
10
-435.015198
20
332.012299
30
-4.502055
11
-457.438385
21
463.590393
31
3.310083
12
-435.938599
22
331.864105
32
-4.549099
13
-435.938599
23
331.864105
33
-4.549099
0
3DFACE
8
0
10
-434.739899
20
330.509003
30
23.894329
11
-435.691711
21
330.351013
31
23.943859
12
-457.207611
22
462.175995
32
29.942430
13
-457.207611
23
462.175995
33
29.942430
0
3DFACE
8
0
10
-434.739899
20
330.509003
30
23.894329
11
-457.207611
21
462.175995
31
29.942430
12
-478.723602
22
594.001099
32
35.940990
13
-478.723602
23
594.001099
33
35.940990
0
3DFACE
8
0
10
-434.739899
20
330.509003
30
23.894329
11
-478.723602
21
594.001099
31
35.940990
12
-500.239502
22
725.826172
32
41.939560
13
-500.239502
23
725.826172
33
41.939560
0
3DFACE
8
0
10
-434.739899
20
330.509003
30
23.894329
11
-500.239502
21
725.826172
31
41.939560
12
-521.755493
22
857.651306
32
47.938129
13
-521.755493
23
857.651306
33
47.938129
0
3DFACE
8
0
10
-434.739899
20
330.509003
30
23.894329
11
-521.755493
21
857.651306
31
47.938129
12
-543.271484
22
989.476379
32
53.936699
13
-543.271484
23
989.476379
33
53.936699
0
3DFACE
8
0
10
-434.739899
20
330.509003
30
23.894329
11
-543.271484
21
989.476379
31
53.936699
12
-564.787415
22
1121.302002
32
59.935261
13
-564.787415
23
1121.302002
33
59.935261
0
3DFACE
8
0
10
-434.739899
20
330.509003
30
23.894329
11
-564.787415
21
1121.302002
31
59.935261
12
-586.303406
22
1253.126953
32
65.933830
13
-586.303406
23
1253.126953
33
65.933830
0
3DFACE
8
0
10
-434.739899
20
330.509003
30
23.894329
11
-586.303406
21
1253.126953
31
65.933830
12
-607.819397
22
1384.952026
32
71.932404
13
-607.819397
23
1384.952026
33
71.932404
0
3DFACE
8
0
10
-434.739899
20
330.509003
30
23.894329
11
-607.819397
21
1384.952026
31
71.932404
12
-606.980225
22
1385.093994
32
71.847618
13
-606.980225
23
1385.093994
33
71.847618
0
3DFACE
8
0
10
-434.739899
20
330.509003
30
23.894329
11
-606.980225
21
1385.093994
31
71.847618
12
-433.794189
22
330.669586
32
23.779711
13
-433.794189
23
330.669586
33
23.779711
0
3DFACE
8
0
10
-607.791382
20
1384.922974
30
72.556107
11
-607.819397
21
1384.952026
31
71.932404
12
-586.276978
22
1253.098022
32
66.557617
13
-586.276978
23
1253.098022
33
66.557617
0
3DFACE
8
0
10
-586.276978
20
1253.098022
30
66.557617
11
-607.819397
21
1384.952026
31
71.932404
12
-586.303406
22
1253.126953
32
65.933830
13
-586.303406
23
1253.126953
33
65.933830
0
3DFACE
8
0
10
-586.276978
20
1253.098022
30
66.557617
11
-586.303406
21
1253.126953
31
65.933830
12
-564.762573
22
1121.272949
32
60.559132
13
-564.762573
23
1121.272949
33
60.559132
0
3DFACE
8
0
10
-564.762573
20
1121.272949
30
60.559132
11
-586.303406
21
1253.126953
31
65.933830
12
-564.787415
22
1121.302002
32
59.935261
13
-564.787415
23
1121.302002
33
59.935261
0
3DFACE
8
0
10
-564.762573
20
1121.272949
30
60.559132
11
-564.787415
21
1121.302002
31
59.935261
12
-543.248230
22
989.448425
32
54.560638
13
-543.248230
23
989.448425
33
54.560638
0
3DFACE
8
0
10
-543.248230
20
989.448425
30
54.560638
11
-564.787415
21
1121.302002
31
59.935261
12
-543.271484
22
989.476379
32
53.936699
13
-543.271484
23
989.476379
33
53.936699
0
3DFACE
8
0
10
-543.248230
20
989.448425
30
54.560638
11
-543.271484
21
989.476379
31
53.936699
12
-521.733826
22
857.623718
32
48.562149
13
-521.733826
23
857.623718
33
48.562149
0
3DFACE
8
0
10
-521.733826
20
857.623718
30
48.562149
11
-543.271484
21
989.476379
31
53.936699
12
-521.755493
22
857.651306
32
47.938129
13
-521.755493
23
857.651306
33
47.938129
0
3DFACE
8
0
10
-521.733826
20
857.623718
30
48.562149
11
-521.755493
21
857.651306
31
47.938129
12
-500.219513
22
725.799011
32
42.563648
13
-500.219513
23
725.799011
33
42.563648
0
3DFACE
8
0
10
-500.219513
20
725.799011
30
42.563648
11
-521.755493
21
857.651306
31
47.938129
12
-500.239502
22
725.826172
32
41.939560
13
-500.239502
23
725.826172
33
41.939560
0
3DFACE
8
0
10
-500.219513
20
725.799011
30
42.563648
11
-500.239502
21
725.826172
31
41.939560
12
-478.705109
22
593.974304
32
36.565151
13
-478.705109
23
593.974304
33
36.565151
0
3DFACE
8
0
10
-478.705109
20
593.974304
30
36.565151
11
-500.239502
21
725.826172
31
41.939560
12
-478.723602
22
594.001099
32
35.940990
13
-478.723602
23
594.001099
33
35.940990
0
3DFACE
8
0
10
-478.705109
20
593.974304
30
36.565151
11
-478.723602
21
594.001099
31
35.940990
12
-457.190704
22
462.149689
32
30.566641
13
-457.190704
23
462.149689
33
30.566641
0
3DFACE
8
0
10
-457.190704
20
462.149689
30
30.566641
11
-478.723602
21
594.001099
31
35.940990
12
-457.207611
22
462.175995
32
29.942430
13
-457.207611
23
462.175995
33
29.942430
0
3DFACE
8
0
10
-457.190704
20
462.149689
30
30.566641
11
-457.207611
21
462.175995
31
29.942430
12
-435.676300
22
330.325104
32
24.568140
13
-435.676300
23
330.325104
33
24.568140
0
3DFACE
8
0
10
-435.676300
20
330.325104
30
24.568140
11
-457.207611
21
462.175995
31
29.942430
12
-435.691711
22
330.351013
32
23.943859
13
-435.691711
23
330.351013
33
23.943859
0
3DFACE
8
0
10
-604.143982
20
1386.261963
30
58.917301
11
-603.432495
21
1386.348999
31
59.451511
12
-427.642914
22
333.105591
32
-2.418918
13
-427.642914
23
333.105591
33
-2.418918
0
3DFACE
8
0
10
-603.432495
20
1386.348999
30
59.451511
11
-426.846802
21
333.202209
31
-1.807563
12
-427.642914
22
333.105591
32
-2.418918
13
-427.642914
23
333.105591
33
-2.418918
0
3DFACE
8
0
10
-425.667908
20
333.335785
30
-0.726507
11
-426.846802
21
333.202209
31
-1.807563
12
-603.432495
22
1386.348999
32
59.451511
13
-603.432495
23
1386.348999
33
59.451511
0
3DFACE
8
0
10
-603.432495
20
1386.348999
30
59.451511
11
-602.788696
21
1386.420044
31
60.067619
12
-425.667908
22
333.335785
32
-0.726507
13
-425.667908
23
333.335785
33
-0.726507
0
3DFACE
8
0
10
-424.921906
20
333.412994
30
0.093321
11
-425.667908
21
333.335785
31
-0.726507
12
-602.788696
22
1386.420044
32
60.067619
13
-602.788696
23
1386.420044
33
60.067619
0
3DFACE
8
0
10
-602.788696
20
1386.420044
30
60.067619
11
-602.221924
21
1386.474976
31
60.756710
12
-424.921906
22
333.412994
32
0.093321
13
-424.921906
23
333.412994
33
0.093321
0
3DFACE
8
0
10
-422.261108
20
333.596588
30
4.699269
11
-422.635193
21
333.586487
31
3.762926
12
-601.350586
22
1386.531982
32
62.313221
13
-601.350586
23
1386.531982
33
62.313221
0
3DFACE
8
0
10
-601.350586
20
1386.531982
30
62.313221
11
-601.058777
21
1386.534058
31
63.158180
12
-422.261108
22
333.596588
32
4.699269
13
-422.261108
23
333.596588
33
4.699269
0
3DFACE
8
0
10
-601.058777
20
1386.534058
30
63.158180
11
-421.950287
21
333.595093
31
5.658521
12
-422.261108
22
333.596588
32
4.699269
13
-422.261108
23
333.596588
33
4.699269
0
3DFACE
8
0
10
-421.704102
20
333.582092
30
6.636286
11
-421.950287
21
333.595093
31
5.658521
12
-601.058777
22
1386.534058
32
63.158180
13
-601.058777
23
1386.534058
33
63.158180
0
3DFACE
8
0
10
-601.058777
20
1386.534058
30
63.158180
11
-600.868896
21
1386.516968
31
64.031532
12
-421.704102
22
333.582092
32
6.636286
13
-421.704102
23
333.582092
33
6.636286
0
3DFACE
8
0
10
-421.546387
20
333.306396
30
12.172770
11
-600.930420
21
1386.362061
31
66.695213
12
-421.698212
22
333.237396
32
12.985840
13
-421.698212
23
333.237396
33
12.985840
0
3DFACE
8
0
10
-425.127289
20
332.310303
30
19.733721
11
-424.487610
21
332.456390
31
18.968040
12
-602.432678
22
1385.942993
32
69.877213
13
-602.432678
23
1385.942993
33
69.877213
0
3DFACE
8
0
10
-602.432678
20
1385.942993
30
69.877213
11
-603.030518
21
1385.810059
31
70.528442
12
-425.127289
22
332.310303
32
19.733721
13
-425.127289
23
332.310303
33
19.733721
0
3DFACE
8
0
10
-433.060486
20
332.352692
30
-4.834614
11
-606.577881
21
1385.921021
31
57.876431
12
-432.123199
22
332.492706
32
-4.595758
13
-432.123199
23
332.492706
33
-4.595758
0
3DFACE
8
0
10
-432.123199
20
332.492706
30
-4.595758
11
-606.577881
21
1385.921021
31
57.876431
12
-605.728088
22
1386.046021
32
58.124031
13
-605.728088
23
1386.046021
33
58.124031
0
3DFACE
8
0
10
-432.123199
20
332.492706
30
-4.595758
11
-605.728088
21
1386.046021
31
58.124031
12
-431.173889
22
332.630798
32
-4.284837
13
-431.173889
23
332.630798
33
-4.284837
0
3DFACE
8
0
10
-431.173889
20
332.630798
30
-4.284837
11
-605.728088
21
1386.046021
31
58.124031
12
-430.247101
22
332.761597
32
-3.909832
13
-430.247101
23
332.761597
33
-3.909832
0
3DFACE
8
0
10
-430.247101
20
332.761597
30
-3.909832
11
-605.728088
21
1386.046021
31
58.124031
12
-604.912781
22
1386.160034
32
58.472672
13
-604.912781
23
1386.160034
33
58.472672
0
3DFACE
8
0
10
-430.247101
20
332.761597
30
-3.909832
11
-604.912781
21
1386.160034
31
58.472672
12
-429.346893
22
332.884796
32
-3.472464
13
-429.346893
23
332.884796
33
-3.472464
0
3DFACE
8
0
10
-429.346893
20
332.884796
30
-3.472464
11
-604.912781
21
1386.160034
31
58.472672
12
-428.477509
22
332.999603
32
-2.974733
13
-428.477509
23
332.999603
33
-2.974733
0
3DFACE
8
0
10
-428.477509
20
332.999603
30
-2.974733
11
-604.912781
21
1386.160034
31
58.472672
12
-604.143982
22
1386.261963
32
58.917301
13
-604.143982
23
1386.261963
33
58.917301
0
3DFACE
8
0
10
-428.477509
20
332.999603
30
-2.974733
11
-604.143982
21
1386.261963
31
58.917301
12
-427.642914
22
333.105591
32
-2.418918
13
-427.642914
23
333.105591
33
-2.418918
0
3DFACE
8
0
10
-601.740173
20
1386.512939
30
61.508850
11
-423.619812
21
333.527802
31
1.888458
12
-602.221924
22
1386.474976
32
60.756710
13
-602.221924
23
1386.474976
33
60.756710
0
3DFACE
8
0
10
-602.221924
20
1386.474976
30
60.756710
11
-423.619812
21
333.527802
31
1.888458
12
-424.237915
22
333.477112
32
0.966595
13
-424.237915
23
333.477112
33
0.966595
0
3DFACE
8
0
10
-602.221924
20
1386.474976
30
60.756710
11
-424.237915
21
333.477112
31
0.966595
12
-424.921906
22
333.412994
32
0.093321
13
-424.921906
23
333.412994
33
0.093321
0
3DFACE
8
0
10
-601.350586
20
1386.531982
30
62.313221
11
-422.635193
21
333.586487
31
3.762926
12
-601.740173
22
1386.512939
32
61.508850
13
-601.740173
23
1386.512939
33
61.508850
0
3DFACE
8
0
10
-601.740173
20
1386.512939
30
61.508850
11
-422.635193
21
333.586487
31
3.762926
12
-423.070892
22
333.564911
32
2.853782
13
-423.070892
23
333.564911
33
2.853782
0
3DFACE
8
0
10
-601.740173
20
1386.512939
30
61.508850
11
-423.070892
21
333.564911
31
2.853782
12
-423.619812
22
333.527802
32
1.888458
13
-423.619812
23
333.527802
33
1.888458
0
3DFACE
8
0
10
-600.783630
20
1386.483032
30
64.920708
11
-421.410095
21
333.521515
31
8.629371
12
-600.868896
22
1386.516968
32
64.031532
13
-600.868896
23
1386.516968
33
64.031532
0
3DFACE
8
0
10
-600.868896
20
1386.516968
30
64.031532
11
-421.410095
21
333.521515
31
8.629371
12
-421.523804
22
333.557495
32
7.628085
13
-421.523804
23
333.557495
33
7.628085
0
3DFACE
8
0
10
-600.868896
20
1386.516968
30
64.031532
11
-421.523804
21
333.557495
31
7.628085
12
-421.704102
22
333.582092
32
6.636286
13
-421.704102
23
333.582092
33
6.636286
0
3DFACE
8
0
10
-600.804199
20
1386.431030
30
65.812897
11
-421.378510
21
333.423492
31
10.526110
12
-600.783630
22
1386.483032
32
64.920708
13
-600.783630
23
1386.483032
33
64.920708
0
3DFACE
8
0
10
-600.783630
20
1386.483032
30
64.920708
11
-421.378510
21
333.423492
31
10.526110
12
-421.362915
22
333.471100
32
9.697637
13
-421.362915
23
333.471100
33
9.697637
0
3DFACE
8
0
10
-600.783630
20
1386.483032
30
64.920708
11
-421.362915
21
333.471100
31
9.697637
12
-421.410095
22
333.521515
32
8.629371
13
-421.410095
23
333.521515
33
8.629371
0
3DFACE
8
0
10
-600.930420
20
1386.362061
30
66.695213
11
-421.546387
21
333.306396
31
12.172770
12
-600.804199
22
1386.431030
32
65.812897
13
-600.804199
23
1386.431030
33
65.812897
0
3DFACE
8
0
10
-600.804199
20
1386.431030
30
65.812897
11
-421.546387
21
333.306396
31
12.172770
12
-421.439789
22
333.368500
32
11.352010
13
-421.439789
23
333.368500
33
11.352010
0
3DFACE
8
0
10
-600.804199
20
1386.431030
30
65.812897
11
-421.439789
21
333.368500
31
11.352010
12
-421.378510
22
333.423492
32
10.526110
13
-421.378510
23
333.423492
33
10.526110
0
3DFACE
8
0
10
-601.916992
20
1386.067017
30
69.157509
11
-423.370087
21
332.728912
31
17.312889
12
-601.490906
22
1386.178955
32
68.379692
13
-601.490906
23
1386.178955
33
68.379692
0
3DFACE
8
0
10
-601.490906
20
1386.178955
30
68.379692
11
-423.370087
21
332.728912
31
17.312889
12
-422.897400
22
332.854095
32
16.431009
13
-422.897400
23
332.854095
33
16.431009
0
3DFACE
8
0
10
-601.490906
20
1386.178955
30
68.379692
11
-422.897400
21
332.854095
31
16.431009
12
-422.484985
22
332.971100
32
15.518280
13
-422.484985
23
332.971100
33
15.518280
0
3DFACE
8
0
10
-602.432678
20
1385.942993
30
69.877213
11
-424.487610
21
332.456390
31
18.968040
12
-601.916992
22
1386.067017
32
69.157509
13
-601.916992
23
1386.067017
33
69.157509
0
3DFACE
8
0
10
-601.916992
20
1386.067017
30
69.157509
11
-424.487610
21
332.456390
31
18.968040
12
-423.900909
22
332.596100
32
18.159861
13
-423.900909
23
332.596100
33
18.159861
0
3DFACE
8
0
10
-601.916992
20
1386.067017
30
69.157509
11
-423.900909
21
332.596100
31
18.159861
12
-423.370087
22
332.728912
32
17.312889
13
-423.370087
23
332.728912
33
17.312889
0
3DFACE
8
0
10
-603.701782
20
1385.668945
30
71.101791
11
-426.825195
21
331.945190
31
21.348660
12
-603.030518
22
1385.810059
32
70.528442
13
-603.030518
23
1385.810059
33
70.528442
0
3DFACE
8
0
10
-603.030518
20
1385.810059
30
70.528442
11
-426.825195
21
331.945190
31
21.348660
12
-426.137390
22
332.089691
32
20.756269
13
-426.137390
23
332.089691
33
20.756269
0
3DFACE
8
0
10
-603.030518
20
1385.810059
30
70.528442
11
-426.137390
21
332.089691
31
20.756269
12
-425.127289
22
332.310303
32
19.733721
13
-425.127289
23
332.310303
33
19.733721
0
3DFACE
8
0
10
-604.436829
20
1385.522949
30
71.588951
11
-428.303589
21
331.646698
31
22.398239
12
-603.701782
22
1385.668945
32
71.101791
13
-603.701782
23
1385.668945
33
71.101791
0
3DFACE
8
0
10
-603.701782
20
1385.668945
30
71.101791
11
-428.303589
21
331.646698
31
22.398239
12
-427.548187
22
331.797302
32
21.896681
13
-427.548187
23
331.797302
33
21.896681
0
3DFACE
8
0
10
-603.701782
20
1385.668945
30
71.101791
11
-427.548187
21
331.797302
31
21.896681
12
-426.825195
22
331.945190
32
21.348660
13
-426.825195
23
331.945190
33
21.348660
0
3DFACE
8
0
10
-605.224792
20
1385.373047
30
71.982811
11
-429.899994
21
331.339508
31
23.254520
12
-604.436829
22
1385.522949
32
71.588951
13
-604.436829
23
1385.522949
33
71.588951
0
3DFACE
8
0
10
-604.436829
20
1385.522949
30
71.588951
11
-429.899994
21
331.339508
31
23.254520
12
-429.088501
22
331.493896
32
22.851431
13
-429.088501
23
331.493896
33
22.851431
0
3DFACE
8
0
10
-604.436829
20
1385.522949
30
71.588951
11
-429.088501
21
331.493896
31
22.851431
12
-428.303589
22
331.646698
32
22.398239
13
-428.303589
23
331.646698
33
22.398239
0
3DFACE
8
0
10
-606.054626
20
1385.220947
30
72.277893
11
-431.758514
21
330.997894
31
23.956221
12
-605.224792
22
1385.373047
32
71.982811
13
-605.224792
23
1385.373047
33
71.982811
0
3DFACE
8
0
10
-605.224792
20
1385.373047
30
71.982811
11
-431.758514
21
330.997894
31
23.956221
12
-430.817200
22
331.168915
32
23.637320
13
-430.817200
23
331.168915
33
23.637320
0
3DFACE
8
0
10
-605.224792
20
1385.373047
30
71.982811
11
-430.817200
21
331.168915
31
23.637320
12
-429.899994
22
331.339508
32
23.254520
13
-429.899994
23
331.339508
33
23.254520
0
3DFACE
8
0
10
-606.914307
20
1385.069946
30
72.469910
11
-433.695709
21
330.657715
31
24.396790
12
-606.054626
22
1385.220947
32
72.277893
13
-606.054626
23
1385.220947
33
72.277893
0
3DFACE
8
0
10
-606.054626
20
1385.220947
30
72.277893
11
-433.695709
21
330.657715
31
24.396790
12
-432.719391
22
330.827301
32
24.209770
13
-432.719391
23
330.827301
33
24.209770
0
3DFACE
8
0
10
-606.054626
20
1385.220947
30
72.277893
11
-432.719391
21
330.827301
31
24.209770
12
-431.758514
22
330.997894
32
23.956221
13
-431.758514
23
330.997894
33
23.956221
0
3DFACE
8
0
10
-607.245300
20
1385.818970
30
57.757301
11
-606.577881
21
1385.921021
31
57.876431
12
-433.060486
22
332.352692
32
-4.834614
13
-433.060486
23
332.352692
33
-4.834614
0
3DFACE
8
0
10
-607.245300
20
1385.818970
30
57.757301
11
-433.060486
21
332.352692
31
-4.834614
12
-434.010803
22
332.207214
32
-5.010888
13
-434.010803
23
332.207214
33
-5.010888
0
3DFACE
8
0
10
-607.245300
20
1385.818970
30
57.757301
11
-434.010803
21
332.207214
31
-5.010888
12
-434.969910
22
332.056793
32
-5.123817
13
-434.969910
23
332.056793
33
-5.123817
0
3DFACE
8
0
10
-607.245300
20
1385.818970
30
57.757301
11
-434.969910
21
332.056793
31
-5.123817
12
-435.933685
22
331.902100
32
-5.172923
13
-435.933685
23
331.902100
33
-5.172923
0
3DFACE
8
0
10
-607.245300
20
1385.818970
30
57.757301
11
-435.933685
21
331.902100
31
-5.172923
12
-457.432007
22
463.628204
32
2.686264
13
-457.432007
23
463.628204
33
2.686264
0
3DFACE
8
0
10
-607.245300
20
1385.818970
30
57.757301
11
-457.432007
21
463.628204
31
2.686264
12
-478.930298
22
595.354309
32
10.545450
13
-478.930298
23
595.354309
33
10.545450
0
3DFACE
8
0
10
-607.245300
20
1385.818970
30
57.757301
11
-478.930298
21
595.354309
31
10.545450
12
-500.428589
22
727.080383
32
18.404650
13
-500.428589
23
727.080383
33
18.404650
0
3DFACE
8
0
10
-607.245300
20
1385.818970
30
57.757301
11
-500.428589
21
727.080383
31
18.404650
12
-521.926880
22
858.806580
32
26.263849
13
-521.926880
23
858.806580
33
26.263849
0
3DFACE
8
0
10
-607.245300
20
1385.818970
30
57.757301
11
-521.926880
21
858.806580
31
26.263849
12
-543.425171
22
990.532776
32
34.123058
13
-543.425171
23
990.532776
33
34.123058
0
3DFACE
8
0
10
-607.245300
20
1385.818970
30
57.757301
11
-543.425171
21
990.532776
31
34.123058
12
-564.923523
22
1122.259033
32
41.982269
13
-564.923523
23
1122.259033
33
41.982269
0
3DFACE
8
0
10
-607.245300
20
1385.818970
30
57.757301
11
-564.923523
21
1122.259033
31
41.982269
12
-586.421814
22
1253.984985
32
49.841492
13
-586.421814
23
1253.984985
33
49.841492
0
3DFACE
8
0
10
-607.245300
20
1385.818970
30
57.757301
11
-586.421814
21
1253.984985
31
49.841492
12
-607.920105
22
1385.711060
32
57.700710
13
-607.920105
23
1385.711060
33
57.700710
0
3DFACE
8
0
10
-601.160400
20
1386.277954
30
67.554947
11
-601.490906
21
1386.178955
31
68.379692
12
-422.484985
22
332.971100
32
15.518280
13
-422.484985
23
332.971100
33
15.518280
0
3DFACE
8
0
10
-601.160400
20
1386.277954
30
67.554947
11
-422.484985
21
332.971100
31
15.518280
12
-422.134888
22
333.079315
32
14.578870
13
-422.134888
23
333.079315
33
14.578870
0
3DFACE
8
0
10
-601.160400
20
1386.277954
30
67.554947
11
-422.134888
21
333.079315
31
14.578870
12
-421.894501
22
333.161591
32
13.788710
13
-421.894501
23
333.161591
33
13.788710
0
3DFACE
8
0
10
-601.160400
20
1386.277954
30
67.554947
11
-421.894501
21
333.161591
31
13.788710
12
-421.698212
22
333.237396
32
12.985840
13
-421.698212
23
333.237396
33
12.985840
0
3DFACE
8
0
10
-601.160400
20
1386.277954
30
67.554947
11
-421.698212
21
333.237396
31
12.985840
12
-600.930420
22
1386.362061
32
66.695213
13
-600.930420
23
1386.362061
33
66.695213
0
3DFACE
8
0
10
-434.682892
20
330.490112
30
24.516430
11
-433.695709
21
330.657715
31
24.396790
12
-606.914307
22
1385.069946
32
72.469910
13
-606.914307
23
1385.069946
33
72.469910
0
3DFACE
8
0
10
-434.682892
20
330.490112
30
24.516430
11
-606.914307
21
1385.069946
31
72.469910
12
-607.791382
22
1384.922974
32
72.556107
13
-607.791382
23
1384.922974
33
72.556107
0
3DFACE
8
0
10
-434.682892
20
330.490112
30
24.516430
11
-607.791382
21
1384.922974
31
72.556107
12
-586.276978
22
1253.098022
32
66.557617
13
-586.276978
23
1253.098022
33
66.557617
0
3DFACE
8
0
10
-434.682892
20
330.490112
30
24.516430
11
-586.276978
21
1253.098022
31
66.557617
12
-564.762573
22
1121.272949
32
60.559132
13
-564.762573
23
1121.272949
33
60.559132
0
3DFACE
8
0
10
-434.682892
20
330.490112
30
24.516430
11
-564.762573
21
1121.272949
31
60.559132
12
-543.248230
22
989.448425
32
54.560638
13
-543.248230
23
989.448425
33
54.560638
0
3DFACE
8
0
10
-434.682892
20
330.490112
30
24.516430
11
-543.248230
21
989.448425
31
54.560638
12
-521.733826
22
857.623718
32
48.562149
13
-521.733826
23
857.623718
33
48.562149
0
3DFACE
8
0
10
-434.682892
20
330.490112
30
24.516430
11
-521.733826
21
857.623718
31
48.562149
12
-500.219513
22
725.799011
32
42.563648
13
-500.219513
23
725.799011
33
42.563648
0
3DFACE
8
0
10
-434.682892
20
330.490112
30
24.516430
11
-500.219513
21
725.799011
31
42.563648
12
-478.705109
22
593.974304
32
36.565151
13
-478.705109
23
593.974304
33
36.565151
0
3DFACE
8
0
10
-434.682892
20
330.490112
30
24.516430
11
-478.705109
21
593.974304
31
36.565151
12
-457.190704
22
462.149689
32
30.566641
13
-457.190704
23
462.149689
33
30.566641
0
3DFACE
8
0
10
-434.682892
20
330.490112
30
24.516430
11
-457.190704
21
462.149689
31
30.566641
12
-435.676300
22
330.325104
32
24.568140
13
-435.676300
23
330.325104
33
24.568140
0
3DFACE
8
0
10
-521.926880
20
858.806580
30
26.263849
11
-543.437805
21
990.495483
31
34.746819
12
-543.425171
22
990.532776
32
34.123058
13
-543.425171
23
990.532776
33
34.123058
0
3DFACE
8
0
10
-543.425171
20
990.532776
30
34.123058
11
-543.437805
21
990.495483
31
34.746819
12
-564.937622
22
1122.222046
32
42.606010
13
-564.937622
23
1122.222046
33
42.606010
0
3DFACE
8
0
10
-543.425171
20
990.532776
30
34.123058
11
-564.937622
21
1122.222046
31
42.606010
12
-564.923523
22
1122.259033
32
41.982269
13
-564.923523
23
1122.259033
33
41.982269
0
3DFACE
8
0
10
-564.923523
20
1122.259033
30
41.982269
11
-564.937622
21
1122.222046
31
42.606010
12
-586.437500
22
1253.947998
32
50.465199
13
-586.437500
23
1253.947998
33
50.465199
0
3DFACE
8
0
10
-564.923523
20
1122.259033
30
41.982269
11
-586.437500
21
1253.947998
31
50.465199
12
-586.421814
22
1253.984985
32
49.841492
13
-586.421814
23
1253.984985
33
49.841492
0
3DFACE
8
0
10
-586.421814
20
1253.984985
30
49.841492
11
-586.437500
21
1253.947998
31
50.465199
12
-607.937317
22
1385.675049
32
58.324390
13
-607.937317
23
1385.675049
33
58.324390
0
3DFACE
8
0
10
-586.421814
20
1253.984985
30
49.841492
11
-607.937317
21
1385.675049
31
58.324390
12
-607.920105
22
1385.711060
32
57.700710
13
-607.920105
23
1385.711060
33
57.700710
0
3DFACE
8
0
10
-543.437805
20
990.495483
30
34.746819
11
-521.926880
21
858.806580
31
26.263849
12
-521.937927
22
858.769226
32
26.887640
13
-521.937927
23
858.769226
33
26.887640
0
3DFACE
8
0
10
-521.937927
20
858.769226
30
26.887640
11
-521.926880
21
858.806580
31
26.263849
12
-500.428589
22
727.080383
32
18.404650
13
-500.428589
23
727.080383
33
18.404650
0
3DFACE
8
0
10
-521.937927
20
858.769226
30
26.887640
11
-500.428589
21
727.080383
31
18.404650
12
-500.438110
22
727.042908
32
19.028450
13
-500.438110
23
727.042908
33
19.028450
0
3DFACE
8
0
10
-500.438110
20
727.042908
30
19.028450
11
-500.428589
21
727.080383
31
18.404650
12
-478.930298
22
595.354309
32
10.545450
13
-478.930298
23
595.354309
33
10.545450
0
3DFACE
8
0
10
-500.438110
20
727.042908
30
19.028450
11
-478.930298
21
595.354309
31
10.545450
12
-478.938293
22
595.316711
32
11.169270
13
-478.938293
23
595.316711
33
11.169270
0
3DFACE
8
0
10
-478.938293
20
595.316711
30
11.169270
11
-478.930298
21
595.354309
31
10.545450
12
-457.432007
22
463.628204
32
2.686264
13
-457.432007
23
463.628204
33
2.686264
0
3DFACE
8
0
10
-478.938293
20
595.316711
30
11.169270
11
-457.432007
21
463.628204
31
2.686264
12
-457.438385
22
463.590393
32
3.310083
13
-457.438385
23
463.590393
33
3.310083
0
3DFACE
8
0
10
-457.438385
20
463.590393
30
3.310083
11
-457.432007
21
463.628204
31
2.686264
12
-435.933685
22
331.902100
32
-5.172923
13
-435.933685
23
331.902100
33
-5.172923
0
3DFACE
8
0
10
-457.438385
20
463.590393
30
3.310083
11
-435.933685
21
331.902100
31
-5.172923
12
-435.938599
22
331.864105
32
-4.549099
13
-435.938599
23
331.864105
33
-4.549099
0
ENDSEC
0
EOF
