999
Created by ADMesh version 0.98.3
0
SECTION
2
HEADER
0
ENDSEC
0
SECTION
2
TABLES
0
TABLE
2
LAYER
70
1
0
LAYER
2
0
70
0
62
7
6
CONTINUOUS
0
ENDTAB
0
ENDSEC
0
SECTION
2
BLOCKS
0
ENDSEC
0
SECTION
2
ENTITIES
0
3DFACE
8
0
10
613.330078
20
219.529800
30
406.379791
11
613.336914
21
219.491501
31
407.003510
12
612.366394
22
219.684296
32
406.431885
13
612.366394
23
219.684296
33
406.431885
0
3DFACE
8
0
10
612.366394
20
219.684296
30
406.431885
11
613.336914
21
219.491501
31
407.003510
12
612.413574
22
219.639496
32
407.053497
13
612.413574
23
219.639496
33
407.053497
0
3DFACE
8
0
10
612.366394
20
219.684296
30
406.431885
11
612.413574
21
219.639496
31
407.053497
12
611.407593
22
219.834503
32
406.547791
13
611.407593
23
219.834503
33
406.547791
0
3DFACE
8
0
10
611.407593
20
219.834503
30
406.547791
11
612.413574
21
219.639496
31
407.053497
12
611.495117
22
219.783401
32
407.164490
13
611.495117
23
219.783401
33
407.164490
0
3DFACE
8
0
10
611.407593
20
219.834503
30
406.547791
11
611.495117
21
219.783401
31
407.164490
12
610.457825
22
219.979797
32
406.726990
13
610.457825
23
219.979797
33
406.726990
0
3DFACE
8
0
10
610.457825
20
219.979797
30
406.726990
11
611.495117
21
219.783401
31
407.164490
12
610.585083
22
219.922501
32
407.336212
13
610.585083
23
219.922501
33
407.336212
0
3DFACE
8
0
10
610.457825
20
219.979797
30
406.726990
11
610.585083
21
219.922501
31
407.336212
12
609.521179
22
220.119507
32
406.968811
13
609.521179
23
220.119507
33
406.968811
0
3DFACE
8
0
10
609.521179
20
220.119507
30
406.968811
11
610.585083
21
219.922501
31
407.336212
12
609.687805
22
220.056396
32
407.567810
13
609.687805
23
220.056396
33
407.567810
0
3DFACE
8
0
10
609.521179
20
220.119507
30
406.968811
11
609.687805
21
220.056396
31
407.567810
12
608.572876
22
220.257294
32
407.282593
13
608.572876
23
220.257294
33
407.282593
0
3DFACE
8
0
10
608.572876
20
220.257294
30
407.282593
11
609.687805
21
220.056396
31
407.567810
12
608.779175
22
220.188293
32
407.868500
13
608.779175
23
220.188293
33
407.868500
0
3DFACE
8
0
10
608.572876
20
220.257294
30
407.282593
11
608.779175
21
220.188293
31
407.868500
12
607.647217
22
220.387802
32
407.660492
13
607.647217
23
220.387802
33
407.660492
0
3DFACE
8
0
10
607.647217
20
220.387802
30
407.660492
11
608.779175
21
220.188293
31
407.868500
12
607.892395
22
220.313400
32
408.230499
13
607.892395
23
220.313400
33
408.230499
0
3DFACE
8
0
10
607.647217
20
220.387802
30
407.660492
11
607.892395
21
220.313400
31
408.230499
12
606.748291
22
220.510605
32
408.100586
13
606.748291
23
220.510605
33
408.100586
0
3DFACE
8
0
10
606.748291
20
220.510605
30
408.100586
11
607.892395
21
220.313400
31
408.230499
12
607.031311
22
220.430893
32
408.652191
13
607.031311
23
220.430893
33
408.652191
0
3DFACE
8
0
10
606.748291
20
220.510605
30
408.100586
11
607.031311
21
220.430893
31
408.652191
12
605.880371
22
220.625000
32
408.601105
13
605.880371
23
220.625000
33
408.601105
0
3DFACE
8
0
10
605.880371
20
220.625000
30
408.601105
11
607.031311
21
220.430893
31
408.652191
12
606.199707
22
220.540497
32
409.131592
13
606.199707
23
220.540497
33
409.131592
0
3DFACE
8
0
10
605.880371
20
220.625000
30
408.601105
11
606.199707
21
220.540497
31
409.131592
12
605.047424
22
220.730606
32
409.159485
13
605.047424
23
220.730606
33
409.159485
0
3DFACE
8
0
10
605.047424
20
220.730606
30
409.159485
11
606.199707
21
220.540497
31
409.131592
12
605.401672
22
220.641602
32
409.666595
13
605.401672
23
220.641602
33
409.666595
0
3DFACE
8
0
10
605.047424
20
220.730606
30
409.159485
11
605.401672
21
220.641602
31
409.666595
12
604.253174
22
220.826797
32
409.773285
13
604.253174
23
220.826797
33
409.773285
0
3DFACE
8
0
10
604.253174
20
220.826797
30
409.773285
11
605.401672
21
220.641602
31
409.666595
12
604.640808
22
220.733795
32
410.254608
13
604.640808
23
220.733795
33
410.254608
0
3DFACE
8
0
10
604.253174
20
220.826797
30
409.773285
11
604.640808
21
220.733795
31
410.254608
12
603.077515
22
220.959702
32
410.858002
13
603.077515
23
220.959702
33
410.858002
0
3DFACE
8
0
10
603.077515
20
220.959702
30
410.858002
11
604.640808
21
220.733795
31
410.254608
12
603.514526
22
220.860992
32
411.293793
13
603.514526
23
220.860992
33
411.293793
0
3DFACE
8
0
10
603.077515
20
220.959702
30
410.858002
11
603.514526
21
220.860992
31
411.293793
12
602.333984
22
221.036301
32
411.680115
13
602.333984
23
221.036301
33
411.680115
0
3DFACE
8
0
10
602.333984
20
221.036301
30
411.680115
11
603.514526
21
220.860992
31
411.293793
12
602.802185
22
220.934296
32
412.081390
13
602.802185
23
220.934296
33
412.081390
0
3DFACE
8
0
10
602.333984
20
221.036301
30
411.680115
11
602.802185
21
220.934296
31
412.081390
12
601.652710
22
221.099899
32
412.555511
13
601.652710
23
221.099899
33
412.555511
0
3DFACE
8
0
10
601.652710
20
221.099899
30
412.555511
11
602.802185
21
220.934296
31
412.081390
12
602.149414
22
220.995102
32
412.920013
13
602.149414
23
220.995102
33
412.920013
0
3DFACE
8
0
10
601.652710
20
221.099899
30
412.555511
11
602.149414
21
220.995102
31
412.920013
12
601.037415
22
221.149994
32
413.479187
13
601.037415
23
221.149994
33
413.479187
0
3DFACE
8
0
10
601.037415
20
221.149994
30
413.479187
11
602.149414
21
220.995102
31
412.920013
12
601.559875
22
221.043106
32
413.805115
13
601.559875
23
221.043106
33
413.805115
0
3DFACE
8
0
10
601.037415
20
221.149994
30
413.479187
11
601.559875
21
221.043106
31
413.805115
12
600.491272
22
221.186493
32
414.446198
13
600.491272
23
221.186493
33
414.446198
0
3DFACE
8
0
10
600.491272
20
221.186493
30
414.446198
11
601.559875
21
221.043106
31
413.805115
12
601.036682
22
221.078003
32
414.731506
13
601.036682
23
221.078003
33
414.731506
0
3DFACE
8
0
10
600.491272
20
221.186493
30
414.446198
11
601.036682
21
221.078003
31
414.731506
12
600.058472
22
221.207596
32
415.356689
13
600.058472
23
221.207596
33
415.356689
0
3DFACE
8
0
10
600.058472
20
221.207596
30
415.356689
11
601.036682
21
221.078003
31
414.731506
12
600.622009
22
221.098206
32
415.603699
13
600.622009
23
221.098206
33
415.603699
0
3DFACE
8
0
10
600.058472
20
221.207596
30
415.356689
11
600.622009
21
221.098206
31
415.603699
12
599.687195
22
221.217194
32
416.294189
13
599.687195
23
221.217194
33
416.294189
0
3DFACE
8
0
10
599.687195
20
221.217194
30
416.294189
11
600.622009
21
221.098206
31
415.603699
12
600.266418
22
221.107300
32
416.501892
13
600.266418
23
221.107300
33
416.501892
0
3DFACE
8
0
10
599.687195
20
221.217194
30
416.294189
11
600.266418
21
221.107300
31
416.501892
12
599.379272
22
221.215195
32
417.254303
13
599.379272
23
221.215195
33
417.254303
0
3DFACE
8
0
10
599.379272
20
221.215195
30
417.254303
11
600.266418
21
221.107300
31
416.501892
12
599.971313
22
221.105301
32
417.421814
13
599.971313
23
221.105301
33
417.421814
0
3DFACE
8
0
10
599.379272
20
221.215195
30
417.254303
11
599.971313
21
221.105301
31
417.421814
12
599.135986
22
221.201599
32
418.232788
13
599.135986
23
221.201599
33
418.232788
0
3DFACE
8
0
10
599.135986
20
221.201599
30
418.232788
11
599.971313
21
221.105301
31
417.421814
12
599.738281
22
221.092194
32
418.359192
13
599.738281
23
221.092194
33
418.359192
0
3DFACE
8
0
10
599.135986
20
221.201599
30
418.232788
11
599.738281
21
221.092194
31
418.359192
12
598.958679
22
221.176498
32
419.225189
13
598.958679
23
221.176498
33
419.225189
0
3DFACE
8
0
10
598.958679
20
221.176498
30
419.225189
11
599.738281
21
221.092194
31
418.359192
12
599.568420
22
221.068100
32
419.309906
13
599.568420
23
221.068100
33
419.309906
0
3DFACE
8
0
10
598.958679
20
221.176498
30
419.225189
11
599.568420
21
221.068100
31
419.309906
12
598.848083
22
221.140106
32
420.226807
13
598.848083
23
221.140106
33
420.226807
0
3DFACE
8
0
10
598.848083
20
221.140106
30
420.226807
11
599.568420
21
221.068100
31
419.309906
12
599.462402
22
221.033096
32
420.269501
13
599.462402
23
221.033096
33
420.269501
0
3DFACE
8
0
10
598.848083
20
221.140106
30
420.226807
11
599.462402
21
221.033096
31
420.269501
12
598.804077
22
221.089096
32
421.295197
13
598.804077
23
221.089096
33
421.295197
0
3DFACE
8
0
10
598.804077
20
221.089096
30
421.295197
11
599.462402
21
221.033096
31
420.269501
12
599.420227
22
220.984207
32
421.292999
13
599.420227
23
220.984207
33
421.292999
0
3DFACE
8
0
10
598.804077
20
221.089096
30
421.295197
11
599.420227
21
220.984207
31
421.292999
12
598.822327
22
221.041107
32
422.123596
13
598.822327
23
221.041107
33
422.123596
0
3DFACE
8
0
10
598.822327
20
221.041107
30
422.123596
11
599.420227
21
220.984207
31
421.292999
12
599.462708
22
220.912399
32
422.482605
13
599.462708
23
220.912399
33
422.482605
0
3DFACE
8
0
10
598.822327
20
221.041107
30
422.123596
11
599.462708
21
220.912399
31
422.482605
12
598.885986
22
220.985703
32
422.949188
13
598.885986
23
220.985703
33
422.949188
0
3DFACE
8
0
10
598.885986
20
220.985703
30
422.949188
11
599.462708
21
220.912399
31
422.482605
12
598.995178
22
220.923203
32
423.769714
13
598.995178
23
220.923203
33
423.769714
0
3DFACE
8
0
10
598.995178
20
220.923203
30
423.769714
11
599.462708
21
220.912399
31
422.482605
12
599.603271
22
220.824997
32
423.663605
13
599.603271
23
220.824997
33
423.663605
0
3DFACE
8
0
10
598.995178
20
220.923203
30
423.769714
11
599.603271
21
220.824997
31
423.663605
12
599.149414
22
220.853806
32
424.582214
13
599.149414
23
220.853806
33
424.582214
0
3DFACE
8
0
10
599.149414
20
220.853806
30
424.582214
11
599.603271
21
220.824997
31
423.663605
12
599.840881
22
220.722794
32
424.827789
13
599.840881
23
220.722794
33
424.827789
0
3DFACE
8
0
10
599.149414
20
220.853806
30
424.582214
11
599.840881
21
220.722794
31
424.827789
12
599.348206
22
220.777695
32
425.384491
13
599.348206
23
220.777695
33
425.384491
0
3DFACE
8
0
10
599.348206
20
220.777695
30
425.384491
11
599.840881
21
220.722794
31
424.827789
12
599.590881
22
220.695099
32
426.173798
13
599.590881
23
220.695099
33
426.173798
0
3DFACE
8
0
10
599.590881
20
220.695099
30
426.173798
11
599.840881
21
220.722794
31
424.827789
12
600.174011
22
220.606293
32
425.966888
13
600.174011
23
220.606293
33
425.966888
0
3DFACE
8
0
10
599.590881
20
220.695099
30
426.173798
11
600.174011
21
220.606293
31
425.966888
12
599.943970
22
220.586395
32
427.112091
13
599.943970
23
220.586395
33
427.112091
0
3DFACE
8
0
10
599.943970
20
220.586395
30
427.112091
11
600.174011
21
220.606293
31
425.966888
12
600.512085
22
220.502106
32
426.865814
13
600.512085
23
220.502106
33
426.865814
0
3DFACE
8
0
10
599.943970
20
220.586395
30
427.112091
11
600.512085
21
220.502106
31
426.865814
12
600.359070
22
220.468994
32
428.023590
13
600.359070
23
220.468994
33
428.023590
0
3DFACE
8
0
10
600.359070
20
220.468994
30
428.023590
11
600.512085
21
220.502106
31
426.865814
12
600.909912
22
220.389603
32
427.739014
13
600.909912
23
220.389603
33
427.739014
0
3DFACE
8
0
10
600.359070
20
220.468994
30
428.023590
11
600.909912
21
220.389603
31
427.739014
12
600.834473
22
220.343399
32
428.903900
13
600.834473
23
220.343399
33
428.903900
0
3DFACE
8
0
10
600.834473
20
220.343399
30
428.903900
11
600.909912
21
220.389603
31
427.739014
12
601.365295
22
220.269196
32
428.582489
13
601.365295
23
220.269196
33
428.582489
0
3DFACE
8
0
10
600.834473
20
220.343399
30
428.903900
11
601.365295
21
220.269196
31
428.582489
12
601.367920
22
220.210403
32
429.749207
13
601.367920
23
220.210403
33
429.749207
0
3DFACE
8
0
10
601.367920
20
220.210403
30
429.749207
11
601.365295
21
220.269196
31
428.582489
12
601.876282
22
220.141602
32
429.392303
13
601.876282
23
220.141602
33
429.392303
0
3DFACE
8
0
10
601.367920
20
220.210403
30
429.749207
11
601.876282
21
220.141602
31
429.392303
12
601.956970
22
220.070297
32
430.555511
13
601.956970
23
220.070297
33
430.555511
0
3DFACE
8
0
10
601.956970
20
220.070297
30
430.555511
11
601.876282
21
220.141602
31
429.392303
12
602.440674
22
220.007401
32
430.164795
13
602.440674
23
220.007401
33
430.164795
0
3DFACE
8
0
10
601.956970
20
220.070297
30
430.555511
11
602.440674
21
220.007401
31
430.164795
12
602.599121
22
219.923904
32
431.319214
13
602.599121
23
219.923904
33
431.319214
0
3DFACE
8
0
10
602.599121
20
219.923904
30
431.319214
11
602.440674
21
220.007401
31
430.164795
12
603.055786
22
219.867096
32
430.896393
13
603.055786
23
219.867096
33
430.896393
0
3DFACE
8
0
10
602.599121
20
219.923904
30
431.319214
11
603.055786
21
219.867096
31
430.896393
12
603.612427
22
219.703003
32
432.338593
13
603.612427
23
219.703003
33
432.338593
0
3DFACE
8
0
10
603.612427
20
219.703003
30
432.338593
11
603.055786
21
219.867096
31
430.896393
12
604.026611
22
219.655396
32
431.872986
13
604.026611
23
219.655396
33
431.872986
0
3DFACE
8
0
10
603.612427
20
219.703003
30
432.338593
11
604.026611
21
219.655396
31
431.872986
12
604.301880
22
219.558304
32
432.928802
13
604.301880
23
219.558304
33
432.928802
0
3DFACE
8
0
10
604.301880
20
219.558304
30
432.928802
11
604.026611
21
219.655396
31
431.872986
12
604.687317
22
219.516693
32
432.438507
13
604.687317
23
219.516693
33
432.438507
0
3DFACE
8
0
10
604.301880
20
219.558304
30
432.928802
11
604.687317
21
219.516693
31
432.438507
12
605.026611
22
219.410294
32
433.474609
13
605.026611
23
219.410294
33
433.474609
0
3DFACE
8
0
10
605.026611
20
219.410294
30
433.474609
11
604.687317
21
219.516693
31
432.438507
12
605.381470
22
219.374893
32
432.961304
13
605.381470
23
219.374893
33
432.961304
0
3DFACE
8
0
10
605.026611
20
219.410294
30
433.474609
11
605.381470
21
219.374893
31
432.961304
12
605.783508
22
219.259506
32
433.973785
13
605.783508
23
219.259506
33
433.973785
0
3DFACE
8
0
10
605.783508
20
219.259506
30
433.973785
11
605.381470
21
219.374893
31
432.961304
12
606.106628
22
219.230392
32
433.439606
13
606.106628
23
219.230392
33
433.439606
0
3DFACE
8
0
10
605.783508
20
219.259506
30
433.973785
11
606.106628
21
219.230392
31
433.439606
12
606.569885
22
219.106598
32
434.424500
13
606.569885
23
219.106598
33
434.424500
0
3DFACE
8
0
10
606.569885
20
219.106598
30
434.424500
11
606.106628
21
219.230392
31
433.439606
12
606.859985
22
219.083893
32
433.871399
13
606.859985
23
219.083893
33
433.871399
0
3DFACE
8
0
10
606.569885
20
219.106598
30
434.424500
11
606.859985
21
219.083893
31
433.871399
12
607.382629
22
218.952194
32
434.825104
13
607.382629
23
218.952194
33
434.825104
0
3DFACE
8
0
10
607.382629
20
218.952194
30
434.825104
11
606.859985
21
219.083893
31
433.871399
12
607.638611
22
218.935898
32
434.255096
13
607.638611
23
218.935898
33
434.255096
0
3DFACE
8
0
10
607.382629
20
218.952194
30
434.825104
11
607.638611
21
218.935898
31
434.255096
12
608.301025
22
218.781601
32
435.204987
13
608.301025
23
218.781601
33
435.204987
0
3DFACE
8
0
10
608.301025
20
218.781601
30
435.204987
11
607.638611
21
218.935898
31
434.255096
12
608.518372
22
218.772400
32
434.619110
13
608.518372
23
218.772400
33
434.619110
0
3DFACE
8
0
10
608.301025
20
218.781601
30
435.204987
11
608.518372
21
218.772400
31
434.619110
12
609.243225
22
218.610504
32
435.520996
13
609.243225
23
218.610504
33
435.520996
0
3DFACE
8
0
10
609.243225
20
218.610504
30
435.520996
11
608.518372
21
218.772400
31
434.619110
12
609.421082
22
218.608597
32
434.921814
13
609.421082
23
218.608597
33
434.921814
0
3DFACE
8
0
10
609.243225
20
218.610504
30
435.520996
11
609.421082
21
218.608597
31
434.921814
12
610.205017
22
218.439896
32
435.771515
13
610.205017
23
218.439896
33
435.771515
0
3DFACE
8
0
10
610.205017
20
218.439896
30
435.771515
11
609.421082
21
218.608597
31
434.921814
12
610.342529
22
218.445099
32
435.161896
13
610.342529
23
218.445099
33
435.161896
0
3DFACE
8
0
10
610.205017
20
218.439896
30
435.771515
11
610.342529
21
218.445099
31
435.161896
12
611.181885
22
218.270401
32
435.955505
13
611.181885
23
218.270401
33
435.955505
0
3DFACE
8
0
10
611.181885
20
218.270401
30
435.955505
11
610.342529
21
218.445099
31
435.161896
12
611.278381
22
218.282700
32
435.338104
13
611.278381
23
218.282700
33
435.338104
0
3DFACE
8
0
10
611.181885
20
218.270401
30
435.955505
11
611.278381
21
218.282700
31
435.338104
12
612.169373
22
218.102905
32
436.072113
13
612.169373
23
218.102905
33
436.072113
0
3DFACE
8
0
10
612.169373
20
218.102905
30
436.072113
11
611.278381
21
218.282700
31
435.338104
12
612.224487
22
218.122192
32
435.449799
13
612.224487
23
218.122192
33
435.449799
0
3DFACE
8
0
10
612.169373
20
218.102905
30
436.072113
11
612.224487
21
218.122192
31
435.449799
12
613.163025
22
217.938004
32
436.120697
13
613.163025
23
217.938004
33
436.120697
0
3DFACE
8
0
10
613.163025
20
217.938004
30
436.120697
11
612.224487
21
218.122192
31
435.449799
12
613.176514
22
217.964203
32
435.496399
13
613.176514
23
217.964203
33
435.496399
0
3DFACE
8
0
10
801.683228
20
188.838699
30
414.608002
11
807.448425
21
187.907501
31
414.427490
12
807.405273
22
187.880600
32
415.050415
13
807.405273
23
187.880600
33
415.050415
0
3DFACE
8
0
10
676.949524
20
209.531403
30
408.531403
11
725.374573
21
201.533493
31
410.239502
12
676.847717
22
209.514206
32
409.152496
13
676.847717
23
209.514206
33
409.152496
0
3DFACE
8
0
10
676.847717
20
209.514206
30
409.152496
11
725.374573
21
201.533493
31
410.239502
12
754.605713
22
196.700897
32
411.357300
13
754.605713
23
196.700897
33
411.357300
0
3DFACE
8
0
10
676.847717
20
209.514206
30
409.152496
11
754.605713
21
196.700897
31
411.357300
12
725.270630
22
201.516602
32
410.860413
13
725.270630
23
201.516602
33
410.860413
0
3DFACE
8
0
10
725.270630
20
201.516602
30
410.860413
11
754.605713
21
196.700897
31
411.357300
12
771.511719
22
193.901505
32
412.084595
13
771.511719
23
193.901505
33
412.084595
0
3DFACE
8
0
10
725.270630
20
201.516602
30
410.860413
11
771.511719
21
193.901505
31
412.084595
12
754.498291
22
196.684601
32
411.977814
13
754.498291
23
196.684601
33
411.977814
0
3DFACE
8
0
10
754.498291
20
196.684601
30
411.977814
11
771.511719
21
193.901505
31
412.084595
12
782.793213
22
192.029404
32
412.643799
13
782.793213
23
192.029404
33
412.643799
0
3DFACE
8
0
10
754.498291
20
196.684601
30
411.977814
11
782.793213
21
192.029404
31
412.643799
12
771.422791
22
193.882095
32
412.705505
13
771.422791
23
193.882095
33
412.705505
0
3DFACE
8
0
10
771.422791
20
193.882095
30
412.705505
11
782.793213
21
192.029404
31
412.643799
12
791.319824
22
190.609207
32
413.163910
13
791.319824
23
190.609207
33
413.163910
0
3DFACE
8
0
10
771.422791
20
193.882095
30
412.705505
11
791.319824
21
190.609207
31
413.163910
12
782.715210
22
192.008301
32
413.264893
13
782.715210
23
192.008301
33
413.264893
0
3DFACE
8
0
10
782.715210
20
192.008301
30
413.264893
11
791.319824
21
190.609207
31
413.163910
12
801.733276
22
188.864502
32
413.985413
13
801.733276
23
188.864502
33
413.985413
0
3DFACE
8
0
10
782.715210
20
192.008301
30
413.264893
11
801.733276
21
188.864502
31
413.985413
12
791.254028
22
190.586105
32
413.785309
13
791.254028
23
190.586105
33
413.785309
0
3DFACE
8
0
10
791.254028
20
190.586105
30
413.785309
11
801.733276
21
188.864502
31
413.985413
12
807.448425
22
187.907501
32
414.427490
13
807.448425
23
187.907501
33
414.427490
0
3DFACE
8
0
10
791.254028
20
190.586105
30
413.785309
11
807.448425
21
187.907501
31
414.427490
12
801.683228
22
188.838699
32
414.608002
13
801.683228
23
188.838699
33
414.608002
0
3DFACE
8
0
10
676.949524
20
209.531403
30
408.531403
11
676.847717
21
209.514206
31
409.152496
12
639.413391
22
215.728302
32
407.257996
13
639.413391
23
215.728302
33
407.257996
0
3DFACE
8
0
10
639.413391
20
215.728302
30
407.257996
11
676.847717
21
209.514206
31
409.152496
12
639.409912
22
215.694794
32
407.882507
13
639.409912
23
215.694794
33
407.882507
0
3DFACE
8
0
10
737.062988
20
199.174301
30
418.515198
11
726.242371
21
200.880005
31
419.626312
12
726.583313
22
200.860596
32
418.962585
13
726.583313
23
200.860596
33
418.962585
0
3DFACE
8
0
10
726.583313
20
200.860596
30
418.962585
11
726.242371
21
200.880005
31
419.626312
12
715.441101
22
202.576508
32
420.849792
13
715.441101
23
202.576508
33
420.849792
0
3DFACE
8
0
10
726.583313
20
200.860596
30
418.962585
11
715.441101
21
202.576508
31
420.849792
12
714.924927
22
202.691696
32
420.283203
13
714.924927
23
202.691696
33
420.283203
0
3DFACE
8
0
10
714.924927
20
202.691696
30
420.283203
11
715.441101
21
202.576508
31
420.849792
12
703.265320
22
204.481903
32
422.357391
13
703.265320
23
204.481903
33
422.357391
0
3DFACE
8
0
10
714.924927
20
202.691696
30
420.283203
11
703.265320
21
204.481903
31
422.357391
12
703.289490
22
204.512405
32
421.725800
13
703.289490
23
204.512405
33
421.725800
0
3DFACE
8
0
10
703.289490
20
204.512405
30
421.725800
11
703.265320
21
204.481903
31
422.357391
12
690.392883
22
206.489395
32
424.077515
13
690.392883
23
206.489395
33
424.077515
0
3DFACE
8
0
10
703.289490
20
204.512405
30
421.725800
11
690.392883
21
206.489395
31
424.077515
12
690.411499
22
206.520798
32
423.445801
13
690.411499
23
206.520798
33
423.445801
0
3DFACE
8
0
10
690.411499
20
206.520798
30
423.445801
11
690.392883
21
206.489395
31
424.077515
12
674.366516
22
208.980499
32
426.371490
13
674.366516
23
208.980499
33
426.371490
0
3DFACE
8
0
10
690.411499
20
206.520798
30
423.445801
11
674.366516
21
208.980499
31
426.371490
12
674.379272
22
209.012802
32
425.739685
13
674.379272
23
209.012802
33
425.739685
0
3DFACE
8
0
10
674.379272
20
209.012802
30
425.739685
11
674.366516
21
208.980499
31
426.371490
12
658.378113
22
211.457703
32
428.806213
13
658.378113
23
211.457703
33
428.806213
0
3DFACE
8
0
10
674.379272
20
209.012802
30
425.739685
11
658.378113
21
211.457703
31
428.806213
12
658.385681
22
211.490906
32
428.174286
13
658.385681
23
211.490906
33
428.174286
0
3DFACE
8
0
10
658.385681
20
211.490906
30
428.174286
11
658.378113
21
211.457703
31
428.806213
12
639.274780
22
214.409103
32
431.868103
13
639.274780
23
214.409103
33
431.868103
0
3DFACE
8
0
10
658.385681
20
211.490906
30
428.174286
11
639.274780
21
214.409103
31
431.868103
12
639.278381
22
214.442993
32
431.236115
13
639.278381
23
214.442993
33
431.236115
0
3DFACE
8
0
10
793.162415
20
190.195099
30
415.242401
11
786.783386
21
191.233795
31
415.289490
12
774.961914
22
193.175598
32
415.068115
13
774.961914
23
193.175598
33
415.068115
0
3DFACE
8
0
10
774.961914
20
193.175598
30
415.068115
11
786.783386
21
191.233795
31
415.289490
12
779.264526
22
192.449203
32
415.508606
13
779.264526
23
192.449203
33
415.508606
0
3DFACE
8
0
10
774.961914
20
193.175598
30
415.068115
11
779.264526
21
192.449203
31
415.508606
12
766.639282
22
194.509796
32
415.515808
13
766.639282
23
194.509796
33
415.515808
0
3DFACE
8
0
10
766.639282
20
194.509796
30
415.515808
11
779.264526
21
192.449203
31
415.508606
12
770.937317
22
193.787506
32
415.895203
13
770.937317
23
193.787506
33
415.895203
0
3DFACE
8
0
10
766.639282
20
194.509796
30
415.515808
11
770.937317
21
193.787506
31
415.895203
12
757.052185
22
196.039505
32
416.162109
13
757.052185
23
196.039505
33
416.162109
0
3DFACE
8
0
10
757.052185
20
196.039505
30
416.162109
11
770.937317
21
193.787506
31
415.895203
12
757.464417
22
195.939804
32
416.756989
13
757.464417
23
195.939804
33
416.756989
0
3DFACE
8
0
10
757.052185
20
196.039505
30
416.162109
11
757.464417
21
195.939804
31
416.756989
12
747.479370
22
197.560303
32
416.931213
13
747.479370
23
197.560303
33
416.931213
0
3DFACE
8
0
10
747.479370
20
197.560303
30
416.931213
11
757.464417
21
195.939804
31
416.756989
12
747.255920
22
197.561600
32
417.576385
13
747.255920
23
197.561600
33
417.576385
0
3DFACE
8
0
10
747.479370
20
197.560303
30
416.931213
11
747.255920
21
197.561600
31
417.576385
12
737.022705
22
199.214798
32
417.892609
13
737.022705
23
199.214798
33
417.892609
0
3DFACE
8
0
10
737.022705
20
199.214798
30
417.892609
11
747.255920
21
197.561600
31
417.576385
12
737.062988
22
199.174301
32
418.515198
13
737.062988
23
199.174301
33
418.515198
0
3DFACE
8
0
10
737.022705
20
199.214798
30
417.892609
11
737.062988
21
199.174301
31
418.515198
12
726.583313
22
200.860596
32
418.962585
13
726.583313
23
200.860596
33
418.962585
0
3DFACE
8
0
10
774.961914
20
193.175598
30
415.068115
11
783.293823
21
191.832993
31
414.748413
12
807.405273
22
187.880600
32
415.050415
13
807.405273
23
187.880600
33
415.050415
0
3DFACE
8
0
10
807.405273
20
187.880600
30
415.050415
11
783.293823
21
191.832993
31
414.748413
12
803.843506
22
188.470993
32
414.885315
13
803.843506
23
188.470993
33
414.885315
0
3DFACE
8
0
10
783.293823
20
191.832993
30
414.748413
11
790.280273
21
190.699402
31
414.621094
12
803.843506
22
188.470993
32
414.885315
13
803.843506
23
188.470993
33
414.885315
0
3DFACE
8
0
10
803.843506
20
188.470993
30
414.885315
11
790.280273
21
190.699402
31
414.621094
12
796.056091
22
189.755096
32
414.648590
13
796.056091
23
189.755096
33
414.648590
0
3DFACE
8
0
10
807.405273
20
187.880600
30
415.050415
11
807.369019
21
187.852493
31
415.673706
12
799.937988
22
189.082306
32
415.365601
13
799.937988
23
189.082306
33
415.365601
0
3DFACE
8
0
10
807.405273
20
187.880600
30
415.050415
11
799.937988
21
189.082306
31
415.365601
12
793.162415
22
190.195099
32
415.242401
13
793.162415
23
190.195099
33
415.242401
0
3DFACE
8
0
10
807.405273
20
187.880600
30
415.050415
11
793.162415
21
190.195099
31
415.242401
12
774.961914
22
193.175598
32
415.068115
13
774.961914
23
193.175598
33
415.068115
0
3DFACE
8
0
10
639.413391
20
215.728302
30
407.257996
11
639.409912
21
215.694794
31
407.882507
12
639.333374
22
215.238800
32
407.228790
13
639.333374
23
215.238800
33
407.228790
0
3DFACE
8
0
10
639.333374
20
215.238800
30
407.228790
11
639.409912
21
215.694794
31
407.882507
12
639.329407
22
215.202194
32
407.853088
13
639.329407
23
215.202194
33
407.853088
0
3DFACE
8
0
10
639.274780
20
214.409103
30
431.868103
11
639.195313
21
213.921494
31
431.845886
12
639.278381
22
214.442993
32
431.236115
13
639.278381
23
214.442993
33
431.236115
0
3DFACE
8
0
10
639.278381
20
214.442993
30
431.236115
11
639.195313
21
213.921494
31
431.845886
12
639.197876
22
213.949997
32
431.213715
13
639.197876
23
213.949997
33
431.213715
0
3DFACE
8
0
10
639.333374
20
215.238800
30
407.228790
11
639.329407
21
215.202194
31
407.853088
12
613.609619
22
219.484299
32
406.377014
13
613.609619
23
219.484299
33
406.377014
0
3DFACE
8
0
10
613.609619
20
219.484299
30
406.377014
11
639.329407
21
215.202194
31
407.853088
12
613.583618
22
219.451401
32
407.000610
13
613.583618
23
219.451401
33
407.000610
0
3DFACE
8
0
10
807.335876
20
187.352005
30
415.646301
11
807.335693
21
187.348297
31
415.646088
12
807.372314
22
187.380096
32
415.023010
13
807.372314
23
187.380096
33
415.023010
0
3DFACE
8
0
10
807.335693
20
187.348297
30
415.646088
11
803.783875
21
187.940903
31
415.481598
12
800.125671
22
188.542801
32
415.344910
13
800.125671
23
188.542801
33
415.344910
0
3DFACE
8
0
10
807.335693
20
187.348297
30
415.646088
11
807.335876
21
187.352005
31
415.646301
12
803.783875
22
187.940903
32
415.481598
13
803.783875
23
187.940903
33
415.481598
0
3DFACE
8
0
10
787.639099
20
190.589096
30
415.246613
11
792.326721
21
189.824905
31
415.212311
12
793.598999
22
189.617798
32
415.217499
13
793.598999
23
189.617798
33
415.217499
0
3DFACE
8
0
10
793.598999
20
189.617798
30
415.217499
11
792.326721
21
189.824905
31
415.212311
12
793.598572
22
189.616699
32
415.217407
13
793.598572
23
189.616699
33
415.217407
0
3DFACE
8
0
10
793.598999
20
189.617798
30
415.217499
11
793.598572
21
189.616699
31
415.217407
12
796.223694
22
189.185806
32
415.248596
13
796.223694
23
189.185806
33
415.248596
0
3DFACE
8
0
10
796.223694
20
189.185806
30
415.248596
11
796.002319
21
189.223999
31
415.244995
12
793.598999
22
189.617798
32
415.217499
13
793.598999
23
189.617798
33
415.217499
0
3DFACE
8
0
10
796.002319
20
189.223999
30
415.244995
11
796.223694
21
189.185806
31
415.248596
12
800.125671
22
188.542801
32
415.344910
13
800.125671
23
188.542801
33
415.344910
0
3DFACE
8
0
10
796.002319
20
189.223999
30
415.244995
11
800.125671
21
188.542801
31
415.344910
12
803.783875
22
187.940903
32
415.481598
13
803.783875
23
187.940903
33
415.481598
0
3DFACE
8
0
10
807.360229
20
187.382095
30
415.022186
11
800.125671
21
188.542801
31
415.344910
12
803.799316
22
187.972397
32
414.857391
13
803.799316
23
187.972397
33
414.857391
0
3DFACE
8
0
10
796.223694
20
189.185806
30
415.248596
11
796.010376
21
189.256699
31
414.620789
12
800.125671
22
188.542801
32
415.344910
13
800.125671
23
188.542801
33
415.344910
0
3DFACE
8
0
10
800.125671
20
188.542801
30
415.344910
11
796.010376
21
189.256699
31
414.620789
12
799.905396
22
188.615906
32
414.713593
13
799.905396
23
188.615906
33
414.713593
0
3DFACE
8
0
10
800.125671
20
188.542801
30
415.344910
11
799.905396
21
188.615906
31
414.713593
12
803.799316
22
187.972397
32
414.857391
13
803.799316
23
187.972397
33
414.857391
0
3DFACE
8
0
10
807.335693
20
187.348297
30
415.646088
11
800.125671
21
188.542801
31
415.344910
12
807.360229
22
187.382095
32
415.022186
13
807.360229
23
187.382095
33
415.022186
0
3DFACE
8
0
10
807.335693
20
187.348297
30
415.646088
11
807.360229
21
187.382095
31
415.022186
12
807.364075
22
187.381393
32
415.022491
13
807.364075
23
187.381393
33
415.022491
0
3DFACE
8
0
10
807.335693
20
187.348297
30
415.646088
11
807.364075
21
187.381393
31
415.022491
12
807.368408
22
187.380707
32
415.022797
13
807.368408
23
187.380707
33
415.022797
0
3DFACE
8
0
10
807.335693
20
187.348297
30
415.646088
11
807.368408
21
187.380707
31
415.022797
12
807.372314
22
187.380096
32
415.023010
13
807.372314
23
187.380096
33
415.023010
0
3DFACE
8
0
10
792.326721
20
189.824905
30
415.212311
11
787.639099
21
190.589096
31
415.246613
12
787.656616
22
190.619095
32
414.644806
13
787.656616
23
190.619095
33
414.644806
0
3DFACE
8
0
10
792.326721
20
189.824905
30
415.212311
11
787.656616
21
190.619095
31
414.644806
12
787.658630
22
190.618896
32
414.642487
13
787.658630
23
190.618896
33
414.642487
0
3DFACE
8
0
10
792.326721
20
189.824905
30
415.212311
11
787.658630
21
190.618896
31
414.642487
12
787.659180
22
190.618805
32
414.641388
13
787.659180
23
190.618805
33
414.641388
0
3DFACE
8
0
10
792.326721
20
189.824905
30
415.212311
11
787.659180
21
190.618805
31
414.641388
12
790.232422
22
190.201401
32
414.593689
13
790.232422
23
190.201401
33
414.593689
0
3DFACE
8
0
10
792.326721
20
189.824905
30
415.212311
11
790.232422
21
190.201401
31
414.593689
12
796.010376
22
189.256699
32
414.620789
13
796.010376
23
189.256699
33
414.620789
0
3DFACE
8
0
10
796.010376
20
189.256699
30
414.620789
11
793.598572
21
189.616699
31
415.217407
12
792.326721
22
189.824905
32
415.212311
13
792.326721
23
189.824905
33
415.212311
0
3DFACE
8
0
10
790.232422
20
190.201401
30
414.593689
11
787.659180
21
190.618805
31
414.641388
12
787.659180
22
190.619003
32
414.638885
13
787.659180
23
190.619003
33
414.638885
0
3DFACE
8
0
10
790.232422
20
190.201401
30
414.593689
11
787.659180
21
190.619003
31
414.638885
12
787.658020
22
190.619293
32
414.637299
13
787.658020
23
190.619293
33
414.637299
0
3DFACE
8
0
10
790.232422
20
190.201401
30
414.593689
11
787.658020
21
190.619293
31
414.637299
12
787.652405
22
190.620407
32
414.633606
13
787.652405
23
190.620407
33
414.633606
0
3DFACE
8
0
10
790.232422
20
190.201401
30
414.593689
11
787.652405
21
190.620407
31
414.633606
12
787.634216
22
190.623993
32
414.622498
13
787.634216
23
190.623993
33
414.622498
0
3DFACE
8
0
10
796.010376
20
189.256699
30
414.620789
11
796.223694
21
189.185806
31
415.248596
12
793.598572
22
189.616699
32
415.217407
13
793.598572
23
189.616699
33
415.217407
0
3DFACE
8
0
10
639.197876
20
213.949997
30
431.213715
11
639.195313
21
213.921494
31
431.845886
12
623.033386
22
216.442902
32
433.888794
13
623.033386
23
216.442902
33
433.888794
0
3DFACE
8
0
10
623.033386
20
216.442902
30
433.888794
11
639.195313
21
213.921494
31
431.845886
12
632.685730
22
214.925797
32
432.916595
13
632.685730
23
214.925797
33
432.916595
0
3DFACE
8
0
10
623.033386
20
216.442902
30
433.888794
11
632.685730
21
214.925797
31
432.916595
12
613.423218
22
217.923904
32
435.497803
13
613.423218
23
217.923904
33
435.497803
0
3DFACE
8
0
10
613.423218
20
217.923904
30
435.497803
11
632.685730
21
214.925797
31
432.916595
12
613.519775
22
217.880096
32
436.113708
13
613.519775
23
217.880096
33
436.113708
0
3DFACE
8
0
10
787.656616
20
190.619095
30
414.644806
11
807.360229
21
187.382095
31
415.022186
12
803.799316
22
187.972397
32
414.857391
13
803.799316
23
187.972397
33
414.857391
0
3DFACE
8
0
10
787.656616
20
190.619095
30
414.644806
11
803.799316
21
187.972397
31
414.857391
12
799.905396
22
188.615906
32
414.713593
13
799.905396
23
188.615906
33
414.713593
0
3DFACE
8
0
10
787.656616
20
190.619095
30
414.644806
11
799.905396
21
188.615906
31
414.713593
12
796.010376
22
189.256699
32
414.620789
13
796.010376
23
189.256699
33
414.620789
0
3DFACE
8
0
10
787.639099
20
190.589096
30
415.246613
11
807.372314
21
187.380096
31
415.023010
12
807.368408
22
187.380707
32
415.022797
13
807.368408
23
187.380707
33
415.022797
0
3DFACE
8
0
10
787.639099
20
190.589096
30
415.246613
11
807.368408
21
187.380707
31
415.022797
12
807.364075
22
187.381393
32
415.022491
13
807.364075
23
187.381393
33
415.022491
0
3DFACE
8
0
10
787.639099
20
190.589096
30
415.246613
11
807.364075
21
187.381393
31
415.022491
12
807.360229
22
187.382095
32
415.022186
13
807.360229
23
187.382095
33
415.022186
0
3DFACE
8
0
10
787.639099
20
190.589096
30
415.246613
11
807.360229
21
187.382095
31
415.022186
12
787.656616
22
190.619095
32
414.644806
13
787.656616
23
190.619095
33
414.644806
0
3DFACE
8
0
10
807.372314
20
187.380096
30
415.023010
11
787.639099
21
190.589096
31
415.246613
12
793.598999
22
189.617798
32
415.217499
13
793.598999
23
189.617798
33
415.217499
0
3DFACE
8
0
10
807.372314
20
187.380096
30
415.023010
11
796.002319
21
189.223999
31
415.244995
12
803.783875
22
187.940903
32
415.481598
13
803.783875
23
187.940903
33
415.481598
0
3DFACE
8
0
10
807.372314
20
187.380096
30
415.023010
11
803.783875
21
187.940903
31
415.481598
12
807.335876
22
187.352005
32
415.646301
13
807.335876
23
187.352005
33
415.646301
0
3DFACE
8
0
10
790.232422
20
190.201401
30
414.593689
11
787.634216
21
190.623993
31
414.622498
12
787.652405
22
190.620407
32
414.633606
13
787.652405
23
190.620407
33
414.633606
0
3DFACE
8
0
10
790.232422
20
190.201401
30
414.593689
11
787.652405
21
190.620407
31
414.633606
12
787.658020
22
190.619293
32
414.637299
13
787.658020
23
190.619293
33
414.637299
0
3DFACE
8
0
10
790.232422
20
190.201401
30
414.593689
11
787.658020
21
190.619293
31
414.637299
12
787.659180
22
190.619003
32
414.638885
13
787.659180
23
190.619003
33
414.638885
0
3DFACE
8
0
10
790.232422
20
190.201401
30
414.593689
11
787.659180
21
190.619003
31
414.638885
12
787.659180
22
190.618805
32
414.641388
13
787.659180
23
190.618805
33
414.641388
0
3DFACE
8
0
10
796.010376
20
189.256699
30
414.620789
11
790.232422
21
190.201401
31
414.593689
12
787.659180
22
190.618805
32
414.641388
13
787.659180
23
190.618805
33
414.641388
0
3DFACE
8
0
10
796.010376
20
189.256699
30
414.620789
11
787.659180
21
190.618805
31
414.641388
12
787.658630
22
190.618896
32
414.642487
13
787.658630
23
190.618896
33
414.642487
0
3DFACE
8
0
10
796.010376
20
189.256699
30
414.620789
11
787.658630
21
190.618896
31
414.642487
12
787.656616
22
190.619095
32
414.644806
13
787.656616
23
190.619095
33
414.644806
0
3DFACE
8
0
10
807.372314
20
187.380096
30
415.023010
11
793.598999
21
189.617798
31
415.217499
12
796.002319
22
189.223999
32
415.244995
13
796.002319
23
189.223999
33
415.244995
0
3DFACE
8
0
10
784.229614
20
1274.017944
30
469.429810
11
784.679077
21
1273.911011
31
469.980713
12
784.957214
22
1273.905029
32
469.316406
13
784.957214
23
1273.905029
33
469.316406
0
3DFACE
8
0
10
784.957214
20
1273.905029
30
469.316406
11
784.679077
21
1273.911011
31
469.980713
12
785.438721
22
1273.791016
32
469.906403
13
785.438721
23
1273.791016
33
469.906403
0
3DFACE
8
0
10
784.957214
20
1273.905029
30
469.316406
11
785.438721
21
1273.791016
31
469.906403
12
785.419983
22
1273.831055
32
469.282990
13
785.419983
23
1273.831055
33
469.282990
0
3DFACE
8
0
10
782.177185
20
1274.269043
30
470.907501
11
782.737915
21
1274.193970
31
470.596588
12
782.160522
22
1274.312988
32
470.199402
13
782.160522
23
1274.312988
33
470.199402
0
3DFACE
8
0
10
782.160522
20
1274.312988
30
470.199402
11
782.737915
21
1274.193970
31
470.596588
12
783.324524
22
1274.112061
32
470.340393
13
783.324524
23
1274.112061
33
470.340393
0
3DFACE
8
0
10
782.160522
20
1274.312988
30
470.199402
11
783.324524
21
1274.112061
31
470.340393
12
782.824219
22
1274.223022
32
469.873505
13
782.824219
23
1274.223022
33
469.873505
0
3DFACE
8
0
10
782.824219
20
1274.223022
30
469.873505
11
783.324524
21
1274.112061
31
470.340393
12
783.932129
22
1274.024048
32
470.141388
13
783.932129
23
1274.024048
33
470.141388
0
3DFACE
8
0
10
782.824219
20
1274.223022
30
469.873505
11
783.932129
21
1274.024048
31
470.141388
12
783.516174
22
1274.124023
32
469.616089
13
783.516174
23
1274.124023
33
469.616089
0
3DFACE
8
0
10
783.516174
20
1274.124023
30
469.616089
11
783.932129
21
1274.024048
31
470.141388
12
784.679077
22
1273.911011
32
469.980713
13
784.679077
23
1273.911011
33
469.980713
0
3DFACE
8
0
10
783.516174
20
1274.124023
30
469.616089
11
784.679077
21
1273.911011
31
469.980713
12
784.229614
22
1274.017944
32
469.429810
13
784.229614
23
1274.017944
33
469.429810
0
3DFACE
8
0
10
779.288818
20
1274.626953
30
473.047699
11
779.930725
21
1274.511963
31
473.170685
12
779.615173
22
1274.603027
32
472.524109
13
779.615173
23
1274.603027
33
472.524109
0
3DFACE
8
0
10
779.615173
20
1274.603027
30
472.524109
11
779.930725
21
1274.511963
31
473.170685
12
780.291687
22
1274.482056
32
472.636505
13
780.291687
23
1274.482056
33
472.636505
0
3DFACE
8
0
10
779.615173
20
1274.603027
30
472.524109
11
780.291687
21
1274.482056
31
472.636505
12
779.983093
22
1274.568970
32
472.029388
13
779.983093
23
1274.568970
33
472.029388
0
3DFACE
8
0
10
779.983093
20
1274.568970
30
472.029388
11
780.291687
21
1274.482056
31
472.636505
12
780.700623
22
1274.442993
32
472.138794
13
780.700623
23
1274.442993
33
472.138794
0
3DFACE
8
0
10
779.983093
20
1274.568970
30
472.029388
11
780.700623
21
1274.442993
31
472.138794
12
780.390076
22
1274.527954
32
471.566803
13
780.390076
23
1274.527954
33
471.566803
0
3DFACE
8
0
10
780.390076
20
1274.527954
30
471.566803
11
780.700623
21
1274.442993
31
472.138794
12
781.153992
22
1274.394043
32
471.682098
13
781.153992
23
1274.394043
33
471.682098
0
3DFACE
8
0
10
780.390076
20
1274.527954
30
471.566803
11
781.153992
21
1274.394043
31
471.682098
12
780.944275
22
1274.465942
32
471.042999
13
780.944275
23
1274.465942
33
471.042999
0
3DFACE
8
0
10
780.944275
20
1274.465942
30
471.042999
11
781.153992
21
1274.394043
31
471.682098
12
781.647583
22
1274.334961
32
471.270386
13
781.647583
23
1274.334961
33
471.270386
0
3DFACE
8
0
10
780.944275
20
1274.465942
30
471.042999
11
781.647583
21
1274.334961
31
471.270386
12
781.531799
22
1274.395020
32
470.590607
13
781.531799
23
1274.395020
33
470.590607
0
3DFACE
8
0
10
781.531799
20
1274.395020
30
470.590607
11
781.647583
21
1274.334961
31
471.270386
12
782.177185
22
1274.269043
32
470.907501
13
782.177185
23
1274.269043
33
470.907501
0
3DFACE
8
0
10
781.531799
20
1274.395020
30
470.590607
11
782.177185
21
1274.269043
31
470.907501
12
782.160522
22
1274.312988
32
470.199402
13
782.160522
23
1274.312988
33
470.199402
0
3DFACE
8
0
10
778.943115
20
1274.506958
30
476.212585
11
779.024780
21
1274.529053
31
475.572815
12
778.376709
22
1274.630005
32
475.733002
13
778.376709
23
1274.630005
33
475.733002
0
3DFACE
8
0
10
778.376709
20
1274.630005
30
475.733002
11
779.024780
21
1274.529053
31
475.572815
12
779.166077
22
1274.540039
32
474.943115
13
779.166077
23
1274.540039
33
474.943115
0
3DFACE
8
0
10
778.376709
20
1274.630005
30
475.733002
11
779.166077
21
1274.540039
31
474.943115
12
778.579773
22
1274.650024
32
474.754395
13
778.579773
23
1274.650024
33
474.754395
0
3DFACE
8
0
10
778.579773
20
1274.650024
30
474.754395
11
779.166077
21
1274.540039
31
474.943115
12
779.365417
22
1274.541016
32
474.329193
13
779.365417
23
1274.541016
33
474.329193
0
3DFACE
8
0
10
778.579773
20
1274.650024
30
474.754395
11
779.365417
21
1274.541016
31
474.329193
12
778.769287
22
1274.651001
32
474.166687
13
778.769287
23
1274.651001
33
474.166687
0
3DFACE
8
0
10
778.769287
20
1274.651001
30
474.166687
11
779.365417
21
1274.541016
31
474.329193
12
779.620972
22
1274.531982
32
473.736694
13
779.620972
23
1274.531982
33
473.736694
0
3DFACE
8
0
10
778.769287
20
1274.651001
30
474.166687
11
779.620972
21
1274.531982
31
473.736694
12
779.006226
22
1274.644043
32
473.596497
13
779.006226
23
1274.644043
33
473.596497
0
3DFACE
8
0
10
779.006226
20
1274.644043
30
473.596497
11
779.620972
21
1274.531982
31
473.736694
12
779.930725
22
1274.511963
32
473.170685
13
779.930725
23
1274.511963
33
473.170685
0
3DFACE
8
0
10
779.006226
20
1274.644043
30
473.596497
11
779.930725
21
1274.511963
31
473.170685
12
779.288818
22
1274.626953
32
473.047699
13
779.288818
23
1274.626953
33
473.047699
0
3DFACE
8
0
10
778.521179
20
1274.453003
30
478.559814
11
779.058777
21
1274.384033
31
478.135712
12
778.398987
22
1274.505981
32
477.956787
13
778.398987
23
1274.505981
33
477.956787
0
3DFACE
8
0
10
778.398987
20
1274.505981
30
477.956787
11
779.058777
21
1274.384033
31
478.135712
12
778.960083
22
1274.435059
32
477.499786
13
778.960083
23
1274.435059
33
477.499786
0
3DFACE
8
0
10
778.398987
20
1274.505981
30
477.956787
11
778.960083
21
1274.435059
31
477.499786
12
778.326721
22
1274.551025
32
477.345215
13
778.326721
23
1274.551025
33
477.345215
0
3DFACE
8
0
10
778.326721
20
1274.551025
30
477.345215
11
778.960083
21
1274.435059
31
477.499786
12
778.921387
22
1274.475952
32
476.856903
13
778.921387
23
1274.475952
33
476.856903
0
3DFACE
8
0
10
778.326721
20
1274.551025
30
477.345215
11
778.921387
21
1274.475952
31
476.856903
12
778.304871
22
1274.588013
32
476.729187
13
778.304871
23
1274.588013
33
476.729187
0
3DFACE
8
0
10
778.304871
20
1274.588013
30
476.729187
11
778.921387
21
1274.475952
31
476.856903
12
778.943115
22
1274.506958
32
476.212585
13
778.943115
23
1274.506958
33
476.212585
0
3DFACE
8
0
10
778.304871
20
1274.588013
30
476.729187
11
778.943115
21
1274.506958
31
476.212585
12
778.376709
22
1274.630005
32
475.733002
13
778.376709
23
1274.630005
33
475.733002
0
3DFACE
8
0
10
780.027588
20
1274.097046
30
480.495605
11
779.703125
21
1274.180054
31
479.943909
12
779.364380
22
1274.203979
32
480.606201
13
779.364380
23
1274.203979
33
480.606201
0
3DFACE
8
0
10
779.364380
20
1274.203979
30
480.606201
11
779.703125
21
1274.180054
31
479.943909
12
779.432007
22
1274.255981
32
479.363190
13
779.432007
23
1274.255981
33
479.363190
0
3DFACE
8
0
10
779.364380
20
1274.203979
30
480.606201
11
779.432007
21
1274.255981
31
479.363190
12
778.989075
22
1274.303955
32
479.896912
13
778.989075
23
1274.303955
33
479.896912
0
3DFACE
8
0
10
778.989075
20
1274.303955
30
479.896912
11
779.432007
21
1274.255981
31
479.363190
12
779.216614
22
1274.323975
32
478.758606
13
779.216614
23
1274.323975
33
478.758606
0
3DFACE
8
0
10
778.989075
20
1274.303955
30
479.896912
11
779.216614
21
1274.323975
31
478.758606
12
778.692383
22
1274.392944
32
479.149994
13
778.692383
23
1274.392944
33
479.149994
0
3DFACE
8
0
10
778.692383
20
1274.392944
30
479.149994
11
779.216614
21
1274.323975
31
478.758606
12
779.058777
22
1274.384033
32
478.135712
13
779.058777
23
1274.384033
33
478.135712
0
3DFACE
8
0
10
778.692383
20
1274.392944
30
479.149994
11
779.058777
21
1274.384033
31
478.135712
12
778.521179
22
1274.453003
32
478.559814
13
778.521179
23
1274.453003
33
478.559814
0
3DFACE
8
0
10
781.852173
20
1273.662964
30
483.099487
11
781.793884
21
1273.708984
31
482.317902
12
781.242615
22
1273.784058
32
482.688904
13
781.242615
23
1273.784058
33
482.688904
0
3DFACE
8
0
10
781.242615
20
1273.784058
30
482.688904
11
781.793884
21
1273.708984
31
482.317902
12
781.289612
22
1273.812988
32
481.928589
13
781.289612
23
1273.812988
33
481.928589
0
3DFACE
8
0
10
781.242615
20
1273.784058
30
482.688904
11
781.289612
21
1273.812988
31
481.928589
12
780.770630
22
1273.881958
32
482.303101
13
780.770630
23
1273.881958
33
482.303101
0
3DFACE
8
0
10
780.770630
20
1273.881958
30
482.303101
11
781.289612
21
1273.812988
31
481.928589
12
780.824524
22
1273.911987
32
481.492401
13
780.824524
23
1273.911987
33
481.492401
0
3DFACE
8
0
10
780.770630
20
1273.881958
30
482.303101
11
780.824524
21
1273.911987
31
481.492401
12
780.332275
22
1273.977051
32
481.878815
13
780.332275
23
1273.977051
33
481.878815
0
3DFACE
8
0
10
780.332275
20
1273.977051
30
481.878815
11
780.824524
21
1273.911987
31
481.492401
12
780.402527
22
1274.008057
32
481.013306
13
780.402527
23
1274.008057
33
481.013306
0
3DFACE
8
0
10
780.332275
20
1273.977051
30
481.878815
11
780.402527
21
1274.008057
31
481.013306
12
779.813782
22
1274.094971
32
481.269409
13
779.813782
23
1274.094971
33
481.269409
0
3DFACE
8
0
10
779.813782
20
1274.094971
30
481.269409
11
780.402527
21
1274.008057
31
481.013306
12
780.027588
22
1274.097046
32
480.495605
13
780.027588
23
1274.097046
33
480.495605
0
3DFACE
8
0
10
779.813782
20
1274.094971
30
481.269409
11
780.027588
21
1274.097046
31
480.495605
12
779.364380
22
1274.203979
32
480.606201
13
779.364380
23
1274.203979
33
480.606201
0
3DFACE
8
0
10
781.793884
20
1273.708984
30
482.317902
11
781.852173
21
1273.662964
31
483.099487
12
782.331787
22
1273.603027
32
482.656403
13
782.331787
23
1273.603027
33
482.656403
0
3DFACE
8
0
10
782.331787
20
1273.603027
30
482.656403
11
781.852173
21
1273.662964
31
483.099487
12
782.499817
22
1273.537964
32
483.445892
13
782.499817
23
1273.537964
33
483.445892
0
3DFACE
8
0
10
782.331787
20
1273.603027
30
482.656403
11
782.499817
21
1273.537964
31
483.445892
12
782.899475
22
1273.494995
32
482.941711
13
782.899475
23
1273.494995
33
482.941711
0
3DFACE
8
0
10
782.899475
20
1273.494995
30
482.941711
11
782.499817
21
1273.537964
31
483.445892
12
783.179016
22
1273.411987
32
483.724701
13
783.179016
23
1273.411987
33
483.724701
0
3DFACE
8
0
10
782.899475
20
1273.494995
30
482.941711
11
783.179016
21
1273.411987
31
483.724701
12
783.491821
22
1273.385986
32
483.171295
13
783.491821
23
1273.385986
33
483.171295
0
3DFACE
8
0
10
783.491821
20
1273.385986
30
483.171295
11
783.179016
21
1273.411987
31
483.724701
12
783.882996
22
1273.286011
32
483.933197
13
783.882996
23
1273.286011
33
483.933197
0
3DFACE
8
0
10
783.491821
20
1273.385986
30
483.171295
11
783.882996
21
1273.286011
31
483.933197
12
784.103271
22
1273.276001
32
483.342987
13
784.103271
23
1273.276001
33
483.342987
0
3DFACE
8
0
10
784.103271
20
1273.276001
30
483.342987
11
783.882996
21
1273.286011
31
483.933197
12
784.604675
22
1273.161011
32
484.069214
13
784.604675
23
1273.161011
33
484.069214
0
3DFACE
8
0
10
784.103271
20
1273.276001
30
483.342987
11
784.604675
21
1273.161011
31
484.069214
12
784.728577
22
1273.167969
32
483.455414
13
784.728577
23
1273.167969
33
483.455414
0
3DFACE
8
0
10
784.728577
20
1273.167969
30
483.455414
11
784.604675
21
1273.161011
31
484.069214
12
785.336914
22
1273.037964
32
484.131409
13
785.336914
23
1273.037964
33
484.131409
0
3DFACE
8
0
10
784.728577
20
1273.167969
30
483.455414
11
785.336914
21
1273.037964
31
484.131409
12
785.362122
22
1273.062012
32
483.507385
13
785.362122
23
1273.062012
33
483.507385
0
3DFACE
8
0
10
878.237976
20
1258.433960
30
473.732513
11
878.281372
21
1258.464966
31
473.109802
12
878.232422
22
1258.435059
32
473.732086
13
878.232422
23
1258.435059
33
473.732086
0
3DFACE
8
0
10
878.232422
20
1258.435059
30
473.732086
11
878.281372
21
1258.464966
31
473.109802
12
877.788879
22
1258.547974
32
473.077789
13
877.788879
23
1258.547974
33
473.077789
0
3DFACE
8
0
10
878.232422
20
1258.435059
30
473.732086
11
875.319580
21
1258.963013
31
472.878906
12
874.976807
22
1258.979980
32
473.476288
13
874.976807
23
1258.979980
33
473.476288
0
3DFACE
8
0
10
874.976807
20
1258.979980
30
473.476288
11
875.319580
21
1258.963013
31
472.878906
12
874.321777
22
1259.130005
32
472.794891
13
874.321777
23
1259.130005
33
472.794891
0
3DFACE
8
0
10
874.976807
20
1258.979980
30
473.476288
11
864.340576
21
1260.792969
31
472.145386
12
865.040527
22
1260.639038
32
472.805786
13
865.040527
23
1260.639038
33
472.805786
0
3DFACE
8
0
10
865.040527
20
1260.639038
30
472.805786
11
864.340576
21
1260.792969
31
472.145386
12
862.344788
22
1261.124023
32
472.048187
13
862.344788
23
1261.124023
33
472.048187
0
3DFACE
8
0
10
865.040527
20
1260.639038
30
472.805786
11
855.516113
21
1262.255005
31
471.745087
12
855.272888
22
1262.258057
32
472.359711
13
855.272888
23
1262.258057
33
472.359711
0
3DFACE
8
0
10
855.272888
20
1262.258057
30
472.359711
11
855.516113
21
1262.255005
31
471.745087
12
853.096619
22
1262.655029
32
471.645386
13
853.096619
23
1262.655029
33
471.645386
0
3DFACE
8
0
10
855.272888
20
1262.258057
30
472.359711
11
841.042480
21
1264.647949
31
471.181396
12
839.078613
22
1264.935059
32
471.733704
13
839.078613
23
1264.935059
33
471.733704
0
3DFACE
8
0
10
839.078613
20
1264.935059
30
471.733704
11
841.042480
21
1264.647949
31
471.181396
12
836.336426
22
1265.426025
32
471.009399
13
836.336426
23
1265.426025
33
471.009399
0
3DFACE
8
0
10
839.078613
20
1264.935059
30
471.733704
11
813.260620
21
1269.235962
31
470.200989
12
815.876892
22
1268.766968
32
470.915314
13
815.876892
23
1268.766968
33
470.915314
0
3DFACE
8
0
10
815.876892
20
1268.766968
30
470.915314
11
813.260620
21
1269.235962
31
470.200989
12
800.010925
22
1271.423950
32
469.751709
13
800.010925
23
1271.423950
33
469.751709
0
3DFACE
8
0
10
815.876892
20
1268.766968
30
470.915314
11
785.711304
21
1273.784058
31
469.277405
12
785.685425
22
1273.750977
32
469.901001
13
785.685425
23
1273.750977
33
469.901001
0
3DFACE
8
0
10
878.232422
20
1258.435059
30
473.732086
11
877.788879
21
1258.547974
31
473.077789
12
877.297913
22
1258.630005
32
473.042297
13
877.297913
23
1258.630005
33
473.042297
0
3DFACE
8
0
10
878.232422
20
1258.435059
30
473.732086
11
877.297913
21
1258.630005
31
473.042297
12
876.806030
22
1258.713013
32
473.003815
13
876.806030
23
1258.713013
33
473.003815
0
3DFACE
8
0
10
878.232422
20
1258.435059
30
473.732086
11
876.806030
21
1258.713013
31
473.003815
12
875.319580
22
1258.963013
32
472.878906
13
875.319580
23
1258.963013
33
472.878906
0
3DFACE
8
0
10
874.976807
20
1258.979980
30
473.476288
11
874.321777
21
1259.130005
31
472.794891
12
872.811523
22
1259.383057
32
472.672394
13
872.811523
23
1259.383057
33
472.672394
0
3DFACE
8
0
10
874.976807
20
1258.979980
30
473.476288
11
872.811523
21
1259.383057
31
472.672394
12
871.689270
22
1259.571045
32
472.586304
13
871.689270
23
1259.571045
33
472.586304
0
3DFACE
8
0
10
874.976807
20
1258.979980
30
473.476288
11
871.689270
21
1259.571045
31
472.586304
12
870.570374
22
1259.756958
32
472.505798
13
870.570374
23
1259.756958
33
472.505798
0
3DFACE
8
0
10
874.976807
20
1258.979980
30
473.476288
11
870.570374
21
1259.756958
31
472.505798
12
869.825806
22
1259.880981
32
472.455292
13
869.825806
23
1259.880981
33
472.455292
0
3DFACE
8
0
10
874.976807
20
1258.979980
30
473.476288
11
869.825806
21
1259.880981
31
472.455292
12
869.081421
22
1260.005005
32
472.407288
13
869.081421
23
1260.005005
33
472.407288
0
3DFACE
8
0
10
874.976807
20
1258.979980
30
473.476288
11
869.081421
21
1260.005005
31
472.407288
12
868.336609
22
1260.129028
32
472.361694
13
868.336609
23
1260.129028
33
472.361694
0
3DFACE
8
0
10
874.976807
20
1258.979980
30
473.476288
11
868.336609
21
1260.129028
31
472.361694
12
867.336609
22
1260.296021
32
472.303711
13
867.336609
23
1260.296021
33
472.303711
0
3DFACE
8
0
10
874.976807
20
1258.979980
30
473.476288
11
867.336609
21
1260.296021
31
472.303711
12
866.337280
22
1260.462036
32
472.248688
13
866.337280
23
1260.462036
33
472.248688
0
3DFACE
8
0
10
874.976807
20
1258.979980
30
473.476288
11
866.337280
21
1260.462036
31
472.248688
12
865.338928
22
1260.626953
32
472.196106
13
865.338928
23
1260.626953
33
472.196106
0
3DFACE
8
0
10
874.976807
20
1258.979980
30
473.476288
11
865.338928
21
1260.626953
31
472.196106
12
864.340576
22
1260.792969
32
472.145386
13
864.340576
23
1260.792969
33
472.145386
0
3DFACE
8
0
10
865.040527
20
1260.639038
30
472.805786
11
862.344788
21
1261.124023
31
472.048187
12
860.349182
22
1261.454956
32
471.955505
13
860.349182
23
1261.454956
33
471.955505
0
3DFACE
8
0
10
865.040527
20
1260.639038
30
472.805786
11
860.349182
21
1261.454956
31
471.955505
12
857.934326
22
1261.854980
32
471.848206
13
857.934326
23
1261.854980
33
471.848206
0
3DFACE
8
0
10
865.040527
20
1260.639038
30
472.805786
11
857.934326
21
1261.854980
31
471.848206
12
855.516113
22
1262.255005
32
471.745087
13
855.516113
23
1262.255005
33
471.745087
0
3DFACE
8
0
10
855.272888
20
1262.258057
30
472.359711
11
853.096619
21
1262.655029
31
471.645386
12
850.678406
22
1263.055054
32
471.548492
13
850.678406
23
1263.055054
33
471.548492
0
3DFACE
8
0
10
855.272888
20
1262.258057
30
472.359711
11
850.678406
21
1263.055054
31
471.548492
12
848.258911
22
1263.454956
32
471.453796
13
848.258911
23
1263.454956
33
471.453796
0
3DFACE
8
0
10
855.272888
20
1262.258057
30
472.359711
11
848.258911
21
1263.454956
31
471.453796
12
843.441589
22
1264.251953
32
471.270599
13
843.441589
23
1264.251953
33
471.270599
0
3DFACE
8
0
10
855.272888
20
1262.258057
30
472.359711
11
843.441589
21
1264.251953
31
471.270599
12
841.042480
22
1264.647949
32
471.181396
13
841.042480
23
1264.647949
33
471.181396
0
3DFACE
8
0
10
839.078613
20
1264.935059
30
471.733704
11
836.336426
21
1265.426025
31
471.009399
12
831.693970
22
1266.192993
32
470.842712
13
831.693970
23
1266.192993
33
470.842712
0
3DFACE
8
0
10
839.078613
20
1264.935059
30
471.733704
11
831.693970
21
1266.192993
31
470.842712
12
827.168579
22
1266.939941
32
470.682587
13
827.168579
23
1266.939941
33
470.682587
0
3DFACE
8
0
10
839.078613
20
1264.935059
30
471.733704
11
827.168579
21
1266.939941
31
470.682587
12
817.946106
22
1268.463013
32
470.362000
13
817.946106
23
1268.463013
33
470.362000
0
3DFACE
8
0
10
839.078613
20
1264.935059
30
471.733704
11
817.946106
21
1268.463013
31
470.362000
12
813.260620
22
1269.235962
32
470.200989
13
813.260620
23
1269.235962
33
470.200989
0
3DFACE
8
0
10
815.876892
20
1268.766968
30
470.915314
11
800.010925
21
1271.423950
31
469.751709
12
790.825989
22
1272.939941
32
469.446106
13
790.825989
23
1272.939941
33
469.446106
0
3DFACE
8
0
10
815.876892
20
1268.766968
30
470.915314
11
790.825989
21
1272.939941
31
469.446106
12
785.711304
22
1273.784058
32
469.277405
13
785.711304
23
1273.784058
33
469.277405
0
3DFACE
8
0
10
782.081116
20
1273.142944
30
482.535004
11
781.161377
21
1273.286011
31
482.667206
12
782.829224
22
1273.000000
32
482.924011
13
782.829224
23
1273.000000
33
482.924011
0
3DFACE
8
0
10
782.829224
20
1273.000000
30
482.924011
11
781.161377
21
1273.286011
31
482.667206
12
781.897888
22
1273.139038
32
483.152008
13
781.897888
23
1273.139038
33
483.152008
0
3DFACE
8
0
10
782.829224
20
1273.000000
30
482.924011
11
781.897888
21
1273.139038
31
483.152008
12
783.620422
22
1272.854980
32
483.214813
13
783.620422
23
1272.854980
33
483.214813
0
3DFACE
8
0
10
783.620422
20
1272.854980
30
483.214813
11
781.897888
21
1273.139038
31
483.152008
12
782.687073
22
1272.989014
32
483.543396
13
782.687073
23
1272.989014
33
483.543396
0
3DFACE
8
0
10
783.620422
20
1272.854980
30
483.214813
11
782.687073
21
1272.989014
31
483.543396
12
784.442078
22
1272.709961
32
483.402802
13
784.442078
23
1272.709961
33
483.402802
0
3DFACE
8
0
10
779.013184
20
1274.043945
30
475.190887
11
778.306885
21
1274.136963
31
475.605896
12
778.873291
22
1274.020996
32
476.034607
13
778.873291
23
1274.020996
33
476.034607
0
3DFACE
8
0
10
778.873291
20
1274.020996
30
476.034607
11
778.306885
21
1274.136963
31
475.605896
12
778.224426
22
1274.102051
32
476.495392
13
778.224426
23
1274.102051
33
476.495392
0
3DFACE
8
0
10
778.873291
20
1274.020996
30
476.034607
11
778.224426
21
1274.102051
31
476.495392
12
778.838684
22
1273.979980
32
476.888489
13
778.838684
23
1273.979980
33
476.888489
0
3DFACE
8
0
10
778.838684
20
1273.979980
30
476.888489
11
778.224426
21
1274.102051
31
476.495392
12
778.247681
22
1274.050049
32
477.387512
13
778.247681
23
1274.050049
33
477.387512
0
3DFACE
8
0
10
778.838684
20
1273.979980
30
476.888489
11
778.247681
21
1274.050049
31
477.387512
12
778.910095
22
1273.921997
32
477.739105
13
778.910095
23
1273.921997
33
477.739105
0
3DFACE
8
0
10
778.910095
20
1273.921997
30
477.739105
11
778.247681
21
1274.050049
31
477.387512
12
778.376587
22
1273.979980
32
478.269287
13
778.376587
23
1273.979980
33
478.269287
0
3DFACE
8
0
10
778.910095
20
1273.921997
30
477.739105
11
778.376587
21
1273.979980
31
478.269287
12
779.086182
22
1273.848022
32
478.573090
13
779.086182
23
1273.848022
33
478.573090
0
3DFACE
8
0
10
779.086182
20
1273.848022
30
478.573090
11
778.376587
21
1273.979980
31
478.269287
12
778.609192
22
1273.895996
32
479.128296
13
778.609192
23
1273.895996
33
479.128296
0
3DFACE
8
0
10
779.086182
20
1273.848022
30
478.573090
11
778.609192
21
1273.895996
31
479.128296
12
779.364380
22
1273.759033
32
479.377289
13
779.364380
23
1273.759033
33
479.377289
0
3DFACE
8
0
10
779.364380
20
1273.759033
30
479.377289
11
778.609192
21
1273.895996
31
479.128296
12
778.942200
22
1273.796021
32
479.951996
13
778.942200
23
1273.796021
33
479.951996
0
3DFACE
8
0
10
779.364380
20
1273.759033
30
479.377289
11
778.942200
21
1273.796021
31
479.951996
12
779.740295
22
1273.656006
32
480.138885
13
779.740295
23
1273.656006
33
480.138885
0
3DFACE
8
0
10
779.740295
20
1273.656006
30
480.138885
11
778.942200
21
1273.796021
31
479.951996
12
779.370728
22
1273.683960
32
480.728485
13
779.370728
23
1273.683960
33
480.728485
0
3DFACE
8
0
10
779.740295
20
1273.656006
30
480.138885
11
779.370728
21
1273.683960
31
480.728485
12
780.207886
22
1273.541016
32
480.846100
13
780.207886
23
1273.541016
33
480.846100
0
3DFACE
8
0
10
780.207886
20
1273.541016
30
480.846100
11
779.370728
21
1273.683960
31
480.728485
12
779.888489
22
1273.560059
32
481.446594
13
779.888489
23
1273.560059
33
481.446594
0
3DFACE
8
0
10
780.207886
20
1273.541016
30
480.846100
11
779.888489
21
1273.560059
31
481.446594
12
780.759888
22
1273.416016
32
481.487793
13
780.759888
23
1273.416016
33
481.487793
0
3DFACE
8
0
10
780.759888
20
1273.416016
30
481.487793
11
779.888489
21
1273.560059
31
481.446594
12
780.488281
22
1273.427002
32
482.095886
13
780.488281
23
1273.427002
33
482.095886
0
3DFACE
8
0
10
780.759888
20
1273.416016
30
481.487793
11
780.488281
21
1273.427002
31
482.095886
12
781.387573
22
1273.282959
32
482.053711
13
781.387573
23
1273.282959
33
482.053711
0
3DFACE
8
0
10
781.387573
20
1273.282959
30
482.053711
11
780.488281
21
1273.427002
31
482.095886
12
781.161377
22
1273.286011
32
482.667206
13
781.161377
23
1273.286011
33
482.667206
0
3DFACE
8
0
10
781.387573
20
1273.282959
30
482.053711
11
781.161377
21
1273.286011
31
482.667206
12
782.081116
22
1273.142944
32
482.535004
13
782.081116
23
1273.142944
33
482.535004
0
3DFACE
8
0
10
784.426392
20
1273.444946
30
469.980408
11
782.334106
21
1273.782959
31
470.034698
12
783.516602
22
1273.581055
32
470.213715
13
783.516602
23
1273.581055
33
470.213715
0
3DFACE
8
0
10
783.516602
20
1273.581055
30
470.213715
11
782.334106
21
1273.782959
31
470.034698
12
781.566589
22
1273.884033
32
470.481689
13
781.566589
23
1273.884033
33
470.481689
0
3DFACE
8
0
10
783.516602
20
1273.581055
30
470.213715
11
781.566589
21
1273.884033
31
470.481689
12
782.646606
22
1273.703003
32
470.572205
13
782.646606
23
1273.703003
33
470.572205
0
3DFACE
8
0
10
782.646606
20
1273.703003
30
470.572205
11
781.566589
21
1273.884033
31
470.481689
12
780.856689
22
1273.970947
32
471.018097
13
780.856689
23
1273.970947
33
471.018097
0
3DFACE
8
0
10
782.646606
20
1273.703003
30
470.572205
11
780.856689
21
1273.970947
31
471.018097
12
781.833130
22
1273.810059
32
471.048889
13
781.833130
23
1273.810059
33
471.048889
0
3DFACE
8
0
10
781.833130
20
1273.810059
30
471.048889
11
780.856689
21
1273.970947
31
471.018097
12
780.214722
22
1274.041992
32
471.636200
13
780.214722
23
1274.041992
33
471.636200
0
3DFACE
8
0
10
781.833130
20
1273.810059
30
471.048889
11
780.214722
21
1274.041992
31
471.636200
12
781.161316
22
1273.890991
32
471.572510
13
781.161316
23
1273.890991
33
471.572510
0
3DFACE
8
0
10
781.161316
20
1273.890991
30
471.572510
11
780.214722
21
1274.041992
31
471.636200
12
779.650085
22
1274.097046
32
472.326996
13
779.650085
23
1274.097046
33
472.326996
0
3DFACE
8
0
10
781.161316
20
1273.890991
30
471.572510
11
779.650085
21
1274.097046
31
472.326996
12
780.558777
22
1273.956055
32
472.176514
13
780.558777
23
1273.956055
33
472.176514
0
3DFACE
8
0
10
780.558777
20
1273.956055
30
472.176514
11
779.650085
21
1274.097046
31
472.326996
12
779.170715
22
1274.134033
32
473.080597
13
779.170715
23
1274.134033
33
473.080597
0
3DFACE
8
0
10
780.558777
20
1273.956055
30
472.176514
11
779.170715
21
1274.134033
31
473.080597
12
780.035278
22
1274.005005
32
472.851501
13
780.035278
23
1274.005005
33
472.851501
0
3DFACE
8
0
10
780.035278
20
1274.005005
30
472.851501
11
779.170715
21
1274.134033
31
473.080597
12
778.783508
22
1274.152954
32
473.886200
13
778.783508
23
1274.152954
33
473.886200
0
3DFACE
8
0
10
780.035278
20
1274.005005
30
472.851501
11
778.783508
21
1274.152954
31
473.886200
12
779.598816
22
1274.036011
32
473.586700
13
779.598816
23
1274.036011
33
473.586700
0
3DFACE
8
0
10
779.598816
20
1274.036011
30
473.586700
11
778.783508
21
1274.152954
31
473.886200
12
778.494324
22
1274.154053
32
474.731995
13
778.494324
23
1274.154053
33
474.731995
0
3DFACE
8
0
10
779.598816
20
1274.036011
30
473.586700
11
778.494324
21
1274.154053
31
474.731995
12
779.256287
22
1274.048950
32
474.370605
13
779.256287
23
1274.048950
33
474.370605
0
3DFACE
8
0
10
779.256287
20
1274.048950
30
474.370605
11
778.494324
21
1274.154053
31
474.731995
12
778.306885
22
1274.136963
32
475.605896
13
778.306885
23
1274.136963
33
475.605896
0
3DFACE
8
0
10
779.256287
20
1274.048950
30
474.370605
11
778.306885
21
1274.136963
31
475.605896
12
779.013184
22
1274.043945
32
475.190887
13
779.013184
23
1274.043945
33
475.190887
0
3DFACE
8
0
10
784.664429
20
1273.442993
30
469.312103
11
783.997375
21
1273.545044
31
469.433289
12
785.339111
22
1273.334961
32
469.253387
13
785.339111
23
1273.334961
33
469.253387
0
3DFACE
8
0
10
785.339111
20
1273.334961
30
469.253387
11
783.997375
21
1273.545044
31
469.433289
12
783.148315
22
1273.670044
32
469.683502
13
783.148315
23
1273.670044
33
469.683502
0
3DFACE
8
0
10
785.339111
20
1273.334961
30
469.253387
11
783.148315
21
1273.670044
31
469.683502
12
785.358215
22
1273.297974
32
469.877014
13
785.358215
23
1273.297974
33
469.877014
0
3DFACE
8
0
10
785.358215
20
1273.297974
30
469.877014
11
783.148315
21
1273.670044
31
469.683502
12
782.334106
22
1273.782959
32
470.034698
13
782.334106
23
1273.782959
33
470.034698
0
3DFACE
8
0
10
785.358215
20
1273.297974
30
469.877014
11
782.334106
21
1273.782959
31
470.034698
12
784.426392
22
1273.444946
32
469.980408
13
784.426392
23
1273.444946
33
469.980408
0
3DFACE
8
0
10
785.281616
20
1272.568970
30
483.484985
11
784.442078
21
1272.709961
31
483.402802
12
782.687073
22
1272.989014
32
483.543396
13
782.687073
23
1272.989014
33
483.543396
0
3DFACE
8
0
10
785.281616
20
1272.568970
30
483.484985
11
782.687073
21
1272.989014
31
483.543396
12
783.517822
22
1272.838013
32
483.835907
13
783.517822
23
1272.838013
33
483.835907
0
3DFACE
8
0
10
785.281616
20
1272.568970
30
483.484985
11
783.517822
21
1272.838013
31
483.835907
12
784.378113
22
1272.687012
32
484.025208
13
784.378113
23
1272.687012
33
484.025208
0
3DFACE
8
0
10
785.281616
20
1272.568970
30
483.484985
11
784.378113
21
1272.687012
31
484.025208
12
785.255493
22
1272.538940
32
484.108704
13
785.255493
23
1272.538940
33
484.108704
0
3DFACE
8
0
10
878.247986
20
1257.959961
30
473.082092
11
874.251282
21
1258.595947
31
473.390686
12
878.205017
22
1257.932983
32
473.705109
13
878.205017
23
1257.932983
33
473.705109
0
3DFACE
8
0
10
785.630371
20
1273.287964
30
469.247894
11
785.604980
21
1273.258057
31
469.871613
12
829.680481
22
1266.015991
32
470.744507
13
829.680481
23
1266.015991
33
470.744507
0
3DFACE
8
0
10
829.680481
20
1266.015991
30
470.744507
11
785.604980
21
1273.258057
31
469.871613
12
829.672791
22
1265.983032
32
471.368896
13
829.672791
23
1265.983032
33
471.368896
0
3DFACE
8
0
10
829.680481
20
1266.015991
30
470.744507
11
829.672791
21
1265.983032
31
471.368896
12
852.921570
22
1262.175049
32
471.611786
13
852.921570
23
1262.175049
33
471.611786
0
3DFACE
8
0
10
852.921570
20
1262.175049
30
471.611786
11
829.672791
21
1265.983032
31
471.368896
12
852.910583
22
1262.141968
32
472.236206
13
852.910583
23
1262.141968
33
472.236206
0
3DFACE
8
0
10
852.921570
20
1262.175049
30
471.611786
11
852.910583
21
1262.141968
31
472.236206
12
864.281616
22
1260.292969
32
472.116302
13
864.281616
23
1260.292969
33
472.116302
0
3DFACE
8
0
10
864.281616
20
1260.292969
30
472.116302
11
852.910583
21
1262.141968
31
472.236206
12
864.265625
22
1260.260986
32
472.740692
13
864.265625
23
1260.260986
33
472.740692
0
3DFACE
8
0
10
864.281616
20
1260.292969
30
472.116302
11
864.265625
21
1260.260986
31
472.740692
12
874.293518
22
1258.623047
32
472.767609
13
874.293518
23
1258.623047
33
472.767609
0
3DFACE
8
0
10
874.293518
20
1258.623047
30
472.767609
11
864.265625
21
1260.260986
31
472.740692
12
874.251282
22
1258.595947
32
473.390686
13
874.251282
23
1258.595947
33
473.390686
0
3DFACE
8
0
10
874.293518
20
1258.623047
30
472.767609
11
874.251282
21
1258.595947
31
473.390686
12
878.247986
22
1257.959961
32
473.082092
13
878.247986
23
1257.959961
33
473.082092
0
3DFACE
8
0
10
870.473572
20
1259.207031
30
473.497711
11
865.285583
21
1260.047974
31
473.605988
12
875.506470
22
1258.380005
32
473.586700
13
875.506470
23
1258.380005
33
473.586700
0
3DFACE
8
0
10
859.353271
20
1260.967041
30
474.514709
11
849.958801
21
1262.496948
31
474.570099
12
853.121216
22
1261.961060
32
474.938812
13
853.121216
23
1261.961060
33
474.938812
0
3DFACE
8
0
10
853.121216
20
1261.961060
30
474.938812
11
849.958801
21
1262.496948
31
474.570099
12
840.630615
22
1263.970947
32
475.462494
13
840.630615
23
1263.970947
33
475.462494
0
3DFACE
8
0
10
853.121216
20
1261.961060
30
474.938812
11
840.630615
21
1263.970947
31
475.462494
12
845.343994
22
1263.192993
32
475.614685
13
845.343994
23
1263.192993
33
475.614685
0
3DFACE
8
0
10
845.343994
20
1263.192993
30
475.614685
11
840.630615
21
1263.970947
31
475.462494
12
831.346130
22
1265.428955
32
476.528687
13
831.346130
23
1265.428955
33
476.528687
0
3DFACE
8
0
10
845.343994
20
1263.192993
30
475.614685
11
831.346130
21
1265.428955
31
476.528687
12
836.048828
22
1264.656982
32
476.594604
13
836.048828
23
1264.656982
33
476.594604
0
3DFACE
8
0
10
836.048828
20
1264.656982
30
476.594604
11
831.346130
21
1265.428955
31
476.528687
12
822.107483
22
1266.870972
32
477.742493
13
822.107483
23
1266.870972
33
477.742493
0
3DFACE
8
0
10
836.048828
20
1264.656982
30
476.594604
11
822.107483
21
1266.870972
31
477.742493
12
826.796082
22
1266.104980
32
477.738495
13
826.796082
23
1266.104980
33
477.738495
0
3DFACE
8
0
10
826.796082
20
1266.104980
30
477.738495
11
822.107483
21
1266.870972
31
477.742493
12
812.905273
22
1268.300049
32
479.070007
13
812.905273
23
1268.300049
33
479.070007
0
3DFACE
8
0
10
826.796082
20
1266.104980
30
477.738495
11
812.905273
21
1268.300049
31
479.070007
12
812.993408
22
1268.251953
32
479.687012
13
812.993408
23
1268.251953
33
479.687012
0
3DFACE
8
0
10
812.993408
20
1268.251953
30
479.687012
11
812.905273
21
1268.300049
31
479.070007
12
803.744873
22
1269.718018
32
480.488312
13
803.744873
23
1269.718018
33
480.488312
0
3DFACE
8
0
10
812.993408
20
1268.251953
30
479.687012
11
803.744873
21
1269.718018
31
480.488312
12
803.835999
22
1269.670044
32
481.104797
13
803.835999
23
1269.670044
33
481.104797
0
3DFACE
8
0
10
803.835999
20
1269.670044
30
481.104797
11
803.744873
21
1269.718018
31
480.488312
12
785.528320
22
1272.527954
32
483.488708
13
785.528320
23
1272.527954
33
483.488708
0
3DFACE
8
0
10
803.835999
20
1269.670044
30
481.104797
11
785.528320
21
1272.527954
31
483.488708
12
785.624023
22
1272.479004
32
484.104401
13
785.624023
23
1272.479004
33
484.104401
0
3DFACE
8
0
10
878.205017
20
1257.932983
30
473.705109
11
875.506470
21
1258.380005
31
473.586700
12
865.285583
22
1260.047974
32
473.605988
13
865.285583
23
1260.047974
33
473.605988
0
3DFACE
8
0
10
878.205017
20
1257.932983
30
473.705109
11
865.285583
21
1260.047974
31
473.605988
12
859.316223
22
1261.006958
32
473.892090
13
859.316223
23
1261.006958
33
473.892090
0
3DFACE
8
0
10
878.205017
20
1257.932983
30
473.705109
11
859.316223
21
1261.006958
31
473.892090
12
870.497314
22
1259.168945
32
474.121796
13
870.497314
23
1259.168945
33
474.121796
0
3DFACE
8
0
10
878.205017
20
1257.932983
30
473.705109
11
870.497314
21
1259.168945
31
474.121796
12
875.494873
22
1258.348022
32
474.210999
13
875.494873
23
1258.348022
33
474.210999
0
3DFACE
8
0
10
878.205017
20
1257.932983
30
473.705109
11
875.494873
21
1258.348022
31
474.210999
12
878.168579
22
1257.905029
32
474.328400
13
878.168579
23
1257.905029
33
474.328400
0
3DFACE
8
0
10
859.316223
20
1261.006958
30
473.892090
11
849.958801
21
1262.496948
31
474.570099
12
859.353271
22
1260.967041
32
474.514709
13
859.353271
23
1260.967041
33
474.514709
0
3DFACE
8
0
10
859.316223
20
1261.006958
30
473.892090
11
859.353271
21
1260.967041
31
474.514709
12
865.319580
22
1260.008057
32
474.229004
13
865.319580
23
1260.008057
33
474.229004
0
3DFACE
8
0
10
859.316223
20
1261.006958
30
473.892090
11
865.319580
21
1260.008057
31
474.229004
12
870.497314
22
1259.168945
32
474.121796
13
870.497314
23
1259.168945
33
474.121796
0
3DFACE
8
0
10
699.209229
20
745.238525
30
460.114685
11
720.742188
21
877.091980
31
465.489197
12
720.720825
22
877.063599
32
466.113190
13
720.720825
23
877.063599
33
466.113190
0
3DFACE
8
0
10
720.720825
20
877.063599
30
466.113190
11
720.742188
21
877.091980
31
465.489197
12
742.255188
22
1008.918030
32
471.487793
13
742.255188
23
1008.918030
33
471.487793
0
3DFACE
8
0
10
720.720825
20
877.063599
30
466.113190
11
742.255188
21
1008.918030
31
471.487793
12
742.232422
22
1008.888977
32
472.111694
13
742.232422
23
1008.888977
33
472.111694
0
3DFACE
8
0
10
742.232422
20
1008.888977
30
472.111694
11
742.255188
21
1008.918030
31
471.487793
12
763.768372
22
1140.743042
32
477.486389
13
763.768372
23
1140.743042
33
477.486389
0
3DFACE
8
0
10
742.232422
20
1008.888977
30
472.111694
11
763.768372
21
1140.743042
31
477.486389
12
763.743896
22
1140.713989
32
478.110199
13
763.743896
23
1140.713989
33
478.110199
0
3DFACE
8
0
10
763.743896
20
1140.713989
30
478.110199
11
763.768372
21
1140.743042
31
477.486389
12
785.281616
22
1272.568970
32
483.484985
13
785.281616
23
1272.568970
33
483.484985
0
3DFACE
8
0
10
763.743896
20
1140.713989
30
478.110199
11
785.281616
21
1272.568970
31
483.484985
12
785.255493
22
1272.538940
32
484.108704
13
785.255493
23
1272.538940
33
484.108704
0
3DFACE
8
0
10
720.742188
20
877.091980
30
465.489197
11
699.209229
21
745.238525
31
460.114685
12
699.229004
22
745.266418
32
459.490601
13
699.229004
23
745.266418
33
459.490601
0
3DFACE
8
0
10
699.229004
20
745.266418
30
459.490601
11
699.209229
21
745.238525
31
460.114685
12
677.697693
22
613.413330
32
454.116211
13
677.697693
23
613.413330
33
454.116211
0
3DFACE
8
0
10
699.229004
20
745.266418
30
459.490601
11
677.697693
21
613.413330
31
454.116211
12
677.715881
22
613.440918
32
453.492096
13
677.715881
23
613.440918
33
453.492096
0
3DFACE
8
0
10
677.715881
20
613.440918
30
453.492096
11
677.697693
21
613.413330
31
454.116211
12
656.186218
22
481.588196
32
448.117706
13
656.186218
23
481.588196
33
448.117706
0
3DFACE
8
0
10
677.715881
20
613.440918
30
453.492096
11
656.186218
21
481.588196
31
448.117706
12
656.202820
22
481.615295
32
447.493500
13
656.202820
23
481.615295
33
447.493500
0
3DFACE
8
0
10
656.202820
20
481.615295
30
447.493500
11
656.186218
21
481.588196
31
448.117706
12
634.674622
22
349.763092
32
442.119202
13
634.674622
23
349.763092
33
442.119202
0
3DFACE
8
0
10
656.202820
20
481.615295
30
447.493500
11
634.674622
21
349.763092
31
442.119202
12
634.689575
22
349.789703
32
441.494904
13
634.689575
23
349.789703
33
441.494904
0
3DFACE
8
0
10
634.689575
20
349.789703
30
441.494904
11
634.674622
21
349.763092
31
442.119202
12
613.163025
22
217.938004
32
436.120697
13
613.163025
23
217.938004
33
436.120697
0
3DFACE
8
0
10
634.689575
20
349.789703
30
441.494904
11
613.163025
21
217.938004
31
436.120697
12
613.176514
22
217.964203
32
435.496399
13
613.176514
23
217.964203
33
435.496399
0
3DFACE
8
0
10
785.362122
20
1273.062012
30
483.507385
11
785.336914
21
1273.037964
31
484.131409
12
785.335876
22
1273.031982
32
484.131104
13
785.335876
23
1273.031982
33
484.131104
0
3DFACE
8
0
10
610.585083
20
219.922501
30
407.336212
11
611.495117
21
219.783401
31
407.164490
12
784.426392
22
1273.444946
32
469.980408
13
784.426392
23
1273.444946
33
469.980408
0
3DFACE
8
0
10
784.426392
20
1273.444946
30
469.980408
11
783.516602
21
1273.581055
31
470.213715
12
610.585083
22
219.922501
32
407.336212
13
610.585083
23
219.922501
33
407.336212
0
3DFACE
8
0
10
783.516602
20
1273.581055
30
470.213715
11
609.687805
21
220.056396
31
407.567810
12
610.585083
22
219.922501
32
407.336212
13
610.585083
23
219.922501
33
407.336212
0
3DFACE
8
0
10
608.779175
20
220.188293
30
407.868500
11
609.687805
21
220.056396
31
407.567810
12
783.516602
22
1273.581055
32
470.213715
13
783.516602
23
1273.581055
33
470.213715
0
3DFACE
8
0
10
783.516602
20
1273.581055
30
470.213715
11
782.646606
21
1273.703003
31
470.572205
12
608.779175
22
220.188293
32
407.868500
13
608.779175
23
220.188293
33
407.868500
0
3DFACE
8
0
10
782.646606
20
1273.703003
30
470.572205
11
607.892395
21
220.313400
31
408.230499
12
608.779175
22
220.188293
32
407.868500
13
608.779175
23
220.188293
33
407.868500
0
3DFACE
8
0
10
603.514526
20
220.860992
30
411.293793
11
604.640808
21
220.733795
31
410.254608
12
781.161316
22
1273.890991
32
471.572510
13
781.161316
23
1273.890991
33
471.572510
0
3DFACE
8
0
10
781.161316
20
1273.890991
30
471.572510
11
780.558777
21
1273.956055
31
472.176514
12
603.514526
22
220.860992
32
411.293793
13
603.514526
23
220.860992
33
411.293793
0
3DFACE
8
0
10
601.559875
20
221.043106
30
413.805115
11
602.149414
21
220.995102
31
412.920013
12
780.035278
22
1274.005005
32
472.851501
13
780.035278
23
1274.005005
33
472.851501
0
3DFACE
8
0
10
780.035278
20
1274.005005
30
472.851501
11
779.598816
21
1274.036011
31
473.586700
12
601.559875
22
221.043106
32
413.805115
13
601.559875
23
221.043106
33
413.805115
0
3DFACE
8
0
10
599.462708
20
220.912399
30
422.482605
11
599.420227
21
220.984207
31
421.292999
12
778.838684
22
1273.979980
32
476.888489
13
778.838684
23
1273.979980
33
476.888489
0
3DFACE
8
0
10
778.838684
20
1273.979980
30
476.888489
11
778.910095
21
1273.921997
31
477.739105
12
599.462708
22
220.912399
32
422.482605
13
599.462708
23
220.912399
33
422.482605
0
3DFACE
8
0
10
600.174011
20
220.606293
30
425.966888
11
599.840881
21
220.722794
31
424.827789
12
779.086182
22
1273.848022
32
478.573090
13
779.086182
23
1273.848022
33
478.573090
0
3DFACE
8
0
10
779.086182
20
1273.848022
30
478.573090
11
779.364380
21
1273.759033
31
479.377289
12
600.174011
22
220.606293
32
425.966888
13
600.174011
23
220.606293
33
425.966888
0
3DFACE
8
0
10
779.364380
20
1273.759033
30
479.377289
11
600.512085
21
220.502106
31
426.865814
12
600.174011
22
220.606293
32
425.966888
13
600.174011
23
220.606293
33
425.966888
0
3DFACE
8
0
10
600.909912
20
220.389603
30
427.739014
11
600.512085
21
220.502106
31
426.865814
12
779.364380
22
1273.759033
32
479.377289
13
779.364380
23
1273.759033
33
479.377289
0
3DFACE
8
0
10
779.364380
20
1273.759033
30
479.377289
11
779.740295
21
1273.656006
31
480.138885
12
600.909912
22
220.389603
32
427.739014
13
600.909912
23
220.389603
33
427.739014
0
3DFACE
8
0
10
610.342529
20
218.445099
30
435.161896
11
609.421082
21
218.608597
31
434.921814
12
783.620422
22
1272.854980
32
483.214813
13
783.620422
23
1272.854980
33
483.214813
0
3DFACE
8
0
10
783.620422
20
1272.854980
30
483.214813
11
784.442078
21
1272.709961
31
483.402802
12
610.342529
22
218.445099
32
435.161896
13
610.342529
23
218.445099
33
435.161896
0
3DFACE
8
0
10
784.442078
20
1272.709961
30
483.402802
11
611.278381
21
218.282700
31
435.338104
12
610.342529
22
218.445099
32
435.161896
13
610.342529
23
218.445099
33
435.161896
0
3DFACE
8
0
10
781.833130
20
1273.810059
30
471.048889
11
606.199707
21
220.540497
31
409.131592
12
782.646606
22
1273.703003
32
470.572205
13
782.646606
23
1273.703003
33
470.572205
0
3DFACE
8
0
10
782.646606
20
1273.703003
30
470.572205
11
606.199707
21
220.540497
31
409.131592
12
607.031311
22
220.430893
32
408.652191
13
607.031311
23
220.430893
33
408.652191
0
3DFACE
8
0
10
782.646606
20
1273.703003
30
470.572205
11
607.031311
21
220.430893
31
408.652191
12
607.892395
22
220.313400
32
408.230499
13
607.892395
23
220.313400
33
408.230499
0
3DFACE
8
0
10
781.161316
20
1273.890991
30
471.572510
11
604.640808
21
220.733795
31
410.254608
12
781.833130
22
1273.810059
32
471.048889
13
781.833130
23
1273.810059
33
471.048889
0
3DFACE
8
0
10
781.833130
20
1273.810059
30
471.048889
11
604.640808
21
220.733795
31
410.254608
12
605.401672
22
220.641602
32
409.666595
13
605.401672
23
220.641602
33
409.666595
0
3DFACE
8
0
10
781.833130
20
1273.810059
30
471.048889
11
605.401672
21
220.641602
31
409.666595
12
606.199707
22
220.540497
32
409.131592
13
606.199707
23
220.540497
33
409.131592
0
3DFACE
8
0
10
780.035278
20
1274.005005
30
472.851501
11
602.149414
21
220.995102
31
412.920013
12
780.558777
22
1273.956055
32
472.176514
13
780.558777
23
1273.956055
33
472.176514
0
3DFACE
8
0
10
780.558777
20
1273.956055
30
472.176514
11
602.149414
21
220.995102
31
412.920013
12
602.802185
22
220.934296
32
412.081390
13
602.802185
23
220.934296
33
412.081390
0
3DFACE
8
0
10
780.558777
20
1273.956055
30
472.176514
11
602.802185
21
220.934296
31
412.081390
12
603.514526
22
220.860992
32
411.293793
13
603.514526
23
220.860992
33
411.293793
0
3DFACE
8
0
10
779.256287
20
1274.048950
30
474.370605
11
600.622009
21
221.098206
31
415.603699
12
779.598816
22
1274.036011
32
473.586700
13
779.598816
23
1274.036011
33
473.586700
0
3DFACE
8
0
10
779.598816
20
1274.036011
30
473.586700
11
600.622009
21
221.098206
31
415.603699
12
601.036682
22
221.078003
32
414.731506
13
601.036682
23
221.078003
33
414.731506
0
3DFACE
8
0
10
779.598816
20
1274.036011
30
473.586700
11
601.036682
21
221.078003
31
414.731506
12
601.559875
22
221.043106
32
413.805115
13
601.559875
23
221.043106
33
413.805115
0
3DFACE
8
0
10
779.013184
20
1274.043945
30
475.190887
11
599.971313
21
221.105301
31
417.421814
12
779.256287
22
1274.048950
32
474.370605
13
779.256287
23
1274.048950
33
474.370605
0
3DFACE
8
0
10
779.256287
20
1274.048950
30
474.370605
11
599.971313
21
221.105301
31
417.421814
12
600.266418
22
221.107300
32
416.501892
13
600.266418
23
221.107300
33
416.501892
0
3DFACE
8
0
10
779.256287
20
1274.048950
30
474.370605
11
600.266418
21
221.107300
31
416.501892
12
600.622009
22
221.098206
32
415.603699
13
600.622009
23
221.098206
33
415.603699
0
3DFACE
8
0
10
778.873291
20
1274.020996
30
476.034607
11
599.568420
21
221.068100
31
419.309906
12
779.013184
22
1274.043945
32
475.190887
13
779.013184
23
1274.043945
33
475.190887
0
3DFACE
8
0
10
779.013184
20
1274.043945
30
475.190887
11
599.568420
21
221.068100
31
419.309906
12
599.738281
22
221.092194
32
418.359192
13
599.738281
23
221.092194
33
418.359192
0
3DFACE
8
0
10
779.013184
20
1274.043945
30
475.190887
11
599.738281
21
221.092194
31
418.359192
12
599.971313
22
221.105301
32
417.421814
13
599.971313
23
221.105301
33
417.421814
0
3DFACE
8
0
10
778.838684
20
1273.979980
30
476.888489
11
599.420227
21
220.984207
31
421.292999
12
778.873291
22
1274.020996
32
476.034607
13
778.873291
23
1274.020996
33
476.034607
0
3DFACE
8
0
10
778.873291
20
1274.020996
30
476.034607
11
599.420227
21
220.984207
31
421.292999
12
599.462402
22
221.033096
32
420.269501
13
599.462402
23
221.033096
33
420.269501
0
3DFACE
8
0
10
778.873291
20
1274.020996
30
476.034607
11
599.462402
21
221.033096
31
420.269501
12
599.568420
22
221.068100
32
419.309906
13
599.568420
23
221.068100
33
419.309906
0
3DFACE
8
0
10
779.086182
20
1273.848022
30
478.573090
11
599.840881
21
220.722794
31
424.827789
12
778.910095
22
1273.921997
32
477.739105
13
778.910095
23
1273.921997
33
477.739105
0
3DFACE
8
0
10
778.910095
20
1273.921997
30
477.739105
11
599.840881
21
220.722794
31
424.827789
12
599.603271
22
220.824997
32
423.663605
13
599.603271
23
220.824997
33
423.663605
0
3DFACE
8
0
10
778.910095
20
1273.921997
30
477.739105
11
599.603271
21
220.824997
31
423.663605
12
599.462708
22
220.912399
32
422.482605
13
599.462708
23
220.912399
33
422.482605
0
3DFACE
8
0
10
780.207886
20
1273.541016
30
480.846100
11
601.876282
21
220.141602
31
429.392303
12
779.740295
22
1273.656006
32
480.138885
13
779.740295
23
1273.656006
33
480.138885
0
3DFACE
8
0
10
779.740295
20
1273.656006
30
480.138885
11
601.876282
21
220.141602
31
429.392303
12
601.365295
22
220.269196
32
428.582489
13
601.365295
23
220.269196
33
428.582489
0
3DFACE
8
0
10
779.740295
20
1273.656006
30
480.138885
11
601.365295
21
220.269196
31
428.582489
12
600.909912
22
220.389603
32
427.739014
13
600.909912
23
220.389603
33
427.739014
0
3DFACE
8
0
10
780.759888
20
1273.416016
30
481.487793
11
603.055786
21
219.867096
31
430.896393
12
780.207886
22
1273.541016
32
480.846100
13
780.207886
23
1273.541016
33
480.846100
0
3DFACE
8
0
10
780.207886
20
1273.541016
30
480.846100
11
603.055786
21
219.867096
31
430.896393
12
602.440674
22
220.007401
32
430.164795
13
602.440674
23
220.007401
33
430.164795
0
3DFACE
8
0
10
780.207886
20
1273.541016
30
480.846100
11
602.440674
21
220.007401
31
430.164795
12
601.876282
22
220.141602
32
429.392303
13
601.876282
23
220.141602
33
429.392303
0
3DFACE
8
0
10
781.387573
20
1273.282959
30
482.053711
11
604.687317
21
219.516693
31
432.438507
12
780.759888
22
1273.416016
32
481.487793
13
780.759888
23
1273.416016
33
481.487793
0
3DFACE
8
0
10
780.759888
20
1273.416016
30
481.487793
11
604.687317
21
219.516693
31
432.438507
12
604.026611
22
219.655396
32
431.872986
13
604.026611
23
219.655396
33
431.872986
0
3DFACE
8
0
10
780.759888
20
1273.416016
30
481.487793
11
604.026611
21
219.655396
31
431.872986
12
603.055786
22
219.867096
32
430.896393
13
603.055786
23
219.867096
33
430.896393
0
3DFACE
8
0
10
782.081116
20
1273.142944
30
482.535004
11
606.106628
21
219.230392
31
433.439606
12
781.387573
22
1273.282959
32
482.053711
13
781.387573
23
1273.282959
33
482.053711
0
3DFACE
8
0
10
781.387573
20
1273.282959
30
482.053711
11
606.106628
21
219.230392
31
433.439606
12
605.381470
22
219.374893
32
432.961304
13
605.381470
23
219.374893
33
432.961304
0
3DFACE
8
0
10
781.387573
20
1273.282959
30
482.053711
11
605.381470
21
219.374893
31
432.961304
12
604.687317
22
219.516693
32
432.438507
13
604.687317
23
219.516693
33
432.438507
0
3DFACE
8
0
10
782.829224
20
1273.000000
30
482.924011
11
607.638611
21
218.935898
31
434.255096
12
782.081116
22
1273.142944
32
482.535004
13
782.081116
23
1273.142944
33
482.535004
0
3DFACE
8
0
10
782.081116
20
1273.142944
30
482.535004
11
607.638611
21
218.935898
31
434.255096
12
606.859985
22
219.083893
32
433.871399
13
606.859985
23
219.083893
33
433.871399
0
3DFACE
8
0
10
782.081116
20
1273.142944
30
482.535004
11
606.859985
21
219.083893
31
433.871399
12
606.106628
22
219.230392
32
433.439606
13
606.106628
23
219.230392
33
433.439606
0
3DFACE
8
0
10
783.620422
20
1272.854980
30
483.214813
11
609.421082
21
218.608597
31
434.921814
12
782.829224
22
1273.000000
32
482.924011
13
782.829224
23
1273.000000
33
482.924011
0
3DFACE
8
0
10
782.829224
20
1273.000000
30
482.924011
11
609.421082
21
218.608597
31
434.921814
12
608.518372
22
218.772400
32
434.619110
13
608.518372
23
218.772400
33
434.619110
0
3DFACE
8
0
10
782.829224
20
1273.000000
30
482.924011
11
608.518372
21
218.772400
31
434.619110
12
607.638611
22
218.935898
32
434.255096
13
607.638611
23
218.935898
33
434.255096
0
3DFACE
8
0
10
612.413574
20
219.639496
30
407.053497
11
613.336914
21
219.491501
31
407.003510
12
634.839478
22
351.217285
32
414.862701
13
634.839478
23
351.217285
33
414.862701
0
3DFACE
8
0
10
612.413574
20
219.639496
30
407.053497
11
634.839478
21
351.217285
31
414.862701
12
656.342224
22
482.943115
32
422.721893
13
656.342224
23
482.943115
33
422.721893
0
3DFACE
8
0
10
612.413574
20
219.639496
30
407.053497
11
656.342224
21
482.943115
31
422.721893
12
677.844788
22
614.668884
32
430.581085
13
677.844788
23
614.668884
33
430.581085
0
3DFACE
8
0
10
612.413574
20
219.639496
30
407.053497
11
677.844788
21
614.668884
31
430.581085
12
699.347473
22
746.394775
32
438.440186
13
699.347473
23
746.394775
33
438.440186
0
3DFACE
8
0
10
612.413574
20
219.639496
30
407.053497
11
699.347473
21
746.394775
31
438.440186
12
720.850220
22
878.120605
32
446.299408
13
720.850220
23
878.120605
33
446.299408
0
3DFACE
8
0
10
612.413574
20
219.639496
30
407.053497
11
720.850220
21
878.120605
31
446.299408
12
742.352783
22
1009.846985
32
454.158600
13
742.352783
23
1009.846985
33
454.158600
0
3DFACE
8
0
10
612.413574
20
219.639496
30
407.053497
11
742.352783
21
1009.846985
31
454.158600
12
763.855530
22
1141.572021
32
462.017792
13
763.855530
23
1141.572021
33
462.017792
0
3DFACE
8
0
10
612.413574
20
219.639496
30
407.053497
11
763.855530
21
1141.572021
31
462.017792
12
785.358215
22
1273.297974
32
469.877014
13
785.358215
23
1273.297974
33
469.877014
0
3DFACE
8
0
10
612.413574
20
219.639496
30
407.053497
11
785.358215
21
1273.297974
31
469.877014
12
784.426392
22
1273.444946
32
469.980408
13
784.426392
23
1273.444946
33
469.980408
0
3DFACE
8
0
10
612.413574
20
219.639496
30
407.053497
11
784.426392
21
1273.444946
31
469.980408
12
611.495117
22
219.783401
32
407.164490
13
611.495117
23
219.783401
33
407.164490
0
3DFACE
8
0
10
612.224487
20
218.122192
30
435.449799
11
611.278381
21
218.282700
31
435.338104
12
784.442078
22
1272.709961
32
483.402802
13
784.442078
23
1272.709961
33
483.402802
0
3DFACE
8
0
10
612.224487
20
218.122192
30
435.449799
11
784.442078
21
1272.709961
31
483.402802
12
785.281616
22
1272.568970
32
483.484985
13
785.281616
23
1272.568970
33
483.484985
0
3DFACE
8
0
10
612.224487
20
218.122192
30
435.449799
11
785.281616
21
1272.568970
31
483.484985
12
763.768372
22
1140.743042
32
477.486389
13
763.768372
23
1140.743042
33
477.486389
0
3DFACE
8
0
10
612.224487
20
218.122192
30
435.449799
11
763.768372
21
1140.743042
31
477.486389
12
742.255188
22
1008.918030
32
471.487793
13
742.255188
23
1008.918030
33
471.487793
0
3DFACE
8
0
10
612.224487
20
218.122192
30
435.449799
11
742.255188
21
1008.918030
31
471.487793
12
720.742188
22
877.091980
32
465.489197
13
720.742188
23
877.091980
33
465.489197
0
3DFACE
8
0
10
612.224487
20
218.122192
30
435.449799
11
720.742188
21
877.091980
31
465.489197
12
699.229004
22
745.266418
32
459.490601
13
699.229004
23
745.266418
33
459.490601
0
3DFACE
8
0
10
612.224487
20
218.122192
30
435.449799
11
699.229004
21
745.266418
31
459.490601
12
677.715881
22
613.440918
32
453.492096
13
677.715881
23
613.440918
33
453.492096
0
3DFACE
8
0
10
612.224487
20
218.122192
30
435.449799
11
677.715881
21
613.440918
31
453.492096
12
656.202820
22
481.615295
32
447.493500
13
656.202820
23
481.615295
33
447.493500
0
3DFACE
8
0
10
612.224487
20
218.122192
30
435.449799
11
656.202820
21
481.615295
31
447.493500
12
634.689575
22
349.789703
32
441.494904
13
634.689575
23
349.789703
33
441.494904
0
3DFACE
8
0
10
612.224487
20
218.122192
30
435.449799
11
634.689575
21
349.789703
31
441.494904
12
613.176514
22
217.964203
32
435.496399
13
613.176514
23
217.964203
33
435.496399
0
3DFACE
8
0
10
784.604675
20
1273.161011
30
484.069214
11
784.540527
21
1273.166016
31
484.059998
12
785.336914
22
1273.037964
32
484.131409
13
785.336914
23
1273.037964
33
484.131409
0
3DFACE
8
0
10
784.540527
20
1273.166016
30
484.059998
11
785.335876
21
1273.031982
31
484.131104
12
785.336914
22
1273.037964
32
484.131409
13
785.336914
23
1273.037964
33
484.131409
0
3DFACE
8
0
10
784.583618
20
1273.959961
30
469.364899
11
784.957214
21
1273.905029
31
469.316406
12
785.419617
22
1273.828003
32
469.282806
13
785.419617
23
1273.828003
33
469.282806
0
3DFACE
8
0
10
784.957214
20
1273.905029
30
469.316406
11
785.419983
21
1273.831055
31
469.282990
12
785.419617
22
1273.828003
32
469.282806
13
785.419617
23
1273.828003
33
469.282806
0
3DFACE
8
0
10
784.583618
20
1273.959961
30
469.364899
11
784.229614
21
1274.017944
31
469.429810
12
784.957214
22
1273.905029
32
469.316406
13
784.957214
23
1273.905029
33
469.316406
0
3DFACE
8
0
10
784.229614
20
1274.017944
30
469.429810
11
784.583618
21
1273.959961
31
469.364899
12
783.761719
22
1274.084961
32
469.542999
13
783.761719
23
1274.084961
33
469.542999
0
3DFACE
8
0
10
783.761719
20
1274.084961
30
469.542999
11
783.516174
21
1274.124023
31
469.616089
12
784.229614
22
1274.017944
32
469.429810
13
784.229614
23
1274.017944
33
469.429810
0
3DFACE
8
0
10
783.516174
20
1274.124023
30
469.616089
11
783.761719
21
1274.084961
31
469.542999
12
782.924316
22
1274.204956
32
469.830902
13
782.924316
23
1274.204956
33
469.830902
0
3DFACE
8
0
10
782.924316
20
1274.204956
30
469.830902
11
782.824219
21
1274.223022
31
469.873505
12
783.516174
22
1274.124023
32
469.616089
13
783.516174
23
1274.124023
33
469.616089
0
3DFACE
8
0
10
782.160522
20
1274.312988
30
470.199402
11
782.824219
21
1274.223022
31
469.873505
12
782.924316
22
1274.204956
32
469.830902
13
782.924316
23
1274.204956
33
469.830902
0
3DFACE
8
0
10
782.126221
20
1274.314941
30
470.218109
11
782.160522
21
1274.312988
31
470.199402
12
782.924316
22
1274.204956
32
469.830902
13
782.924316
23
1274.204956
33
469.830902
0
3DFACE
8
0
10
781.531799
20
1274.395020
30
470.590607
11
782.160522
21
1274.312988
31
470.199402
12
782.126221
22
1274.314941
32
470.218109
13
782.126221
23
1274.314941
33
470.218109
0
3DFACE
8
0
10
781.378906
20
1274.411011
30
470.698914
11
781.531799
21
1274.395020
31
470.590607
12
782.126221
22
1274.314941
32
470.218109
13
782.126221
23
1274.314941
33
470.218109
0
3DFACE
8
0
10
780.944275
20
1274.465942
30
471.042999
11
781.531799
21
1274.395020
31
470.590607
12
781.378906
22
1274.411011
32
470.698914
13
781.378906
23
1274.411011
33
470.698914
0
3DFACE
8
0
10
780.693176
20
1274.491943
30
471.266388
11
780.944275
21
1274.465942
31
471.042999
12
781.378906
22
1274.411011
32
470.698914
13
781.378906
23
1274.411011
33
470.698914
0
3DFACE
8
0
10
780.390076
20
1274.527954
30
471.566803
11
780.944275
21
1274.465942
31
471.042999
12
780.693176
22
1274.491943
32
471.266388
13
780.693176
23
1274.491943
33
471.266388
0
3DFACE
8
0
10
780.078979
20
1274.557007
30
471.912415
11
780.390076
21
1274.527954
31
471.566803
12
780.693176
22
1274.491943
32
471.266388
13
780.693176
23
1274.491943
33
471.266388
0
3DFACE
8
0
10
780.078979
20
1274.557007
30
471.912415
11
779.983093
21
1274.568970
31
472.029388
12
780.390076
22
1274.527954
32
471.566803
13
780.390076
23
1274.527954
33
471.566803
0
3DFACE
8
0
10
779.615173
20
1274.603027
30
472.524109
11
779.983093
21
1274.568970
31
472.029388
12
780.078979
22
1274.557007
32
471.912415
13
780.078979
23
1274.557007
33
471.912415
0
3DFACE
8
0
10
779.545227
20
1274.604980
30
472.627502
11
779.615173
21
1274.603027
31
472.524109
12
780.078979
22
1274.557007
32
471.912415
13
780.078979
23
1274.557007
33
471.912415
0
3DFACE
8
0
10
779.288818
20
1274.626953
30
473.047699
11
779.615173
21
1274.603027
31
472.524109
12
779.545227
22
1274.604980
32
472.627502
13
779.545227
23
1274.604980
33
472.627502
0
3DFACE
8
0
10
779.099304
20
1274.635010
30
473.401489
11
779.288818
21
1274.626953
31
473.047699
12
779.545227
22
1274.604980
32
472.627502
13
779.545227
23
1274.604980
33
472.627502
0
3DFACE
8
0
10
779.099304
20
1274.635010
30
473.401489
11
779.006226
21
1274.644043
31
473.596497
12
779.288818
22
1274.626953
32
473.047699
13
779.288818
23
1274.626953
33
473.047699
0
3DFACE
8
0
10
778.769287
20
1274.651001
30
474.166687
11
779.006226
21
1274.644043
31
473.596497
12
779.099304
22
1274.635010
32
473.401489
13
779.099304
23
1274.635010
33
473.401489
0
3DFACE
8
0
10
778.747986
20
1274.647949
30
474.223206
11
778.769287
21
1274.651001
31
474.166687
12
779.099304
22
1274.635010
32
473.401489
13
779.099304
23
1274.635010
33
473.401489
0
3DFACE
8
0
10
778.579773
20
1274.650024
30
474.754395
11
778.769287
21
1274.651001
31
474.166687
12
778.747986
22
1274.647949
32
474.223206
13
778.747986
23
1274.647949
33
474.223206
0
3DFACE
8
0
10
778.496277
20
1274.641968
30
475.080688
11
778.579773
21
1274.650024
31
474.754395
12
778.747986
22
1274.647949
32
474.223206
13
778.747986
23
1274.647949
33
474.223206
0
3DFACE
8
0
10
778.376709
20
1274.630005
30
475.733002
11
778.579773
21
1274.650024
31
474.754395
12
778.496277
22
1274.641968
32
475.080688
13
778.496277
23
1274.641968
33
475.080688
0
3DFACE
8
0
10
778.347717
20
1274.618042
30
475.961700
11
778.376709
21
1274.630005
31
475.733002
12
778.496277
22
1274.641968
32
475.080688
13
778.496277
23
1274.641968
33
475.080688
0
3DFACE
8
0
10
778.304871
20
1274.588013
30
476.729187
11
778.376709
21
1274.630005
31
475.733002
12
778.347717
22
1274.618042
32
475.961700
13
778.347717
23
1274.618042
33
475.961700
0
3DFACE
8
0
10
778.304382
20
1274.577026
30
476.853394
11
778.304871
21
1274.588013
31
476.729187
12
778.347717
22
1274.618042
32
475.961700
13
778.347717
23
1274.618042
33
475.961700
0
3DFACE
8
0
10
778.326721
20
1274.551025
30
477.345215
11
778.304871
21
1274.588013
31
476.729187
12
778.304382
22
1274.577026
32
476.853394
13
778.304382
23
1274.577026
33
476.853394
0
3DFACE
8
0
10
778.367188
20
1274.517944
30
477.743011
11
778.326721
21
1274.551025
31
477.345215
12
778.304382
22
1274.577026
32
476.853394
13
778.304382
23
1274.577026
33
476.853394
0
3DFACE
8
0
10
778.367188
20
1274.517944
30
477.743011
11
778.398987
21
1274.505981
31
477.956787
12
778.326721
22
1274.551025
32
477.345215
13
778.326721
23
1274.551025
33
477.345215
0
3DFACE
8
0
10
778.521179
20
1274.453003
30
478.559814
11
778.398987
21
1274.505981
31
477.956787
12
778.367188
22
1274.517944
32
477.743011
13
778.367188
23
1274.517944
33
477.743011
0
3DFACE
8
0
10
778.534973
20
1274.442993
30
478.617615
11
778.521179
21
1274.453003
31
478.559814
12
778.367188
22
1274.517944
32
477.743011
13
778.367188
23
1274.517944
33
477.743011
0
3DFACE
8
0
10
778.692383
20
1274.392944
30
479.149994
11
778.521179
21
1274.453003
31
478.559814
12
778.534973
22
1274.442993
32
478.617615
13
778.534973
23
1274.442993
33
478.617615
0
3DFACE
8
0
10
778.805420
20
1274.353027
30
479.464691
11
778.692383
21
1274.392944
31
479.149994
12
778.534973
22
1274.442993
32
478.617615
13
778.534973
23
1274.442993
33
478.617615
0
3DFACE
8
0
10
778.989075
20
1274.303955
30
479.896912
11
778.692383
21
1274.392944
31
479.149994
12
778.805420
22
1274.353027
32
479.464691
13
778.805420
23
1274.353027
33
479.464691
0
3DFACE
8
0
10
779.174377
20
1274.248047
30
480.272003
11
778.989075
21
1274.303955
31
479.896912
12
778.805420
22
1274.353027
32
479.464691
13
778.805420
23
1274.353027
33
479.464691
0
3DFACE
8
0
10
779.174377
20
1274.248047
30
480.272003
11
779.364380
21
1274.203979
31
480.606201
12
778.989075
22
1274.303955
32
479.896912
13
778.989075
23
1274.303955
33
479.896912
0
3DFACE
8
0
10
779.364380
20
1274.203979
30
480.606201
11
779.174377
21
1274.248047
31
480.272003
12
779.637024
22
1274.131958
32
481.027710
13
779.637024
23
1274.131958
33
481.027710
0
3DFACE
8
0
10
779.637024
20
1274.131958
30
481.027710
11
779.813782
21
1274.094971
31
481.269409
12
779.364380
22
1274.203979
32
480.606201
13
779.364380
23
1274.203979
33
480.606201
0
3DFACE
8
0
10
779.813782
20
1274.094971
30
481.269409
11
779.637024
21
1274.131958
31
481.027710
12
780.186279
22
1274.004028
32
481.721191
13
780.186279
23
1274.004028
33
481.721191
0
3DFACE
8
0
10
780.186279
20
1274.004028
30
481.721191
11
780.332275
21
1273.977051
31
481.878815
12
779.813782
22
1274.094971
32
481.269409
13
779.813782
23
1274.094971
33
481.269409
0
3DFACE
8
0
10
780.770630
20
1273.881958
30
482.303101
11
780.332275
21
1273.977051
31
481.878815
12
780.186279
22
1274.004028
32
481.721191
13
780.186279
23
1274.004028
33
481.721191
0
3DFACE
8
0
10
780.814270
20
1273.868042
30
482.342194
11
780.770630
21
1273.881958
31
482.303101
12
780.186279
22
1274.004028
32
481.721191
13
780.186279
23
1274.004028
33
481.721191
0
3DFACE
8
0
10
781.242615
20
1273.784058
30
482.688904
11
780.770630
21
1273.881958
31
482.303101
12
780.814270
22
1273.868042
32
482.342194
13
780.814270
23
1273.868042
33
482.342194
0
3DFACE
8
0
10
781.512085
20
1273.724976
30
482.881989
11
781.242615
21
1273.784058
31
482.688904
12
780.814270
22
1273.868042
32
482.342194
13
780.814270
23
1273.868042
33
482.342194
0
3DFACE
8
0
10
781.852173
20
1273.662964
30
483.099487
11
781.242615
21
1273.784058
31
482.688904
12
781.512085
22
1273.724976
32
482.881989
13
781.512085
23
1273.724976
33
482.881989
0
3DFACE
8
0
10
782.269592
20
1273.576050
30
483.332611
11
781.852173
21
1273.662964
31
483.099487
12
781.512085
22
1273.724976
32
482.881989
13
781.512085
23
1273.724976
33
482.881989
0
3DFACE
8
0
10
782.269592
20
1273.576050
30
483.332611
11
782.499817
21
1273.537964
31
483.445892
12
781.852173
22
1273.662964
32
483.099487
13
781.852173
23
1273.662964
33
483.099487
0
3DFACE
8
0
10
782.499817
20
1273.537964
30
483.445892
11
782.269592
21
1273.576050
31
483.332611
12
782.998230
22
1273.439941
32
483.658386
13
782.998230
23
1273.439941
33
483.658386
0
3DFACE
8
0
10
782.998230
20
1273.439941
30
483.658386
11
783.179016
21
1273.411987
31
483.724701
12
782.499817
22
1273.537964
32
483.445892
13
782.499817
23
1273.537964
33
483.445892
0
3DFACE
8
0
10
783.179016
20
1273.411987
30
483.724701
11
782.998230
21
1273.439941
31
483.658386
12
783.758118
22
1273.302002
32
483.901794
13
783.758118
23
1273.302002
33
483.901794
0
3DFACE
8
0
10
783.758118
20
1273.302002
30
483.901794
11
783.882996
21
1273.286011
31
483.933197
12
783.179016
22
1273.411987
32
483.724701
13
783.179016
23
1273.411987
33
483.724701
0
3DFACE
8
0
10
783.882996
20
1273.286011
30
483.933197
11
783.758118
21
1273.302002
31
483.901794
12
784.540527
22
1273.166016
32
484.059998
13
784.540527
23
1273.166016
33
484.059998
0
3DFACE
8
0
10
784.540527
20
1273.166016
30
484.059998
11
784.604675
21
1273.161011
31
484.069214
12
783.882996
22
1273.286011
32
483.933197
13
783.882996
23
1273.286011
33
483.933197
0
3DFACE
8
0
10
605.047424
20
220.730606
30
409.159485
11
780.856689
21
1273.970947
31
471.018097
12
781.566589
22
1273.884033
32
470.481689
13
781.566589
23
1273.884033
33
470.481689
0
3DFACE
8
0
10
605.047424
20
220.730606
30
409.159485
11
604.253174
21
220.826797
31
409.773285
12
780.856689
22
1273.970947
32
471.018097
13
780.856689
23
1273.970947
33
471.018097
0
3DFACE
8
0
10
780.856689
20
1273.970947
30
471.018097
11
604.253174
21
220.826797
31
409.773285
12
603.077515
22
220.959702
32
410.858002
13
603.077515
23
220.959702
33
410.858002
0
3DFACE
8
0
10
603.077515
20
220.959702
30
410.858002
11
780.214722
21
1274.041992
31
471.636200
12
780.856689
22
1273.970947
32
471.018097
13
780.856689
23
1273.970947
33
471.018097
0
3DFACE
8
0
10
780.214722
20
1274.041992
30
471.636200
11
603.077515
21
220.959702
31
410.858002
12
602.333984
22
221.036301
32
411.680115
13
602.333984
23
221.036301
33
411.680115
0
3DFACE
8
0
10
602.333984
20
221.036301
30
411.680115
11
779.650085
21
1274.097046
31
472.326996
12
780.214722
22
1274.041992
32
471.636200
13
780.214722
23
1274.041992
33
471.636200
0
3DFACE
8
0
10
778.783508
20
1274.152954
30
473.886200
11
600.058472
21
221.207596
31
415.356689
12
599.687195
22
221.217194
32
416.294189
13
599.687195
23
221.217194
33
416.294189
0
3DFACE
8
0
10
599.687195
20
221.217194
30
416.294189
11
778.494324
21
1274.154053
31
474.731995
12
778.783508
22
1274.152954
32
473.886200
13
778.783508
23
1274.152954
33
473.886200
0
3DFACE
8
0
10
599.687195
20
221.217194
30
416.294189
11
599.379272
21
221.215195
31
417.254303
12
778.494324
22
1274.154053
32
474.731995
13
778.494324
23
1274.154053
33
474.731995
0
3DFACE
8
0
10
778.494324
20
1274.154053
30
474.731995
11
599.379272
21
221.215195
31
417.254303
12
599.135986
22
221.201599
32
418.232788
13
599.135986
23
221.201599
33
418.232788
0
3DFACE
8
0
10
599.135986
20
221.201599
30
418.232788
11
778.306885
21
1274.136963
31
475.605896
12
778.494324
22
1274.154053
32
474.731995
13
778.494324
23
1274.154053
33
474.731995
0
3DFACE
8
0
10
599.149414
20
220.853806
30
424.582214
11
778.376587
21
1273.979980
31
478.269287
12
598.995178
22
220.923203
32
423.769714
13
598.995178
23
220.923203
33
423.769714
0
3DFACE
8
0
10
779.888489
20
1273.560059
30
481.446594
11
601.956970
21
220.070297
31
430.555511
12
602.599121
22
219.923904
32
431.319214
13
602.599121
23
219.923904
33
431.319214
0
3DFACE
8
0
10
602.599121
20
219.923904
30
431.319214
11
780.488281
21
1273.427002
31
482.095886
12
779.888489
22
1273.560059
32
481.446594
13
779.888489
23
1273.560059
33
481.446594
0
3DFACE
8
0
10
608.572876
20
220.257294
30
407.282593
11
783.148315
21
1273.670044
31
469.683502
12
609.521179
22
220.119507
32
406.968811
13
609.521179
23
220.119507
33
406.968811
0
3DFACE
8
0
10
609.521179
20
220.119507
30
406.968811
11
783.148315
21
1273.670044
31
469.683502
12
783.997375
22
1273.545044
32
469.433289
13
783.997375
23
1273.545044
33
469.433289
0
3DFACE
8
0
10
609.521179
20
220.119507
30
406.968811
11
783.997375
21
1273.545044
31
469.433289
12
610.457825
22
219.979797
32
406.726990
13
610.457825
23
219.979797
33
406.726990
0
3DFACE
8
0
10
606.748291
20
220.510605
30
408.100586
11
782.334106
21
1273.782959
31
470.034698
12
607.647217
22
220.387802
32
407.660492
13
607.647217
23
220.387802
33
407.660492
0
3DFACE
8
0
10
607.647217
20
220.387802
30
407.660492
11
782.334106
21
1273.782959
31
470.034698
12
783.148315
22
1273.670044
32
469.683502
13
783.148315
23
1273.670044
33
469.683502
0
3DFACE
8
0
10
607.647217
20
220.387802
30
407.660492
11
783.148315
21
1273.670044
31
469.683502
12
608.572876
22
220.257294
32
407.282593
13
608.572876
23
220.257294
33
407.282593
0
3DFACE
8
0
10
605.047424
20
220.730606
30
409.159485
11
781.566589
21
1273.884033
31
470.481689
12
605.880371
22
220.625000
32
408.601105
13
605.880371
23
220.625000
33
408.601105
0
3DFACE
8
0
10
605.880371
20
220.625000
30
408.601105
11
781.566589
21
1273.884033
31
470.481689
12
782.334106
22
1273.782959
32
470.034698
13
782.334106
23
1273.782959
33
470.034698
0
3DFACE
8
0
10
605.880371
20
220.625000
30
408.601105
11
782.334106
21
1273.782959
31
470.034698
12
606.748291
22
220.510605
32
408.100586
13
606.748291
23
220.510605
33
408.100586
0
3DFACE
8
0
10
602.333984
20
221.036301
30
411.680115
11
601.652710
21
221.099899
31
412.555511
12
779.650085
22
1274.097046
32
472.326996
13
779.650085
23
1274.097046
33
472.326996
0
3DFACE
8
0
10
779.650085
20
1274.097046
30
472.326996
11
601.652710
21
221.099899
31
412.555511
12
601.037415
22
221.149994
32
413.479187
13
601.037415
23
221.149994
33
413.479187
0
3DFACE
8
0
10
779.650085
20
1274.097046
30
472.326996
11
601.037415
21
221.149994
31
413.479187
12
779.170715
22
1274.134033
32
473.080597
13
779.170715
23
1274.134033
33
473.080597
0
3DFACE
8
0
10
601.037415
20
221.149994
30
413.479187
11
600.491272
21
221.186493
31
414.446198
12
779.170715
22
1274.134033
32
473.080597
13
779.170715
23
1274.134033
33
473.080597
0
3DFACE
8
0
10
779.170715
20
1274.134033
30
473.080597
11
600.491272
21
221.186493
31
414.446198
12
600.058472
22
221.207596
32
415.356689
13
600.058472
23
221.207596
33
415.356689
0
3DFACE
8
0
10
779.170715
20
1274.134033
30
473.080597
11
600.058472
21
221.207596
31
415.356689
12
778.783508
22
1274.152954
32
473.886200
13
778.783508
23
1274.152954
33
473.886200
0
3DFACE
8
0
10
599.135986
20
221.201599
30
418.232788
11
598.958679
21
221.176498
31
419.225189
12
778.306885
22
1274.136963
32
475.605896
13
778.306885
23
1274.136963
33
475.605896
0
3DFACE
8
0
10
778.306885
20
1274.136963
30
475.605896
11
598.958679
21
221.176498
31
419.225189
12
598.848083
22
221.140106
32
420.226807
13
598.848083
23
221.140106
33
420.226807
0
3DFACE
8
0
10
778.306885
20
1274.136963
30
475.605896
11
598.848083
21
221.140106
31
420.226807
12
778.224426
22
1274.102051
32
476.495392
13
778.224426
23
1274.102051
33
476.495392
0
3DFACE
8
0
10
598.848083
20
221.140106
30
420.226807
11
598.804077
21
221.089096
31
421.295197
12
778.224426
22
1274.102051
32
476.495392
13
778.224426
23
1274.102051
33
476.495392
0
3DFACE
8
0
10
778.224426
20
1274.102051
30
476.495392
11
598.804077
21
221.089096
31
421.295197
12
598.822327
22
221.041107
32
422.123596
13
598.822327
23
221.041107
33
422.123596
0
3DFACE
8
0
10
778.224426
20
1274.102051
30
476.495392
11
598.822327
21
221.041107
31
422.123596
12
778.247681
22
1274.050049
32
477.387512
13
778.247681
23
1274.050049
33
477.387512
0
3DFACE
8
0
10
598.822327
20
221.041107
30
422.123596
11
598.885986
21
220.985703
31
422.949188
12
778.247681
22
1274.050049
32
477.387512
13
778.247681
23
1274.050049
33
477.387512
0
3DFACE
8
0
10
778.247681
20
1274.050049
30
477.387512
11
598.885986
21
220.985703
31
422.949188
12
598.995178
22
220.923203
32
423.769714
13
598.995178
23
220.923203
33
423.769714
0
3DFACE
8
0
10
778.247681
20
1274.050049
30
477.387512
11
598.995178
21
220.923203
31
423.769714
12
778.376587
22
1273.979980
32
478.269287
13
778.376587
23
1273.979980
33
478.269287
0
3DFACE
8
0
10
599.943970
20
220.586395
30
427.112091
11
600.359070
21
220.468994
31
428.023590
12
778.942200
22
1273.796021
32
479.951996
13
778.942200
23
1273.796021
33
479.951996
0
3DFACE
8
0
10
778.942200
20
1273.796021
30
479.951996
11
600.359070
21
220.468994
31
428.023590
12
600.834473
22
220.343399
32
428.903900
13
600.834473
23
220.343399
33
428.903900
0
3DFACE
8
0
10
778.942200
20
1273.796021
30
479.951996
11
600.834473
21
220.343399
31
428.903900
12
779.370728
22
1273.683960
32
480.728485
13
779.370728
23
1273.683960
33
480.728485
0
3DFACE
8
0
10
600.834473
20
220.343399
30
428.903900
11
601.367920
21
220.210403
31
429.749207
12
779.370728
22
1273.683960
32
480.728485
13
779.370728
23
1273.683960
33
480.728485
0
3DFACE
8
0
10
779.370728
20
1273.683960
30
480.728485
11
601.367920
21
220.210403
31
429.749207
12
601.956970
22
220.070297
32
430.555511
13
601.956970
23
220.070297
33
430.555511
0
3DFACE
8
0
10
779.370728
20
1273.683960
30
480.728485
11
601.956970
21
220.070297
31
430.555511
12
779.888489
22
1273.560059
32
481.446594
13
779.888489
23
1273.560059
33
481.446594
0
3DFACE
8
0
10
602.599121
20
219.923904
30
431.319214
11
603.612427
21
219.703003
31
432.338593
12
780.488281
22
1273.427002
32
482.095886
13
780.488281
23
1273.427002
33
482.095886
0
3DFACE
8
0
10
780.488281
20
1273.427002
30
482.095886
11
603.612427
21
219.703003
31
432.338593
12
604.301880
22
219.558304
32
432.928802
13
604.301880
23
219.558304
33
432.928802
0
3DFACE
8
0
10
780.488281
20
1273.427002
30
482.095886
11
604.301880
21
219.558304
31
432.928802
12
781.161377
22
1273.286011
32
482.667206
13
781.161377
23
1273.286011
33
482.667206
0
3DFACE
8
0
10
604.301880
20
219.558304
30
432.928802
11
605.026611
21
219.410294
31
433.474609
12
781.161377
22
1273.286011
32
482.667206
13
781.161377
23
1273.286011
33
482.667206
0
3DFACE
8
0
10
781.161377
20
1273.286011
30
482.667206
11
605.026611
21
219.410294
31
433.474609
12
605.783508
22
219.259506
32
433.973785
13
605.783508
23
219.259506
33
433.973785
0
3DFACE
8
0
10
781.161377
20
1273.286011
30
482.667206
11
605.783508
21
219.259506
31
433.973785
12
781.897888
22
1273.139038
32
483.152008
13
781.897888
23
1273.139038
33
483.152008
0
3DFACE
8
0
10
605.783508
20
219.259506
30
433.973785
11
606.569885
21
219.106598
31
434.424500
12
781.897888
22
1273.139038
32
483.152008
13
781.897888
23
1273.139038
33
483.152008
0
3DFACE
8
0
10
781.897888
20
1273.139038
30
483.152008
11
606.569885
21
219.106598
31
434.424500
12
607.382629
22
218.952194
32
434.825104
13
607.382629
23
218.952194
33
434.825104
0
3DFACE
8
0
10
781.897888
20
1273.139038
30
483.152008
11
607.382629
21
218.952194
31
434.825104
12
782.687073
22
1272.989014
32
483.543396
13
782.687073
23
1272.989014
33
483.543396
0
3DFACE
8
0
10
607.382629
20
218.952194
30
434.825104
11
608.301025
21
218.781601
31
435.204987
12
782.687073
22
1272.989014
32
483.543396
13
782.687073
23
1272.989014
33
483.543396
0
3DFACE
8
0
10
782.687073
20
1272.989014
30
483.543396
11
608.301025
21
218.781601
31
435.204987
12
609.243225
22
218.610504
32
435.520996
13
609.243225
23
218.610504
33
435.520996
0
3DFACE
8
0
10
782.687073
20
1272.989014
30
483.543396
11
609.243225
21
218.610504
31
435.520996
12
783.517822
22
1272.838013
32
483.835907
13
783.517822
23
1272.838013
33
483.835907
0
3DFACE
8
0
10
609.243225
20
218.610504
30
435.520996
11
610.205017
21
218.439896
31
435.771515
12
783.517822
22
1272.838013
32
483.835907
13
783.517822
23
1272.838013
33
483.835907
0
3DFACE
8
0
10
783.517822
20
1272.838013
30
483.835907
11
610.205017
21
218.439896
31
435.771515
12
611.181885
22
218.270401
32
435.955505
13
611.181885
23
218.270401
33
435.955505
0
3DFACE
8
0
10
783.517822
20
1272.838013
30
483.835907
11
611.181885
21
218.270401
31
435.955505
12
784.378113
22
1272.687012
32
484.025208
13
784.378113
23
1272.687012
33
484.025208
0
3DFACE
8
0
10
784.664429
20
1273.442993
30
469.312103
11
785.339111
21
1273.334961
31
469.253387
12
763.838013
22
1141.609985
32
461.394196
13
763.838013
23
1141.609985
33
461.394196
0
3DFACE
8
0
10
784.664429
20
1273.442993
30
469.312103
11
763.838013
21
1141.609985
31
461.394196
12
742.336914
22
1009.883972
32
453.534912
13
742.336914
23
1009.883972
33
453.534912
0
3DFACE
8
0
10
784.664429
20
1273.442993
30
469.312103
11
742.336914
21
1009.883972
31
453.534912
12
720.835815
22
878.158203
32
445.675690
13
720.835815
23
878.158203
33
445.675690
0
3DFACE
8
0
10
784.664429
20
1273.442993
30
469.312103
11
720.835815
21
878.158203
31
445.675690
12
699.334595
22
746.432495
32
437.816498
13
699.334595
23
746.432495
33
437.816498
0
3DFACE
8
0
10
784.664429
20
1273.442993
30
469.312103
11
699.334595
21
746.432495
31
437.816498
12
677.833374
22
614.706726
32
429.957306
13
677.833374
23
614.706726
33
429.957306
0
3DFACE
8
0
10
784.664429
20
1273.442993
30
469.312103
11
677.833374
21
614.706726
31
429.957306
12
656.332275
22
482.981110
32
422.098114
13
656.332275
23
482.981110
33
422.098114
0
3DFACE
8
0
10
784.664429
20
1273.442993
30
469.312103
11
656.332275
21
482.981110
31
422.098114
12
634.831177
22
351.255493
32
414.239014
13
634.831177
23
351.255493
33
414.239014
0
3DFACE
8
0
10
784.664429
20
1273.442993
30
469.312103
11
634.831177
21
351.255493
31
414.239014
12
613.330078
22
219.529800
32
406.379791
13
613.330078
23
219.529800
33
406.379791
0
3DFACE
8
0
10
784.664429
20
1273.442993
30
469.312103
11
613.330078
21
219.529800
31
406.379791
12
612.366394
22
219.684296
32
406.431885
13
612.366394
23
219.684296
33
406.431885
0
3DFACE
8
0
10
784.664429
20
1273.442993
30
469.312103
11
612.366394
21
219.684296
31
406.431885
12
611.407593
22
219.834503
32
406.547791
13
611.407593
23
219.834503
33
406.547791
0
3DFACE
8
0
10
784.664429
20
1273.442993
30
469.312103
11
611.407593
21
219.834503
31
406.547791
12
610.457825
22
219.979797
32
406.726990
13
610.457825
23
219.979797
33
406.726990
0
3DFACE
8
0
10
784.664429
20
1273.442993
30
469.312103
11
610.457825
21
219.979797
31
406.726990
12
783.997375
22
1273.545044
32
469.433289
13
783.997375
23
1273.545044
33
469.433289
0
3DFACE
8
0
10
778.609192
20
1273.895996
30
479.128296
11
778.376587
21
1273.979980
31
478.269287
12
599.149414
22
220.853806
32
424.582214
13
599.149414
23
220.853806
33
424.582214
0
3DFACE
8
0
10
778.609192
20
1273.895996
30
479.128296
11
599.149414
21
220.853806
31
424.582214
12
599.348206
22
220.777695
32
425.384491
13
599.348206
23
220.777695
33
425.384491
0
3DFACE
8
0
10
778.609192
20
1273.895996
30
479.128296
11
599.348206
21
220.777695
31
425.384491
12
599.590881
22
220.695099
32
426.173798
13
599.590881
23
220.695099
33
426.173798
0
3DFACE
8
0
10
778.609192
20
1273.895996
30
479.128296
11
599.590881
21
220.695099
31
426.173798
12
599.943970
22
220.586395
32
427.112091
13
599.943970
23
220.586395
33
427.112091
0
3DFACE
8
0
10
778.609192
20
1273.895996
30
479.128296
11
599.943970
21
220.586395
31
427.112091
12
778.942200
22
1273.796021
32
479.951996
13
778.942200
23
1273.796021
33
479.951996
0
3DFACE
8
0
10
612.169373
20
218.102905
30
436.072113
11
613.163025
21
217.938004
31
436.120697
12
634.674622
22
349.763092
32
442.119202
13
634.674622
23
349.763092
33
442.119202
0
3DFACE
8
0
10
612.169373
20
218.102905
30
436.072113
11
634.674622
21
349.763092
31
442.119202
12
656.186218
22
481.588196
32
448.117706
13
656.186218
23
481.588196
33
448.117706
0
3DFACE
8
0
10
612.169373
20
218.102905
30
436.072113
11
656.186218
21
481.588196
31
448.117706
12
677.697693
22
613.413330
32
454.116211
13
677.697693
23
613.413330
33
454.116211
0
3DFACE
8
0
10
612.169373
20
218.102905
30
436.072113
11
677.697693
21
613.413330
31
454.116211
12
699.209229
22
745.238525
32
460.114685
13
699.209229
23
745.238525
33
460.114685
0
3DFACE
8
0
10
612.169373
20
218.102905
30
436.072113
11
699.209229
21
745.238525
31
460.114685
12
720.720825
22
877.063599
32
466.113190
13
720.720825
23
877.063599
33
466.113190
0
3DFACE
8
0
10
612.169373
20
218.102905
30
436.072113
11
720.720825
21
877.063599
31
466.113190
12
742.232422
22
1008.888977
32
472.111694
13
742.232422
23
1008.888977
33
472.111694
0
3DFACE
8
0
10
612.169373
20
218.102905
30
436.072113
11
742.232422
21
1008.888977
31
472.111694
12
763.743896
22
1140.713989
32
478.110199
13
763.743896
23
1140.713989
33
478.110199
0
3DFACE
8
0
10
612.169373
20
218.102905
30
436.072113
11
763.743896
21
1140.713989
31
478.110199
12
785.255493
22
1272.538940
32
484.108704
13
785.255493
23
1272.538940
33
484.108704
0
3DFACE
8
0
10
612.169373
20
218.102905
30
436.072113
11
785.255493
21
1272.538940
31
484.108704
12
784.378113
22
1272.687012
32
484.025208
13
784.378113
23
1272.687012
33
484.025208
0
3DFACE
8
0
10
612.169373
20
218.102905
30
436.072113
11
784.378113
21
1272.687012
31
484.025208
12
611.181885
22
218.270401
32
435.955505
13
611.181885
23
218.270401
33
435.955505
0
3DFACE
8
0
10
785.339111
20
1273.334961
30
469.253387
11
785.358215
21
1273.297974
31
469.877014
12
763.838013
22
1141.609985
32
461.394196
13
763.838013
23
1141.609985
33
461.394196
0
3DFACE
8
0
10
763.838013
20
1141.609985
30
461.394196
11
785.358215
21
1273.297974
31
469.877014
12
763.855530
22
1141.572021
32
462.017792
13
763.855530
23
1141.572021
33
462.017792
0
3DFACE
8
0
10
763.838013
20
1141.609985
30
461.394196
11
763.855530
21
1141.572021
31
462.017792
12
742.336914
22
1009.883972
32
453.534912
13
742.336914
23
1009.883972
33
453.534912
0
3DFACE
8
0
10
742.336914
20
1009.883972
30
453.534912
11
763.855530
21
1141.572021
31
462.017792
12
742.352783
22
1009.846985
32
454.158600
13
742.352783
23
1009.846985
33
454.158600
0
3DFACE
8
0
10
742.336914
20
1009.883972
30
453.534912
11
742.352783
21
1009.846985
31
454.158600
12
720.835815
22
878.158203
32
445.675690
13
720.835815
23
878.158203
33
445.675690
0
3DFACE
8
0
10
720.835815
20
878.158203
30
445.675690
11
742.352783
21
1009.846985
31
454.158600
12
720.850220
22
878.120605
32
446.299408
13
720.850220
23
878.120605
33
446.299408
0
3DFACE
8
0
10
720.835815
20
878.158203
30
445.675690
11
720.850220
21
878.120605
31
446.299408
12
699.334595
22
746.432495
32
437.816498
13
699.334595
23
746.432495
33
437.816498
0
3DFACE
8
0
10
699.334595
20
746.432495
30
437.816498
11
720.850220
21
878.120605
31
446.299408
12
699.347473
22
746.394775
32
438.440186
13
699.347473
23
746.394775
33
438.440186
0
3DFACE
8
0
10
699.334595
20
746.432495
30
437.816498
11
699.347473
21
746.394775
31
438.440186
12
677.833374
22
614.706726
32
429.957306
13
677.833374
23
614.706726
33
429.957306
0
3DFACE
8
0
10
677.833374
20
614.706726
30
429.957306
11
699.347473
21
746.394775
31
438.440186
12
677.844788
22
614.668884
32
430.581085
13
677.844788
23
614.668884
33
430.581085
0
3DFACE
8
0
10
677.833374
20
614.706726
30
429.957306
11
677.844788
21
614.668884
31
430.581085
12
656.332275
22
482.981110
32
422.098114
13
656.332275
23
482.981110
33
422.098114
0
3DFACE
8
0
10
656.332275
20
482.981110
30
422.098114
11
677.844788
21
614.668884
31
430.581085
12
656.342224
22
482.943115
32
422.721893
13
656.342224
23
482.943115
33
422.721893
0
3DFACE
8
0
10
656.332275
20
482.981110
30
422.098114
11
656.342224
21
482.943115
31
422.721893
12
634.831177
22
351.255493
32
414.239014
13
634.831177
23
351.255493
33
414.239014
0
3DFACE
8
0
10
634.831177
20
351.255493
30
414.239014
11
656.342224
21
482.943115
31
422.721893
12
634.839478
22
351.217285
32
414.862701
13
634.839478
23
351.217285
33
414.862701
0
3DFACE
8
0
10
634.831177
20
351.255493
30
414.239014
11
634.839478
21
351.217285
31
414.862701
12
613.330078
22
219.529800
32
406.379791
13
613.330078
23
219.529800
33
406.379791
0
3DFACE
8
0
10
613.330078
20
219.529800
30
406.379791
11
634.839478
21
351.217285
31
414.862701
12
613.336914
22
219.491501
32
407.003510
13
613.336914
23
219.491501
33
407.003510
0
3DFACE
8
0
10
785.419617
20
1273.828003
30
469.282806
11
785.419983
21
1273.831055
31
469.282990
12
785.438721
22
1273.791016
32
469.906403
13
785.438721
23
1273.791016
33
469.906403
0
3DFACE
8
0
10
807.369019
20
187.852493
30
415.673706
11
807.405273
21
187.880600
31
415.050415
12
878.168579
22
1257.905029
32
474.328400
13
878.168579
23
1257.905029
33
474.328400
0
3DFACE
8
0
10
878.168579
20
1257.905029
30
474.328400
11
807.405273
21
187.880600
31
415.050415
12
878.205017
22
1257.932983
32
473.705109
13
878.205017
23
1257.932983
33
473.705109
0
3DFACE
8
0
10
862.476929
20
1261.005981
30
473.753387
11
863.762329
21
1260.765991
31
474.319611
12
865.327576
22
1260.546997
32
473.633392
13
865.327576
23
1260.546997
33
473.633392
0
3DFACE
8
0
10
859.452026
20
1261.458984
30
474.538910
11
863.762329
21
1260.765991
31
474.319611
12
862.476929
22
1261.005981
32
473.753387
13
862.476929
23
1261.005981
33
473.753387
0
3DFACE
8
0
10
856.246521
20
1262.003052
30
474.116699
11
859.452026
21
1261.458984
31
474.538910
12
862.476929
22
1261.005981
32
473.753387
13
862.476929
23
1261.005981
33
473.753387
0
3DFACE
8
0
10
856.246521
20
1262.003052
30
474.116699
11
854.787598
21
1262.203979
31
474.844788
12
859.452026
22
1261.458984
32
474.538910
13
859.452026
23
1261.458984
33
474.538910
0
3DFACE
8
0
10
863.762329
20
1260.765991
30
474.319611
11
868.083313
21
1260.067993
31
474.178589
12
865.327576
22
1260.546997
32
473.633392
13
865.327576
23
1260.546997
33
473.633392
0
3DFACE
8
0
10
865.327576
20
1260.546997
30
473.633392
11
868.083313
21
1260.067993
31
474.178589
12
868.815125
22
1259.947998
32
474.165314
13
868.815125
23
1259.947998
33
474.165314
0
3DFACE
8
0
10
865.327576
20
1260.546997
30
473.633392
11
868.815125
21
1259.947998
31
474.165314
12
868.811096
22
1259.983032
32
473.541290
13
868.811096
23
1259.983032
33
473.541290
0
3DFACE
8
0
10
828.905396
20
1266.316040
30
476.869385
11
831.583374
21
1265.868042
31
477.160706
12
835.152527
22
1265.338013
32
476.103485
13
835.152527
23
1265.338013
33
476.103485
0
3DFACE
8
0
10
835.152527
20
1265.338013
30
476.103485
11
831.583374
21
1265.868042
31
477.160706
12
840.831787
22
1264.415039
32
476.100586
13
840.831787
23
1264.415039
33
476.100586
0
3DFACE
8
0
10
835.152527
20
1265.338013
30
476.103485
11
840.831787
21
1264.415039
31
476.100586
12
840.682922
22
1264.468994
32
475.489014
13
840.682922
23
1264.468994
33
475.489014
0
3DFACE
8
0
10
840.682922
20
1264.468994
30
475.489014
11
840.831787
21
1264.415039
31
476.100586
12
845.476379
22
1263.682007
32
475.633789
13
845.476379
23
1263.682007
33
475.633789
0
3DFACE
8
0
10
840.682922
20
1264.468994
30
475.489014
11
845.476379
21
1263.682007
31
475.633789
12
847.786194
22
1263.347046
32
474.792206
13
847.786194
23
1263.347046
33
474.792206
0
3DFACE
8
0
10
847.786194
20
1263.347046
30
474.792206
11
845.476379
21
1263.682007
31
475.633789
12
850.130188
22
1262.944946
32
475.212585
13
850.130188
23
1262.944946
33
475.212585
0
3DFACE
8
0
10
847.786194
20
1263.347046
30
474.792206
11
850.130188
21
1262.944946
31
475.212585
12
850.006287
22
1262.994995
32
474.596985
13
850.006287
23
1262.994995
33
474.596985
0
3DFACE
8
0
10
850.006287
20
1262.994995
30
474.596985
11
850.130188
21
1262.944946
31
475.212585
12
854.787598
22
1262.203979
32
474.844788
13
854.787598
23
1262.203979
33
474.844788
0
3DFACE
8
0
10
850.006287
20
1262.994995
30
474.596985
11
854.787598
21
1262.203979
31
474.844788
12
856.246521
22
1262.003052
32
474.116699
13
856.246521
23
1262.003052
33
474.116699
0
3DFACE
8
0
10
812.971802
20
1268.796021
30
479.094696
11
822.356628
21
1267.307983
31
478.371490
12
822.640320
22
1267.292969
32
477.702911
13
822.640320
23
1267.292969
33
477.702911
0
3DFACE
8
0
10
822.640320
20
1267.292969
30
477.702911
11
822.356628
21
1267.307983
31
478.371490
12
831.583374
22
1265.868042
32
477.160706
13
831.583374
23
1265.868042
33
477.160706
0
3DFACE
8
0
10
822.640320
20
1267.292969
30
477.702911
11
831.583374
21
1265.868042
31
477.160706
12
828.905396
22
1266.316040
32
476.869385
13
828.905396
23
1266.316040
33
476.869385
0
3DFACE
8
0
10
822.356628
20
1267.307983
30
478.371490
11
812.971802
21
1268.796021
31
479.094696
12
813.167114
22
1268.735962
32
479.696014
13
813.167114
23
1268.735962
33
479.696014
0
3DFACE
8
0
10
813.167114
20
1268.735962
30
479.696014
11
812.971802
21
1268.796021
31
479.094696
12
803.815979
22
1270.213013
32
480.512299
13
803.815979
23
1270.213013
33
480.512299
0
3DFACE
8
0
10
813.167114
20
1268.735962
30
479.696014
11
803.815979
21
1270.213013
31
480.512299
12
803.984314
22
1270.157959
32
481.116913
13
803.984314
23
1270.157959
33
481.116913
0
3DFACE
8
0
10
803.984314
20
1270.157959
30
481.116913
11
803.815979
21
1270.213013
31
480.512299
12
791.750000
22
1272.074951
32
482.484100
13
791.750000
23
1272.074951
33
482.484100
0
3DFACE
8
0
10
803.984314
20
1270.157959
30
481.116913
11
791.750000
21
1272.074951
31
482.484100
12
794.819580
22
1271.572998
32
482.606689
13
794.819580
23
1271.572998
33
482.606689
0
3DFACE
8
0
10
794.819580
20
1271.572998
30
482.606689
11
791.750000
21
1272.074951
31
482.484100
12
785.608826
22
1273.020996
32
483.511200
13
785.608826
23
1273.020996
33
483.511200
0
3DFACE
8
0
10
794.819580
20
1271.572998
30
482.606689
11
785.608826
21
1273.020996
31
483.511200
12
785.705383
22
1272.978027
32
484.127106
13
785.705383
23
1272.978027
33
484.127106
0
3DFACE
8
0
10
785.705383
20
1272.978027
30
484.127106
11
803.907227
21
1270.163940
31
481.128693
12
794.819580
22
1271.572998
32
482.606689
13
794.819580
23
1271.572998
33
482.606689
0
3DFACE
8
0
10
785.705383
20
1272.978027
30
484.127106
11
785.704529
21
1272.972046
31
484.126892
12
803.907227
22
1270.163940
32
481.128693
13
803.907227
23
1270.163940
33
481.128693
0
3DFACE
8
0
10
794.819580
20
1271.572998
30
482.606689
11
803.907227
21
1270.163940
31
481.128693
12
803.984314
22
1270.157959
32
481.116913
13
803.984314
23
1270.157959
33
481.116913
0
3DFACE
8
0
10
803.984314
20
1270.157959
30
481.116913
11
803.907227
21
1270.163940
31
481.128693
12
813.059875
22
1268.746948
32
479.711609
13
813.059875
23
1268.746948
33
479.711609
0
3DFACE
8
0
10
803.984314
20
1270.157959
30
481.116913
11
813.059875
21
1268.746948
31
479.711609
12
813.167114
22
1268.735962
32
479.696014
13
813.167114
23
1268.735962
33
479.696014
0
3DFACE
8
0
10
822.356628
20
1267.307983
30
478.371490
11
813.167114
21
1268.735962
31
479.696014
12
813.059875
22
1268.746948
32
479.711609
13
813.059875
23
1268.746948
33
479.711609
0
3DFACE
8
0
10
813.059875
20
1268.746948
30
479.711609
11
826.855530
21
1266.602051
31
477.764191
12
822.356628
22
1267.307983
32
478.371490
13
822.356628
23
1267.307983
33
478.371490
0
3DFACE
8
0
10
831.583374
20
1265.868042
30
477.160706
11
822.356628
21
1267.307983
31
478.371490
12
826.855530
22
1266.602051
32
477.764191
13
826.855530
23
1266.602051
33
477.764191
0
3DFACE
8
0
10
826.855530
20
1266.602051
30
477.764191
11
836.103516
21
1265.154053
31
476.620911
12
831.583374
22
1265.868042
32
477.160706
13
831.583374
23
1265.868042
33
477.160706
0
3DFACE
8
0
10
840.831787
20
1264.415039
30
476.100586
11
831.583374
21
1265.868042
31
477.160706
12
836.103516
22
1265.154053
32
476.620911
13
836.103516
23
1265.154053
33
476.620911
0
3DFACE
8
0
10
836.103516
20
1265.154053
30
476.620911
11
845.393982
21
1263.691040
31
475.641510
12
840.831787
22
1264.415039
32
476.100586
13
840.831787
23
1264.415039
33
476.100586
0
3DFACE
8
0
10
840.831787
20
1264.415039
30
476.100586
11
845.393982
21
1263.691040
31
475.641510
12
845.476379
22
1263.682007
32
475.633789
13
845.476379
23
1263.682007
33
475.633789
0
3DFACE
8
0
10
845.476379
20
1263.682007
30
475.633789
11
845.393982
21
1263.691040
31
475.641510
12
853.167175
22
1262.458984
32
474.965912
13
853.167175
23
1262.458984
33
474.965912
0
3DFACE
8
0
10
850.130188
20
1262.944946
30
475.212585
11
845.476379
21
1263.682007
31
475.633789
12
853.167175
22
1262.458984
32
474.965912
13
853.167175
23
1262.458984
33
474.965912
0
3DFACE
8
0
10
850.130188
20
1262.944946
30
475.212585
11
853.167175
21
1262.458984
31
474.965912
12
854.787598
22
1262.203979
32
474.844788
13
854.787598
23
1262.203979
33
474.844788
0
3DFACE
8
0
10
854.787598
20
1262.203979
30
474.844788
11
853.167175
21
1262.458984
31
474.965912
12
859.396790
22
1261.464966
32
474.541992
13
859.396790
23
1261.464966
33
474.541992
0
3DFACE
8
0
10
854.787598
20
1262.203979
30
474.844788
11
859.396790
21
1261.464966
31
474.541992
12
859.452026
22
1261.458984
32
474.538910
13
859.452026
23
1261.458984
33
474.538910
0
3DFACE
8
0
10
863.762329
20
1260.765991
30
474.319611
11
859.452026
21
1261.458984
31
474.538910
12
859.396790
22
1261.464966
32
474.541992
13
859.396790
23
1261.464966
33
474.541992
0
3DFACE
8
0
10
859.396790
20
1261.464966
30
474.541992
11
865.361572
21
1260.506958
31
474.256409
12
863.762329
22
1260.765991
32
474.319611
13
863.762329
23
1260.765991
33
474.319611
0
3DFACE
8
0
10
863.762329
20
1260.765991
30
474.319611
11
865.361572
21
1260.506958
31
474.256409
12
868.083313
22
1260.067993
32
474.178589
13
868.083313
23
1260.067993
33
474.178589
0
3DFACE
8
0
10
868.815125
20
1259.947998
30
474.165314
11
868.083313
21
1260.067993
31
474.178589
12
865.361572
22
1260.506958
32
474.256409
13
865.361572
23
1260.506958
33
474.256409
0
3DFACE
8
0
10
836.048828
20
1264.656982
30
476.594604
11
726.242371
21
200.880005
31
419.626312
12
845.343994
22
1263.192993
32
475.614685
13
845.343994
23
1263.192993
33
475.614685
0
3DFACE
8
0
10
845.343994
20
1263.192993
30
475.614685
11
726.242371
21
200.880005
31
419.626312
12
737.062988
22
199.174301
32
418.515198
13
737.062988
23
199.174301
33
418.515198
0
3DFACE
8
0
10
845.343994
20
1263.192993
30
475.614685
11
737.062988
21
199.174301
31
418.515198
12
747.255920
22
197.561600
32
417.576385
13
747.255920
23
197.561600
33
417.576385
0
3DFACE
8
0
10
845.343994
20
1263.192993
30
475.614685
11
747.255920
21
197.561600
31
417.576385
12
853.121216
22
1261.961060
32
474.938812
13
853.121216
23
1261.961060
33
474.938812
0
3DFACE
8
0
10
747.255920
20
197.561600
30
417.576385
11
757.464417
21
195.939804
31
416.756989
12
853.121216
22
1261.961060
32
474.938812
13
853.121216
23
1261.961060
33
474.938812
0
3DFACE
8
0
10
859.353271
20
1260.967041
30
474.514709
11
853.121216
21
1261.961060
31
474.938812
12
757.464417
22
195.939804
32
416.756989
13
757.464417
23
195.939804
33
416.756989
0
3DFACE
8
0
10
757.464417
20
195.939804
30
416.756989
11
770.937317
21
193.787506
31
415.895203
12
859.353271
22
1260.967041
32
474.514709
13
859.353271
23
1260.967041
33
474.514709
0
3DFACE
8
0
10
865.319580
20
1260.008057
30
474.229004
11
786.783386
21
191.233795
31
415.289490
12
870.497314
22
1259.168945
32
474.121796
13
870.497314
23
1259.168945
33
474.121796
0
3DFACE
8
0
10
632.685730
20
214.925797
30
432.916595
11
803.835999
21
1269.670044
31
481.104797
12
613.519775
22
217.880096
32
436.113708
13
613.519775
23
217.880096
33
436.113708
0
3DFACE
8
0
10
613.519775
20
217.880096
30
436.113708
11
803.835999
21
1269.670044
31
481.104797
12
785.624023
22
1272.479004
32
484.104401
13
785.624023
23
1272.479004
33
484.104401
0
3DFACE
8
0
10
803.835999
20
1269.670044
30
481.104797
11
658.378113
21
211.457703
31
428.806213
12
812.993408
22
1268.251953
32
479.687012
13
812.993408
23
1268.251953
33
479.687012
0
3DFACE
8
0
10
812.993408
20
1268.251953
30
479.687012
11
658.378113
21
211.457703
31
428.806213
12
674.366516
22
208.980499
32
426.371490
13
674.366516
23
208.980499
33
426.371490
0
3DFACE
8
0
10
812.993408
20
1268.251953
30
479.687012
11
674.366516
21
208.980499
31
426.371490
12
826.796082
22
1266.104980
32
477.738495
13
826.796082
23
1266.104980
33
477.738495
0
3DFACE
8
0
10
826.796082
20
1266.104980
30
477.738495
11
674.366516
21
208.980499
31
426.371490
12
690.392883
22
206.489395
32
424.077515
13
690.392883
23
206.489395
33
424.077515
0
3DFACE
8
0
10
826.796082
20
1266.104980
30
477.738495
11
690.392883
21
206.489395
31
424.077515
12
703.265320
22
204.481903
32
422.357391
13
703.265320
23
204.481903
33
422.357391
0
3DFACE
8
0
10
826.796082
20
1266.104980
30
477.738495
11
703.265320
21
204.481903
31
422.357391
12
836.048828
22
1264.656982
32
476.594604
13
836.048828
23
1264.656982
33
476.594604
0
3DFACE
8
0
10
836.048828
20
1264.656982
30
476.594604
11
703.265320
21
204.481903
31
422.357391
12
715.441101
22
202.576508
32
420.849792
13
715.441101
23
202.576508
33
420.849792
0
3DFACE
8
0
10
836.048828
20
1264.656982
30
476.594604
11
715.441101
21
202.576508
31
420.849792
12
726.242371
22
200.880005
32
419.626312
13
726.242371
23
200.880005
33
419.626312
0
3DFACE
8
0
10
859.353271
20
1260.967041
30
474.514709
11
770.937317
21
193.787506
31
415.895203
12
865.319580
22
1260.008057
32
474.229004
13
865.319580
23
1260.008057
33
474.229004
0
3DFACE
8
0
10
865.319580
20
1260.008057
30
474.229004
11
770.937317
21
193.787506
31
415.895203
12
779.264526
22
192.449203
32
415.508606
13
779.264526
23
192.449203
33
415.508606
0
3DFACE
8
0
10
865.319580
20
1260.008057
30
474.229004
11
779.264526
21
192.449203
31
415.508606
12
786.783386
22
191.233795
32
415.289490
13
786.783386
23
191.233795
33
415.289490
0
3DFACE
8
0
10
807.369019
20
187.852493
30
415.673706
11
878.168579
21
1257.905029
31
474.328400
12
799.937988
22
189.082306
32
415.365601
13
799.937988
23
189.082306
33
415.365601
0
3DFACE
8
0
10
799.937988
20
189.082306
30
415.365601
11
878.168579
21
1257.905029
31
474.328400
12
875.494873
22
1258.348022
32
474.210999
13
875.494873
23
1258.348022
33
474.210999
0
3DFACE
8
0
10
799.937988
20
189.082306
30
415.365601
11
875.494873
21
1258.348022
31
474.210999
12
793.162415
22
190.195099
32
415.242401
13
793.162415
23
190.195099
33
415.242401
0
3DFACE
8
0
10
793.162415
20
190.195099
30
415.242401
11
875.494873
21
1258.348022
31
474.210999
12
870.497314
22
1259.168945
32
474.121796
13
870.497314
23
1259.168945
33
474.121796
0
3DFACE
8
0
10
793.162415
20
190.195099
30
415.242401
11
870.497314
21
1259.168945
31
474.121796
12
786.783386
22
191.233795
32
415.289490
13
786.783386
23
191.233795
33
415.289490
0
3DFACE
8
0
10
639.274780
20
214.409103
30
431.868103
11
658.378113
21
211.457703
31
428.806213
12
803.835999
22
1269.670044
32
481.104797
13
803.835999
23
1269.670044
33
481.104797
0
3DFACE
8
0
10
639.274780
20
214.409103
30
431.868103
11
803.835999
21
1269.670044
31
481.104797
12
632.685730
22
214.925797
32
432.916595
13
632.685730
23
214.925797
33
432.916595
0
3DFACE
8
0
10
639.274780
20
214.409103
30
431.868103
11
632.685730
21
214.925797
31
432.916595
12
639.195313
22
213.921494
32
431.845886
13
639.195313
23
213.921494
33
431.845886
0
3DFACE
8
0
10
849.958801
20
1262.496948
30
474.570099
11
737.022705
21
199.214798
31
417.892609
12
840.630615
22
1263.970947
32
475.462494
13
840.630615
23
1263.970947
33
475.462494
0
3DFACE
8
0
10
747.479370
20
197.560303
30
416.931213
11
737.022705
21
199.214798
31
417.892609
12
849.958801
22
1262.496948
32
474.570099
13
849.958801
23
1262.496948
33
474.570099
0
3DFACE
8
0
10
757.052185
20
196.039505
30
416.162109
11
747.479370
21
197.560303
31
416.931213
12
849.958801
22
1262.496948
32
474.570099
13
849.958801
23
1262.496948
33
474.570099
0
3DFACE
8
0
10
859.316223
20
1261.006958
30
473.892090
11
757.052185
21
196.039505
31
416.162109
12
849.958801
22
1262.496948
32
474.570099
13
849.958801
23
1262.496948
33
474.570099
0
3DFACE
8
0
10
865.285583
20
1260.047974
30
473.605988
11
783.293823
21
191.832993
31
414.748413
12
774.961914
22
193.175598
32
415.068115
13
774.961914
23
193.175598
33
415.068115
0
3DFACE
8
0
10
783.293823
20
191.832993
30
414.748413
11
865.285583
21
1260.047974
31
473.605988
12
870.473572
22
1259.207031
32
473.497711
13
870.473572
23
1259.207031
33
473.497711
0
3DFACE
8
0
10
790.280273
20
190.699402
30
414.621094
11
783.293823
21
191.832993
31
414.748413
12
870.473572
22
1259.207031
32
473.497711
13
870.473572
23
1259.207031
33
473.497711
0
3DFACE
8
0
10
796.056091
20
189.755096
30
414.648590
11
790.280273
21
190.699402
31
414.621094
12
870.473572
22
1259.207031
32
473.497711
13
870.473572
23
1259.207031
33
473.497711
0
3DFACE
8
0
10
875.506470
20
1258.380005
30
473.586700
11
796.056091
21
189.755096
31
414.648590
12
870.473572
22
1259.207031
32
473.497711
13
870.473572
23
1259.207031
33
473.497711
0
3DFACE
8
0
10
623.033386
20
216.442902
30
433.888794
11
613.423218
21
217.923904
31
435.497803
12
803.744873
22
1269.718018
32
480.488312
13
803.744873
23
1269.718018
33
480.488312
0
3DFACE
8
0
10
803.744873
20
1269.718018
30
480.488312
11
613.423218
21
217.923904
31
435.497803
12
785.528320
22
1272.527954
32
483.488708
13
785.528320
23
1272.527954
33
483.488708
0
3DFACE
8
0
10
714.924927
20
202.691696
30
420.283203
11
703.289490
21
204.512405
31
421.725800
12
831.346130
22
1265.428955
32
476.528687
13
831.346130
23
1265.428955
33
476.528687
0
3DFACE
8
0
10
831.346130
20
1265.428955
30
476.528687
11
703.289490
21
204.512405
31
421.725800
12
690.411499
22
206.520798
32
423.445801
13
690.411499
23
206.520798
33
423.445801
0
3DFACE
8
0
10
831.346130
20
1265.428955
30
476.528687
11
690.411499
21
206.520798
31
423.445801
12
822.107483
22
1266.870972
32
477.742493
13
822.107483
23
1266.870972
33
477.742493
0
3DFACE
8
0
10
822.107483
20
1266.870972
30
477.742493
11
690.411499
21
206.520798
31
423.445801
12
674.379272
22
209.012802
32
425.739685
13
674.379272
23
209.012802
33
425.739685
0
3DFACE
8
0
10
822.107483
20
1266.870972
30
477.742493
11
674.379272
21
209.012802
31
425.739685
12
812.905273
22
1268.300049
32
479.070007
13
812.905273
23
1268.300049
33
479.070007
0
3DFACE
8
0
10
812.905273
20
1268.300049
30
479.070007
11
674.379272
21
209.012802
31
425.739685
12
658.385681
22
211.490906
32
428.174286
13
658.385681
23
211.490906
33
428.174286
0
3DFACE
8
0
10
812.905273
20
1268.300049
30
479.070007
11
658.385681
21
211.490906
31
428.174286
12
803.744873
22
1269.718018
32
480.488312
13
803.744873
23
1269.718018
33
480.488312
0
3DFACE
8
0
10
737.022705
20
199.214798
30
417.892609
11
726.583313
21
200.860596
31
418.962585
12
840.630615
22
1263.970947
32
475.462494
13
840.630615
23
1263.970947
33
475.462494
0
3DFACE
8
0
10
840.630615
20
1263.970947
30
475.462494
11
726.583313
21
200.860596
31
418.962585
12
714.924927
22
202.691696
32
420.283203
13
714.924927
23
202.691696
33
420.283203
0
3DFACE
8
0
10
840.630615
20
1263.970947
30
475.462494
11
714.924927
21
202.691696
31
420.283203
12
831.346130
22
1265.428955
32
476.528687
13
831.346130
23
1265.428955
33
476.528687
0
3DFACE
8
0
10
757.052185
20
196.039505
30
416.162109
11
859.316223
21
1261.006958
31
473.892090
12
766.639282
22
194.509796
32
415.515808
13
766.639282
23
194.509796
33
415.515808
0
3DFACE
8
0
10
766.639282
20
194.509796
30
415.515808
11
859.316223
21
1261.006958
31
473.892090
12
865.285583
22
1260.047974
32
473.605988
13
865.285583
23
1260.047974
33
473.605988
0
3DFACE
8
0
10
766.639282
20
194.509796
30
415.515808
11
865.285583
21
1260.047974
31
473.605988
12
774.961914
22
193.175598
32
415.068115
13
774.961914
23
193.175598
33
415.068115
0
3DFACE
8
0
10
796.056091
20
189.755096
30
414.648590
11
875.506470
21
1258.380005
31
473.586700
12
803.843506
22
188.470993
32
414.885315
13
803.843506
23
188.470993
33
414.885315
0
3DFACE
8
0
10
803.843506
20
188.470993
30
414.885315
11
875.506470
21
1258.380005
31
473.586700
12
878.205017
22
1257.932983
32
473.705109
13
878.205017
23
1257.932983
33
473.705109
0
3DFACE
8
0
10
803.843506
20
188.470993
30
414.885315
11
878.205017
21
1257.932983
31
473.705109
12
807.405273
22
187.880600
32
415.050415
13
807.405273
23
187.880600
33
415.050415
0
3DFACE
8
0
10
639.278381
20
214.442993
30
431.236115
11
639.197876
21
213.949997
31
431.213715
12
623.033386
22
216.442902
32
433.888794
13
623.033386
23
216.442902
33
433.888794
0
3DFACE
8
0
10
639.278381
20
214.442993
30
431.236115
11
623.033386
21
216.442902
31
433.888794
12
803.744873
22
1269.718018
32
480.488312
13
803.744873
23
1269.718018
33
480.488312
0
3DFACE
8
0
10
639.278381
20
214.442993
30
431.236115
11
803.744873
21
1269.718018
31
480.488312
12
658.385681
22
211.490906
32
428.174286
13
658.385681
23
211.490906
33
428.174286
0
3DFACE
8
0
10
785.624023
20
1272.479004
30
484.104401
11
785.528320
21
1272.527954
31
483.488708
12
613.519775
22
217.880096
32
436.113708
13
613.519775
23
217.880096
33
436.113708
0
3DFACE
8
0
10
613.519775
20
217.880096
30
436.113708
11
785.528320
21
1272.527954
31
483.488708
12
613.423218
22
217.923904
32
435.497803
13
613.423218
23
217.923904
33
435.497803
0
3DFACE
8
0
10
785.704529
20
1272.972046
30
484.126892
11
785.705383
21
1272.978027
31
484.127106
12
785.608826
22
1273.020996
32
483.511200
13
785.608826
23
1273.020996
33
483.511200
0
3DFACE
8
0
10
878.281128
20
1258.461060
30
473.109589
11
878.281372
21
1258.464966
31
473.109802
12
878.237976
22
1258.433960
32
473.732513
13
878.237976
23
1258.433960
33
473.732513
0
3DFACE
8
0
10
807.448425
20
187.907501
30
414.427490
11
878.247986
21
1257.959961
31
473.082092
12
807.405273
22
187.880600
32
415.050415
13
807.405273
23
187.880600
33
415.050415
0
3DFACE
8
0
10
807.405273
20
187.880600
30
415.050415
11
878.247986
21
1257.959961
31
473.082092
12
878.205017
22
1257.932983
32
473.705109
13
878.205017
23
1257.932983
33
473.705109
0
3DFACE
8
0
10
878.281372
20
1258.464966
30
473.109802
11
877.788513
21
1258.542969
31
473.077515
12
877.788879
22
1258.547974
32
473.077789
13
877.788879
23
1258.547974
33
473.077789
0
3DFACE
8
0
10
878.281372
20
1258.464966
30
473.109802
11
878.281128
21
1258.461060
31
473.109589
12
877.788513
22
1258.542969
32
473.077515
13
877.788513
23
1258.542969
33
473.077515
0
3DFACE
8
0
10
785.710815
20
1273.781006
30
469.277313
11
790.825989
21
1272.939941
31
469.446106
12
791.609070
22
1272.807007
32
469.471802
13
791.609070
23
1272.807007
33
469.471802
0
3DFACE
8
0
10
785.710815
20
1273.781006
30
469.277313
11
785.711304
21
1273.784058
31
469.277405
12
790.825989
22
1272.939941
32
469.446106
13
790.825989
23
1272.939941
33
469.446106
0
3DFACE
8
0
10
877.297913
20
1258.630005
30
473.042297
11
877.788879
21
1258.547974
31
473.077789
12
877.788513
22
1258.542969
32
473.077515
13
877.788513
23
1258.542969
33
473.077515
0
3DFACE
8
0
10
877.788513
20
1258.542969
30
473.077515
11
877.295898
21
1258.625000
31
473.041901
12
877.297913
22
1258.630005
32
473.042297
13
877.297913
23
1258.630005
33
473.042297
0
3DFACE
8
0
10
876.806030
20
1258.713013
30
473.003815
11
877.297913
21
1258.630005
31
473.042297
12
877.295898
22
1258.625000
32
473.041901
13
877.295898
23
1258.625000
33
473.041901
0
3DFACE
8
0
10
877.295898
20
1258.625000
30
473.041901
11
876.802673
21
1258.708008
31
473.003204
12
876.806030
22
1258.713013
32
473.003815
13
876.806030
23
1258.713013
33
473.003815
0
3DFACE
8
0
10
876.806030
20
1258.713013
30
473.003815
11
876.802673
21
1258.708008
31
473.003204
12
876.308716
22
1258.791016
32
472.962494
13
876.308716
23
1258.791016
33
472.962494
0
3DFACE
8
0
10
876.806030
20
1258.713013
30
473.003815
11
876.308716
21
1258.791016
31
472.962494
12
875.319580
22
1258.963013
32
472.878906
13
875.319580
23
1258.963013
33
472.878906
0
3DFACE
8
0
10
875.319580
20
1258.963013
30
472.878906
11
876.308716
21
1258.791016
31
472.962494
12
875.318787
22
1258.957031
32
472.878601
13
875.318787
23
1258.957031
33
472.878601
0
3DFACE
8
0
10
875.319580
20
1258.963013
30
472.878906
11
875.318787
21
1258.957031
31
472.878601
12
874.327576
22
1259.123047
32
472.795105
13
874.327576
23
1259.123047
33
472.795105
0
3DFACE
8
0
10
875.319580
20
1258.963013
30
472.878906
11
874.327576
21
1259.123047
31
472.795105
12
874.321777
22
1259.130005
32
472.794891
13
874.321777
23
1259.130005
33
472.794891
0
3DFACE
8
0
10
874.321777
20
1259.130005
30
472.794891
11
874.327576
21
1259.123047
31
472.795105
12
873.336121
22
1259.290039
32
472.713898
13
873.336121
23
1259.290039
33
472.713898
0
3DFACE
8
0
10
874.321777
20
1259.130005
30
472.794891
11
873.336121
21
1259.290039
31
472.713898
12
872.811523
22
1259.383057
32
472.672394
13
872.811523
23
1259.383057
33
472.672394
0
3DFACE
8
0
10
873.336121
20
1259.290039
30
472.713898
11
872.344116
21
1259.456055
31
472.635712
12
872.811523
22
1259.383057
32
472.672394
13
872.811523
23
1259.383057
33
472.672394
0
3DFACE
8
0
10
871.689270
20
1259.571045
30
472.586304
11
872.811523
21
1259.383057
31
472.672394
12
872.344116
22
1259.456055
32
472.635712
13
872.344116
23
1259.456055
33
472.635712
0
3DFACE
8
0
10
872.344116
20
1259.456055
30
472.635712
11
871.351807
21
1259.621948
31
472.561188
12
871.689270
22
1259.571045
32
472.586304
13
871.689270
23
1259.571045
33
472.586304
0
3DFACE
8
0
10
870.570374
20
1259.756958
30
472.505798
11
871.689270
21
1259.571045
31
472.586304
12
871.351807
22
1259.621948
32
472.561188
13
871.351807
23
1259.621948
33
472.561188
0
3DFACE
8
0
10
871.351807
20
1259.621948
30
472.561188
11
870.359192
21
1259.787964
31
472.490906
12
870.570374
22
1259.756958
32
472.505798
13
870.570374
23
1259.756958
33
472.505798
0
3DFACE
8
0
10
869.825806
20
1259.880981
30
472.455292
11
870.570374
21
1259.756958
31
472.505798
12
870.359192
22
1259.787964
32
472.490906
13
870.359192
23
1259.787964
33
472.490906
0
3DFACE
8
0
10
870.359192
20
1259.787964
30
472.490906
11
869.351685
21
1259.956055
31
472.424286
12
869.825806
22
1259.880981
32
472.455292
13
869.825806
23
1259.880981
33
472.455292
0
3DFACE
8
0
10
869.825806
20
1259.880981
30
472.455292
11
869.351685
21
1259.956055
31
472.424286
12
869.081421
22
1260.005005
32
472.407288
13
869.081421
23
1260.005005
33
472.407288
0
3DFACE
8
0
10
869.081421
20
1260.005005
30
472.407288
11
869.351685
21
1259.956055
31
472.424286
12
868.344421
22
1260.124023
32
472.362000
13
868.344421
23
1260.124023
33
472.362000
0
3DFACE
8
0
10
869.081421
20
1260.005005
30
472.407288
11
868.344421
21
1260.124023
31
472.362000
12
868.336609
22
1260.129028
32
472.361694
13
868.336609
23
1260.129028
33
472.361694
0
3DFACE
8
0
10
868.336609
20
1260.129028
30
472.361694
11
868.344421
21
1260.124023
31
472.362000
12
867.337280
22
1260.291016
32
472.303497
13
867.337280
23
1260.291016
33
472.303497
0
3DFACE
8
0
10
868.336609
20
1260.129028
30
472.361694
11
867.337280
21
1260.291016
31
472.303497
12
867.336609
22
1260.296021
32
472.303711
13
867.336609
23
1260.296021
33
472.303711
0
3DFACE
8
0
10
866.337280
20
1260.462036
30
472.248688
11
867.336609
21
1260.296021
31
472.303711
12
867.337280
22
1260.291016
32
472.303497
13
867.337280
23
1260.291016
33
472.303497
0
3DFACE
8
0
10
867.337280
20
1260.291016
30
472.303497
11
866.330811
21
1260.458984
31
472.248199
12
866.337280
22
1260.462036
32
472.248688
13
866.337280
23
1260.462036
33
472.248688
0
3DFACE
8
0
10
865.338928
20
1260.626953
30
472.196106
11
866.337280
21
1260.462036
31
472.248688
12
866.330811
22
1260.458984
32
472.248199
13
866.330811
23
1260.458984
33
472.248199
0
3DFACE
8
0
10
866.330811
20
1260.458984
30
472.248199
11
865.324707
21
1260.625977
31
472.195190
12
865.338928
22
1260.626953
32
472.196106
13
865.338928
23
1260.626953
33
472.196106
0
3DFACE
8
0
10
864.340576
20
1260.792969
30
472.145386
11
865.338928
21
1260.626953
31
472.196106
12
865.324707
22
1260.625977
32
472.195190
13
865.324707
23
1260.625977
33
472.195190
0
3DFACE
8
0
10
865.324707
20
1260.625977
30
472.195190
11
864.318970
21
1260.792969
31
472.144104
12
864.340576
22
1260.792969
32
472.145386
13
864.340576
23
1260.792969
33
472.145386
0
3DFACE
8
0
10
862.344788
20
1261.124023
30
472.048187
11
864.340576
21
1260.792969
31
472.145386
12
864.318970
22
1260.792969
32
472.144104
13
864.318970
23
1260.792969
33
472.144104
0
3DFACE
8
0
10
864.318970
20
1260.792969
30
472.144104
11
862.308411
21
1261.125977
31
472.046204
12
862.344788
22
1261.124023
32
472.048187
13
862.344788
23
1261.124023
33
472.048187
0
3DFACE
8
0
10
860.349182
20
1261.454956
30
471.955505
11
862.344788
21
1261.124023
31
472.048187
12
862.308411
22
1261.125977
32
472.046204
13
862.308411
23
1261.125977
33
472.046204
0
3DFACE
8
0
10
862.308411
20
1261.125977
30
472.046204
11
859.970215
21
1261.514038
31
471.938110
12
860.349182
22
1261.454956
32
471.955505
13
860.349182
23
1261.454956
33
471.955505
0
3DFACE
8
0
10
857.934326
20
1261.854980
30
471.848206
11
860.349182
21
1261.454956
31
471.955505
12
859.970215
22
1261.514038
32
471.938110
13
859.970215
23
1261.514038
33
471.938110
0
3DFACE
8
0
10
859.970215
20
1261.514038
30
471.938110
11
857.633484
21
1261.901001
31
471.834991
12
857.934326
22
1261.854980
32
471.848206
13
857.934326
23
1261.854980
33
471.848206
0
3DFACE
8
0
10
855.516113
20
1262.255005
30
471.745087
11
857.934326
21
1261.854980
31
471.848206
12
857.633484
22
1261.901001
32
471.834991
13
857.633484
23
1261.901001
33
471.834991
0
3DFACE
8
0
10
857.633484
20
1261.901001
30
471.834991
11
855.298218
21
1262.286987
31
471.735901
12
855.516113
22
1262.255005
32
471.745087
13
855.516113
23
1262.255005
33
471.745087
0
3DFACE
8
0
10
853.096619
20
1262.655029
30
471.645386
11
855.516113
21
1262.255005
31
471.745087
12
855.298218
22
1262.286987
32
471.735901
13
855.298218
23
1262.286987
33
471.735901
0
3DFACE
8
0
10
855.298218
20
1262.286987
30
471.735901
11
852.964478
21
1262.673950
31
471.639893
12
853.096619
22
1262.655029
32
471.645386
13
853.096619
23
1262.655029
33
471.645386
0
3DFACE
8
0
10
850.678406
20
1263.055054
30
471.548492
11
853.096619
21
1262.655029
31
471.645386
12
852.964478
22
1262.673950
32
471.639893
13
852.964478
23
1262.673950
33
471.639893
0
3DFACE
8
0
10
852.964478
20
1262.673950
30
471.639893
11
850.632324
21
1263.058960
31
471.546509
12
850.678406
22
1263.055054
32
471.548492
13
850.678406
23
1263.055054
33
471.548492
0
3DFACE
8
0
10
850.678406
20
1263.055054
30
471.548492
11
850.632324
21
1263.058960
31
471.546509
12
848.304504
22
1263.443970
32
471.455414
13
848.304504
23
1263.443970
33
471.455414
0
3DFACE
8
0
10
850.678406
20
1263.055054
30
471.548492
11
848.304504
21
1263.443970
31
471.455414
12
848.258911
22
1263.454956
32
471.453796
13
848.258911
23
1263.454956
33
471.453796
0
3DFACE
8
0
10
848.258911
20
1263.454956
30
471.453796
11
848.304504
21
1263.443970
31
471.455414
12
843.650513
22
1264.213989
32
471.278198
13
843.650513
23
1264.213989
33
471.278198
0
3DFACE
8
0
10
848.258911
20
1263.454956
30
471.453796
11
843.650513
21
1264.213989
31
471.278198
12
843.441589
22
1264.251953
32
471.270599
13
843.441589
23
1264.251953
33
471.270599
0
3DFACE
8
0
10
841.042480
20
1264.647949
30
471.181396
11
843.441589
21
1264.251953
31
471.270599
12
843.650513
22
1264.213989
32
471.278198
13
843.650513
23
1264.213989
33
471.278198
0
3DFACE
8
0
10
843.650513
20
1264.213989
30
471.278198
11
839.005188
21
1264.980957
31
471.106293
12
841.042480
22
1264.647949
32
471.181396
13
841.042480
23
1264.647949
33
471.181396
0
3DFACE
8
0
10
836.336426
20
1265.426025
30
471.009399
11
841.042480
21
1264.647949
31
471.181396
12
839.005188
22
1264.980957
32
471.106293
13
839.005188
23
1264.980957
33
471.106293
0
3DFACE
8
0
10
839.005188
20
1264.980957
30
471.106293
11
834.366028
21
1265.748047
31
470.938110
12
836.336426
22
1265.426025
32
471.009399
13
836.336426
23
1265.426025
33
471.009399
0
3DFACE
8
0
10
831.693970
20
1266.192993
30
470.842712
11
836.336426
21
1265.426025
31
471.009399
12
834.366028
22
1265.748047
32
470.938110
13
834.366028
23
1265.748047
33
470.938110
0
3DFACE
8
0
10
834.366028
20
1265.748047
30
470.938110
11
829.735229
21
1266.512939
31
470.773010
12
831.693970
22
1266.192993
32
470.842712
13
831.693970
23
1266.192993
33
470.842712
0
3DFACE
8
0
10
827.168579
20
1266.939941
30
470.682587
11
831.693970
21
1266.192993
31
470.842712
12
829.735229
22
1266.512939
32
470.773010
13
829.735229
23
1266.512939
33
470.773010
0
3DFACE
8
0
10
829.735229
20
1266.512939
30
470.773010
11
825.110474
21
1267.276978
31
470.610291
12
827.168579
22
1266.939941
32
470.682587
13
827.168579
23
1266.939941
33
470.682587
0
3DFACE
8
0
10
817.946106
20
1268.463013
30
470.362000
11
827.168579
21
1266.939941
31
470.682587
12
825.110474
22
1267.276978
32
470.610291
13
825.110474
23
1267.276978
33
470.610291
0
3DFACE
8
0
10
825.110474
20
1267.276978
30
470.610291
11
815.883972
21
1268.800049
31
470.290894
12
817.946106
22
1268.463013
32
470.362000
13
817.946106
23
1268.463013
33
470.362000
0
3DFACE
8
0
10
813.260620
20
1269.235962
30
470.200989
11
817.946106
21
1268.463013
31
470.362000
12
815.883972
22
1268.800049
32
470.290894
13
815.883972
23
1268.800049
33
470.290894
0
3DFACE
8
0
10
815.883972
20
1268.800049
30
470.290894
11
806.688782
21
1270.317993
31
469.976807
12
813.260620
22
1269.235962
32
470.200989
13
813.260620
23
1269.235962
33
470.200989
0
3DFACE
8
0
10
800.010925
20
1271.423950
30
469.751709
11
813.260620
21
1269.235962
31
470.200989
12
806.688782
22
1270.317993
32
469.976807
13
806.688782
23
1270.317993
33
469.976807
0
3DFACE
8
0
10
806.688782
20
1270.317993
30
469.976807
11
797.517273
21
1271.832031
31
469.668091
12
800.010925
22
1271.423950
32
469.751709
13
800.010925
23
1271.423950
33
469.751709
0
3DFACE
8
0
10
800.010925
20
1271.423950
30
469.751709
11
797.517273
21
1271.832031
31
469.668091
12
791.609070
22
1272.807007
32
469.471802
13
791.609070
23
1272.807007
33
469.471802
0
3DFACE
8
0
10
800.010925
20
1271.423950
30
469.751709
11
791.609070
21
1272.807007
31
469.471802
12
790.825989
22
1272.939941
32
469.446106
13
790.825989
23
1272.939941
33
469.446106
0
3DFACE
8
0
10
878.247986
20
1257.959961
30
473.082092
11
807.448425
21
187.907501
31
414.427490
12
801.733276
22
188.864502
32
413.985413
13
801.733276
23
188.864502
33
413.985413
0
3DFACE
8
0
10
864.281616
20
1260.292969
30
472.116302
11
791.319824
21
190.609207
31
413.163910
12
782.793213
22
192.029404
32
412.643799
13
782.793213
23
192.029404
33
412.643799
0
3DFACE
8
0
10
852.921570
20
1262.175049
30
471.611786
11
754.605713
21
196.700897
31
411.357300
12
725.374573
22
201.533493
32
410.239502
13
725.374573
23
201.533493
33
410.239502
0
3DFACE
8
0
10
852.921570
20
1262.175049
30
471.611786
11
725.374573
21
201.533493
31
410.239502
12
829.680481
22
1266.015991
32
470.744507
13
829.680481
23
1266.015991
33
470.744507
0
3DFACE
8
0
10
829.680481
20
1266.015991
30
470.744507
11
725.374573
21
201.533493
31
410.239502
12
676.949524
22
209.531403
32
408.531403
13
676.949524
23
209.531403
33
408.531403
0
3DFACE
8
0
10
791.319824
20
190.609207
30
413.163910
11
864.281616
21
1260.292969
31
472.116302
12
801.733276
22
188.864502
32
413.985413
13
801.733276
23
188.864502
33
413.985413
0
3DFACE
8
0
10
801.733276
20
188.864502
30
413.985413
11
864.281616
21
1260.292969
31
472.116302
12
874.293518
22
1258.623047
32
472.767609
13
874.293518
23
1258.623047
33
472.767609
0
3DFACE
8
0
10
801.733276
20
188.864502
30
413.985413
11
874.293518
21
1258.623047
31
472.767609
12
878.247986
22
1257.959961
32
473.082092
13
878.247986
23
1257.959961
33
473.082092
0
3DFACE
8
0
10
754.605713
20
196.700897
30
411.357300
11
852.921570
21
1262.175049
31
471.611786
12
771.511719
22
193.901505
32
412.084595
13
771.511719
23
193.901505
33
412.084595
0
3DFACE
8
0
10
771.511719
20
193.901505
30
412.084595
11
852.921570
21
1262.175049
31
471.611786
12
864.281616
22
1260.292969
32
472.116302
13
864.281616
23
1260.292969
33
472.116302
0
3DFACE
8
0
10
771.511719
20
193.901505
30
412.084595
11
864.281616
21
1260.292969
31
472.116302
12
782.793213
22
192.029404
32
412.643799
13
782.793213
23
192.029404
33
412.643799
0
3DFACE
8
0
10
785.630371
20
1273.287964
30
469.247894
11
829.680481
21
1266.015991
31
470.744507
12
676.949524
22
209.531403
32
408.531403
13
676.949524
23
209.531403
33
408.531403
0
3DFACE
8
0
10
785.630371
20
1273.287964
30
469.247894
11
676.949524
21
209.531403
31
408.531403
12
639.413391
22
215.728302
32
407.257996
13
639.413391
23
215.728302
33
407.257996
0
3DFACE
8
0
10
785.630371
20
1273.287964
30
469.247894
11
639.413391
21
215.728302
31
407.257996
12
639.333374
22
215.238800
32
407.228790
13
639.333374
23
215.238800
33
407.228790
0
3DFACE
8
0
10
785.630371
20
1273.287964
30
469.247894
11
639.333374
21
215.238800
31
407.228790
12
613.609619
22
219.484299
32
406.377014
13
613.609619
23
219.484299
33
406.377014
0
3DFACE
8
0
10
801.683228
20
188.838699
30
414.608002
11
807.405273
21
187.880600
31
415.050415
12
878.205017
22
1257.932983
32
473.705109
13
878.205017
23
1257.932983
33
473.705109
0
3DFACE
8
0
10
782.715210
20
192.008301
30
413.264893
11
791.254028
21
190.586105
31
413.785309
12
864.265625
22
1260.260986
32
472.740692
13
864.265625
23
1260.260986
33
472.740692
0
3DFACE
8
0
10
725.270630
20
201.516602
30
410.860413
11
754.498291
21
196.684601
31
411.977814
12
852.910583
22
1262.141968
32
472.236206
13
852.910583
23
1262.141968
33
472.236206
0
3DFACE
8
0
10
829.672791
20
1265.983032
30
471.368896
11
725.270630
21
201.516602
31
410.860413
12
852.910583
22
1262.141968
32
472.236206
13
852.910583
23
1262.141968
33
472.236206
0
3DFACE
8
0
10
676.847717
20
209.514206
30
409.152496
11
725.270630
21
201.516602
31
410.860413
12
829.672791
22
1265.983032
32
471.368896
13
829.672791
23
1265.983032
33
471.368896
0
3DFACE
8
0
10
878.205017
20
1257.932983
30
473.705109
11
874.251282
21
1258.595947
31
473.390686
12
801.683228
22
188.838699
32
414.608002
13
801.683228
23
188.838699
33
414.608002
0
3DFACE
8
0
10
801.683228
20
188.838699
30
414.608002
11
874.251282
21
1258.595947
31
473.390686
12
864.265625
22
1260.260986
32
472.740692
13
864.265625
23
1260.260986
33
472.740692
0
3DFACE
8
0
10
801.683228
20
188.838699
30
414.608002
11
864.265625
21
1260.260986
31
472.740692
12
791.254028
22
190.586105
32
413.785309
13
791.254028
23
190.586105
33
413.785309
0
3DFACE
8
0
10
782.715210
20
192.008301
30
413.264893
11
864.265625
21
1260.260986
31
472.740692
12
771.422791
22
193.882095
32
412.705505
13
771.422791
23
193.882095
33
412.705505
0
3DFACE
8
0
10
771.422791
20
193.882095
30
412.705505
11
864.265625
21
1260.260986
31
472.740692
12
852.910583
22
1262.141968
32
472.236206
13
852.910583
23
1262.141968
33
472.236206
0
3DFACE
8
0
10
771.422791
20
193.882095
30
412.705505
11
852.910583
21
1262.141968
31
472.236206
12
754.498291
22
196.684601
32
411.977814
13
754.498291
23
196.684601
33
411.977814
0
3DFACE
8
0
10
785.604980
20
1273.258057
30
469.871613
11
613.583618
21
219.451401
31
407.000610
12
639.329407
22
215.202194
32
407.853088
13
639.329407
23
215.202194
33
407.853088
0
3DFACE
8
0
10
785.604980
20
1273.258057
30
469.871613
11
639.329407
21
215.202194
31
407.853088
12
639.409912
22
215.694794
32
407.882507
13
639.409912
23
215.694794
33
407.882507
0
3DFACE
8
0
10
785.604980
20
1273.258057
30
469.871613
11
639.409912
21
215.694794
31
407.882507
12
676.847717
22
209.514206
32
409.152496
13
676.847717
23
209.514206
33
409.152496
0
3DFACE
8
0
10
785.604980
20
1273.258057
30
469.871613
11
676.847717
21
209.514206
31
409.152496
12
829.672791
22
1265.983032
32
471.368896
13
829.672791
23
1265.983032
33
471.368896
0
3DFACE
8
0
10
785.685425
20
1273.750977
30
469.901001
11
785.711304
21
1273.784058
31
469.277405
12
785.710815
22
1273.781006
32
469.277313
13
785.710815
23
1273.781006
33
469.277313
0
3DFACE
8
0
10
613.609619
20
219.484299
30
406.377014
11
613.583618
21
219.451401
31
407.000610
12
785.630371
22
1273.287964
32
469.247894
13
785.630371
23
1273.287964
33
469.247894
0
3DFACE
8
0
10
785.630371
20
1273.287964
30
469.247894
11
613.583618
21
219.451401
31
407.000610
12
785.604980
22
1273.258057
32
469.871613
13
785.604980
23
1273.258057
33
469.871613
0
3DFACE
8
0
10
878.237976
20
1258.433960
30
473.732513
11
878.232422
21
1258.435059
31
473.732086
12
874.976807
22
1258.979980
32
473.476288
13
874.976807
23
1258.979980
33
473.476288
0
3DFACE
8
0
10
785.685425
20
1273.750977
30
469.901001
11
785.710815
21
1273.781006
31
469.277313
12
815.876892
22
1268.766968
32
470.915314
13
815.876892
23
1268.766968
33
470.915314
0
3DFACE
8
0
10
815.876892
20
1268.766968
30
470.915314
11
825.110474
21
1267.276978
31
470.610291
12
829.735229
22
1266.512939
32
470.773010
13
829.735229
23
1266.512939
33
470.773010
0
3DFACE
8
0
10
815.876892
20
1268.766968
30
470.915314
11
829.735229
21
1266.512939
31
470.773010
12
839.078613
22
1264.935059
32
471.733704
13
839.078613
23
1264.935059
33
471.733704
0
3DFACE
8
0
10
839.078613
20
1264.935059
30
471.733704
11
850.632324
21
1263.058960
31
471.546509
12
852.964478
22
1262.673950
32
471.639893
13
852.964478
23
1262.673950
33
471.639893
0
3DFACE
8
0
10
839.078613
20
1264.935059
30
471.733704
11
852.964478
21
1262.673950
31
471.639893
12
855.272888
22
1262.258057
32
472.359711
13
855.272888
23
1262.258057
33
472.359711
0
3DFACE
8
0
10
855.272888
20
1262.258057
30
472.359711
11
862.308411
21
1261.125977
31
472.046204
12
864.318970
22
1260.792969
32
472.144104
13
864.318970
23
1260.792969
33
472.144104
0
3DFACE
8
0
10
855.272888
20
1262.258057
30
472.359711
11
864.318970
21
1260.792969
31
472.144104
12
865.040527
22
1260.639038
32
472.805786
13
865.040527
23
1260.639038
33
472.805786
0
3DFACE
8
0
10
865.040527
20
1260.639038
30
472.805786
11
873.336121
21
1259.290039
31
472.713898
12
874.327576
22
1259.123047
32
472.795105
13
874.327576
23
1259.123047
33
472.795105
0
3DFACE
8
0
10
865.040527
20
1260.639038
30
472.805786
11
874.327576
21
1259.123047
31
472.795105
12
874.976807
22
1258.979980
32
473.476288
13
874.976807
23
1258.979980
33
473.476288
0
3DFACE
8
0
10
874.976807
20
1258.979980
30
473.476288
11
877.788513
21
1258.542969
31
473.077515
12
878.281128
22
1258.461060
32
473.109589
13
878.281128
23
1258.461060
33
473.109589
0
3DFACE
8
0
10
874.976807
20
1258.979980
30
473.476288
11
878.281128
21
1258.461060
31
473.109589
12
878.237976
22
1258.433960
32
473.732513
13
878.237976
23
1258.433960
33
473.732513
0
3DFACE
8
0
10
874.976807
20
1258.979980
30
473.476288
11
877.295898
21
1258.625000
31
473.041901
12
877.788513
22
1258.542969
32
473.077515
13
877.788513
23
1258.542969
33
473.077515
0
3DFACE
8
0
10
874.976807
20
1258.979980
30
473.476288
11
876.802673
21
1258.708008
31
473.003204
12
877.295898
22
1258.625000
32
473.041901
13
877.295898
23
1258.625000
33
473.041901
0
3DFACE
8
0
10
874.976807
20
1258.979980
30
473.476288
11
876.308716
21
1258.791016
31
472.962494
12
876.802673
22
1258.708008
32
473.003204
13
876.802673
23
1258.708008
33
473.003204
0
3DFACE
8
0
10
874.976807
20
1258.979980
30
473.476288
11
875.318787
21
1258.957031
31
472.878601
12
876.308716
22
1258.791016
32
472.962494
13
876.308716
23
1258.791016
33
472.962494
0
3DFACE
8
0
10
874.976807
20
1258.979980
30
473.476288
11
874.327576
21
1259.123047
31
472.795105
12
875.318787
22
1258.957031
32
472.878601
13
875.318787
23
1258.957031
33
472.878601
0
3DFACE
8
0
10
865.040527
20
1260.639038
30
472.805786
11
872.344116
21
1259.456055
31
472.635712
12
873.336121
22
1259.290039
32
472.713898
13
873.336121
23
1259.290039
33
472.713898
0
3DFACE
8
0
10
865.040527
20
1260.639038
30
472.805786
11
871.351807
21
1259.621948
31
472.561188
12
872.344116
22
1259.456055
32
472.635712
13
872.344116
23
1259.456055
33
472.635712
0
3DFACE
8
0
10
865.040527
20
1260.639038
30
472.805786
11
870.359192
21
1259.787964
31
472.490906
12
871.351807
22
1259.621948
32
472.561188
13
871.351807
23
1259.621948
33
472.561188
0
3DFACE
8
0
10
865.040527
20
1260.639038
30
472.805786
11
869.351685
21
1259.956055
31
472.424286
12
870.359192
22
1259.787964
32
472.490906
13
870.359192
23
1259.787964
33
472.490906
0
3DFACE
8
0
10
865.040527
20
1260.639038
30
472.805786
11
868.344421
21
1260.124023
31
472.362000
12
869.351685
22
1259.956055
32
472.424286
13
869.351685
23
1259.956055
33
472.424286
0
3DFACE
8
0
10
865.040527
20
1260.639038
30
472.805786
11
867.337280
21
1260.291016
31
472.303497
12
868.344421
22
1260.124023
32
472.362000
13
868.344421
23
1260.124023
33
472.362000
0
3DFACE
8
0
10
865.040527
20
1260.639038
30
472.805786
11
866.330811
21
1260.458984
31
472.248199
12
867.337280
22
1260.291016
32
472.303497
13
867.337280
23
1260.291016
33
472.303497
0
3DFACE
8
0
10
865.040527
20
1260.639038
30
472.805786
11
865.324707
21
1260.625977
31
472.195190
12
866.330811
22
1260.458984
32
472.248199
13
866.330811
23
1260.458984
33
472.248199
0
3DFACE
8
0
10
865.040527
20
1260.639038
30
472.805786
11
864.318970
21
1260.792969
31
472.144104
12
865.324707
22
1260.625977
32
472.195190
13
865.324707
23
1260.625977
33
472.195190
0
3DFACE
8
0
10
855.272888
20
1262.258057
30
472.359711
11
859.970215
21
1261.514038
31
471.938110
12
862.308411
22
1261.125977
32
472.046204
13
862.308411
23
1261.125977
33
472.046204
0
3DFACE
8
0
10
855.272888
20
1262.258057
30
472.359711
11
857.633484
21
1261.901001
31
471.834991
12
859.970215
22
1261.514038
32
471.938110
13
859.970215
23
1261.514038
33
471.938110
0
3DFACE
8
0
10
855.272888
20
1262.258057
30
472.359711
11
855.298218
21
1262.286987
31
471.735901
12
857.633484
22
1261.901001
32
471.834991
13
857.633484
23
1261.901001
33
471.834991
0
3DFACE
8
0
10
855.272888
20
1262.258057
30
472.359711
11
852.964478
21
1262.673950
31
471.639893
12
855.298218
22
1262.286987
32
471.735901
13
855.298218
23
1262.286987
33
471.735901
0
3DFACE
8
0
10
839.078613
20
1264.935059
30
471.733704
11
848.304504
21
1263.443970
31
471.455414
12
850.632324
22
1263.058960
32
471.546509
13
850.632324
23
1263.058960
33
471.546509
0
3DFACE
8
0
10
839.078613
20
1264.935059
30
471.733704
11
843.650513
21
1264.213989
31
471.278198
12
848.304504
22
1263.443970
32
471.455414
13
848.304504
23
1263.443970
33
471.455414
0
3DFACE
8
0
10
839.078613
20
1264.935059
30
471.733704
11
839.005188
21
1264.980957
31
471.106293
12
843.650513
22
1264.213989
32
471.278198
13
843.650513
23
1264.213989
33
471.278198
0
3DFACE
8
0
10
839.078613
20
1264.935059
30
471.733704
11
834.366028
21
1265.748047
31
470.938110
12
839.005188
22
1264.980957
32
471.106293
13
839.005188
23
1264.980957
33
471.106293
0
3DFACE
8
0
10
839.078613
20
1264.935059
30
471.733704
11
829.735229
21
1266.512939
31
470.773010
12
834.366028
22
1265.748047
32
470.938110
13
834.366028
23
1265.748047
33
470.938110
0
3DFACE
8
0
10
815.876892
20
1268.766968
30
470.915314
11
815.883972
21
1268.800049
31
470.290894
12
825.110474
22
1267.276978
32
470.610291
13
825.110474
23
1267.276978
33
470.610291
0
3DFACE
8
0
10
815.876892
20
1268.766968
30
470.915314
11
806.688782
21
1270.317993
31
469.976807
12
815.883972
22
1268.800049
32
470.290894
13
815.883972
23
1268.800049
33
470.290894
0
3DFACE
8
0
10
815.876892
20
1268.766968
30
470.915314
11
797.517273
21
1271.832031
31
469.668091
12
806.688782
22
1270.317993
32
469.976807
13
806.688782
23
1270.317993
33
469.976807
0
3DFACE
8
0
10
815.876892
20
1268.766968
30
470.915314
11
791.609070
21
1272.807007
31
469.471802
12
797.517273
22
1271.832031
32
469.668091
13
797.517273
23
1271.832031
33
469.668091
0
3DFACE
8
0
10
815.876892
20
1268.766968
30
470.915314
11
785.710815
21
1273.781006
31
469.277313
12
791.609070
22
1272.807007
32
469.471802
13
791.609070
23
1272.807007
33
469.471802
0
3DFACE
8
0
10
868.811096
20
1259.983032
30
473.541290
11
862.476929
21
1261.005981
31
473.753387
12
865.327576
22
1260.546997
32
473.633392
13
865.327576
23
1260.546997
33
473.633392
0
3DFACE
8
0
10
785.704529
20
1272.972046
30
484.126892
11
785.608826
21
1273.020996
31
483.511200
12
803.907227
22
1270.163940
32
481.128693
13
803.907227
23
1270.163940
33
481.128693
0
3DFACE
8
0
10
803.907227
20
1270.163940
30
481.128693
11
785.608826
21
1273.020996
31
483.511200
12
791.750000
22
1272.074951
32
482.484100
13
791.750000
23
1272.074951
33
482.484100
0
3DFACE
8
0
10
803.907227
20
1270.163940
30
481.128693
11
791.750000
21
1272.074951
31
482.484100
12
803.815979
22
1270.213013
32
480.512299
13
803.815979
23
1270.213013
33
480.512299
0
3DFACE
8
0
10
803.907227
20
1270.163940
30
481.128693
11
803.815979
21
1270.213013
31
480.512299
12
813.059875
22
1268.746948
32
479.711609
13
813.059875
23
1268.746948
33
479.711609
0
3DFACE
8
0
10
813.059875
20
1268.746948
30
479.711609
11
803.815979
21
1270.213013
31
480.512299
12
812.971802
22
1268.796021
32
479.094696
13
812.971802
23
1268.796021
33
479.094696
0
3DFACE
8
0
10
813.059875
20
1268.746948
30
479.711609
11
812.971802
21
1268.796021
31
479.094696
12
826.855530
22
1266.602051
32
477.764191
13
826.855530
23
1266.602051
33
477.764191
0
3DFACE
8
0
10
826.855530
20
1266.602051
30
477.764191
11
812.971802
21
1268.796021
31
479.094696
12
822.640320
22
1267.292969
32
477.702911
13
822.640320
23
1267.292969
33
477.702911
0
3DFACE
8
0
10
826.855530
20
1266.602051
30
477.764191
11
822.640320
21
1267.292969
31
477.702911
12
836.103516
22
1265.154053
32
476.620911
13
836.103516
23
1265.154053
33
476.620911
0
3DFACE
8
0
10
836.103516
20
1265.154053
30
476.620911
11
822.640320
21
1267.292969
31
477.702911
12
828.905396
22
1266.316040
32
476.869385
13
828.905396
23
1266.316040
33
476.869385
0
3DFACE
8
0
10
836.103516
20
1265.154053
30
476.620911
11
828.905396
21
1266.316040
31
476.869385
12
845.393982
22
1263.691040
32
475.641510
13
845.393982
23
1263.691040
33
475.641510
0
3DFACE
8
0
10
845.393982
20
1263.691040
30
475.641510
11
828.905396
21
1266.316040
31
476.869385
12
835.152527
22
1265.338013
32
476.103485
13
835.152527
23
1265.338013
33
476.103485
0
3DFACE
8
0
10
845.393982
20
1263.691040
30
475.641510
11
835.152527
21
1265.338013
31
476.103485
12
840.682922
22
1264.468994
32
475.489014
13
840.682922
23
1264.468994
33
475.489014
0
3DFACE
8
0
10
845.393982
20
1263.691040
30
475.641510
11
840.682922
21
1264.468994
31
475.489014
12
853.167175
22
1262.458984
32
474.965912
13
853.167175
23
1262.458984
33
474.965912
0
3DFACE
8
0
10
853.167175
20
1262.458984
30
474.965912
11
840.682922
21
1264.468994
31
475.489014
12
847.786194
22
1263.347046
32
474.792206
13
847.786194
23
1263.347046
33
474.792206
0
3DFACE
8
0
10
853.167175
20
1262.458984
30
474.965912
11
847.786194
21
1263.347046
31
474.792206
12
859.396790
22
1261.464966
32
474.541992
13
859.396790
23
1261.464966
33
474.541992
0
3DFACE
8
0
10
859.396790
20
1261.464966
30
474.541992
11
847.786194
21
1263.347046
31
474.792206
12
850.006287
22
1262.994995
32
474.596985
13
850.006287
23
1262.994995
33
474.596985
0
3DFACE
8
0
10
856.246521
20
1262.003052
30
474.116699
11
862.476929
21
1261.005981
31
473.753387
12
868.811096
22
1259.983032
32
473.541290
13
868.811096
23
1259.983032
33
473.541290
0
3DFACE
8
0
10
856.246521
20
1262.003052
30
474.116699
11
868.811096
21
1259.983032
31
473.541290
12
868.815125
22
1259.947998
32
474.165314
13
868.815125
23
1259.947998
33
474.165314
0
3DFACE
8
0
10
856.246521
20
1262.003052
30
474.116699
11
868.815125
21
1259.947998
31
474.165314
12
865.361572
22
1260.506958
32
474.256409
13
865.361572
23
1260.506958
33
474.256409
0
3DFACE
8
0
10
856.246521
20
1262.003052
30
474.116699
11
865.361572
21
1260.506958
31
474.256409
12
859.396790
22
1261.464966
32
474.541992
13
859.396790
23
1261.464966
33
474.541992
0
3DFACE
8
0
10
856.246521
20
1262.003052
30
474.116699
11
859.396790
21
1261.464966
31
474.541992
12
850.006287
22
1262.994995
32
474.596985
13
850.006287
23
1262.994995
33
474.596985
0
3DFACE
8
0
10
781.512085
20
1273.724976
30
482.881989
11
782.899475
21
1273.494995
31
482.941711
12
783.491821
22
1273.385986
32
483.171295
13
783.491821
23
1273.385986
33
483.171295
0
3DFACE
8
0
10
785.419617
20
1273.828003
30
469.282806
11
783.761719
21
1274.084961
31
469.542999
12
784.583618
22
1273.959961
32
469.364899
13
784.583618
23
1273.959961
33
469.364899
0
3DFACE
8
0
10
785.335876
20
1273.031982
30
484.131104
11
784.540527
21
1273.166016
31
484.059998
12
785.362122
22
1273.062012
32
483.507385
13
785.362122
23
1273.062012
33
483.507385
0
3DFACE
8
0
10
785.362122
20
1273.062012
30
483.507385
11
784.540527
21
1273.166016
31
484.059998
12
783.758118
22
1273.302002
32
483.901794
13
783.758118
23
1273.302002
33
483.901794
0
3DFACE
8
0
10
785.362122
20
1273.062012
30
483.507385
11
783.758118
21
1273.302002
31
483.901794
12
782.998230
22
1273.439941
32
483.658386
13
782.998230
23
1273.439941
33
483.658386
0
3DFACE
8
0
10
782.899475
20
1273.494995
30
482.941711
11
781.512085
21
1273.724976
31
482.881989
12
782.331787
22
1273.603027
32
482.656403
13
782.331787
23
1273.603027
33
482.656403
0
3DFACE
8
0
10
782.331787
20
1273.603027
30
482.656403
11
781.512085
21
1273.724976
31
482.881989
12
780.814270
22
1273.868042
32
482.342194
13
780.814270
23
1273.868042
33
482.342194
0
3DFACE
8
0
10
782.331787
20
1273.603027
30
482.656403
11
780.814270
21
1273.868042
31
482.342194
12
781.793884
22
1273.708984
32
482.317902
13
781.793884
23
1273.708984
33
482.317902
0
3DFACE
8
0
10
781.793884
20
1273.708984
30
482.317902
11
780.814270
21
1273.868042
31
482.342194
12
781.289612
22
1273.812988
32
481.928589
13
781.289612
23
1273.812988
33
481.928589
0
3DFACE
8
0
10
781.289612
20
1273.812988
30
481.928589
11
780.814270
21
1273.868042
31
482.342194
12
780.186279
22
1274.004028
32
481.721191
13
780.186279
23
1274.004028
33
481.721191
0
3DFACE
8
0
10
781.289612
20
1273.812988
30
481.928589
11
780.186279
21
1274.004028
31
481.721191
12
780.824524
22
1273.911987
32
481.492401
13
780.824524
23
1273.911987
33
481.492401
0
3DFACE
8
0
10
780.824524
20
1273.911987
30
481.492401
11
780.186279
21
1274.004028
31
481.721191
12
779.637024
22
1274.131958
32
481.027710
13
779.637024
23
1274.131958
33
481.027710
0
3DFACE
8
0
10
780.824524
20
1273.911987
30
481.492401
11
779.637024
21
1274.131958
31
481.027710
12
780.402527
22
1274.008057
32
481.013306
13
780.402527
23
1274.008057
33
481.013306
0
3DFACE
8
0
10
780.402527
20
1274.008057
30
481.013306
11
779.637024
21
1274.131958
31
481.027710
12
780.027588
22
1274.097046
32
480.495605
13
780.027588
23
1274.097046
33
480.495605
0
3DFACE
8
0
10
780.027588
20
1274.097046
30
480.495605
11
779.637024
21
1274.131958
31
481.027710
12
779.174377
22
1274.248047
32
480.272003
13
779.174377
23
1274.248047
33
480.272003
0
3DFACE
8
0
10
780.027588
20
1274.097046
30
480.495605
11
779.174377
21
1274.248047
31
480.272003
12
779.703125
22
1274.180054
32
479.943909
13
779.703125
23
1274.180054
33
479.943909
0
3DFACE
8
0
10
779.703125
20
1274.180054
30
479.943909
11
779.174377
21
1274.248047
31
480.272003
12
778.805420
22
1274.353027
32
479.464691
13
778.805420
23
1274.353027
33
479.464691
0
3DFACE
8
0
10
779.703125
20
1274.180054
30
479.943909
11
778.805420
21
1274.353027
31
479.464691
12
779.432007
22
1274.255981
32
479.363190
13
779.432007
23
1274.255981
33
479.363190
0
3DFACE
8
0
10
779.432007
20
1274.255981
30
479.363190
11
778.805420
21
1274.353027
31
479.464691
12
779.216614
22
1274.323975
32
478.758606
13
779.216614
23
1274.323975
33
478.758606
0
3DFACE
8
0
10
779.216614
20
1274.323975
30
478.758606
11
778.805420
21
1274.353027
31
479.464691
12
778.534973
22
1274.442993
32
478.617615
13
778.534973
23
1274.442993
33
478.617615
0
3DFACE
8
0
10
779.216614
20
1274.323975
30
478.758606
11
778.534973
21
1274.442993
31
478.617615
12
779.058777
22
1274.384033
32
478.135712
13
779.058777
23
1274.384033
33
478.135712
0
3DFACE
8
0
10
779.058777
20
1274.384033
30
478.135712
11
778.534973
21
1274.442993
31
478.617615
12
778.367188
22
1274.517944
32
477.743011
13
778.367188
23
1274.517944
33
477.743011
0
3DFACE
8
0
10
779.058777
20
1274.384033
30
478.135712
11
778.367188
21
1274.517944
31
477.743011
12
778.960083
22
1274.435059
32
477.499786
13
778.960083
23
1274.435059
33
477.499786
0
3DFACE
8
0
10
778.960083
20
1274.435059
30
477.499786
11
778.367188
21
1274.517944
31
477.743011
12
778.921387
22
1274.475952
32
476.856903
13
778.921387
23
1274.475952
33
476.856903
0
3DFACE
8
0
10
778.921387
20
1274.475952
30
476.856903
11
778.367188
21
1274.517944
31
477.743011
12
778.304382
22
1274.577026
32
476.853394
13
778.304382
23
1274.577026
33
476.853394
0
3DFACE
8
0
10
778.921387
20
1274.475952
30
476.856903
11
778.304382
21
1274.577026
31
476.853394
12
778.943115
22
1274.506958
32
476.212585
13
778.943115
23
1274.506958
33
476.212585
0
3DFACE
8
0
10
778.943115
20
1274.506958
30
476.212585
11
778.304382
21
1274.577026
31
476.853394
12
778.347717
22
1274.618042
32
475.961700
13
778.347717
23
1274.618042
33
475.961700
0
3DFACE
8
0
10
778.943115
20
1274.506958
30
476.212585
11
778.347717
21
1274.618042
31
475.961700
12
779.024780
22
1274.529053
32
475.572815
13
779.024780
23
1274.529053
33
475.572815
0
3DFACE
8
0
10
779.024780
20
1274.529053
30
475.572815
11
778.347717
21
1274.618042
31
475.961700
12
778.496277
22
1274.641968
32
475.080688
13
778.496277
23
1274.641968
33
475.080688
0
3DFACE
8
0
10
779.024780
20
1274.529053
30
475.572815
11
778.496277
21
1274.641968
31
475.080688
12
779.166077
22
1274.540039
32
474.943115
13
779.166077
23
1274.540039
33
474.943115
0
3DFACE
8
0
10
779.166077
20
1274.540039
30
474.943115
11
778.496277
21
1274.641968
31
475.080688
12
779.365417
22
1274.541016
32
474.329193
13
779.365417
23
1274.541016
33
474.329193
0
3DFACE
8
0
10
779.365417
20
1274.541016
30
474.329193
11
778.496277
21
1274.641968
31
475.080688
12
778.747986
22
1274.647949
32
474.223206
13
778.747986
23
1274.647949
33
474.223206
0
3DFACE
8
0
10
779.365417
20
1274.541016
30
474.329193
11
778.747986
21
1274.647949
31
474.223206
12
779.620972
22
1274.531982
32
473.736694
13
779.620972
23
1274.531982
33
473.736694
0
3DFACE
8
0
10
779.620972
20
1274.531982
30
473.736694
11
778.747986
21
1274.647949
31
474.223206
12
779.099304
22
1274.635010
32
473.401489
13
779.099304
23
1274.635010
33
473.401489
0
3DFACE
8
0
10
779.620972
20
1274.531982
30
473.736694
11
779.099304
21
1274.635010
31
473.401489
12
779.930725
22
1274.511963
32
473.170685
13
779.930725
23
1274.511963
33
473.170685
0
3DFACE
8
0
10
779.930725
20
1274.511963
30
473.170685
11
779.099304
21
1274.635010
31
473.401489
12
780.291687
22
1274.482056
32
472.636505
13
780.291687
23
1274.482056
33
472.636505
0
3DFACE
8
0
10
780.291687
20
1274.482056
30
472.636505
11
779.099304
21
1274.635010
31
473.401489
12
779.545227
22
1274.604980
32
472.627502
13
779.545227
23
1274.604980
33
472.627502
0
3DFACE
8
0
10
780.291687
20
1274.482056
30
472.636505
11
779.545227
21
1274.604980
31
472.627502
12
780.700623
22
1274.442993
32
472.138794
13
780.700623
23
1274.442993
33
472.138794
0
3DFACE
8
0
10
780.700623
20
1274.442993
30
472.138794
11
779.545227
21
1274.604980
31
472.627502
12
780.078979
22
1274.557007
32
471.912415
13
780.078979
23
1274.557007
33
471.912415
0
3DFACE
8
0
10
780.700623
20
1274.442993
30
472.138794
11
780.078979
21
1274.557007
31
471.912415
12
781.153992
22
1274.394043
32
471.682098
13
781.153992
23
1274.394043
33
471.682098
0
3DFACE
8
0
10
781.153992
20
1274.394043
30
471.682098
11
780.078979
21
1274.557007
31
471.912415
12
781.647583
22
1274.334961
32
471.270386
13
781.647583
23
1274.334961
33
471.270386
0
3DFACE
8
0
10
781.647583
20
1274.334961
30
471.270386
11
780.078979
21
1274.557007
31
471.912415
12
780.693176
22
1274.491943
32
471.266388
13
780.693176
23
1274.491943
33
471.266388
0
3DFACE
8
0
10
781.647583
20
1274.334961
30
471.270386
11
780.693176
21
1274.491943
31
471.266388
12
782.177185
22
1274.269043
32
470.907501
13
782.177185
23
1274.269043
33
470.907501
0
3DFACE
8
0
10
782.177185
20
1274.269043
30
470.907501
11
780.693176
21
1274.491943
31
471.266388
12
781.378906
22
1274.411011
32
470.698914
13
781.378906
23
1274.411011
33
470.698914
0
3DFACE
8
0
10
782.177185
20
1274.269043
30
470.907501
11
781.378906
21
1274.411011
31
470.698914
12
782.737915
22
1274.193970
32
470.596588
13
782.737915
23
1274.193970
33
470.596588
0
3DFACE
8
0
10
782.737915
20
1274.193970
30
470.596588
11
781.378906
21
1274.411011
31
470.698914
12
783.324524
22
1274.112061
32
470.340393
13
783.324524
23
1274.112061
33
470.340393
0
3DFACE
8
0
10
783.324524
20
1274.112061
30
470.340393
11
781.378906
21
1274.411011
31
470.698914
12
782.126221
22
1274.314941
32
470.218109
13
782.126221
23
1274.314941
33
470.218109
0
3DFACE
8
0
10
783.324524
20
1274.112061
30
470.340393
11
782.126221
21
1274.314941
31
470.218109
12
783.932129
22
1274.024048
32
470.141388
13
783.932129
23
1274.024048
33
470.141388
0
3DFACE
8
0
10
782.269592
20
1273.576050
30
483.332611
11
781.512085
21
1273.724976
31
482.881989
12
783.491821
22
1273.385986
32
483.171295
13
783.491821
23
1273.385986
33
483.171295
0
3DFACE
8
0
10
782.269592
20
1273.576050
30
483.332611
11
783.491821
21
1273.385986
31
483.171295
12
784.103271
22
1273.276001
32
483.342987
13
784.103271
23
1273.276001
33
483.342987
0
3DFACE
8
0
10
782.269592
20
1273.576050
30
483.332611
11
784.103271
21
1273.276001
31
483.342987
12
784.728577
22
1273.167969
32
483.455414
13
784.728577
23
1273.167969
33
483.455414
0
3DFACE
8
0
10
782.269592
20
1273.576050
30
483.332611
11
784.728577
21
1273.167969
31
483.455414
12
785.362122
22
1273.062012
32
483.507385
13
785.362122
23
1273.062012
33
483.507385
0
3DFACE
8
0
10
782.269592
20
1273.576050
30
483.332611
11
785.362122
21
1273.062012
31
483.507385
12
782.998230
22
1273.439941
32
483.658386
13
782.998230
23
1273.439941
33
483.658386
0
3DFACE
8
0
10
782.924316
20
1274.204956
30
469.830902
11
783.761719
21
1274.084961
31
469.542999
12
785.419617
22
1273.828003
32
469.282806
13
785.419617
23
1273.828003
33
469.282806
0
3DFACE
8
0
10
782.924316
20
1274.204956
30
469.830902
11
785.419617
21
1273.828003
31
469.282806
12
785.438721
22
1273.791016
32
469.906403
13
785.438721
23
1273.791016
33
469.906403
0
3DFACE
8
0
10
782.924316
20
1274.204956
30
469.830902
11
785.438721
21
1273.791016
31
469.906403
12
784.679077
22
1273.911011
32
469.980713
13
784.679077
23
1273.911011
33
469.980713
0
3DFACE
8
0
10
782.924316
20
1274.204956
30
469.830902
11
784.679077
21
1273.911011
31
469.980713
12
783.932129
22
1274.024048
32
470.141388
13
783.932129
23
1274.024048
33
470.141388
0
3DFACE
8
0
10
782.924316
20
1274.204956
30
469.830902
11
783.932129
21
1274.024048
31
470.141388
12
782.126221
22
1274.314941
32
470.218109
13
782.126221
23
1274.314941
33
470.218109
0
ENDSEC
0
EOF
